<svg width="100" height="100" viewBox="0 0 100 100" fill="none" xmlns="http://www.w3.org/2000/svg">
<circle cx="50" cy="50" r="50" fill="#E6F5FD"/>
<g clip-path="url(#clip0_5279_6244)">
<path d="M48.506 34.8964C50.0266 32.3978 52.1764 31.7475 54.8501 31.7957C61.4652 31.9161 68.0833 31.8348 74.7014 31.8348C76.8362 31.8348 76.9295 31.9251 76.9325 34.0023C76.9325 35.624 77.7575 36.4318 79.4076 36.4257C81.1318 36.4197 81.995 37.2907 81.997 39.0388C81.997 51.3184 81.997 63.601 81.997 75.8807C81.997 77.9127 81.9097 78 79.8682 78C58.9631 78 38.058 78 17.1559 78C15.0964 78 15 77.9037 15 75.9168C15 63.3843 15 50.8548 15 38.3223C15 36.1337 15.012 36.1247 17.1709 36.1217C19.9681 36.1187 20.0133 36.1217 20.0434 33.3942C20.0584 32.193 20.5853 31.8017 21.6964 31.8288C23.1507 31.8679 24.611 31.7415 26.0563 31.8649C27.3269 31.9763 27.5286 31.4585 27.5166 30.3386C27.4654 24.9258 27.4925 19.513 27.4955 14.0972C27.4985 11.0958 28.5795 10.006 31.5543 10.003C33.3579 10.003 35.1644 9.99401 36.968 10.003C39.4249 10.0181 40.6625 11.2162 40.6745 13.7089C40.7016 19.224 40.7197 24.7362 40.6594 30.2513C40.6444 31.4555 40.8913 31.9944 42.198 31.8378C44.8628 31.5157 47.0036 32.4489 48.509 34.8934L48.506 34.8964ZM38.1724 45.9207C38.7023 45.436 38.4946 44.7948 38.4946 44.2198C38.5096 36.9526 38.5066 29.6823 38.5066 22.4151C38.5066 20.7634 37.6916 19.9696 36.0617 20.0339C34.7278 20.0278 33.394 20.0248 32.0601 20.0188C30.4422 19.9767 29.6323 20.7804 29.6303 22.4302C29.6303 29.6944 29.6243 36.9616 29.6393 44.2258C29.6393 44.7948 29.4075 45.442 29.9765 45.9117C30.7112 47.2724 31.4037 48.6572 32.1926 49.9848C32.7587 50.9361 35.3933 50.9421 35.9503 49.9998C36.7362 48.6692 37.4347 47.2874 38.1724 45.9267V45.9207ZM40.7167 33.912C40.4246 34.0204 40.5842 34.189 40.6594 34.3455C40.6775 38.2591 40.6956 42.1727 40.7136 46.0863C39.0666 48.9402 37.4166 51.7941 35.7696 54.648C34.6646 56.5596 33.4813 56.5747 32.3853 54.6751C30.7353 51.8212 29.1034 48.9582 27.4624 46.0983C27.4624 43.3919 27.4895 40.6855 27.4594 37.9791C27.4443 36.6907 28.0676 35.0168 27.2245 34.2221C26.3995 33.4484 24.7345 34.0926 23.4458 33.9752C22.5003 33.8879 22.1631 34.1559 22.1661 35.1884C22.2052 46.4144 22.2083 57.6434 22.1631 68.8693C22.1601 70.0013 22.5696 70.1488 23.5481 70.1397C28.7119 70.0946 33.8757 70.0555 39.0365 70.1397C41.8608 70.1849 44.8628 69.3932 47.4311 71.8617C47.4311 67.7254 47.4311 63.9232 47.4311 60.118C47.4311 53.0494 47.4492 45.9839 47.4221 38.9154C47.41 35.7574 45.6065 33.9903 42.5202 33.9813C41.921 33.9813 41.3219 33.9391 40.7197 33.915L40.7167 33.912ZM49.5689 71.7774C51.1195 70.2842 52.7033 70.0886 54.4105 70.1006C60.7757 70.1428 67.1409 70.1036 73.5031 70.1307C74.3762 70.1337 74.8369 70.0615 74.8339 68.9596C74.7917 57.6855 74.7978 46.4114 74.8279 35.1343C74.8279 34.201 74.5659 33.9572 73.6476 33.9602C66.9813 33.9963 60.318 33.9933 53.6518 33.9692C52.3721 33.9632 51.4447 34.5021 50.7221 35.4865C49.9272 36.5672 49.5478 37.7624 49.5538 39.1261C49.5809 45.6407 49.5659 52.1553 49.5659 58.6699C49.5659 62.9177 49.5659 67.1654 49.5659 71.7774H49.5689ZM17.1348 56.9901C17.1348 62.8514 17.1408 68.7128 17.1288 74.5741C17.1288 75.3177 17.0655 75.8987 18.1675 75.8957C27.5377 75.8566 36.9048 75.8626 46.2749 75.8837C47.2354 75.8837 47.2294 75.5495 46.9102 74.818C46.1665 73.108 44.9531 72.2531 43.0773 72.2501C36.1641 72.244 29.2479 72.2501 22.3347 72.2471C20.1397 72.2471 20.0614 72.1658 20.0614 69.9531C20.0614 59.832 20.0494 49.7139 20.0795 39.5927C20.0825 38.5029 19.8988 37.9581 18.6101 37.952C17.3425 37.946 17.1107 38.4367 17.1197 39.5536C17.1619 45.3638 17.1378 51.1769 17.1378 56.9871L17.1348 56.9901ZM79.8803 57.1918C79.8803 51.3756 79.8381 45.5624 79.9134 39.7463C79.9285 38.4969 79.4949 38.2922 78.3808 38.2501C77.1493 38.2019 76.9115 38.6324 76.9175 39.7703C76.9596 49.747 76.9416 59.7206 76.9416 69.6972C76.9416 71.3991 76.0674 72.2491 74.319 72.2471C67.5504 72.2471 60.7817 72.2862 54.0161 72.223C52.2125 72.2049 51.1105 73.0328 50.2614 74.4688C49.6562 75.4923 49.7315 75.9047 51.1015 75.8957C60.2247 75.8475 69.3509 75.8506 78.4742 75.8957C79.5973 75.9017 79.9164 75.6157 79.9044 74.4808C79.8472 68.7158 79.8773 62.9508 79.8803 57.1858V57.1918ZM33.942 17.8513C37.1196 17.8513 38.6331 16.4655 38.4825 13.6938C38.4735 13.5433 38.4825 13.3928 38.4614 13.2453C38.3621 12.5559 37.9646 12.1435 37.2661 12.1374C35.1614 12.1164 33.0598 12.1224 30.9551 12.1254C30.3318 12.1254 29.8049 12.4295 29.7296 13.0255C29.54 14.5127 29.2419 16.1684 29.826 17.4659C30.2686 18.4443 31.8373 17.6857 32.8912 17.8453C33.2344 17.8964 33.5897 17.8543 33.942 17.8543V17.8513Z" fill="#35BBE3"/>
<path d="M27.4629 46.0921C29.1039 48.952 30.7359 51.8149 32.3859 54.6688C33.4849 56.5684 34.6682 56.5534 35.7702 54.6417C37.4172 51.7878 39.0672 48.9339 40.7142 46.08C41.3585 45.8001 41.1026 45.219 41.1086 44.7645C41.1327 42.612 41.1147 40.4595 41.1237 38.304C41.1237 37.9157 40.9882 37.3557 41.4067 37.2143C42.2137 36.9463 43.1109 36.9313 43.9149 37.2082C44.6495 37.4581 44.4207 38.2167 44.4237 38.7887C44.4327 47.6515 44.4087 56.5142 44.4568 65.377C44.4629 66.5812 44.0985 66.9033 42.9242 66.8913C37.7153 66.8341 32.5093 66.8672 27.3003 66.8642C25.3643 66.8642 25.2077 66.7136 25.1897 64.7117C25.1716 62.7669 25.84 60.8071 25.4336 58.8955C24.7471 55.6683 25.545 52.4562 25.2619 49.2229C24.9428 45.5562 25.0572 41.8353 25.4667 38.1475C25.5209 37.6448 25.4336 37.1119 26.1863 37.0878C27.0324 37.0607 26.9902 37.6417 26.9902 38.2077C26.9902 40.4114 26.9782 42.615 26.9993 44.8186C27.0023 45.2762 26.7674 45.8633 27.4599 46.0891L27.4629 46.0921ZM30.212 60.5723C30.5672 59.5849 29.8657 59.6692 29.1461 59.612C28.2488 59.5427 28.0983 59.9221 28.0802 60.7259C28.0621 61.6169 28.4114 61.7765 29.2063 61.7885C30.0765 61.8006 30.4107 61.5116 30.2089 60.5723H30.212ZM34.6923 61.7193C35.4992 61.9812 35.7461 61.6019 35.7431 60.7379C35.7401 59.9492 35.6106 59.5759 34.6983 59.603C33.9094 59.627 33.527 59.7444 33.5752 60.6566C33.6143 61.4092 33.6354 61.9752 34.6923 61.7193ZM40.5456 59.6541C39.8019 59.5488 39.299 59.6361 39.3593 60.6115C39.4044 61.334 39.3894 61.8427 40.3619 61.7885C41.0906 61.7464 41.5964 61.7434 41.5211 60.777C41.4669 60.0846 41.5543 59.4284 40.5456 59.6541Z" fill="#E1E5EB"/>
<path d="M49.5717 71.7744C49.5717 67.1624 49.5717 62.9146 49.5717 58.6669C49.5717 52.1523 49.5867 45.6377 49.5596 39.1231C49.5536 37.7563 49.936 36.5642 50.7279 35.4834C51.4505 34.499 52.3779 33.9601 53.6576 33.9662C60.3238 33.9933 66.9871 33.9963 73.6534 33.9571C74.5717 33.9511 74.8337 34.198 74.8337 35.1312C74.8006 46.4053 74.7945 57.6795 74.8397 68.9566C74.8427 70.0614 74.382 70.1307 73.5089 70.1277C67.1437 70.1036 60.7785 70.1397 54.4163 70.0976C52.7091 70.0855 51.1253 70.2812 49.5747 71.7744H49.5717ZM52.5646 51.9686C52.5646 56.4301 52.6007 60.8916 52.5405 65.3501C52.5254 66.5091 52.8235 66.9095 54.046 66.8944C59.4597 66.8312 64.8734 66.8372 70.2871 66.8914C71.4373 66.9035 71.8468 66.6235 71.8378 65.3922C71.7655 56.382 71.9221 47.3687 71.5517 38.3614C71.5066 37.2355 71.07 37.0609 70.1065 37.0669C64.7921 37.1 59.4808 37.1151 54.1664 37.0609C52.8898 37.0489 52.5315 37.5215 52.5465 38.7377C52.6007 43.148 52.5676 47.5583 52.5676 51.9686H52.5646Z" fill="#FCFDFD"/>
<path d="M27.4615 46.0923C26.7659 45.8695 27.0038 45.2794 27.0008 44.8218C26.9797 42.6182 26.9918 40.4145 26.9918 38.2109C26.9918 37.6449 27.0339 37.0639 26.1878 37.091C25.4351 37.1151 25.5254 37.651 25.4682 38.1507C25.0587 41.8385 24.9473 45.5594 25.2635 49.2261C25.5435 52.4624 24.7486 55.6715 25.4351 58.8987C25.8416 60.8103 25.1731 62.7671 25.1912 64.7149C25.2093 66.7168 25.3689 66.8674 27.3019 66.8674C32.5109 66.8674 37.7198 66.8373 42.9258 66.8945C44.1001 66.9065 44.4644 66.5844 44.4584 65.3802C44.4102 56.5174 44.4343 47.6547 44.4253 38.7919C44.4253 38.2199 44.6511 37.4643 43.9164 37.2114C43.1125 36.9375 42.2182 36.9495 41.4083 37.2175C40.9897 37.3559 41.1252 37.9189 41.1252 38.3072C41.1162 40.4597 41.1343 42.6152 41.1102 44.7677C41.1042 45.2252 41.3601 45.8033 40.7157 46.0832C40.6977 42.1696 40.6796 38.2561 40.6615 34.3455C40.6796 34.201 40.7007 34.0565 40.7188 33.912C41.3179 33.9361 41.9171 33.9752 42.5193 33.9782C45.6055 33.9872 47.4121 35.7544 47.4212 38.9123C47.4483 45.9809 47.4302 53.0464 47.4302 60.1149C47.4302 63.9201 47.4302 67.7253 47.4302 71.8587C44.8618 69.3901 41.8569 70.1819 39.0356 70.1367C33.8748 70.0524 28.711 70.0915 23.5472 70.1367C22.5687 70.1457 22.1562 69.9982 22.1622 68.8663C22.2073 57.6403 22.2043 46.4114 22.1652 35.1854C22.1622 34.1498 22.4994 33.8849 23.4448 33.9722C24.7335 34.0896 26.4016 33.4454 27.2236 34.219C28.0667 35.0108 27.4434 36.6876 27.4585 37.9761C27.4916 40.6825 27.4645 43.3889 27.4615 46.0953V46.0923Z" fill="#FCFDFD"/>
<path d="M17.1355 56.9902C17.1355 51.18 17.1566 45.3669 17.1174 39.5567C17.1084 38.4368 17.3433 37.9491 18.6079 37.9551C19.8935 37.9612 20.0802 38.5091 20.0772 39.5958C20.0471 49.7139 20.0591 59.8351 20.0591 69.9562C20.0591 72.1689 20.1404 72.2502 22.3324 72.2502C29.2456 72.2502 36.1618 72.2471 43.075 72.2532C44.9508 72.2532 46.1642 73.1111 46.9079 74.8211C47.2271 75.5526 47.2331 75.8898 46.2726 75.8868C36.9025 75.8657 27.5354 75.8597 18.1652 75.8988C17.0662 75.9048 17.1265 75.3208 17.1265 74.5772C17.1385 68.7159 17.1325 62.8545 17.1325 56.9932L17.1355 56.9902Z" fill="#D7F9FF"/>
<path d="M79.8768 57.1918C79.8768 62.9568 79.8437 68.7218 79.9009 74.4868C79.9129 75.6217 79.5938 75.9077 78.4707 75.9017C69.3475 75.8535 60.2212 75.8535 51.098 75.9017C49.728 75.9077 49.6527 75.4983 50.2579 74.4747C51.107 73.0358 52.209 72.2109 54.0126 72.229C60.7813 72.2952 67.5499 72.253 74.3155 72.253C76.0639 72.253 76.9381 71.4031 76.9381 69.7032C76.9381 59.7266 76.9562 49.7529 76.914 39.7763C76.908 38.6384 77.1459 38.2079 78.3773 38.256C79.4914 38.2982 79.925 38.5029 79.9099 39.7522C79.8377 45.5654 79.8768 51.3816 79.8768 57.1978V57.1918Z" fill="#D7F9FF"/>
<path d="M32.0625 20.0156C33.3964 20.0216 34.7302 20.0247 36.0641 20.0307C36.046 28.5984 36.0249 37.1631 36.0039 45.7309C34.7152 45.8784 33.4265 45.8814 32.1378 45.7309C32.1318 44.5267 32.1257 43.3255 32.1227 42.1213C32.1016 34.7548 32.0836 27.3852 32.0625 20.0186V20.0156Z" fill="#32A1D7"/>
<path d="M32.0633 20.0158C32.0843 27.3824 32.1024 34.752 32.1235 42.1185C32.1265 43.3227 32.1325 44.5239 32.1385 45.7281C31.4189 45.7883 30.6993 45.8455 29.9797 45.9057C29.4106 45.4391 29.6424 44.7888 29.6424 44.2198C29.6274 36.9556 29.6334 29.6884 29.6334 22.4242C29.6334 20.7744 30.4434 19.9707 32.0633 20.0128V20.0158Z" fill="#FCFDFD"/>
<path d="M36.0078 45.7309C36.0289 37.1632 36.047 28.5985 36.068 20.0307C37.698 19.9685 38.5129 20.7623 38.5129 22.412C38.5129 29.6792 38.5159 36.9495 38.5009 44.2167C38.5009 44.7917 38.7087 45.4329 38.1787 45.9176C37.4561 45.8544 36.7335 45.7911 36.0108 45.7309H36.0078Z" fill="#FCFDFD"/>
<path d="M33.9427 17.8509C33.5934 17.8509 33.2351 17.8961 32.8919 17.8419C31.838 17.6823 30.2693 18.438 29.8267 17.4626C29.2396 16.1651 29.5407 14.5123 29.7304 13.0222C29.8056 12.4291 30.3326 12.122 30.9558 12.122C33.0605 12.122 35.1621 12.113 37.2668 12.1341C37.9654 12.1401 38.3628 12.5525 38.4622 13.2419C38.4832 13.3894 38.4772 13.543 38.4832 13.6905C38.6338 16.4621 37.1203 17.8479 33.9427 17.8479V17.8509Z" fill="#FFD701"/>
<path d="M36.0074 45.731C36.73 45.7943 37.4526 45.8575 38.1753 45.9177C37.4376 47.2784 36.739 48.6602 35.9532 49.9908C35.3961 50.9331 32.7585 50.9271 32.1955 49.9758C31.4066 48.6482 30.7141 47.2634 29.9824 45.9056C30.702 45.8454 31.4217 45.7882 32.1413 45.728C33.43 45.8816 34.7187 45.8755 36.0074 45.728V45.731Z" fill="#FFD701"/>
<path d="M40.7197 33.9121C40.7016 34.0566 40.6805 34.2041 40.6624 34.3456C40.5872 34.1861 40.4276 34.0205 40.7197 33.9121Z" fill="#32A1D7"/>
<path d="M52.5677 51.9686C52.5677 47.5583 52.6008 43.148 52.5466 38.7377C52.5315 37.5215 52.8898 37.0458 54.1665 37.0609C59.4808 37.1151 64.7922 37.1 70.1065 37.0669C71.0701 37.0609 71.5066 37.2355 71.5518 38.3614C71.9222 47.3717 71.7686 56.3819 71.8379 65.3922C71.8469 66.6235 71.4404 66.9035 70.2872 66.8914C64.8735 66.8402 59.4598 66.8312 54.0461 66.8944C52.8236 66.9095 52.5255 66.5091 52.5406 65.3501C52.6008 60.8886 52.5647 56.4301 52.5647 51.9686H52.5677ZM68.2247 42.5881C68.2046 41.1551 67.489 40.4386 66.0779 40.4386C63.1452 40.4386 60.2125 40.4266 57.2798 40.4567C56.8432 40.4597 56.1327 40.1376 56.0303 40.848C55.943 41.4501 55.5726 42.2599 56.491 42.6603C56.6265 43.0968 56.9787 43.0938 57.3401 43.0938C60.6491 43.0938 63.9551 43.0938 67.2642 43.0938C67.6827 43.0938 68.0802 43.0878 68.2247 42.5881ZM68.1946 50.3881C68.0621 50.1503 67.8513 50.0329 67.5864 50.0329C64.2472 50.0329 60.908 50.0329 57.5689 50.057C57.4063 50.057 57.2437 50.2497 57.0841 50.352C56.8794 50.5116 56.6746 50.5116 56.4699 50.346C56.3494 50.1052 56.2621 50.1804 56.1899 50.3761C55.4311 52.1884 55.666 52.5737 57.5237 52.5737C60.5738 52.5737 63.6209 52.5707 66.671 52.5737C68.8028 52.5737 68.9293 52.3961 68.1976 50.3912L68.1946 50.3881ZM62.3443 55.4517C60.5437 55.4517 58.7401 55.4909 56.9396 55.4337C56.0995 55.4066 55.9309 55.7528 55.949 56.4963C55.9671 57.1887 56.0333 57.5982 56.9125 57.5861C60.4142 57.541 63.919 57.541 67.4208 57.5861C68.2759 57.5982 68.4053 57.2399 68.4053 56.5174C68.4053 55.813 68.3241 55.4005 67.4479 55.4337C65.7497 55.4969 64.0455 55.4517 62.3443 55.4487V55.4517ZM62.1486 47.5914C63.9009 47.5914 65.6533 47.5493 67.4027 47.6095C68.2337 47.6366 68.4264 47.3054 68.4023 46.5589C68.3843 45.8875 68.3632 45.439 67.4599 45.451C63.9582 45.4992 60.4564 45.4962 56.9516 45.454C56.1266 45.445 55.958 45.7521 55.946 46.4986C55.9309 47.3325 56.1688 47.6426 57.045 47.6095C58.7432 47.5463 60.4474 47.5914 62.1486 47.5884V47.5914ZM62.0402 60.4701C60.3902 60.4701 58.7371 60.4731 57.0871 60.4701C56.4398 60.4701 55.8015 60.3256 55.8376 61.3913C55.8647 62.2704 56.0604 62.6286 57.0149 62.6166C60.4654 62.5684 63.919 62.5925 67.3696 62.6015C68.0139 62.6015 68.5499 62.6015 68.5439 61.6894C68.5378 60.7832 68.1916 60.443 67.2913 60.4641C65.5419 60.5063 63.7895 60.4762 62.0402 60.4731V60.4701Z" fill="#E1E5EB"/>
<path d="M56.4913 42.6571C60.4025 42.633 64.3138 42.612 68.222 42.5879C68.0775 43.0876 67.68 43.0967 67.2615 43.0936C63.9525 43.0876 60.6464 43.0876 57.3374 43.0936C56.9761 43.0936 56.6238 43.0936 56.4883 42.6601L56.4913 42.6571Z" fill="#FCFDFD"/>
<path d="M68.1915 50.391C64.488 50.3789 60.7845 50.3639 57.0811 50.3518C57.2436 50.2495 57.4032 50.0568 57.5658 50.0568C60.905 50.0357 64.2441 50.0357 67.5833 50.0327C67.8483 50.0327 68.059 50.1501 68.1915 50.388V50.391Z" fill="#FCFDFD"/>
<path d="M56.4666 50.3458L56.3281 50.391L56.1836 50.3759C56.2559 50.1802 56.3432 50.105 56.4636 50.3458H56.4666Z" fill="#FCFDFD"/>
<path d="M67.4003 40.1738H57.154C56.3009 40.1738 55.6094 40.8653 55.6094 41.7182C55.6094 42.5711 56.3009 43.2625 57.154 43.2625H67.4003C68.2534 43.2625 68.9449 42.5711 68.9449 41.7182C68.9449 40.8653 68.2534 40.1738 67.4003 40.1738Z" fill="#FFD701"/>
<path d="M67.4003 44.7227H57.154C56.3009 44.7227 55.6094 45.4141 55.6094 46.267C55.6094 47.1199 56.3009 47.8114 57.154 47.8114H67.4003C68.2534 47.8114 68.9449 47.1199 68.9449 46.267C68.9449 45.4141 68.2534 44.7227 67.4003 44.7227Z" fill="#FFD701"/>
<path d="M67.4003 49.7832H57.154C56.3009 49.7832 55.6094 50.4746 55.6094 51.3276C55.6094 52.1805 56.3009 52.8719 57.154 52.8719H67.4003C68.2534 52.8719 68.9449 52.1805 68.9449 51.3276C68.9449 50.4746 68.2534 49.7832 67.4003 49.7832Z" fill="#FFD701"/>
<path d="M67.4003 54.8438H57.154C56.3009 54.8438 55.6094 55.5352 55.6094 56.3881C55.6094 57.241 56.3009 57.9325 57.154 57.9325H67.4003C68.2534 57.9325 68.9449 57.241 68.9449 56.3881C68.9449 55.5352 68.2534 54.8438 67.4003 54.8438Z" fill="#FFD701"/>
<path d="M67.4003 59.9043H57.154C56.3009 59.9043 55.6094 60.5957 55.6094 61.4487C55.6094 62.3016 56.3009 62.993 57.154 62.993H67.4003C68.2534 62.993 68.9449 62.3016 68.9449 61.4487C68.9449 60.5957 68.2534 59.9043 67.4003 59.9043Z" fill="#FFD701"/>
<path d="M30.0702 59.1577H28.5014C28.1522 59.1577 27.8691 59.4408 27.8691 59.7899V61.256C27.8691 61.6051 28.1522 61.8882 28.5014 61.8882H30.0702C30.4194 61.8882 30.7025 61.6051 30.7025 61.256V59.7899C30.7025 59.4408 30.4194 59.1577 30.0702 59.1577Z" fill="#FFD701"/>
<path d="M35.4315 59.1577H33.8628C33.5136 59.1577 33.2305 59.4408 33.2305 59.7899V61.256C33.2305 61.6051 33.5136 61.8882 33.8628 61.8882H35.4315C35.7807 61.8882 36.0638 61.6051 36.0638 61.256V59.7899C36.0638 59.4408 35.7807 59.1577 35.4315 59.1577Z" fill="#FFD701"/>
<path d="M40.7928 59.1577H39.2241C38.8749 59.1577 38.5918 59.4408 38.5918 59.7899V61.256C38.5918 61.6051 38.8749 61.8882 39.2241 61.8882H40.7928C41.142 61.8882 41.4251 61.6051 41.4251 61.256V59.7899C41.4251 59.4408 41.142 59.1577 40.7928 59.1577Z" fill="#FFD701"/>
</g>
<defs>
<clipPath id="clip0_5279_6244">
<rect width="67" height="68" fill="white" transform="translate(15 10)"/>
</clipPath>
</defs>
</svg>
