<svg width="55" height="60" viewBox="0 0 55 60" fill="none" xmlns="http://www.w3.org/2000/svg">
<path d="M5.91106 13.8291H49.6995C51.7075 13.8291 53.3391 15.4606 53.3391 17.4687V47.3861H2.27148V17.4687C2.27148 15.4606 3.90302 13.8291 5.91106 13.8291Z" fill="#D7F9FF"/>
<path d="M35.6186 13.4348H19.4347C18.8012 22.4053 4.94812 26.6963 1.11133 34.8061V46.7528C10.1654 31.8239 24.2934 24.4551 35.6186 13.4348Z" fill="#E9FDFF"/>
<path d="M24.9375 53.1595H32.127C38.8563 44.1473 46.4463 34.7884 53.8748 29.9236V20.6125C42.478 29.4216 38.181 44.8644 24.9375 53.1595Z" fill="#E9FDFF"/>
<path d="M33.8539 52.741H21.0586V58.8248H33.8539V52.741Z" fill="#35BBE3"/>
<path d="M2.26953 47.5774H52.62V49.5735C52.62 51.1452 51.347 52.4182 49.7752 52.4182H5.09035C3.53053 52.4182 2.26953 51.1512 2.26953 49.5974V47.5774Z" fill="#FFD701"/>
<path d="M49.8002 12.9924H45.8917V14.6001H49.8002C51.115 14.6001 52.1847 15.6638 52.1847 16.9906V46.92H2.80247V16.9906C2.80247 15.6638 3.87821 14.6001 5.19897 14.6001H9.11944V12.9924H5.19897C2.99969 12.9924 1.21875 14.7913 1.21875 16.9906V49.3045C1.21875 51.5277 3.00567 53.3027 5.19897 53.3027H20.331V58.3407H14.8806C14.4443 58.3407 14.0917 58.6933 14.0917 59.1415C14.0917 59.5658 14.4443 59.9184 14.8806 59.9184H40.1066C40.5429 59.9184 40.8955 59.5599 40.8955 59.1415C40.8955 58.6933 40.5429 58.3407 40.1066 58.3407H34.6682V53.3027H49.8002C51.9995 53.3027 53.7804 51.5277 53.7804 49.3045V16.9906C53.7804 14.7913 51.9935 12.9924 49.8002 12.9924ZM33.0725 58.3407H21.9267V53.3027H33.0725V58.3407ZM52.1847 49.3105C52.1847 50.6372 51.109 51.7189 49.8002 51.7189H5.19897C3.87223 51.7189 2.80247 50.6313 2.80247 49.3105V48.5097H52.1907V49.3105H52.1847Z" fill="#35BBE3"/>
<path d="M15.2965 40.9675C15.0335 40.9675 14.8184 41.1827 14.8184 41.4516V47.1112H15.7746V41.4516C15.7746 41.1827 15.5534 40.9675 15.2905 40.9675H15.2965Z" fill="#35BBE3"/>
<path d="M8.12447 40.9675C7.86152 40.9675 7.65234 41.1827 7.65234 41.4516V47.1112H8.60856V41.4516C8.60856 41.1827 8.38743 40.9675 8.12447 40.9675Z" fill="#35BBE3"/>
<path d="M5.78836 47.1113V40.9557C5.78836 39.6648 6.83421 38.6189 8.12509 38.6189H11.2746V42.3482C11.2746 42.6171 11.4898 42.8322 11.7467 42.8322C12.0037 42.8322 12.2189 42.6171 12.2189 42.3482V38.6189H15.2907C16.5816 38.6189 17.6274 39.6708 17.6274 40.9557V47.1113H18.5777V40.9557C18.5777 39.1389 17.1015 37.6687 15.2907 37.6687H8.11912C6.30232 37.6687 4.82617 39.1449 4.82617 40.9557V47.1113H5.7764H5.78836Z" fill="#35BBE3"/>
<path d="M8.7207 33.4554C8.7207 35.0749 10.0415 36.4077 11.667 36.4077C13.2926 36.4077 14.6074 35.0749 14.6074 33.4554C14.6074 31.8358 13.2866 30.521 11.667 30.521C10.0474 30.521 8.7207 31.8418 8.7207 33.4554ZM13.6571 33.4554C13.6571 34.549 12.7607 35.4395 11.667 35.4395C10.5734 35.4395 9.67691 34.543 9.67691 33.4554C9.67691 32.3677 10.5674 31.4712 11.667 31.4712C12.7667 31.4712 13.6571 32.3617 13.6571 33.4554Z" fill="#35BBE3"/>
<path d="M31.0875 40.9675C30.8245 40.9675 30.6094 41.1827 30.6094 41.4516V47.1112H31.5656V41.4516C31.5656 41.1827 31.3445 40.9675 31.0815 40.9675H31.0875Z" fill="#35BBE3"/>
<path d="M23.9155 40.9675C23.6525 40.9675 23.4434 41.1827 23.4434 41.4516V47.1112H24.3996V41.4516C24.3996 41.1827 24.1784 40.9675 23.9155 40.9675Z" fill="#35BBE3"/>
<path d="M21.5735 47.1113V40.9557C21.5735 39.6648 22.6194 38.6189 23.9103 38.6189H27.0598V42.3482C27.0598 42.6171 27.2749 42.8322 27.5319 42.8322C27.7889 42.8322 28.004 42.6171 28.004 42.3482V38.6189H31.0759C32.3667 38.6189 33.4126 39.6708 33.4126 40.9557V47.1113H34.3628V40.9557C34.3628 39.1389 32.8867 37.6687 31.0759 37.6687H23.9043C22.0875 37.6687 20.6113 39.1449 20.6113 40.9557V47.1113H21.5616H21.5735Z" fill="#35BBE3"/>
<path d="M24.5137 33.4554C24.5137 35.0749 25.8344 36.4077 27.46 36.4077C29.0856 36.4077 30.4003 35.0749 30.4003 33.4554C30.4003 31.8358 29.0796 30.521 27.46 30.521C25.8404 30.521 24.5137 31.8418 24.5137 33.4554ZM29.4501 33.4554C29.4501 34.549 28.5537 35.4395 27.46 35.4395C26.3663 35.4395 25.4699 34.543 25.4699 33.4554C25.4699 32.3677 26.3604 31.4712 27.46 31.4712C28.5596 31.4712 29.4501 32.3617 29.4501 33.4554Z" fill="#35BBE3"/>
<path d="M46.8844 40.9675C46.6214 40.9675 46.4062 41.1827 46.4062 41.4516V47.1112H47.3625V41.4516C47.3625 41.1827 47.1413 40.9675 46.8784 40.9675H46.8844Z" fill="#35BBE3"/>
<path d="M39.7124 40.9675C39.4494 40.9675 39.2402 41.1827 39.2402 41.4516V47.1112H40.1964V41.4516C40.1964 41.1827 39.9753 40.9675 39.7124 40.9675Z" fill="#35BBE3"/>
<path d="M37.3704 47.1113V40.9557C37.3704 39.6648 38.4162 38.6189 39.7071 38.6189H42.8566V42.3482C42.8566 42.6171 43.0718 42.8322 43.3288 42.8322C43.5857 42.8322 43.8009 42.6171 43.8009 42.3482V38.6189H46.8727C48.1636 38.6189 49.2095 39.6708 49.2095 40.9557V47.1113H50.1597V40.9557C50.1597 39.1389 48.6835 37.6687 46.8727 37.6687H39.7011C37.8843 37.6687 36.4082 39.1449 36.4082 40.9557V47.1113H37.3584H37.3704Z" fill="#35BBE3"/>
<path d="M40.3047 33.4554C40.3047 35.0749 41.6255 36.4077 43.251 36.4077C44.8766 36.4077 46.1914 35.0749 46.1914 33.4554C46.1914 31.8358 44.8706 30.521 43.251 30.521C41.6314 30.521 40.3047 31.8418 40.3047 33.4554ZM45.2411 33.4554C45.2411 34.549 44.3447 35.4395 43.251 35.4395C42.1573 35.4395 41.2609 34.543 41.2609 33.4554C41.2609 32.3677 42.1514 31.4712 43.251 31.4712C44.3507 31.4712 45.2411 32.3617 45.2411 33.4554Z" fill="#35BBE3"/>
<path d="M27.4439 0.854492C27.4439 0.854492 1.39914 6.73518 1.81749 6.90252C2.23583 7.06985 27.5037 12.9924 27.5037 12.9924L53.7875 6.92642L27.4499 0.860465L27.4439 0.854492Z" fill="#D7F9FF"/>
<path d="M41.2553 7.60791H14.0332V17.0923H41.2553V7.60791Z" fill="#D7F9FF"/>
<path d="M13.9121 9.84287V18.3292C13.9121 18.3292 17.725 20.3193 18.0119 20.3193C18.2987 20.3193 26.7911 22.1003 26.9584 22.1003C27.1257 22.1003 33.9985 21.8911 33.9985 21.8911L36.1261 19.3213L38.4269 20.0205L40.0824 19.2018L41.4928 16.7814L41.0804 9.67554L27.6457 12.6159L13.9121 9.84287Z" fill="#FFD701"/>
<path d="M12.9208 17.152C12.9208 20.8155 20.427 22.7698 27.491 22.7698C29.78 22.7698 32.0808 22.5725 34.1965 22.1542C34.567 23.3435 35.6547 24.1802 36.9515 24.1802C38.5592 24.1802 39.874 22.8953 39.874 21.2637C39.874 20.9171 39.8022 20.6183 39.6887 20.3015C41.1589 19.4589 42.0613 18.3951 42.0613 17.1102V10.5064L54.3546 7.70944C54.7251 7.63772 55 7.29111 55 6.89667C55 6.52614 54.7251 6.17951 54.3546 6.07791L27.6763 0.0179289C27.5628 -0.00597631 27.4432 -0.00597631 27.3177 0.0179289L0.651416 6.07791C0.268932 6.17951 0 6.52614 0 6.89667C0 7.29111 0.268932 7.63772 0.651416 7.70944L12.9208 10.5064V17.158V17.152ZM34.1546 20.4928C32.29 20.8633 30.0489 21.1083 27.4851 21.1083C19.4947 21.1083 14.5822 18.8075 14.5822 17.152V15.5444C17.1819 17.4209 22.4351 18.4369 27.4851 18.4369C30.4911 18.4369 33.569 18.0903 36.1149 17.397V18.4847C35.1646 18.7836 34.4116 19.5246 34.1486 20.4868L34.1546 20.4928ZM14.5882 12.8491V10.8709L27.3177 13.7634C27.3655 13.7634 27.4432 13.7874 27.491 13.7874C27.5628 13.7874 27.6165 13.7634 27.6763 13.7634L36.1268 11.8331V15.6938C33.9514 16.3392 31.035 16.7815 27.497 16.7815C19.5067 16.7815 14.5942 14.4806 14.5942 12.8491H14.5882ZM36.9515 22.5247C36.2583 22.5247 35.7025 21.957 35.7025 21.2637C35.7025 20.5705 36.2583 20.0266 36.9515 20.0266C37.6448 20.0266 38.2006 20.5944 38.2006 21.2637C38.2006 21.9331 37.6448 22.5247 36.9515 22.5247ZM40.4058 17.152C40.4058 17.7198 39.8082 18.3652 38.7265 18.9569C38.4516 18.7357 38.1289 18.5863 37.8002 18.4907V16.8592C38.8161 16.4647 39.7006 16.0165 40.4118 15.5265V17.158L40.4058 17.152ZM40.4058 12.8491C40.3939 13.5662 39.4676 14.385 37.7942 15.1021V11.4626L40.4058 10.8709V12.8491ZM4.58383 6.89069L27.491 1.69727L50.3982 6.89069L37.0292 9.93263L27.9273 6.12572C27.509 5.95241 27.0129 6.14963 26.8396 6.57394C26.6544 6.99229 26.8516 7.48832 27.2878 7.66164L34.2383 10.5841L27.497 12.114L4.58981 6.89667L4.58383 6.89069Z" fill="#35BBE3"/>
</svg>
