<svg width="53" height="54" viewBox="0 0 53 54" fill="none" xmlns="http://www.w3.org/2000/svg">
<path d="M49.0255 6.73975H3.97294C2.3731 6.73975 1.07617 8.03668 1.07617 9.63652V42.1288C1.07617 43.7286 2.3731 45.0255 3.97294 45.0255H49.0255C50.6254 45.0255 51.9223 43.7286 51.9223 42.1288V9.63652C51.9223 8.03668 50.6254 6.73975 49.0255 6.73975Z" fill="#D7F9FF"/>
<path d="M34.3286 6.73975H18.7332C18.1228 15.384 4.77344 19.519 1.07617 27.3339V38.8461C9.80104 24.4544 23.4153 17.3593 34.3286 6.73975Z" fill="#E9FDFF"/>
<path d="M24.0371 45.0197H30.9652C37.4498 36.3352 44.7637 27.3166 51.9221 22.6288V13.6562C40.9398 22.145 36.799 37.0262 24.0371 45.0197Z" fill="#E9FDFF"/>
<path d="M49.343 7.51119C50.3451 7.51119 51.1629 8.32897 51.1629 9.33103V42.6583C51.1629 43.6604 50.3451 44.4782 49.343 44.4782H3.65696C2.6549 44.4782 1.83712 43.6604 1.83712 42.6583V9.33103C1.83712 8.32897 2.6549 7.51119 3.65696 7.51119H49.343ZM49.343 5.67407H3.65696C1.63555 5.67407 0 7.30963 0 9.33103V42.6583C0 44.6797 1.63555 46.3153 3.65696 46.3153H49.343C51.3644 46.3153 53 44.6797 53 42.6583V9.33103C53 7.30963 51.3644 5.67407 49.343 5.67407Z" fill="#35BBE3"/>
<path d="M12.4121 40.9538V35.2063L13.4602 33.4441H20.4056L21.782 34.6708L23.1296 33.4441L29.8964 33.6226L31.3016 34.7917L32.8565 33.4441H39.4736L40.493 34.642L40.4584 40.8962L12.4121 40.9538Z" fill="#FFD701"/>
<path d="M23.5713 17.2209H29.2727C30.4187 17.2209 31.3459 18.1481 31.3459 19.2942V23.8495H21.498V19.2942C21.498 18.1481 22.4252 17.2209 23.5713 17.2209Z" fill="#FFD701"/>
<path d="M24.2129 29.9368C24.2129 31.1808 25.2265 32.2059 26.4647 32.2059C27.7028 32.2059 28.7222 31.1808 28.7222 29.9368C28.7222 28.6929 27.7086 27.6851 26.4647 27.6851C25.2207 27.6851 24.2129 28.6929 24.2129 29.9368ZM27.8411 29.9368C27.8411 30.697 27.2248 31.3132 26.4647 31.3132C25.7045 31.3132 25.094 30.697 25.094 29.9368C25.094 29.1766 25.7102 28.5777 26.4647 28.5777C27.2191 28.5777 27.8411 29.1939 27.8411 29.9368Z" fill="#35BBE3"/>
<path d="M17.0582 32.2059C18.2964 32.2059 19.31 31.1808 19.31 29.9368C19.31 28.6929 18.2964 27.6851 17.0582 27.6851C15.82 27.6851 14.7949 28.6929 14.7949 29.9368C14.7949 31.1808 15.8085 32.2059 17.0582 32.2059ZM17.0582 28.5777C17.8126 28.5777 18.4288 29.1939 18.4288 29.9368C18.4288 30.6797 17.8126 31.3132 17.0582 31.3132C16.3038 31.3132 15.6818 30.697 15.6818 29.9368C15.6818 29.1766 16.298 28.5777 17.0582 28.5777Z" fill="#35BBE3"/>
<path d="M35.8807 32.2059C37.1246 32.2059 38.1324 31.1808 38.1324 29.9368C38.1324 28.6929 37.1246 27.6851 35.8807 27.6851C34.6367 27.6851 33.6289 28.6929 33.6289 29.9368C33.6289 31.1808 34.6367 32.2059 35.8807 32.2059ZM35.8807 28.5777C36.6351 28.5777 37.2513 29.1939 37.2513 29.9368C37.2513 30.6797 36.6351 31.3132 35.8807 31.3132C35.1262 31.3132 34.5043 30.697 34.5043 29.9368C34.5043 29.1766 35.1205 28.5777 35.8807 28.5777Z" fill="#35BBE3"/>
<path d="M38.552 32.949H33.2767C32.4186 32.949 31.6584 33.3809 31.2092 34.0374C30.7543 33.3809 29.9999 32.949 29.1418 32.949H23.8665C23.0142 32.949 22.254 33.3809 21.799 34.0374C21.3441 33.3809 20.5897 32.949 19.7316 32.949H14.4679C13.0799 32.949 11.9512 34.0777 11.9512 35.4657V40.1189C11.9512 40.3666 12.147 40.5624 12.3946 40.5624H40.631C40.8728 40.5624 41.0686 40.3666 41.0686 40.1189V35.4657C41.0686 34.0777 39.9399 32.949 38.5577 32.949H38.552ZM19.7201 35.3735C19.4782 35.3735 19.2824 35.5808 19.2824 35.817V39.6697H14.894V35.817C14.894 35.5808 14.6982 35.3735 14.4563 35.3735C14.2145 35.3735 14.0129 35.5808 14.0129 35.817V39.6697H12.8265V35.4657C12.8265 34.5615 13.5579 33.8301 14.4563 33.8301H19.7201C20.6242 33.8301 21.3498 34.5615 21.3498 35.4657V39.6697H20.1635V35.817C20.1635 35.5808 19.9677 35.3735 19.7201 35.3735ZM29.136 35.3735C28.8941 35.3735 28.6983 35.5808 28.6983 35.817V39.6697H24.31V35.817C24.31 35.5808 24.1142 35.3735 23.8665 35.3735C23.6189 35.3735 23.4288 35.5808 23.4288 35.817V39.6697H22.2425V35.4657C22.2425 34.5615 22.9681 33.8301 23.8665 33.8301H29.1418C30.0402 33.8301 30.7716 34.5615 30.7716 35.4657V39.6697H29.5794V35.817C29.5794 35.5808 29.3836 35.3735 29.1418 35.3735H29.136ZM40.176 39.6697H38.9896V35.817C38.9896 35.5808 38.7938 35.3735 38.552 35.3735C38.3101 35.3735 38.1085 35.5808 38.1085 35.817V39.6697H33.7202V35.817C33.7202 35.5808 33.5244 35.3735 33.2825 35.3735C33.0406 35.3735 32.8448 35.5808 32.8448 35.817V39.6697H31.6527V35.4657C31.6527 34.5615 32.3841 33.8301 33.2825 33.8301H38.5577C39.4561 33.8301 40.1817 34.5615 40.1817 35.4657V39.6697H40.176Z" fill="#35BBE3"/>
<path d="M26.4363 16.052C27.709 16.052 28.7399 15.0153 28.7399 13.7484C28.7399 12.4814 27.7033 11.4275 26.4363 11.4275C25.1693 11.4275 24.127 12.4756 24.127 13.7484C24.127 15.0211 25.1636 16.052 26.4363 16.052ZM26.4363 12.3144C27.2253 12.3144 27.8645 12.9594 27.8645 13.7426C27.8645 14.5258 27.2195 15.1708 26.4363 15.1708C25.6531 15.1708 25.0081 14.5316 25.0081 13.7426C25.0081 12.9536 25.6416 12.3144 26.4363 12.3144Z" fill="#35BBE3"/>
<path d="M19.4434 24.2413H20.5089V29.7181C20.5089 29.9542 20.7047 30.1616 20.9465 30.1616C21.1884 30.1616 21.3842 29.9542 21.3842 29.7181V24.2413H31.5373V29.7181C31.5373 29.9542 31.7331 30.1616 31.9808 30.1616C32.2284 30.1616 32.4184 29.9542 32.4184 29.7181V24.2413H33.5587C33.8006 24.2413 34.0022 24.057 34.0022 23.8094C34.0022 23.5618 33.8006 23.366 33.5587 23.366H31.7504V19.4326C31.7504 18.0043 30.5986 16.8525 29.1761 16.8525H23.7454C22.3229 16.8525 21.1654 18.0043 21.1654 19.4326V23.366H19.4377C19.1958 23.366 19 23.5618 19 23.8094C19 24.057 19.1958 24.2413 19.4377 24.2413H19.4434ZM22.058 19.4326C22.058 18.5054 22.8182 17.7394 23.7512 17.7394H26.049V22.5367C26.049 22.7843 26.2448 22.9801 26.4924 22.9801C26.7401 22.9801 26.9301 22.7843 26.9301 22.5367V17.7394H29.1761C30.1149 17.7394 30.875 18.4996 30.875 19.4326V23.366H29.6138V19.8011C29.6138 19.565 29.418 19.3692 29.1761 19.3692C28.9343 19.3692 28.7385 19.565 28.7385 19.8011V23.366H24.1831V19.8011C24.1831 19.565 23.9873 19.3692 23.7454 19.3692C23.5035 19.3692 23.302 19.565 23.302 19.8011V23.366H22.0523V19.4326H22.058Z" fill="#35BBE3"/>
<path d="M51.6603 40.0898H1.13086V44.4782H51.6603V40.0898Z" fill="#35BBE3"/>
<path d="M12.3145 51.1531H40.689" stroke="#35BBE3" stroke-width="4.25" stroke-miterlimit="10" stroke-linecap="round"/>
<path d="M15.3711 2H37.6296" stroke="#35BBE3" stroke-width="3.19" stroke-miterlimit="10" stroke-linecap="round"/>
</svg>
