<svg width="88" height="88" viewBox="0 0 88 88" fill="none" xmlns="http://www.w3.org/2000/svg">
<path d="M43.9396 88C68.2068 88 87.8792 68.3005 87.8792 44C87.8792 19.6995 68.2068 0 43.9396 0C19.6724 0 0 19.6995 0 44C0 68.3005 19.6724 88 43.9396 88Z" fill="#FFDC00"/>
<path d="M39.5571 48.7314C39.5571 51.1085 41.4973 53.0742 43.8712 53.0742C46.2451 53.0742 48.1853 51.1085 48.1853 48.7314C48.1853 46.3542 46.2451 44.4114 43.8712 44.4114C41.4973 44.4114 39.5571 46.3314 39.5571 48.7314ZM46.4962 48.7314C46.4962 50.1942 45.3092 51.3599 43.8712 51.3599C42.4332 51.3599 41.2462 50.1714 41.2462 48.7314C41.2462 47.2914 42.4332 46.1257 43.8712 46.1257C45.3092 46.1257 46.4962 47.2914 46.4962 48.7314Z" fill="#4F2200"/>
<path d="M25.9073 53.0742C28.2812 53.0742 30.2214 51.1085 30.2214 48.7314C30.2214 46.3542 28.2812 44.4114 25.9073 44.4114C23.5335 44.4114 21.5933 46.3314 21.5933 48.7314C21.5933 51.1314 23.5335 53.0742 25.9073 53.0742ZM25.9073 46.1257C27.3454 46.1257 28.5323 47.2914 28.5323 48.7314C28.5323 50.1714 27.3454 51.3599 25.9073 51.3599C24.4693 51.3599 23.2824 50.1714 23.2824 48.7314C23.2824 47.2914 24.4693 46.1257 25.9073 46.1257Z" fill="#4F2200"/>
<path d="M61.8349 53.0742C64.2088 53.0742 66.149 51.1085 66.149 48.7314C66.149 46.3542 64.2317 44.4114 61.8349 44.4114C59.4382 44.4114 57.5437 46.3314 57.5437 48.7314C57.5437 51.1314 59.4611 53.0742 61.8349 53.0742ZM61.8349 46.1257C63.273 46.1257 64.4599 47.2914 64.4599 48.7314C64.4599 50.1714 63.273 51.3599 61.8349 51.3599C60.3969 51.3599 59.21 50.1714 59.21 48.7314C59.21 47.2914 60.3969 46.1257 61.8349 46.1257Z" fill="#4F2200"/>
<path d="M66.948 54.5144H56.8818C55.2384 54.5144 53.8003 55.3373 52.933 56.5944C52.0656 55.3373 50.6275 54.5144 48.9841 54.5144H38.9179C37.2973 54.5144 35.8365 55.3373 34.9691 56.5944C34.1017 55.3373 32.6637 54.5144 31.0202 54.5144H20.9541C18.3063 54.5144 16.1606 56.663 16.1606 59.3144V68.2058C16.1606 68.6858 16.5259 69.0515 17.0052 69.0515H70.8968C71.3533 69.0515 71.7414 68.6858 71.7414 68.2058V59.3144C71.7414 56.663 69.5958 54.5144 66.948 54.5144ZM30.9974 59.1544C30.5409 59.1544 30.1528 59.5658 30.1528 60.0001V67.3601H21.7758V60.0001C21.7758 59.543 21.4106 59.1544 20.9312 59.1544C20.4519 59.1544 20.0867 59.5658 20.0867 60.0001V67.3601H17.8269V59.3144C17.8269 57.5773 19.2193 56.183 20.9312 56.183H30.9974C32.7322 56.183 34.1017 57.5773 34.1017 59.3144V67.3601H31.8419V60.0001C31.8419 59.543 31.4767 59.1544 30.9974 59.1544ZM48.9841 59.1544C48.5276 59.1544 48.1395 59.5658 48.1395 60.0001V67.3601H39.7625V60.0001C39.7625 59.543 39.3973 59.1544 38.9179 59.1544C38.4386 59.1544 38.0734 59.5658 38.0734 60.0001V67.3601H35.8136V59.3144C35.8136 57.5773 37.206 56.183 38.9179 56.183H48.9841C50.696 56.183 52.0884 57.5773 52.0884 59.3144V67.3601H49.8058V60.0001C49.8058 59.543 49.4406 59.1544 48.9613 59.1544H48.9841ZM70.0523 67.3601H67.7925V60.0001C67.7925 59.543 67.4273 59.1544 66.948 59.1544C66.4686 59.1544 66.1034 59.5658 66.1034 60.0001V67.3601H57.7264V60.0001C57.7264 59.543 57.3612 59.1544 56.8818 59.1544C56.4025 59.1544 56.0373 59.5658 56.0373 60.0001V67.3601H53.7547V59.3144C53.7547 57.5773 55.1471 56.183 56.859 56.183H66.9251C68.6371 56.183 70.0295 57.5773 70.0295 59.3144V67.3601H70.0523Z" fill="#4F2200"/>
<path d="M43.8026 22.1943C46.2221 22.1943 48.208 20.2058 48.208 17.7829C48.208 15.3601 46.2221 13.3486 43.8026 13.3486C41.3831 13.3486 39.3972 15.3601 39.3972 17.7829C39.3972 20.2058 41.3831 22.1943 43.8026 22.1943ZM43.8026 15.0629C45.3091 15.0629 46.5417 16.2972 46.5417 17.8058C46.5417 19.3143 45.3091 20.5258 43.8026 20.5258C42.2961 20.5258 41.0863 19.2915 41.0863 17.8058C41.0863 16.3201 42.2961 15.0629 43.8026 15.0629Z" fill="#4F2200"/>
<path d="M30.4495 37.8515H32.481V48.3201C32.481 48.7773 32.8462 49.1658 33.3256 49.1658C33.8049 49.1658 34.1701 48.7544 34.1701 48.3201V37.8515H53.5492V48.3201C53.5492 48.7773 53.9144 49.1658 54.3938 49.1658C54.8731 49.1658 55.2383 48.7544 55.2383 48.3201V37.8515H57.4068C57.8633 37.8515 58.2513 37.5087 58.2513 37.0287C58.2513 36.5487 57.8633 36.183 57.4068 36.183H53.9601V28.663C53.9601 25.943 51.7688 23.7258 49.0525 23.7258H38.6896C35.9734 23.7258 33.7593 25.943 33.7593 28.663V36.183H30.4495C29.993 36.183 29.605 36.5487 29.605 37.0287C29.605 37.5087 29.9702 37.8515 30.4495 37.8515ZM35.4484 28.663C35.4484 26.8801 36.9092 25.4401 38.6896 25.4401H43.0722V34.6058C43.0722 35.0858 43.4374 35.4515 43.9167 35.4515C44.3961 35.4515 44.7613 35.0858 44.7613 34.6058V25.4401H49.0525C50.8329 25.4401 52.2938 26.903 52.2938 28.663V36.183H49.8971V29.3715C49.8971 28.9144 49.5319 28.5487 49.0525 28.5487C48.5732 28.5487 48.208 28.9144 48.208 29.3715V36.183H39.5114V29.3715C39.5114 28.9144 39.1462 28.5487 38.6668 28.5487C38.1875 28.5487 37.8223 28.9144 37.8223 29.3715V36.183H35.4256V28.663H35.4484Z" fill="#4F2200"/>
</svg>
