<svg width="82" height="82" viewBox="0 0 82 82" fill="none" xmlns="http://www.w3.org/2000/svg">
<circle cx="41" cy="41" r="40.5" fill="#F8F5FF" stroke="#DFDFDF" stroke-dasharray="4 4"/>
<g clip-path="url(#clip0_5284_7349)">
<path d="M56.8533 27.9378C56.8533 29.6758 56.8547 31.4138 56.8533 33.1519C56.8533 33.8963 56.6563 34.1588 55.9297 34.2923C51.7847 35.0456 47.6681 35.9636 43.4917 36.5523C41.2611 36.8682 39.0379 36.7214 36.8296 36.318C33.2874 35.6699 29.7468 35.01 26.2061 34.3546C25.2079 34.1707 25.0408 33.972 25.0408 32.9561C25.0408 29.5542 25.0288 26.1508 25.0542 22.7489C25.0572 22.2655 24.9035 22.0949 24.4484 21.9837C22.7027 21.5522 20.9674 21.0776 19.2276 20.6194C19.1381 20.5957 19.0501 20.566 18.9591 20.5467C18.4488 20.4385 18.1026 20.173 18.1146 19.6139C18.125 19.0816 18.4816 18.8517 18.9546 18.7286C20.9286 18.214 22.8996 17.692 24.8722 17.1715C29.9989 15.8176 35.1272 14.4651 40.251 13.0993C40.7165 12.9747 41.1507 12.9629 41.6147 13.0859C48.6409 14.9471 55.6686 16.8022 62.6962 18.6589C62.8395 18.6975 62.9827 18.7375 63.1229 18.785C63.5348 18.9229 63.781 19.1957 63.781 19.6421C63.781 20.0885 63.5407 20.4355 63.1229 20.4859C62.4545 20.566 62.4411 20.9516 62.4455 21.475C62.4649 24.2853 62.4634 27.0955 62.4455 29.9072C62.4426 30.2734 62.547 30.4736 62.8768 30.6368C63.4064 30.8993 63.9063 31.2225 64.424 31.5132C64.8179 31.7342 65.0015 32.0589 65 32.5098C64.994 34.9685 64.997 37.4287 64.9985 39.8875C64.9985 40.2908 64.8508 40.6126 64.4837 40.7995C64.1062 40.9908 63.766 40.8781 63.4482 40.6364C62.9752 40.2775 62.4739 39.9527 62.0307 39.5597C61.6801 39.2498 61.4354 39.2809 61.0997 39.5746C60.667 39.9512 60.1776 40.2597 59.724 40.6126C59.3913 40.8707 59.0436 40.9997 58.6437 40.7936C58.2692 40.6008 58.1603 40.2656 58.1603 39.8667C58.1648 37.408 58.1663 34.9477 58.1588 32.489C58.1573 32.0293 58.3483 31.7134 58.7437 31.5028C58.7929 31.4761 58.8422 31.4509 58.8899 31.4213C59.4704 31.0639 60.2999 30.8889 60.5864 30.3357C60.8595 29.8063 60.6655 29.0367 60.667 28.3723C60.67 26.1345 60.6536 23.8967 60.6804 21.6604C60.6864 21.1992 60.5685 21.1562 60.1627 21.2763C59.2212 21.5566 58.2722 21.8146 57.3143 22.0341C56.9517 22.1172 56.8428 22.2506 56.8473 22.6154C56.8667 24.3905 56.8562 26.1657 56.8562 27.9408L56.8533 27.9378ZM55.0538 27.6842C55.0538 27.6842 55.0613 27.6842 55.0658 27.6842C55.0658 26.2235 55.0658 24.7628 55.0658 23.3035C55.0658 22.8675 54.8613 22.7024 54.4525 22.8082C50.1822 23.9308 45.9104 25.049 41.6416 26.1834C41.1552 26.3125 40.7001 26.2976 40.2196 26.1716C35.9508 25.0416 31.679 23.9264 27.4087 22.7993C27.0551 22.7059 26.8283 22.6407 26.8312 23.1612C26.8506 26.1745 26.8462 29.1879 26.8342 32.2013C26.8342 32.5513 26.9446 32.658 27.2938 32.7218C30.1392 33.2438 32.9786 33.7925 35.821 34.3368C38.5724 34.8632 41.3342 35.1687 44.1229 34.6615C47.6263 34.0239 51.1222 33.355 54.6271 32.7218C54.9986 32.6551 55.0643 32.5023 55.0613 32.1776C55.0493 30.6798 55.0553 29.1835 55.0553 27.6857L55.0538 27.6842ZM22.6922 19.6777C28.6486 21.2496 34.6035 22.8201 40.5553 24.3965C40.8165 24.4662 41.0492 24.4751 41.3148 24.4039C44.5959 23.5319 47.8814 22.6748 51.164 21.8087C53.8408 21.1028 56.5175 20.3895 59.2346 19.6688C59.1421 19.6125 59.0988 19.5709 59.0496 19.5576C53.1484 17.9916 47.2473 16.4285 41.3476 14.8655C41.0507 14.7869 40.7672 14.8136 40.4703 14.8922C34.6602 16.436 28.8485 17.9738 23.0369 19.5131C22.9116 19.5457 22.7788 19.5561 22.6922 19.6792V19.6777ZM63.1931 38.2977C63.1931 36.5063 63.1782 34.9418 63.2035 33.3788C63.2095 32.9902 63.0364 32.8301 62.7544 32.6091C61.9517 31.9789 61.1982 31.9255 60.4223 32.6136C60.3954 32.6373 60.3611 32.6566 60.3283 32.6699C60.0538 32.7767 59.9642 32.9591 59.9687 33.2631C59.9881 34.5903 59.9777 35.9176 59.9777 37.2448C59.9777 37.5266 59.9777 37.8084 59.9777 38.3066C61.0788 36.9156 62.1024 36.9987 63.1946 38.2977H63.1931Z" fill="#6D28F9"/>
<path d="M24.0081 43.3235C25.9239 43.3235 27.8397 43.322 29.7555 43.3235C30.6881 43.3235 30.9402 43.5756 30.9656 44.4995C31.1044 49.5267 35.0673 53.6672 40.1598 54.1017C45.1612 54.5288 49.7777 51.0364 50.7341 46.1041C50.8505 45.5035 50.9146 44.8999 50.934 44.2889C50.9534 43.6527 51.2608 43.3294 51.9039 43.328C55.9026 43.3191 59.9029 43.3191 63.9016 43.328C64.5611 43.328 64.8774 43.6705 64.8849 44.3393C64.8954 45.2825 64.8834 46.2257 64.8894 47.1673C64.8924 47.673 64.6686 48.0008 64.1896 48.1787C63.2347 48.5346 62.2887 48.9128 61.3323 49.2613C61.0458 49.3651 60.8862 49.5134 60.8026 49.8204C60.3878 51.3582 59.7701 52.8174 58.9793 54.201C58.836 54.4531 58.8286 54.6548 58.9524 54.9188C59.3762 55.8204 59.7611 56.7398 60.1804 57.643C60.4221 58.1635 60.349 58.5847 59.9327 58.9925C58.5555 60.342 57.1858 61.7018 55.8295 63.0721C55.4192 63.4873 54.994 63.56 54.4717 63.3227C53.5616 62.9075 52.6395 62.5204 51.7323 62.1007C51.4697 61.9791 51.2638 61.9777 51.0101 62.1245C49.6061 62.9312 48.111 63.5288 46.5533 63.9633C46.2832 64.039 46.1504 64.165 46.0594 64.4082C45.7028 65.3573 45.3253 66.299 44.9717 67.2496C44.7807 67.7657 44.4435 68.0059 43.8795 68.0014C41.9264 67.9866 39.9733 67.9866 38.0201 68.0014C37.4576 68.0059 37.1144 67.7701 36.9235 67.2555C36.5758 66.3227 36.2043 65.3988 35.8611 64.4646C35.7567 64.1813 35.6089 64.0212 35.2986 63.9381C33.7513 63.5288 32.2831 62.9164 30.8925 62.126C30.6418 61.9836 30.4359 61.9747 30.1703 62.0993C29.2646 62.5204 28.3411 62.906 27.4309 63.3212C26.9116 63.557 26.4849 63.4962 26.0731 63.0795C24.7034 61.6944 23.3217 60.3242 21.9326 58.9584C21.5506 58.5832 21.473 58.1887 21.6939 57.7067C22.1087 56.8006 22.4966 55.8842 22.9218 54.9825C23.0621 54.6859 23.0621 54.4531 22.895 54.1625C22.1072 52.7981 21.5059 51.3523 21.0955 49.8322C21.015 49.5312 20.8673 49.3695 20.5748 49.2657C19.6512 48.935 18.741 48.5658 17.8175 48.2321C17.2564 48.0304 16.9849 47.6775 17.0028 47.0695C17.0281 46.1827 17.0043 45.2944 17.0102 44.4076C17.0162 43.6438 17.3221 43.3294 18.095 43.3265C20.066 43.3191 22.0385 43.3235 24.0096 43.3235H24.0081ZM62.1365 47.0294C62.792 46.894 63.1198 46.5129 63.1198 45.8861C63.1198 45.2781 62.7905 45.0274 62.132 45.1342C59.3419 45.1312 56.5517 45.1283 53.7615 45.1268C53.097 45.1268 52.7091 45.4437 52.5977 46.0774C51.4876 52.3859 45.8252 56.5738 39.4272 55.816C34.1646 55.1931 29.8391 50.8747 29.2632 45.6503C29.2169 45.235 29.0766 45.1134 28.6514 45.1164C25.7314 45.1372 22.8099 45.1268 19.8899 45.1268C18.8112 45.1268 18.8291 45.1268 18.8037 46.1812C18.7948 46.5504 18.8903 46.7314 19.2588 46.8559C20.1346 47.154 20.9866 47.5203 21.8565 47.8362C22.3011 47.9978 22.5548 48.2855 22.6667 48.7363C23.1158 50.5574 23.829 52.2702 24.8123 53.8703C25.0436 54.247 25.0749 54.6103 24.8809 55.0211C24.4721 55.8886 24.1021 56.774 23.6977 57.643C23.5813 57.8936 23.5769 58.0582 23.7947 58.2688C24.8063 59.249 25.806 60.2441 26.7938 61.248C26.9997 61.4571 27.1608 61.4749 27.4219 61.3548C28.2963 60.9515 29.1885 60.5896 30.0614 60.1833C30.4747 59.9905 30.8418 60.0098 31.2193 60.2396C32.8292 61.2154 34.5496 61.9332 36.3833 62.3721C36.8668 62.4878 37.1473 62.7725 37.3159 63.2248C37.6426 64.1057 38.0052 64.9747 38.3215 65.8586C38.42 66.1329 38.5498 66.216 38.8348 66.213C40.0807 66.1967 41.3281 66.2041 42.5739 66.2026C42.9037 66.1967 43.3588 66.4443 43.5229 66.0484C43.9138 65.1023 44.3465 64.1665 44.5957 63.1655C44.7643 62.7117 45.0911 62.47 45.5655 62.3588C47.3769 61.9287 49.0719 61.2095 50.664 60.2515C51.0668 60.0083 51.4428 60.0009 51.8696 60.1966C52.7409 60.5955 53.6272 60.9633 54.506 61.3444C54.7194 61.6203 54.9029 61.5031 55.0954 61.3103C56.1041 60.3019 57.1097 59.2891 58.1333 58.2955C58.3675 58.0686 58.3571 57.8862 58.2303 57.6178C57.8692 56.8496 57.5663 56.0532 57.1798 55.2984C56.877 54.7082 56.9128 54.2233 57.2559 53.6479C58.2153 52.0418 58.9539 50.3379 59.2971 48.4857C59.4314 48.1535 59.6955 47.9756 60.0222 47.854C60.731 47.59 61.4323 47.3082 62.1365 47.0354V47.0294Z" fill="#6D28F9"/>
<path d="M41.0028 43.3234C43.1797 43.3234 45.3567 43.3234 47.5321 43.3234C48.6736 43.3234 48.9242 43.5873 48.8466 44.7025C48.5616 48.8073 45.303 51.9305 41.1386 52.0906C37.2264 52.2404 33.7051 49.2982 33.0978 45.3654C33.053 45.0733 33.0426 44.7767 33.0292 44.4816C32.9934 43.6526 33.2977 43.3278 34.1348 43.3263C36.4236 43.3204 38.711 43.3248 40.9998 43.3248L41.0028 43.3234ZM46.0535 45.1341C42.562 45.1311 39.0691 45.1281 35.5776 45.1266C35.0982 45.1266 34.9211 45.3516 35.0464 45.8014C36.0745 49.4821 40.1016 51.3061 43.5975 49.6749C43.6885 49.7075 43.7512 49.6882 43.7691 49.5844C43.8303 49.5503 43.89 49.5162 43.9511 49.4806C45.4522 48.7525 46.3355 47.5157 46.8308 45.9764C47.1397 45.0154 47.0815 44.9665 46.0535 45.1341Z" fill="#6D28F9"/>
<path d="M55.0551 27.6841C55.0551 29.1818 55.0477 30.6782 55.0611 32.1759C55.0641 32.5007 54.9984 32.6535 54.6269 32.7202C51.1235 33.3519 47.6261 34.0222 44.1227 34.6599C41.334 35.1671 38.5722 34.8616 35.8208 34.3351C32.9799 33.7909 30.139 33.2422 27.2936 32.7202C26.9445 32.6564 26.8326 32.5496 26.8341 32.1997C26.846 29.1863 26.8505 26.1729 26.8311 23.1595C26.8281 22.6375 27.0549 22.7043 27.4085 22.7977C31.6773 23.9262 35.9506 25.0414 40.2195 26.17C40.7014 26.2975 41.155 26.3123 41.6414 26.1818C45.9087 25.0488 50.1805 23.9292 54.4523 22.8066C54.8602 22.6988 55.0646 22.8639 55.0656 23.3019C55.0656 24.7626 55.0656 26.2233 55.0656 27.6826C55.0611 27.6826 55.0581 27.6826 55.0536 27.6826L55.0551 27.6841Z" fill="#EEE9FF"/>
<path d="M22.6924 19.6779C22.7789 19.5562 22.9117 19.5444 23.0371 19.5118C28.8487 17.9739 34.6603 16.4361 40.4704 14.8909C40.7659 14.8123 41.0508 14.7856 41.3478 14.8642C47.2489 16.4287 53.1501 17.9917 59.0497 19.5562C59.1005 19.5696 59.1422 19.6111 59.2347 19.6675C56.5162 20.3882 53.8409 21.1015 51.1641 21.8074C47.8816 22.6734 44.596 23.5306 41.3149 24.4026C41.0494 24.4737 40.8166 24.4648 40.5555 24.3951C34.6036 22.8188 28.6502 21.2483 22.6924 19.6764V19.6779Z" fill="#EEE9FF"/>
<path d="M63.1918 38.2977C62.0996 36.9987 61.0776 36.9156 59.9749 38.3066C59.9749 37.8084 59.9749 37.5266 59.9749 37.2448C59.9749 35.9176 59.9869 34.5903 59.966 33.2631C59.9615 32.9591 60.051 32.7767 60.3256 32.6699C60.3599 32.6566 60.3927 32.6373 60.4196 32.6136C61.1969 31.924 61.9489 31.9788 62.7517 32.6091C63.0337 32.8301 63.2083 32.9902 63.2008 33.3788C63.1739 34.9418 63.1904 36.5063 63.1904 38.2977H63.1918Z" fill="#EEE9FF"/>
<path d="M42.574 66.1995C41.3281 66.1995 40.0807 66.1936 38.8349 66.2099C38.5499 66.2144 38.4186 66.1298 38.3216 65.8555C38.0053 64.9716 37.6427 64.1026 37.3159 63.2218C37.1488 62.7695 36.8683 62.4862 36.3834 62.3691C34.5496 61.9301 32.8293 61.2123 31.2193 60.2366C30.8403 60.0067 30.4733 59.9889 30.0615 60.1802C29.1886 60.5865 28.2949 60.9484 27.422 61.3517C27.1609 61.4719 26.9997 61.4541 26.7938 61.245C25.8061 60.241 24.8064 59.2459 23.7948 58.2657C23.5784 58.0551 23.5814 57.8905 23.6978 57.6399C24.1021 56.7709 24.4722 55.8856 24.881 55.018C25.0735 54.6072 25.0436 54.2454 24.8124 53.8672C23.8291 52.2671 23.1159 50.5543 22.6668 48.7332C22.5549 48.2824 22.3012 47.9947 21.8566 47.8331C20.9867 47.5172 20.1347 47.1509 19.2589 46.8528C18.8903 46.7268 18.7948 46.5474 18.8038 46.1781C18.8277 45.1237 18.8098 45.1237 19.89 45.1237C22.81 45.1237 25.7315 45.1326 28.6515 45.1133C29.0767 45.1104 29.217 45.232 29.2632 45.6472C29.8392 50.8717 34.1647 55.19 39.4272 55.8129C45.8252 56.5707 51.4877 52.3843 52.5978 46.0743C52.7092 45.4406 53.0971 45.1237 53.7616 45.1237C56.5517 45.1267 59.3419 45.1282 62.1321 45.1311C62.1336 45.7629 62.1366 46.3946 62.1381 47.0264C61.4338 47.3007 60.731 47.581 60.0238 47.8449C59.697 47.9665 59.4329 48.1445 59.2986 48.4767C58.6809 48.536 58.2602 48.7584 58.0931 49.451C57.7126 51.0333 57.071 52.5266 56.228 53.9221C55.9788 54.3344 55.9549 54.6591 56.1713 55.0937C56.6055 55.9671 56.9471 56.8866 57.3784 57.763C57.5649 58.1397 57.4798 58.3517 57.2053 58.6201C56.2921 59.5129 55.4043 60.4308 54.5061 61.3384C53.6258 60.9573 52.741 60.591 51.8696 60.1906C51.4429 59.9948 51.0669 60.0022 50.664 60.2455C49.0735 61.2034 47.3785 61.9242 45.5656 62.3527C45.0911 62.4654 44.7644 62.7072 44.5958 63.1595C44.1407 63.0927 43.7304 63.1698 43.5453 63.6385C43.2111 64.4867 42.8202 65.3142 42.574 66.1951V66.1995Z" fill="#FFD701"/>
<path d="M54.5049 61.3402C55.4031 60.4327 56.2924 59.5147 57.204 58.622C57.4786 58.3535 57.5621 58.1415 57.3771 57.7648C56.9459 56.8899 56.6042 55.9704 56.17 55.0955C55.9537 54.661 55.9761 54.3362 56.2267 53.9239C57.0712 52.5285 57.7113 51.0351 58.0918 49.4528C58.2574 48.7618 58.6782 48.5378 59.2974 48.4785C58.9542 50.3307 58.2157 52.0347 57.2563 53.6422C56.9131 54.2176 56.8773 54.7025 57.1802 55.2927C57.5666 56.0475 57.8695 56.8439 58.2306 57.6121C58.3574 57.8805 58.3679 58.0629 58.1336 58.2898C57.11 59.2834 56.1044 60.2962 55.0957 61.3046C54.9033 61.4974 54.7197 61.6146 54.5064 61.3387L54.5049 61.3402Z" fill="#FFD701"/>
<path d="M42.5742 66.1995C42.8204 65.3186 43.2128 64.4911 43.5456 63.6429C43.7306 63.1742 44.1409 63.0971 44.596 63.1639C44.3468 64.1649 43.9141 65.1006 43.5232 66.0467C43.359 66.4427 42.904 66.1936 42.5742 66.201V66.1995Z" fill="#FFD701"/>
<path d="M62.1368 47.0294C62.1353 46.3976 62.1324 45.7659 62.1309 45.1342C62.7894 45.0264 63.1186 45.277 63.1186 45.886C63.1186 46.5138 62.7909 46.8949 62.1353 47.0294H62.1368Z" fill="#FFD701"/>
<path d="M43.5978 49.6737C40.1004 51.305 36.0748 49.4809 35.0468 45.8002C34.9214 45.3514 35.0985 45.1265 35.578 45.1255C39.0694 45.1285 42.5623 45.1299 46.0538 45.1329C45.8389 46.6025 45.1959 47.8704 44.2275 48.9886C44.1037 49.131 43.8709 49.2214 43.9515 49.4795C43.8903 49.5136 43.8306 49.5477 43.7694 49.5833C43.665 49.5254 43.6262 49.5907 43.5978 49.6737Z" fill="#FFD701"/>
<path d="M43.9526 49.4794C43.872 49.2213 44.1048 49.1309 44.2286 48.9885C45.197 47.8703 45.8401 46.6024 46.0549 45.1328C47.083 44.9652 47.1412 45.0142 46.8338 45.9751C46.3399 47.5144 45.4566 48.7512 43.9541 49.4794H43.9526Z" fill="#FFD701"/>
<path d="M43.5977 49.6735C43.6275 49.5905 43.6648 49.5252 43.7692 49.583C43.7513 49.6883 43.6872 49.7061 43.5977 49.6735Z" fill="#827582"/>
</g>
<defs>
<clipPath id="clip0_5284_7349">
<rect width="48" height="55" fill="white" transform="translate(17 13)"/>
</clipPath>
</defs>
</svg>
