<svg width="100" height="100" viewBox="0 0 100 100" fill="none" xmlns="http://www.w3.org/2000/svg">
<circle cx="50" cy="50" r="50" fill="#E6F5FD"/>
<g clip-path="url(#clip0_5279_7061)">
<path d="M52.1695 14C52.7046 14.2826 53.3022 14.2011 53.8694 14.27C59.2912 14.9258 64.3461 16.58 68.7873 19.8792C73.8297 23.6259 76.8323 28.6681 78.0311 34.8662C78.525 37.4208 78.4463 39.9971 78.5143 42.5698C78.5286 43.1188 78.661 43.5935 78.9222 44.07C80.4629 46.8601 82.0035 49.6502 83.5066 52.4603C84.7287 54.7449 83.5907 57.0731 81.0713 57.5188C80.5327 57.6148 79.9976 57.7561 79.4555 57.7869C78.9455 57.8159 78.8525 58.0369 78.8542 58.5062C78.8704 63.2295 78.8704 67.9527 78.8614 72.676C78.8578 74.7668 77.8021 76.2072 75.9465 76.6873C75.1485 76.8938 74.3379 76.767 73.5345 76.6982C70.4765 76.4373 67.4185 76.1782 64.3622 75.8974C63.9381 75.8593 63.8057 75.9934 63.7002 76.4047C62.8252 79.7746 61.918 83.1354 61.0251 86.4998C60.6708 87.8333 60.1662 88.1395 58.792 87.9529C53.5849 87.2463 48.3743 86.5596 43.1655 85.8621C41.1865 85.5976 39.2038 85.3421 37.2284 85.0468C35.9651 84.8584 35.5249 84.1735 35.7915 82.9144C36.5627 79.2455 37.3196 75.5731 38.132 71.9133C38.2823 71.2375 38.1141 70.973 37.5129 70.6976C29.3856 66.978 23.8189 60.8216 21.3443 52.1686C18.1288 40.9356 20.7216 30.9672 28.7862 22.6023C33.5477 17.6634 39.474 14.9476 46.2503 14.1522C46.3792 14.1377 46.5474 14.1993 46.5993 14H51.3124C51.4556 14.0507 51.5987 14.1866 51.7401 14H52.1677H52.1695ZM56.8702 54.4967C57.4714 54.4279 58.0601 54.3971 58.5074 54.9297C59.0425 55.5675 58.9798 56.3411 58.2856 57.0531C57.1261 58.2398 55.9469 59.4066 54.6496 60.7093C56.2743 60.6948 57.67 60.5498 59.0067 59.9954C59.9389 59.6077 60.6905 58.9953 61.1807 58.1076C62.1041 56.4371 62.3277 54.6235 62.1577 52.7429C62.1577 52.4313 62.1381 52.1197 62.1577 51.808C62.1882 51.3424 62.0361 51.1631 61.5333 51.1105C60.0785 50.962 58.6434 51.0091 57.2137 51.308C54.1003 51.9566 51.9423 55.4624 52.7869 58.508C54.1969 57.2216 55.4083 55.7287 56.8702 54.4985V54.4967ZM34.7501 39.7851C34.1292 39.6982 33.5226 39.9047 32.9071 39.8775C32.526 39.8612 32.585 40.133 32.56 40.3595C32.3935 41.8252 32.4043 43.2837 32.7174 44.7331C32.9071 45.6082 33.1719 46.4506 33.7105 47.1699C35.2708 49.2589 37.5451 49.3332 40.0073 49.4636C38.8513 48.295 37.8475 47.2514 36.8115 46.2423C36.2299 45.677 35.9597 45.052 36.2067 44.2475C37.0745 43.2184 37.8242 43.1786 38.7744 44.1352C39.8265 45.1951 40.8626 46.2677 42.04 47.4725C41.9809 45.8546 41.8736 44.4631 41.3493 43.1297C40.8984 41.9828 40.1415 41.1367 39.0392 40.6095C37.6811 39.9609 36.2353 39.7652 34.7501 39.7851ZM56.5732 37.1236L56.5821 37.1146C57.1958 36.5167 57.8007 35.9116 58.4251 35.3246C59.0478 34.7375 59.6956 34.6578 60.3004 35.0618C61.1253 35.6126 61.1557 36.6308 60.3397 37.4661C58.8868 38.9553 57.4177 40.4265 55.9612 41.9122C55.8216 42.0553 55.5997 42.1495 55.5908 42.4376C57.3855 42.5408 59.148 42.4267 60.8533 41.856C62.3116 41.3686 63.5749 40.566 64.3479 39.1764C65.5539 37.0077 65.817 34.6488 65.5951 32.2083C65.6434 31.6521 65.5468 31.1067 65.4985 30.556C65.4734 30.277 65.3589 30.2135 65.1012 30.1864C63.3709 29.9998 61.6388 29.9164 59.9157 30.2208C57.9563 30.5687 56.133 31.2155 54.9359 32.9711C53.9786 34.3734 53.5921 35.9822 53.4704 37.6545C53.4078 38.5133 53.4597 39.3811 53.4597 40.1004C54.4438 39.1691 55.4494 38.2161 56.4551 37.2631C56.4944 37.216 56.5356 37.1689 56.5749 37.1218L56.5732 37.1236ZM36.4464 52.0508C36.2657 51.9947 36.085 51.9349 35.9043 51.8841C32.9536 51.0562 30.9728 49.219 30.1354 46.197C29.4751 43.8145 29.4662 41.4049 29.8598 38.9825C30.0871 37.582 30.3573 37.3447 31.6939 37.1273C33.0359 36.9099 34.3851 36.8754 35.7379 36.8627C36.3695 36.9551 37.0065 37.0222 37.6328 37.1418C41.0236 37.7867 43.3999 39.6003 44.3393 43.0934C44.826 44.9052 45.0425 46.7423 44.7777 48.5958C44.6184 49.7155 44.7401 50.6141 45.9139 51.1902V50.3931C45.9139 45.5737 45.9139 40.7544 45.9121 35.9351C45.9121 35.5728 45.9157 35.2122 46.0249 34.8625C46.2146 34.2502 46.814 33.8389 47.4403 33.8824C48.0809 33.9259 48.6248 34.3951 48.7304 35.0292C48.7769 35.3119 48.7715 35.6054 48.7715 35.8934C48.7751 38.6655 48.7715 41.4357 48.7715 44.2077V44.8961C49.3996 44.4885 49.8469 43.9685 50.3515 43.5156C50.7184 43.1858 50.7935 42.8362 50.7327 42.3705C50.4339 40.0877 50.4392 37.8067 50.8848 35.542C51.5182 32.3152 53.0732 29.7389 56.1419 28.3728C59.6992 26.7893 63.4085 26.8944 67.1339 27.6173C67.7549 27.7387 68.0465 28.2713 68.1485 28.8855C68.603 31.5905 68.6978 34.3009 68.1593 37.0041C67.4041 40.7961 65.3321 43.4612 61.603 44.6389C58.9655 45.4705 56.2636 45.5049 53.5527 45.1552C53.0213 45.0864 52.6759 45.1896 52.3091 45.5792C51.2928 46.6608 50.2406 47.7116 49.1831 48.7534C48.8896 49.0415 48.7572 49.3295 48.759 49.7535C48.7751 53.801 48.7662 57.8503 48.7733 61.8978C48.7733 62.0699 48.6713 62.2819 48.8735 62.4214C49.6537 61.8724 50.1261 61.2709 49.9257 60.1676C49.6537 58.6747 49.7736 57.1455 50.0295 55.6399C50.5913 52.328 52.2196 49.8785 55.4924 48.7987C58.1603 47.9182 60.8766 47.9852 63.5982 48.4979C64.2745 48.6248 64.6271 49.1085 64.7523 49.8006C65.1281 51.8588 65.1835 53.926 64.865 55.986C64.4499 58.6729 63.3155 60.9339 60.8533 62.2946C58.8939 63.378 56.7521 63.5809 54.5673 63.6081C53.6726 63.619 52.7028 63.1226 51.919 63.5737C51.1621 64.0103 50.6701 64.8963 49.9615 65.4507C48.9022 66.2787 48.5515 67.3041 48.7805 68.5905C48.7841 68.614 48.7912 68.6376 48.7948 68.6611C48.7859 69.0452 48.7966 69.4311 48.7608 69.8134C48.7161 70.2754 48.8413 70.5073 49.3513 70.5635C50.008 70.636 50.6593 70.7972 51.3053 70.9548C52.2375 71.1813 52.7242 71.8553 52.5686 72.6525C52.4039 73.4913 51.6685 73.9425 50.7202 73.7595C47.6908 73.1725 44.6614 72.5873 41.6374 71.9713C41.1757 71.877 40.9932 71.935 40.8912 72.4405C40.2596 75.5694 39.5993 78.6929 38.9319 81.8146C38.8406 82.2367 38.8961 82.3781 39.3667 82.4361C41.7 82.7241 44.0262 83.072 46.3577 83.3782C48.3815 83.6445 50.4088 83.8818 52.4344 84.1319C54.2291 84.4942 56.0578 84.6229 57.8615 84.9218C58.3589 85.0051 58.4985 84.8783 58.6202 84.4072C59.4844 81.0845 60.3809 77.7689 61.2684 74.4516C61.646 73.0384 62.0754 72.7811 63.5266 72.9134C67.1751 73.2504 70.8236 73.5656 74.4757 73.8664C75.7461 73.9714 76.0038 73.7015 76.0038 72.4296C76.0038 67.2969 76.0038 62.1641 76.0038 57.0314C76.0038 55.8392 76.376 55.4044 77.5516 55.1924C78.5572 55.0113 79.561 54.8138 80.572 54.6616C81.2073 54.5656 81.2484 54.2775 80.9711 53.7738C79.4036 50.9148 77.8415 48.0541 76.2919 45.1842C76.1326 44.8871 75.9448 44.7911 75.6227 44.7965C74.6707 44.8146 73.7188 44.8182 72.7669 44.7983C71.84 44.7802 71.1958 44.1896 71.1797 43.3797C71.1636 42.5481 71.8256 41.9321 72.7901 41.9122C73.5989 41.8958 74.4095 41.894 75.2165 41.9158C75.5547 41.9248 75.6728 41.8361 75.6585 41.4737C75.5851 39.5985 75.6298 37.7197 75.3006 35.8572C74.3325 30.3694 71.8078 25.8182 67.3934 22.432C62.1738 18.428 56.1312 17.0637 49.7253 16.926C47.6442 16.8227 45.5936 17.0764 43.5735 17.533C28.9669 20.8358 19.9772 35.7702 23.7563 50.3876C26.0986 59.4501 33.732 68.4908 45.4952 69.8026C45.7958 69.8352 45.9265 69.8008 45.9175 69.4547C45.8907 68.4202 45.8889 67.3857 45.8782 66.3511C45.8889 62.8182 45.8978 59.2834 45.9157 55.7505C45.9157 55.4751 45.7815 55.312 45.6097 55.1399C44.733 54.2594 43.8562 53.3807 42.9955 52.482C42.7593 52.2356 42.5231 52.1287 42.1849 52.1758C40.2649 52.4494 38.3521 52.357 36.4447 52.049L36.4464 52.0508Z" fill="#35BBE3"/>
<path d="M51.7392 14C51.596 14.1866 51.4529 14.0507 51.3115 14H51.7392Z" fill="#A2CAFB"/>
<path d="M48.7975 68.6591C48.7922 68.6356 48.7868 68.612 48.7832 68.5884C48.556 67.3021 48.9049 66.2784 49.9642 65.4486C50.6746 64.8942 51.1649 64.0083 51.9218 63.5717C52.7037 63.1205 53.6753 63.6169 54.57 63.6061C56.7548 63.5789 58.8967 63.376 60.856 62.2925C63.3182 60.9301 64.4544 58.6708 64.8678 55.984C65.1863 53.924 65.129 51.8549 64.755 49.7986C64.6298 49.1065 64.2773 48.6245 63.6009 48.4959C60.8793 47.985 58.163 47.9161 55.4951 48.7967C52.2224 49.8765 50.594 52.326 50.0322 55.6379C49.7763 57.1435 49.6546 58.6726 49.9284 60.1655C50.1306 61.2689 49.6564 61.8704 48.8763 62.4194C48.6741 62.2799 48.7761 62.0679 48.7761 61.8958C48.7689 57.8483 48.7761 53.799 48.7617 49.7515C48.7617 49.3275 48.8942 49.0394 49.1858 48.7514C50.2433 47.7096 51.2937 46.6606 52.3118 45.5771C52.6787 45.1876 53.024 45.0843 53.5554 45.1532C56.2663 45.5029 58.9682 45.4684 61.6058 44.6368C65.3348 43.461 67.4069 40.7941 68.162 37.002C68.7006 34.3007 68.6057 31.5903 68.1512 28.8835C68.0475 28.2693 67.7576 27.7366 67.1367 27.6152C63.4112 26.8905 59.7019 26.7854 56.1446 28.3707C53.0777 29.7368 51.5227 32.3132 50.8875 35.5399C50.442 37.8046 50.4366 40.0857 50.7354 42.3685C50.7962 42.8323 50.7211 43.1838 50.3543 43.5135C49.8479 43.9665 49.4023 44.4883 48.7743 44.8941V44.2056C48.7743 41.4336 48.7743 38.6634 48.7743 35.8914C48.7743 35.6033 48.7796 35.3098 48.7331 35.0272C48.6293 34.3931 48.0836 33.9238 47.443 33.8803C46.8167 33.8369 46.2191 34.2481 46.0276 34.8605C45.9202 35.2084 45.9149 35.5689 45.9149 35.9331C45.9185 40.7524 45.9167 45.5717 45.9167 50.391V51.1882C44.7428 50.6102 44.6212 49.7134 44.7804 48.5937C45.0452 46.7385 44.8305 44.9032 44.342 43.0914C43.4026 39.5983 41.0246 37.7847 37.6355 37.1397C37.0092 37.0201 36.3722 36.9531 35.7406 36.8607C35.6815 36.3135 35.9231 35.8244 36.0519 35.3189C37.2436 30.6572 39.466 26.5354 42.5956 22.9336C44.657 20.562 47.0511 18.5618 49.7316 16.9258C56.1375 17.0617 62.1801 18.4259 67.3997 22.4318C71.8141 25.818 74.3388 30.3691 75.3069 35.857C75.6361 37.7195 75.5914 39.5983 75.6648 41.4735C75.6791 41.8358 75.561 41.9246 75.2228 41.9155C74.414 41.8938 73.6052 41.8956 72.7964 41.9119C71.8319 41.9319 71.1699 42.5479 71.186 43.3795C71.2021 44.1875 71.8445 44.7781 72.7732 44.7981C73.7251 44.8162 74.677 44.8144 75.629 44.7963C75.9511 44.789 76.1389 44.8869 76.2982 45.184C77.8478 48.052 79.4099 50.9146 80.9774 53.7736C81.2529 54.2773 81.2136 54.5653 80.5783 54.6614C79.5673 54.8135 78.5653 55.011 77.5579 55.1922C76.3841 55.4042 76.0119 55.839 76.0101 57.0312C76.0065 62.1639 76.0101 67.2967 76.0101 72.4294C76.0101 73.7013 75.7524 73.9712 74.482 73.8661C70.8317 73.5654 67.1814 73.2501 63.5329 72.9132C62.0817 72.7791 61.6541 73.0382 61.2747 74.4513C60.3872 77.7687 59.4907 81.0824 58.6265 84.407C58.5048 84.8781 58.3652 85.0031 57.8678 84.9216C56.0641 84.6226 54.2354 84.494 52.4407 84.1316C52.4765 83.8707 52.4961 83.608 52.5498 83.3508C53.3139 79.6747 54.0797 75.9986 54.8563 72.3243C54.9601 71.8388 54.8223 71.5797 54.3481 71.4148C53.0419 70.9619 51.8269 70.3024 50.5994 69.6755C49.9857 69.3639 49.4578 68.8983 48.8029 68.6609L48.7975 68.6591ZM56.8049 72.0562C55.989 72.0507 55.3466 72.6921 55.3627 73.5002C55.377 74.2756 56.0069 74.8988 56.7799 74.9043C57.5976 74.9115 58.2096 74.2865 58.2006 73.4531C58.1917 72.6468 57.6065 72.0616 56.8049 72.0544V72.0562Z" fill="#D7F9FF"/>
<path d="M49.7285 16.9262C47.0481 18.5623 44.6539 20.5606 42.5926 22.9341C39.463 26.5377 37.2406 30.6576 36.0489 35.3193C35.92 35.8248 35.6803 36.314 35.7375 36.8611C34.3848 36.8756 33.0356 36.9083 31.6936 37.1257C30.3569 37.3431 30.0867 37.5804 29.8595 38.9809C29.4658 41.4051 29.4748 43.8129 30.135 46.1954C30.9743 49.2174 32.9533 51.0564 35.9039 51.8825C36.0864 51.9333 36.2654 51.9931 36.4479 52.0492C36.6859 53.1562 37.1332 54.1853 37.5824 55.2144C39.4862 59.5862 42.2043 63.3348 45.8814 66.3495C45.8921 67.3841 45.8921 68.4186 45.9208 69.4531C45.9297 69.7992 45.7991 69.8354 45.4985 69.801C33.7352 68.4892 26.1018 59.4485 23.7596 50.386C19.9769 35.7705 28.9666 20.836 43.5749 17.5332C45.5951 17.0766 47.6475 16.8229 49.7267 16.9262H49.7285Z" fill="#FDFDFD"/>
<path d="M48.798 68.6592C49.4529 68.8947 49.9807 69.3603 50.5945 69.6738C51.8238 70.3006 53.0387 70.9601 54.3432 71.4131C54.8174 71.5779 54.9534 71.8352 54.8514 72.3226C54.0748 75.9969 53.3089 79.6729 52.5449 83.349C52.4912 83.6063 52.4715 83.869 52.4357 84.1299C50.4102 83.8799 48.3828 83.6425 46.3591 83.3762C44.0275 83.07 41.7014 82.7222 39.368 82.4341C38.8974 82.3761 38.842 82.2348 38.9332 81.8126C39.6024 78.691 40.2627 75.5675 40.8926 72.4385C40.9946 71.933 41.1753 71.8751 41.6387 71.9693C44.6628 72.5853 47.6921 73.1705 50.7215 73.7575C51.6699 73.9405 52.4053 73.4894 52.5699 72.6505C52.7256 71.8533 52.2389 71.1794 51.3066 70.9529C50.6607 70.7971 50.0111 70.634 49.3527 70.5615C48.8427 70.5054 48.7174 70.2753 48.7622 69.8115C48.798 69.4292 48.7872 69.0433 48.7962 68.6592H48.798Z" fill="#FDFDFD"/>
<path d="M45.8778 66.3511C42.2007 63.3345 39.4827 59.5859 37.5788 55.2159C37.1297 54.1869 36.6823 53.1578 36.4443 52.0508C38.3518 52.3606 40.2646 52.4512 42.1846 52.1776C42.5228 52.1287 42.759 52.2374 42.9952 52.4838C43.8541 53.3806 44.7326 54.2593 45.6094 55.1417C45.7812 55.3138 45.9172 55.4768 45.9154 55.7522C45.8957 59.2852 45.8886 62.82 45.8778 66.3529V66.3511Z" fill="#FFD701"/>
<path d="M65.5912 32.2103C65.8131 34.6508 65.5519 37.0115 64.344 39.1784C63.571 40.5662 62.3077 41.3707 60.8494 41.858C59.1442 42.4269 57.3816 42.5411 55.5869 42.4396C55.5959 42.1515 55.8177 42.0555 55.9573 41.9142C57.4138 40.4285 58.8829 38.9574 60.3359 37.4681C61.15 36.6329 61.1214 35.6165 60.2965 35.0639C59.6917 34.6599 59.044 34.7396 58.4213 35.3266C57.7986 35.9136 57.192 36.5187 56.58 37.1166C56.877 36.006 57.5624 35.1436 58.4052 34.437C60.4862 32.6959 62.9537 32.1542 65.5912 32.2121V32.2103Z" fill="#FFD701"/>
<path d="M65.5912 32.2103C62.9536 32.1523 60.4861 32.694 58.4051 34.4352C57.5623 35.1399 56.877 36.0041 56.5799 37.1148L56.571 37.1238C56.5316 37.1709 56.4905 37.218 56.4511 37.2651C55.4455 38.2181 54.4399 39.1711 53.4557 40.1024C53.4557 39.3831 53.4038 38.5171 53.4665 37.6565C53.5881 35.9842 53.9746 34.3754 54.932 32.9731C56.129 31.2174 57.9524 30.5706 59.9117 30.2228C61.6349 29.9184 63.367 30.0017 65.0973 30.1884C65.355 30.2155 65.4695 30.2808 65.4945 30.558C65.5428 31.1087 65.6395 31.6541 65.5912 32.2103Z" fill="#FBFBFB"/>
<path d="M36.2044 44.2476C35.9592 45.052 36.2277 45.6753 36.8092 46.2423C37.847 47.2515 38.8509 48.2951 40.005 49.4637C37.5428 49.3332 35.2703 49.2589 33.7082 47.17C33.1696 46.4489 32.9048 45.6082 32.7151 44.7331C32.402 43.2837 32.3895 41.8252 32.5577 40.3595C32.5827 40.133 32.5237 39.8613 32.9048 39.8776C33.5204 39.9048 34.1287 39.6982 34.7479 39.7852C34.9733 41.3596 35.3348 42.8869 36.2026 44.2458L36.2044 44.2476Z" fill="#FBFBFB"/>
<path d="M62.1556 52.7412C62.3256 54.6218 62.1019 56.4354 61.1786 58.1059C60.6883 58.9936 59.9368 59.606 59.0045 59.9937C57.6697 60.5481 56.2722 60.6931 54.6475 60.7076C55.9447 59.4067 57.1239 58.2399 58.2834 57.0514C58.9795 56.3394 59.0421 55.5676 58.5053 54.928C58.058 54.3954 57.4693 54.4262 56.8681 54.495C56.9772 54.2323 57.2116 54.1164 57.4353 53.9787C58.8882 53.0909 60.4682 52.705 62.1556 52.7394V52.7412Z" fill="#FFD701"/>
<path d="M62.1558 52.7411C60.4684 52.7066 58.8884 53.0925 57.4355 53.9803C57.2118 54.1162 56.9774 54.2321 56.8682 54.4967C55.4063 55.7269 54.1949 57.2197 52.7849 58.5061C51.9403 55.4605 54.0983 51.9547 57.2118 51.3061C58.6415 51.009 60.0765 50.9601 61.5313 51.1086C62.0359 51.1594 62.1862 51.3406 62.1558 51.8062C62.1361 52.116 62.1558 52.4294 62.1558 52.7411Z" fill="#FBFBFB"/>
<path d="M36.2047 44.2476C35.3369 42.8888 34.9755 41.3596 34.75 39.787C36.2352 39.7671 37.6792 39.9609 39.0391 40.6114C40.1413 41.1386 40.8982 41.9847 41.3492 43.1315C41.8734 44.465 41.9808 45.8583 42.0398 47.4744C40.8624 46.2695 39.8246 45.197 38.7743 44.1371C37.8241 43.1786 37.0744 43.2185 36.2065 44.2494L36.2047 44.2476Z" fill="#FFD701"/>
<path d="M56.4512 37.2634C56.4905 37.2163 56.5317 37.1692 56.5711 37.1221C56.5317 37.1692 56.4905 37.2163 56.4512 37.2634Z" fill="#A2CAFB"/>
<path d="M56.8058 72.0564C57.6056 72.0618 58.1908 72.6488 58.2015 73.4551C58.2104 74.2867 57.6003 74.9118 56.7808 74.9063C56.0077 74.9009 55.3779 74.2758 55.3636 73.5022C55.3475 72.6941 55.9881 72.0528 56.8058 72.0582V72.0564Z" fill="#FFD701"/>
</g>
<defs>
<clipPath id="clip0_5279_7061">
<rect width="64" height="74" fill="white" transform="translate(20 14)"/>
</clipPath>
</defs>
</svg>
