<svg width="133" height="114" viewBox="0 0 133 114" fill="none" xmlns="http://www.w3.org/2000/svg">
<path d="M84.456 106.849C79.9716 105.168 80.1584 100.498 77.3557 97.1361L76.0477 95.4551H56.0547L54.7468 97.1361C51.944 100.498 52.1309 105.168 47.6465 106.849H84.456Z" fill="url(#paint0_linear_153_175)"/>
<path d="M84.456 106.849H47.6465C48.7676 106.475 49.515 105.915 50.0755 105.355H77.3557C77.9162 105.355 78.4767 104.794 78.103 104.421C77.3556 103.487 76.9819 102.366 76.2345 101.245C75.674 100.311 74.5529 99.7511 73.2449 99.7511H53.0651C53.4388 98.8172 53.9994 97.8833 54.7468 97.1361L56.0547 95.4551H76.0477L77.3557 97.1361C80.1584 100.498 80.1584 105.168 84.456 106.849Z" fill="#009BD1"/>
<path d="M96.9763 111.518H35.1289L38.3054 107.035C38.8659 106.288 39.987 105.914 41.4818 105.914H90.6234C91.9313 105.914 93.2393 106.288 93.7998 107.035L96.9763 111.518Z" fill="url(#paint1_linear_153_175)"/>
<path d="M35.1289 111.518H97.1631V111.704C97.1631 112.451 96.6026 113.012 95.8552 113.012H36.4369C35.6895 113.012 35.1289 112.452 35.1289 111.518Z" fill="#009BD1"/>
<path d="M124.442 8.97365L8.40825 17.7525C3.737 18.1261 0 22.0485 0 26.7181V92.2793C0 95.6414 2.6159 98.2564 5.9792 98.2564H126.311C129.674 98.2564 132.29 95.6414 132.29 92.2793V16.2582C132.103 11.9622 128.553 8.78687 124.442 8.97365Z" fill="url(#paint2_linear_153_175)"/>
<path opacity="0.6" d="M0 82.1934V92.4665C0 95.8286 2.6159 98.4436 5.9792 98.4436H126.311C129.674 98.4436 132.29 95.8286 132.29 92.4665V85.3687C128.927 94.7079 8.78195 102.179 0 82.1934Z" fill="#009BD1"/>
<path d="M123.321 13.2697L8.22138 22.6089C6.16603 22.7957 4.48438 24.4768 4.48438 26.5314V80.512C4.48438 82.7534 6.35288 84.808 8.78193 84.808H123.508C125.75 84.808 127.805 82.9402 127.805 80.512V17.1922C127.619 14.9508 125.75 13.0829 123.321 13.2697Z" fill="#F7F9FA"/>
<path d="M11.3984 67.4364V67.9967C11.3984 68.3703 12.1458 68.7439 12.7064 68.7439L87.6333 67.9967C88.3807 67.9967 88.9412 67.6232 88.9412 67.0628C88.9412 66.5025 88.3807 66.1289 87.6333 66.1289L12.7064 66.3157C11.959 66.5025 11.3984 66.876 11.3984 67.4364Z" fill="#E2E2E2"/>
<path d="M10.2773 74.348V74.9083C10.2773 75.2819 10.651 75.6555 11.2116 75.6555L58.111 75.2819C58.6715 75.2819 59.0452 74.9083 59.0452 74.348C59.0452 73.7876 58.6715 73.4141 58.111 73.4141H11.0247C10.651 73.4141 10.2773 73.7876 10.2773 74.348Z" fill="#E2E2E2"/>
<path d="M10.2773 79.0169V79.5773C10.2773 79.9508 10.651 80.3244 11.2116 80.3244L58.111 79.9509C58.6715 79.9509 59.0452 79.5773 59.0452 79.0169C59.0452 78.4566 58.6715 78.083 58.111 78.083H11.0247C10.651 78.083 10.2773 78.4566 10.2773 79.0169Z" fill="#E2E2E2"/>
<path d="M41.4813 68.1831C41.4813 67.4359 41.2945 66.6888 41.2945 65.9417L12.3327 65.7549C11.7721 65.7549 11.3984 66.502 11.3984 67.2492V67.9963C11.3984 68.7434 11.7721 69.3038 12.3327 69.3038L41.4813 69.117C41.4813 68.7434 41.4813 68.3699 41.4813 68.1831Z" fill="url(#paint3_linear_153_175)"/>
<path d="M41.6683 70.2383C43.1631 70.2383 44.471 68.9308 44.2842 67.4365C44.2842 65.9423 42.9762 64.6348 41.4814 64.8216C39.9866 64.8216 38.6787 66.129 38.8655 67.6233C39.0524 68.9308 40.1735 70.2383 41.6683 70.2383Z" fill="#E2E2E2"/>
<path d="M82.2146 58.2848L13.267 60.1526C10.2774 60.1526 8.03516 57.9112 8.03516 54.9226V13.6434C8.03516 10.6548 10.6511 8.22664 13.6407 8.41342L82.5883 15.3244C85.2042 15.5112 87.2596 17.7526 87.2596 20.5544V53.0548C87.2596 55.8566 85.0174 58.098 82.2146 58.2848Z" fill="url(#paint4_linear_153_175)"/>
<path d="M76.9822 42.4085C67.0791 47.2649 55.8681 50.2534 44.844 51.5609C33.4461 53.0552 21.6746 52.8684 10.4636 49.693C9.52931 49.5063 8.78191 49.1327 7.84766 48.9459V54.923C7.84766 57.9115 10.2767 60.153 13.0795 60.153L82.0271 58.2851C84.8299 58.2851 87.0721 55.8569 87.0721 53.0552V36.6182C84.0825 38.8596 80.3455 40.7274 76.9822 42.4085Z" fill="url(#paint5_linear_153_175)"/>
<path fill-rule="evenodd" clip-rule="evenodd" d="M44.4701 44.4625L44.2832 31.5744C44.2832 30.2669 45.778 29.333 46.8991 30.0801L57.7364 36.4308C58.8575 37.1779 58.8575 38.859 57.7364 39.4193L46.8991 45.9568C46.1517 46.7039 44.6569 45.9568 44.4701 44.4625Z" fill="url(#paint6_linear_153_175)"/>
<path fill-rule="evenodd" clip-rule="evenodd" d="M43.722 42.4078L43.5352 29.5197C43.5352 28.2122 45.03 27.2783 46.1511 28.0254L56.9884 34.3761C58.1095 35.1232 58.1095 36.8043 56.9884 37.3646L46.1511 43.9021C45.2168 44.4624 43.722 43.7153 43.722 42.4078Z" fill="#F4F4F4"/>
<path d="M57.5496 34.5635C57.5496 35.1238 57.1759 35.6842 56.8022 35.871L45.9649 42.4084C45.2175 42.782 44.2832 42.5952 43.7227 42.0348V42.2216C43.7227 43.5291 45.2175 44.463 46.3386 43.7159L57.1759 37.1785C58.1101 36.6181 58.297 35.3106 57.5496 34.5635Z" fill="#EAE7D0"/>
<path d="M95.1055 25.9712C95.1055 26.158 95.2923 26.3447 95.4792 26.3447L116.967 26.9051C117.154 26.9051 117.341 26.7183 117.341 26.7183C117.341 26.5315 117.154 26.5315 116.967 26.5315L95.4792 25.7844C95.2923 25.5976 95.1055 25.7844 95.1055 25.9712Z" fill="#E2E2E2"/>
<path d="M94.7324 27.4663C94.7324 27.8399 94.9193 28.0267 94.9193 28.0267L108.372 28.4003C108.559 28.4003 108.559 28.2135 108.559 28.0267C108.559 27.8399 108.559 27.6531 108.372 27.6531L94.9193 27.0928C94.9193 27.0928 94.7324 27.2796 94.7324 27.4663Z" fill="#E2E2E2"/>
<path d="M103.701 26.3451C103.701 26.1583 103.701 25.9715 103.701 25.7847L95.4798 25.4111C95.293 25.4111 95.293 25.5979 95.293 25.7847V25.9715C95.293 26.1583 95.4798 26.3451 95.4798 26.3451L103.888 26.5318C103.701 26.5318 103.701 26.5318 103.701 26.3451Z" fill="url(#paint7_linear_153_175)"/>
<path d="M103.702 26.7188C103.889 26.7188 104.076 26.532 104.076 26.3452C104.076 26.1585 103.889 25.9717 103.702 25.9717C103.515 25.9717 103.328 26.1585 103.328 26.3452C103.328 26.3452 103.515 26.7188 103.702 26.7188Z" fill="white"/>
<path d="M95.1061 24.1042L122.199 24.8514C123.32 24.8514 124.255 23.9175 124.255 22.7968V6.73334C124.255 5.61263 123.134 4.67871 122.013 4.67871L94.9193 7.29369C93.7982 7.48047 93.0508 8.22761 93.0508 9.34831V22.0496C93.0508 23.1703 93.985 24.1042 95.1061 24.1042Z" fill="url(#paint8_linear_153_175)"/>
<path d="M122.2 4.67884C123.321 4.67884 124.255 5.61276 124.255 6.73347V22.9837C124.255 24.1044 123.321 25.0383 122.2 25.0383L95.1068 24.2912C93.9857 24.2912 93.0514 23.3572 93.0514 22.2365V9.34844C93.0514 8.22774 93.7988 7.4806 94.9199 7.29382L122.013 4.67884H122.2ZM122.2 3.18457C122.013 3.18457 122.013 3.18457 121.826 3.18457L94.7331 5.98633C93.0514 6.17311 91.5566 7.66739 91.5566 9.34844V22.0498C91.5566 23.9176 93.0514 25.4119 94.9199 25.4119L122.013 26.159C123.882 26.159 125.377 24.6647 125.377 22.7969V6.73347C125.75 4.67884 124.069 3.18457 122.2 3.18457Z" fill="#F7F9FA"/>
<path d="M97.1628 17.9399C101.087 19.8078 105.571 20.9285 109.682 21.4888C114.166 22.0492 118.837 22.0492 123.135 20.7417C123.509 20.5549 123.882 20.5549 124.069 20.3681V22.7963C124.069 23.917 123.135 24.8509 122.014 24.8509L94.9206 24.1038C93.7995 24.1038 92.8652 23.1699 92.8652 22.0492V15.5117C94.36 16.6324 95.8548 17.3796 97.1628 17.9399Z" fill="url(#paint9_linear_153_175)"/>
<path fill-rule="evenodd" clip-rule="evenodd" d="M105.383 18.873V13.8299C105.383 13.2695 105.943 12.8959 106.504 13.2695L110.801 15.6977C111.175 15.8845 111.175 16.6316 110.801 16.8184L106.504 19.4334C106.13 19.6202 105.383 19.2466 105.383 18.873Z" fill="url(#paint10_linear_153_175)"/>
<path fill-rule="evenodd" clip-rule="evenodd" d="M105.197 17.9394V12.8963C105.197 12.3359 105.758 11.9624 106.318 12.3359L110.616 14.7641C110.99 14.9509 110.99 15.698 110.616 15.8848L106.318 18.4998C105.758 18.8734 105.197 18.4998 105.197 17.9394Z" fill="#F4F4F4"/>
<path d="M110.615 14.9512C110.615 15.138 110.428 15.3247 110.242 15.5115L105.944 17.9397C105.57 18.1265 105.383 18.1265 105.01 17.7529C105.01 18.3133 105.57 18.6869 106.131 18.3133L110.428 15.6983C110.802 15.6983 110.802 15.138 110.615 14.9512Z" fill="#EAE7D0"/>
<path d="M95.1055 51.5598C95.1055 51.7466 95.2923 51.9334 95.4792 51.9334L116.967 52.4938C117.154 52.4938 117.341 52.307 117.341 52.307C117.341 52.1202 117.154 52.1202 116.967 52.1202L95.4792 51.373C95.2923 51.373 95.1055 51.373 95.1055 51.5598Z" fill="#E2E2E2"/>
<path d="M94.7324 53.0542C94.7324 53.4278 94.9193 53.6146 94.9193 53.6146L108.372 53.9881C108.559 53.9881 108.559 53.8014 108.559 53.6146C108.559 53.4278 108.372 53.241 108.372 53.241L94.9193 52.6807C94.9193 52.6807 94.7324 52.8674 94.7324 53.0542Z" fill="#E2E2E2"/>
<path d="M103.701 52.1204C103.701 51.9337 103.701 51.7469 103.701 51.5601L95.4798 51.1865C95.293 51.1865 95.293 51.3733 95.293 51.5601V51.7469C95.293 51.9337 95.4798 52.1204 95.4798 52.1204L103.888 52.3072C103.701 52.1204 103.701 52.1204 103.701 52.1204Z" fill="url(#paint11_linear_153_175)"/>
<path d="M103.702 52.3077C103.889 52.3077 104.076 52.1209 104.076 51.9341C104.076 51.7473 103.889 51.5605 103.702 51.5605C103.515 51.5605 103.328 51.7473 103.328 51.9341C103.328 52.1209 103.515 52.3077 103.702 52.3077Z" fill="white"/>
<path d="M95.1061 49.878L122.199 50.6251C123.32 50.6251 124.255 49.6912 124.255 48.5705V32.3203C124.255 31.1995 123.134 30.2656 122.013 30.2656L94.9193 32.8806C93.7982 33.0674 93.0508 33.8145 93.0508 34.9352V47.8233C93.0508 48.944 93.985 49.878 95.1061 49.878Z" fill="url(#paint12_linear_153_175)"/>
<path d="M97.1608 43.5278C101.085 45.3956 105.569 46.5163 109.68 47.0767C114.164 47.637 118.835 47.637 123.133 46.3296C123.507 46.1428 123.88 46.1428 124.067 45.956V48.3842C124.067 49.5049 123.133 50.4388 122.012 50.4388L94.9186 49.6917C93.7975 49.6917 92.8633 48.7578 92.8633 47.637V41.0996C94.3581 42.2203 95.8529 42.9674 97.1608 43.5278Z" fill="url(#paint13_linear_153_175)"/>
<path fill-rule="evenodd" clip-rule="evenodd" d="M105.381 44.4609V39.4178C105.381 38.8574 105.941 38.4838 106.502 38.8574L110.8 41.2856C111.173 41.4724 111.173 42.2195 110.8 42.4063L106.502 45.0213C106.128 45.3948 105.381 45.0213 105.381 44.4609Z" fill="url(#paint14_linear_153_175)"/>
<path fill-rule="evenodd" clip-rule="evenodd" d="M105.195 43.5273V38.4842C105.195 37.9238 105.756 37.5502 106.316 37.9238L110.614 40.352C110.988 40.5388 110.988 41.2859 110.614 41.4727L106.316 44.0877C105.756 44.4613 105.195 44.0877 105.195 43.5273Z" fill="#F4F4F4"/>
<path d="M110.613 40.5381C110.613 40.7249 110.426 40.9117 110.24 41.0984L105.942 43.7134C105.568 43.9002 105.382 43.9002 105.008 43.5266C105.008 44.087 105.568 44.4605 106.129 44.087L110.426 41.472C110.8 41.472 110.8 40.9117 110.613 40.5381Z" fill="#EAE7D0"/>
<path d="M95.1055 77.5227C95.1055 77.7095 95.2923 77.8963 95.4792 77.8963L116.967 78.4566C117.154 78.4566 117.341 78.2699 117.341 78.2699C117.341 78.0831 117.154 78.0831 116.967 78.0831L95.4792 77.3359C95.2923 77.3359 95.1055 77.3359 95.1055 77.5227Z" fill="#E2E2E2"/>
<path d="M94.7324 79.0171C94.7324 79.3907 94.9193 79.5775 94.9193 79.5775L108.372 79.951C108.559 79.951 108.559 79.7643 108.559 79.5775C108.559 79.3907 108.372 79.2039 108.372 79.2039L94.9193 78.6436C94.9193 78.6436 94.7324 78.8303 94.7324 79.0171Z" fill="#E2E2E2"/>
<path d="M103.701 78.0833C103.701 77.8966 103.701 77.7098 103.701 77.523L95.4798 77.1494C95.293 77.1494 95.293 77.3362 95.293 77.523V77.7098C95.293 77.8966 95.4798 78.0833 95.4798 78.0833L103.888 78.2701C103.701 78.0833 103.701 78.0833 103.701 78.0833Z" fill="url(#paint15_linear_153_175)"/>
<path d="M103.702 78.2706C103.889 78.2706 104.076 78.0838 104.076 77.897C104.076 77.7102 103.889 77.5234 103.702 77.5234C103.515 77.5234 103.328 77.7102 103.328 77.897C103.328 78.0838 103.515 78.2706 103.702 78.2706Z" fill="white"/>
<path d="M95.1061 75.8408L122.199 76.588C123.32 76.588 124.255 75.6541 124.255 74.5333V58.2831C124.255 57.1624 123.134 56.2285 122.013 56.2285L94.9193 58.8435C93.7982 59.0303 93.0508 59.7774 93.0508 60.8981V73.7862C93.0508 74.9069 93.985 75.8408 95.1061 75.8408Z" fill="url(#paint16_linear_153_175)"/>
<path d="M97.1608 69.4907C101.085 71.3585 105.569 72.4792 109.68 73.0396C114.164 73.5999 118.835 73.5999 123.133 72.2925C123.507 72.1057 123.88 72.1057 124.067 71.9189V74.3471C124.067 75.4678 123.133 76.4017 122.012 76.4017L94.9186 75.6546C93.7975 75.6546 92.8633 74.7206 92.8633 73.5999V67.0625C94.3581 68.1832 95.8529 68.9303 97.1608 69.4907Z" fill="url(#paint17_linear_153_175)"/>
<path fill-rule="evenodd" clip-rule="evenodd" d="M105.381 70.4238V65.3806C105.381 64.8203 105.941 64.4467 106.502 64.8203L110.8 67.2485C111.173 67.4353 111.173 68.1824 110.8 68.3692L106.502 70.9842C106.128 71.3577 105.381 70.9842 105.381 70.4238Z" fill="url(#paint18_linear_153_175)"/>
<path fill-rule="evenodd" clip-rule="evenodd" d="M105.195 69.4902V64.4471C105.195 63.8867 105.756 63.5131 106.316 63.8867L110.614 66.3149C110.988 66.5017 110.988 67.2488 110.614 67.4356L106.316 70.0506C105.756 70.4241 105.195 70.0506 105.195 69.4902Z" fill="#F4F4F4"/>
<path d="M110.613 66.501C110.613 66.6878 110.426 66.8745 110.24 67.0613L105.942 69.6763C105.568 69.8631 105.382 69.8631 105.008 69.4895C105.008 70.0499 105.568 70.4234 106.129 70.0499L110.426 67.4349C110.8 67.2481 110.8 66.8745 110.613 66.501Z" fill="#EAE7D0"/>
<path d="M112.297 2.06249C115.473 1.12857 118.65 0.568213 122.013 0.00786046C125.19 -0.178924 128.179 2.99641 127.432 5.98495C127.245 6.91887 127.058 7.66601 126.871 8.59993C126.684 7.66601 126.497 6.91887 126.311 5.98495C126.311 3.55676 123.882 1.68892 122.013 1.68892C118.837 1.8757 115.66 2.06249 112.297 2.06249Z" fill="#AEE7ED"/>
<defs>
<linearGradient id="paint0_linear_153_175" x1="47.6525" y1="101.202" x2="84.5455" y2="101.202" gradientUnits="userSpaceOnUse">
<stop stop-color="#00A8E3"/>
<stop offset="0.3775" stop-color="#00B0E8"/>
<stop offset="1" stop-color="#00B9EE"/>
</linearGradient>
<linearGradient id="paint1_linear_153_175" x1="35.1237" y1="108.742" x2="97.0647" y2="108.742" gradientUnits="userSpaceOnUse">
<stop stop-color="#00A8E3"/>
<stop offset="0.3775" stop-color="#00B0E8"/>
<stop offset="1" stop-color="#00B9EE"/>
</linearGradient>
<linearGradient id="paint2_linear_153_175" x1="0.0343804" y1="53.6315" x2="132.151" y2="53.6315" gradientUnits="userSpaceOnUse">
<stop stop-color="#00A8E3"/>
<stop offset="0.3775" stop-color="#00B0E8"/>
<stop offset="1" stop-color="#00B9EE"/>
</linearGradient>
<linearGradient id="paint3_linear_153_175" x1="11.4074" y1="67.5024" x2="41.5854" y2="67.5024" gradientUnits="userSpaceOnUse">
<stop stop-color="#79CAF2"/>
<stop offset="0.7183" stop-color="#82CEF4"/>
<stop offset="1" stop-color="#87D1F5"/>
</linearGradient>
<linearGradient id="paint4_linear_153_175" x1="7.98938" y1="34.2546" x2="87.3173" y2="34.2546" gradientUnits="userSpaceOnUse">
<stop stop-color="#FECC00"/>
<stop offset="0.0130294" stop-color="#FECC00"/>
<stop offset="0.5149" stop-color="#FFD900"/>
<stop offset="1" stop-color="#FFDD00"/>
</linearGradient>
<linearGradient id="paint5_linear_153_175" x1="7.98873" y1="48.2976" x2="87.3167" y2="48.2976" gradientUnits="userSpaceOnUse">
<stop stop-color="#FECC00"/>
<stop offset="0.0922963" stop-color="#FDCC03"/>
<stop offset="0.5538" stop-color="#FCCC10"/>
<stop offset="1" stop-color="#FBCC14"/>
</linearGradient>
<linearGradient id="paint6_linear_153_175" x1="44.4448" y1="38.0627" x2="58.867" y2="38.0627" gradientUnits="userSpaceOnUse">
<stop stop-color="#FECC00"/>
<stop offset="0.0922963" stop-color="#FDCC03"/>
<stop offset="0.5538" stop-color="#FCCC10"/>
<stop offset="1" stop-color="#FBCC14"/>
</linearGradient>
<linearGradient id="paint7_linear_153_175" x1="95.1001" y1="26.0186" x2="103.686" y2="26.0186" gradientUnits="userSpaceOnUse">
<stop stop-color="#79CAF2"/>
<stop offset="0.7183" stop-color="#82CEF4"/>
<stop offset="1" stop-color="#87D1F5"/>
</linearGradient>
<linearGradient id="paint8_linear_153_175" x1="124.263" y1="14.7617" x2="93.1098" y2="14.7617" gradientUnits="userSpaceOnUse">
<stop stop-color="#FECC00"/>
<stop offset="0.0130294" stop-color="#FECC00"/>
<stop offset="0.5149" stop-color="#FFD900"/>
<stop offset="1" stop-color="#FFDD00"/>
</linearGradient>
<linearGradient id="paint9_linear_153_175" x1="124.264" y1="20.276" x2="93.1111" y2="20.276" gradientUnits="userSpaceOnUse">
<stop stop-color="#FECC00"/>
<stop offset="0.0922963" stop-color="#FDCC03"/>
<stop offset="0.5538" stop-color="#FCCC10"/>
<stop offset="1" stop-color="#FBCC14"/>
</linearGradient>
<linearGradient id="paint10_linear_153_175" x1="105.399" y1="16.2562" x2="111.062" y2="16.2562" gradientUnits="userSpaceOnUse">
<stop stop-color="#FECC00"/>
<stop offset="0.0922963" stop-color="#FDCC03"/>
<stop offset="0.5538" stop-color="#FCCC10"/>
<stop offset="1" stop-color="#FBCC14"/>
</linearGradient>
<linearGradient id="paint11_linear_153_175" x1="95.1001" y1="51.6821" x2="103.686" y2="51.6821" gradientUnits="userSpaceOnUse">
<stop stop-color="#79CAF2"/>
<stop offset="0.7183" stop-color="#82CEF4"/>
<stop offset="1" stop-color="#87D1F5"/>
</linearGradient>
<linearGradient id="paint12_linear_153_175" x1="124.263" y1="40.4235" x2="93.1098" y2="40.4235" gradientUnits="userSpaceOnUse">
<stop stop-color="#FECC00"/>
<stop offset="0.0130294" stop-color="#FECC00"/>
<stop offset="0.5149" stop-color="#FFD900"/>
<stop offset="1" stop-color="#FFDD00"/>
</linearGradient>
<linearGradient id="paint13_linear_153_175" x1="124.262" y1="45.9388" x2="93.1092" y2="45.9388" gradientUnits="userSpaceOnUse">
<stop stop-color="#FECC00"/>
<stop offset="0.0922963" stop-color="#FDCC03"/>
<stop offset="0.5538" stop-color="#FCCC10"/>
<stop offset="1" stop-color="#FBCC14"/>
</linearGradient>
<linearGradient id="paint14_linear_153_175" x1="105.397" y1="41.9188" x2="111.06" y2="41.9188" gradientUnits="userSpaceOnUse">
<stop stop-color="#FECC00"/>
<stop offset="0.0922963" stop-color="#FDCC03"/>
<stop offset="0.5538" stop-color="#FCCC10"/>
<stop offset="1" stop-color="#FBCC14"/>
</linearGradient>
<linearGradient id="paint15_linear_153_175" x1="95.1001" y1="77.6438" x2="103.686" y2="77.6438" gradientUnits="userSpaceOnUse">
<stop stop-color="#79CAF2"/>
<stop offset="0.7183" stop-color="#82CEF4"/>
<stop offset="1" stop-color="#87D1F5"/>
</linearGradient>
<linearGradient id="paint16_linear_153_175" x1="124.263" y1="66.3853" x2="93.1098" y2="66.3853" gradientUnits="userSpaceOnUse">
<stop stop-color="#FECC00"/>
<stop offset="0.0130294" stop-color="#FECC00"/>
<stop offset="0.5149" stop-color="#FFD900"/>
<stop offset="1" stop-color="#FFDD00"/>
</linearGradient>
<linearGradient id="paint17_linear_153_175" x1="124.262" y1="71.9006" x2="93.1092" y2="71.9006" gradientUnits="userSpaceOnUse">
<stop stop-color="#FECC00"/>
<stop offset="0.0922963" stop-color="#FDCC03"/>
<stop offset="0.5538" stop-color="#FCCC10"/>
<stop offset="1" stop-color="#FBCC14"/>
</linearGradient>
<linearGradient id="paint18_linear_153_175" x1="105.397" y1="67.8806" x2="111.06" y2="67.8806" gradientUnits="userSpaceOnUse">
<stop stop-color="#FECC00"/>
<stop offset="0.0922963" stop-color="#FDCC03"/>
<stop offset="0.5538" stop-color="#FCCC10"/>
<stop offset="1" stop-color="#FBCC14"/>
</linearGradient>
</defs>
</svg>
