<svg width="90" height="90" viewBox="0 0 90 90" fill="none" xmlns="http://www.w3.org/2000/svg">
<circle cx="45" cy="45" r="44.5" stroke="#35BBE3" stroke-dasharray="6 6"/>
<g clip-path="url(#clip0_4768_5822)">
<path d="M62.5748 62.1365H27.4207V73.5607H62.5748V62.1365Z" fill="#FFDC00"/>
<path d="M62.575 62.1365H34.4517V73.5607H62.575V62.1365Z" fill="#FFC700"/>
<path d="M51.3636 70H38.6364C38.6364 69.4467 38.3521 69 38 69V67C38.3521 67 38.6364 66.5533 38.6364 66H51.3636C51.3636 66.5533 51.6479 67 52 67V69C51.6479 69 51.3636 69.4467 51.3636 70Z" fill="white"/>
<path d="M62.5748 74.0001H27.4206C27.1789 74.0001 26.9812 73.8023 26.9812 73.5607V62.1364C26.9812 61.8947 27.1789 61.697 27.4206 61.697H62.5748C62.8165 61.697 63.0142 61.8947 63.0142 62.1364C63.0142 62.3781 62.8165 62.5758 62.5748 62.5758H27.8601V73.1213H62.1354V64.7728C62.1354 64.5311 62.3331 64.3334 62.5748 64.3334C62.8165 64.3334 63.0142 64.5311 63.0142 64.7728V73.5607C63.0142 73.8023 62.8165 74.0001 62.5748 74.0001Z" fill="#FFA800"/>
<path d="M63.4538 62.1362H26.5419C25.5708 62.1362 24.7842 61.3497 24.7842 60.3787C24.7842 59.4076 25.5708 58.6211 26.5419 58.6211H63.4538C64.4249 58.6211 65.2115 59.4076 65.2115 60.3787C65.2115 61.3497 64.4249 62.1362 63.4538 62.1362Z" fill="#FFDC00"/>
<path d="M63.4538 62.1362H34.891C33.9199 62.1362 33.1333 61.3497 33.1333 60.3787C33.1333 59.4076 33.9199 58.6211 34.891 58.6211H63.4538C64.4249 58.6211 65.2115 59.4076 65.2115 60.3787C65.2115 61.3497 64.4249 62.1362 63.4538 62.1362Z" fill="#FFC700"/>
<path d="M62.1355 16.4395H51.1498L60.8172 29.6213L62.1355 16.4395Z" fill="#2FC8F2"/>
<path d="M27.8601 16.4395L29.1784 29.6213L38.8458 16.4395H27.8601Z" fill="#2FC8F2"/>
<path d="M38.8458 16.4395L44.9978 29.6213L51.1498 16.4395H38.8458Z" fill="#2FC8F2"/>
<path d="M62.1355 16.4395H55.5441L60.8172 29.6213L62.1355 16.4395Z" fill="#00B5F4"/>
<path d="M32.2545 16.4395L29.1785 29.6213L38.8459 16.4395H32.2545Z" fill="#00B5F4"/>
<path d="M44.9978 16.4395V29.6213L51.1498 16.4395H44.9978Z" fill="#00B5F4"/>
<path d="M16.4351 29.6213H29.1784L27.8602 16.4395L16.4351 29.6213Z" fill="#7FE3FF"/>
<path d="M22.5869 29.6213H29.1783L27.86 16.4395L22.5869 29.6213Z" fill="#00B5F4"/>
<path d="M62.1354 16.4395L60.8171 29.6213H73.5605L62.1354 16.4395Z" fill="#7FE3FF"/>
<path d="M62.1355 16.4395L65.6509 29.6213H73.5606L62.1355 16.4395Z" fill="#00B5F4"/>
<path d="M29.1785 29.6213H44.9978L38.8459 16.4395L29.1785 29.6213Z" fill="#7FE3FF"/>
<path d="M35.7698 29.6213H44.9977L38.8458 16.4395L35.7698 29.6213Z" fill="#00B5F4"/>
<path d="M51.1498 16.4395L44.9978 29.6213H60.8172L51.1498 16.4395Z" fill="#7FE3FF"/>
<path d="M51.1498 16.4395V29.6213H60.8172L51.1498 16.4395Z" fill="#00B5F4"/>
<path d="M60.8171 30.0606H44.9977C44.8483 30.0606 44.7077 29.9859 44.6286 29.8584C44.5495 29.731 44.5363 29.5728 44.6023 29.4366L50.7542 16.2548C50.8202 16.1142 50.9564 16.0175 51.1102 16.0043C51.264 15.9912 51.4178 16.0571 51.5057 16.1801L61.1731 29.3619C61.2697 29.4937 61.2873 29.6739 61.2082 29.8189C61.1335 29.9683 60.9841 30.0606 60.8171 30.0606ZM45.6876 29.1818H59.9515L51.2376 17.2962L45.692 29.1818H45.6876Z" fill="#34234D"/>
<path d="M16.4351 29.6211L36.6487 58.6211H40.6036L29.1784 29.6211H16.4351Z" fill="#7FE3FF"/>
<path d="M44.9978 29.6211V58.6211H49.3921L60.8172 29.6211H44.9978Z" fill="#7FE3FF"/>
<path d="M60.8172 29.6211L49.3921 58.6211H53.3469L73.5606 29.6211H60.8172Z" fill="#7FE3FF"/>
<path d="M29.1785 29.6211L40.6036 58.6211H44.9978V29.6211H29.1785Z" fill="#7FE3FF"/>
<path d="M22.5869 29.6211L38.8457 58.6211H40.6034L29.1783 29.6211H22.5869Z" fill="#00B5F4"/>
<path d="M51.1498 29.6211L47.1949 58.6211H49.3921L60.8172 29.6211H51.1498Z" fill="#00B5F4"/>
<path d="M65.6509 29.6211L51.1498 58.6211H53.3469L73.5606 29.6211H65.6509Z" fill="#00B5F4"/>
<path d="M35.7698 29.6211L42.8006 58.6211H44.9977V29.6211H35.7698Z" fill="#00B5F4"/>
<path d="M44.9977 59.0607H40.6034C40.4233 59.0607 40.2607 58.9508 40.1948 58.7839L28.7696 29.7839C28.7169 29.6476 28.7345 29.4939 28.8136 29.3752C28.8971 29.2566 29.0333 29.1819 29.1783 29.1819H44.9977C45.2394 29.1819 45.4371 29.3796 45.4371 29.6213V58.6213C45.4371 58.8629 45.2394 59.0607 44.9977 59.0607ZM40.9022 58.1819H44.5583V30.0607H29.8243L40.9022 58.1819Z" fill="#0098DA"/>
<path d="M73.9956 29.6652C73.9956 29.6432 73.9956 29.6212 73.9956 29.5992C73.9956 29.5817 73.9956 29.5641 73.9956 29.5465C73.9956 29.5245 73.9824 29.5026 73.978 29.4806C73.9736 29.463 73.9692 29.4455 73.9604 29.4279C73.9604 29.4279 73.9604 29.4191 73.9604 29.4147C73.9517 29.3971 73.9385 29.3839 73.9253 29.3664C73.9165 29.3532 73.9121 29.34 73.8989 29.3268L70.0539 24.8889C69.8958 24.7044 69.6189 24.6868 69.4344 24.845C69.2498 25.0032 69.2322 25.28 69.3904 25.4645L72.607 29.173H61.3137L61.7795 24.4979L62.4826 17.4895L67.5272 23.3115C67.6854 23.4961 67.9623 23.5136 68.1468 23.3555C68.3314 23.1973 68.349 22.9205 68.1908 22.7359L62.4694 16.1494C62.4694 16.1494 62.4694 16.1494 62.465 16.1494C62.465 16.1494 62.4562 16.1494 62.4562 16.1406C62.4211 16.1055 62.3815 16.0747 62.3376 16.0527C62.3244 16.0439 62.3112 16.0395 62.2981 16.0352C62.2497 16.0176 62.2014 16.0044 62.153 16.0044C62.153 16.0044 62.1443 16.0044 62.1399 16.0044H27.8601C27.8601 16.0044 27.8514 16.0044 27.847 16.0044C27.7986 16.0044 27.7503 16.0176 27.7063 16.0352C27.6932 16.0395 27.68 16.0483 27.6668 16.0527C27.6229 16.0747 27.5833 16.1011 27.5481 16.1406C27.5481 16.1406 27.5394 16.1406 27.5394 16.1494C27.5394 16.1494 27.5394 16.1494 27.535 16.1494L16.1055 29.3312C16.1055 29.3312 16.0879 29.3576 16.0791 29.3708C16.0703 29.3883 16.0571 29.4015 16.0439 29.4191C16.0439 29.4191 16.0439 29.4279 16.0439 29.4323C16.0352 29.4498 16.0308 29.4674 16.0264 29.485C16.0176 29.507 16.0132 29.5289 16.0088 29.5509C16.0088 29.5685 16.0088 29.5861 16.0088 29.6036C16.0088 29.6256 16.0088 29.6476 16.0088 29.6695C16.0088 29.6871 16.0132 29.7047 16.0176 29.7223C16.022 29.7442 16.0264 29.7662 16.0395 29.7882C16.0395 29.7926 16.0395 29.8014 16.0439 29.8058C16.0483 29.8145 16.0571 29.8233 16.0615 29.8365C16.0703 29.8497 16.0747 29.8629 16.0835 29.8761L30.3473 50.343C30.4879 50.5408 30.7604 50.5891 30.9581 50.4529C31.1558 50.3123 31.2042 50.0398 31.068 49.8421L17.2787 30.0606H28.8796L39.9576 58.1818H36.8772L32.5972 52.0435C32.4566 51.8458 32.1841 51.7974 31.9864 51.9336C31.7886 52.0742 31.7403 52.3467 31.8765 52.5444L36.2884 58.8717C36.3718 58.9903 36.5037 59.0606 36.6487 59.0606H40.6035C40.7485 59.0606 40.8848 58.9903 40.9683 58.8673C41.0517 58.7486 41.0693 58.5948 41.0122 58.4586L29.8244 30.0606H44.5584V58.6212C44.5584 58.8629 44.7561 59.0606 44.9978 59.0606H53.3469C53.4919 59.0606 53.6238 58.9903 53.7073 58.8717L73.9209 29.8717C73.9209 29.8717 73.9341 29.8453 73.9429 29.8321C73.9473 29.8233 73.9561 29.8145 73.9604 29.8014C73.9604 29.797 73.9605 29.7882 73.9648 29.7838C73.9736 29.7618 73.978 29.7398 73.9868 29.7179C73.9868 29.7003 73.9956 29.6827 73.9956 29.6652ZM51.2333 17.2962L59.9471 29.1818H45.6833L51.2333 17.2962ZM61.6477 16.8788L60.8831 24.5155L60.492 28.4348L52.0199 16.8788H61.6521H61.6477ZM44.9978 28.5842L39.5357 16.8788H50.4599L44.9978 28.5842ZM37.9802 16.8788L29.5036 28.4392L29.073 24.1332L28.3479 16.8788H37.9802ZM17.3974 29.1818L27.5262 17.4983L28.1546 23.7773L28.6951 29.1818H17.3974ZM30.0441 29.1818L38.7623 17.2962L44.3079 29.1818H30.0485H30.0441ZM45.4372 30.0606H60.1712L49.0933 58.1818H45.4372V30.0606ZM53.1184 58.1818H50.038L61.116 30.0606H72.7169L53.114 58.1818H53.1184Z" fill="#0098DA"/>
<path d="M63.4537 62.5758H26.5419C25.329 62.5758 24.3447 61.5916 24.3447 60.3789C24.3447 59.1661 25.329 58.1819 26.5419 58.1819H63.4537C64.6666 58.1819 65.6509 59.1661 65.6509 60.3789C65.6509 61.5916 64.6666 62.5758 63.4537 62.5758ZM26.5419 59.0607C25.8168 59.0607 25.2236 59.6539 25.2236 60.3789C25.2236 61.1039 25.8168 61.697 26.5419 61.697H63.4537C64.1788 61.697 64.772 61.1039 64.772 60.3789C64.772 59.6539 64.1788 59.0607 63.4537 59.0607H26.5419Z" fill="#FFA800"/>
</g>
<defs>
<clipPath id="clip0_4768_5822">
<rect width="58" height="58" fill="white" transform="translate(16 16)"/>
</clipPath>
</defs>
</svg>
