<svg width="69" height="69" viewBox="0 0 69 69" fill="none" xmlns="http://www.w3.org/2000/svg">
<g clip-path="url(#clip0_4768_5847)">
<path d="M13.531 27.3984H53.5486V45.5158C53.5486 49.0366 50.7246 51.9217 47.2249 51.9217H19.8546C16.3791 51.9217 13.531 49.061 13.531 45.5158V27.3984Z" fill="#D7F9FF"/>
<path d="M56.9035 22.044C56.8069 20.7971 56.5897 19.6968 56.0828 18.6699C55.2622 17.0562 53.983 15.7359 52.39 14.9291C51.3763 14.4156 50.3143 14.1956 49.0592 14.0978C47.8524 14 46.3319 14 44.4734 14H25.5266C23.644 14 22.1476 14 20.9408 14.0978C19.7098 14.1956 18.6237 14.4156 17.61 14.9291C16.017 15.7604 14.7378 17.0562 13.9172 18.6699C13.4103 19.6968 13.1931 20.7726 13.0965 22.044C13 23.2665 13 24.7824 13 26.6895V41.3105C13 43.1932 13 44.7335 13.0965 45.956C13.1931 47.2029 13.4103 48.3032 13.9172 49.3301C14.7378 50.9438 16.017 52.2641 17.61 53.0709C18.6237 53.5844 19.6857 53.8044 20.9408 53.9022C22.1476 54 23.6681 54 25.5266 54H44.4734C46.3319 54 47.8524 54 49.0592 53.9022C50.2902 53.8044 51.3763 53.5844 52.39 53.0709C53.983 52.2396 55.2863 50.9438 56.0828 49.3301C56.5897 48.3032 56.8069 47.2274 56.9035 45.956C57 44.7335 57 43.1932 57 41.3105V26.6895C57 24.8068 57 23.2665 56.9035 22.044ZM50.8453 17.9853C51.8108 18.4743 52.5831 19.2567 53.0658 20.2347C53.2831 20.6748 53.452 21.2861 53.5244 22.313C53.5968 23.1198 53.5968 24.1222 53.621 25.4181H43.8459L45.4147 17.423C46.8387 17.423 47.9249 17.423 48.7937 17.5208C49.8075 17.5941 50.4109 17.7653 50.8453 17.9853ZM28.0368 25.4181L29.6056 17.423H41.9391L40.3703 25.4181H28.0368ZM19.1547 17.9853C19.5891 17.7653 20.1925 17.5941 21.2063 17.5208C22.2441 17.423 23.5957 17.423 25.5025 17.423H26.1541L24.5853 25.4181H16.379C16.379 24.1222 16.379 23.1198 16.4756 22.313C16.548 21.2861 16.717 20.6748 16.9342 20.2347C17.4169 19.2567 18.1892 18.4743 19.1547 17.9853ZM53.5244 45.6626C53.452 46.6895 53.2831 47.3007 53.0658 47.7408C52.5831 48.7188 51.8108 49.5012 50.8453 49.9902C50.4109 50.2103 49.8075 50.3814 48.7937 50.4548C47.7559 50.5526 46.4043 50.5526 44.4975 50.5526H25.5266C23.5957 50.5526 22.2682 50.5526 21.2304 50.4548C20.2167 50.3814 19.6133 50.2103 19.1788 49.9902C18.2134 49.5012 17.441 48.7188 16.9583 47.7408C16.7411 47.3007 16.5721 46.6895 16.4997 45.6626C16.4032 44.6112 16.4032 43.2421 16.4032 41.3105V28.8655H53.621V41.3105C53.621 43.2665 53.621 44.6112 53.5244 45.6626Z" fill="#35BBE3"/>
<path d="M31.3675 31.3839C30.8365 31.066 30.1848 31.066 29.6538 31.3839C29.1228 31.7017 28.7849 32.2641 28.7849 32.8753V46.5917C28.7849 47.203 29.1228 47.7898 29.6538 48.0832C30.1848 48.3766 30.8365 48.3766 31.3675 48.0832L42.639 41.2372C43.1459 40.9193 43.4596 40.3814 43.4596 39.7702C43.4596 39.159 43.1459 38.6211 42.639 38.3032L31.3675 31.4572V31.3839ZM32.1881 35.8827L38.4876 39.7213L32.1881 43.5599V35.9071V35.8827Z" fill="#35BBE3"/>
</g>
<circle cx="34.5" cy="34.5" r="34" stroke="#35BBE3" stroke-dasharray="10 18 30 6"/>
<defs>
<clipPath id="clip0_4768_5847">
<rect width="44" height="40" fill="white" transform="translate(13 14)"/>
</clipPath>
</defs>
</svg>
