<svg width="100" height="100" viewBox="0 0 100 100" fill="none" xmlns="http://www.w3.org/2000/svg">
<circle cx="50" cy="50" r="50" fill="#E6F5FD"/>
<g clip-path="url(#clip0_5279_6245)">
<path d="M22.2258 50.6873C22.2872 49.6034 22.275 48.5963 22.4101 47.6106C22.6833 45.6332 23.4479 43.8339 24.9494 42.489C25.7139 41.8043 26.675 41.31 27.6084 40.8555C28.0413 40.6467 28.2471 40.4748 28.3177 39.9927C28.6186 37.9662 29.4108 36.1393 30.9644 34.779C31.7014 34.1342 32.6348 33.6859 33.5314 33.2591C33.9367 33.0657 34.1486 32.9091 34.2161 32.4424C34.4832 30.5663 35.2109 28.8806 36.5251 27.4928C39.35 24.5082 43.5043 24.7017 46.0559 27.9288C46.3753 28.331 46.6516 28.767 47.0108 29.2798C47.2166 28.9697 47.3977 28.6872 47.585 28.4108C49.3506 25.85 52.1386 24.7754 54.7823 25.6965C56.775 26.3935 58.126 27.8336 58.9551 29.7281C59.345 30.6185 59.517 31.6011 59.8209 32.5345C59.8946 32.7617 60.0543 33.0749 60.2447 33.1363C63.5485 34.2263 65.0653 36.738 65.6733 39.9528C65.7685 40.4564 65.9343 40.6774 66.4286 40.8525C69.5728 41.9793 71.0282 44.4572 71.584 47.5676C71.759 48.5471 71.7191 49.5665 71.7836 50.6842C72.3056 50.6842 72.8859 50.7272 73.457 50.678C75.7691 50.4754 77.5807 52.1672 77.3627 54.6175C77.3197 55.1057 77.3596 55.6154 77.2214 56.076C76.7179 57.7832 75.4712 58.5354 73.7579 58.5938C73.7211 58.6798 73.6873 58.7412 73.6719 58.8056C73.5522 59.2754 73.5829 59.9571 73.282 60.1659C72.8982 60.433 72.2503 60.3286 71.716 60.3716C71.5349 60.3869 71.3506 60.3716 71.1019 60.3716C71.1541 60.0338 71.2002 59.7421 71.2432 59.4504C71.2831 59.1802 71.323 58.91 71.3691 58.5938H22.6158C22.886 60.1167 23.147 61.5875 23.411 63.0552C24.2493 67.664 25.0814 72.2728 25.935 76.8755C26.0179 77.3269 26.1806 77.7874 26.4109 78.1835C26.8623 78.9573 27.5224 79.3749 28.4835 79.3718C34.7135 79.3503 40.9436 79.3595 47.1736 79.3595H48.1684C48.0456 80.0657 47.9688 80.7075 47.8 81.3277C47.7631 81.4659 47.41 81.5979 47.2012 81.601C45.537 81.6225 43.8759 81.6102 42.2117 81.6102C37.7625 81.6102 33.3103 81.6102 28.8612 81.6102C26.0394 81.6102 24.2278 80.1364 23.7119 77.3637C23.0242 73.6576 22.3671 69.9454 21.6946 66.2362C21.2341 63.7031 20.7735 61.1699 20.3037 58.603C20.0519 58.5784 19.8247 58.56 19.5975 58.5324C17.9486 58.3266 16.6774 56.9511 16.6529 55.2899C16.6406 54.5684 16.6283 53.8222 16.7972 53.1314C17.1534 51.6698 18.4368 50.721 19.9414 50.6873C20.709 50.6688 21.4736 50.6842 22.2228 50.6842L22.2258 50.6873ZM46.9986 52.9349C41.5884 52.9349 36.1781 52.9349 30.771 52.9349C27.2829 52.9349 23.7918 52.9379 20.3037 52.9318C19.7479 52.9318 19.2751 53.0577 19.0172 53.595C18.3079 55.0658 19.0694 56.3093 20.6691 56.3093C38.2323 56.3093 55.7955 56.3093 73.3618 56.3093C73.5952 56.3093 73.8592 56.3707 74.0588 56.2848C74.3843 56.1466 74.7865 55.9808 74.9523 55.7014C75.7599 54.3473 74.9523 52.9318 73.4202 52.9318C64.614 52.9318 55.8109 52.9318 47.0047 52.9318L46.9986 52.9349ZM57.5611 50.6658C57.8896 48.4704 57.5948 46.4285 56.2622 44.6937C54.6533 42.5996 52.4794 42.2434 50.6217 43.6067C48.7426 44.9854 47.6249 48.3568 48.3035 50.6658H57.5611ZM69.3118 50.6596C69.9505 48.3782 68.9372 45.1542 67.1564 43.7234C65.8084 42.6426 64.1227 42.5228 62.7133 43.4102C60.6653 44.6998 59.3665 48.28 60.1065 50.6596H69.3088H69.3118ZM33.9981 50.6903C34.2437 48.1418 33.8691 45.8697 32.0729 44.0427C30.4363 42.3785 28.1519 42.3908 26.5153 44.0458C24.8112 45.7714 24.3629 47.9238 24.5962 50.2543C24.6116 50.4171 24.9432 50.6627 25.1397 50.675C25.978 50.721 26.8193 50.6903 27.6606 50.6903C29.7363 50.6903 31.8119 50.6903 33.995 50.6903H33.9981ZM41.0756 50.6842C42.4542 50.6873 43.836 50.6658 45.2115 50.6995C45.6506 50.7118 45.8011 50.5491 45.8348 50.1591C46.0129 48.0497 45.6168 46.0877 44.2413 44.4265C42.4327 42.2434 39.6785 42.2772 37.913 44.4879C36.6019 46.1306 36.2119 48.0436 36.3624 50.1008C36.3962 50.5767 36.5988 50.7088 37.0778 50.6934C38.4104 50.6535 39.743 50.678 41.0756 50.678V50.6842ZM35.2079 44.5186C36.3317 42.5505 37.8055 41.2179 39.8597 40.6713C39.7737 39.0624 38.9416 37.2907 37.8454 36.3081C36.5251 35.126 34.8824 34.8619 33.4362 35.6971C31.5571 36.7841 30.814 38.5742 30.4947 40.6652C32.6471 41.224 34.0871 42.5904 35.2109 44.5156L35.2079 44.5186ZM54.1037 40.6774C56.2807 41.2117 57.6992 42.6364 58.8322 44.5033C59.9438 42.5535 61.4176 41.224 63.5147 40.6621C63.2845 38.9119 62.6857 37.4197 61.4053 36.2713C60.1065 35.1045 58.473 34.8742 57.0514 35.694C55.1691 36.781 54.4292 38.5711 54.1037 40.6744V40.6774ZM47.0108 44.5186C48.1285 42.5781 49.5809 41.2271 51.7148 40.6652C51.3986 38.5864 50.6555 36.8332 48.8224 35.7247C47.9412 35.1905 46.9771 35.0861 45.9822 35.3808C44.0448 35.952 42.2362 38.6264 42.4082 40.7082C44.4685 41.2301 45.884 42.5934 47.0108 44.5186ZM45.7305 33.0442C45.7765 31.3831 44.6159 29.2184 43.1789 28.2849C41.8002 27.3914 40.2435 27.4068 38.9109 28.374C37.4585 29.4272 36.7677 30.9348 36.4821 32.6481C36.4545 32.817 36.6909 33.1547 36.8721 33.2131C38.5823 33.7719 39.8198 34.8896 40.7685 36.3726C40.8637 36.5231 40.9681 36.6643 41.0787 36.824C43.317 33.8057 43.664 33.95 45.7305 33.0411V33.0442ZM52.9338 36.8178C54.7209 34.3584 54.7853 34.3154 57.2632 33.1762C57.4167 33.1056 57.5611 32.774 57.5304 32.5928C57.3216 31.3002 56.8334 30.115 55.9491 29.1293C54.3002 27.2962 52.0587 27.1304 50.2932 28.7056C49.1264 29.7496 48.5584 31.1129 48.2605 32.6174C48.1807 33.0166 48.4018 33.0903 48.6965 33.2561C49.6423 33.7903 50.6095 34.3185 51.4508 34.994C52.0311 35.4607 52.4211 36.17 52.9308 36.8117L52.9338 36.8178Z" fill="#35BBE3"/>
<path d="M75.4189 62.441C76.6532 62.5516 77.8906 62.6406 79.1219 62.7849C79.8649 62.8709 80.2795 63.3929 80.1566 64.1052C79.2846 69.1685 77.6143 73.894 74.1415 77.8088C70.5399 81.8711 65.9157 83.9621 60.6191 84.7113C57.5363 85.1473 54.4566 85.0767 51.3861 84.5639C49.9583 84.3244 49.7035 83.959 49.9092 82.522C50.5479 78.0575 52.0064 73.9277 54.9602 70.4427C58.3439 66.448 62.7654 64.2188 67.8133 63.2332C70.3034 62.7481 72.8611 62.5915 75.3882 62.2844C75.3974 62.3366 75.4097 62.3858 75.4189 62.4379V62.441ZM77.7187 64.9189C77.4085 64.8821 77.1844 64.8452 76.9572 64.8299C74.163 64.6334 71.3812 64.7715 68.6331 65.3181C60.3642 66.9577 54.8527 71.6187 52.7156 79.9428C52.6604 80.1608 52.6266 80.385 52.5498 80.778C52.9029 80.5416 53.1148 80.4095 53.3205 80.2652C55.9427 78.4168 58.5619 76.5622 61.1841 74.7169C61.9394 74.1857 62.6057 74.244 63.0171 74.8642C63.3948 75.4353 63.1922 76.0617 62.4614 76.5776C60.9691 77.6308 59.4738 78.6809 57.9815 79.734C56.6889 80.649 55.4023 81.5671 54.1096 82.4821C59.6273 82.9918 64.8533 82.301 69.4529 79.034C74.292 75.595 76.5089 70.587 77.7187 64.9189Z" fill="#35BBE3"/>
<path d="M17.853 27.6677C18.4395 28.3402 18.897 28.8652 19.3821 29.424C11.9792 40.7081 11.2545 52.4957 17.2481 64.6641C17.3218 64.6702 17.3924 64.6733 17.4661 64.6795C17.506 64.4768 17.5245 64.268 17.5859 64.0715C17.764 63.4973 18.1846 63.2363 18.7619 63.2916C19.3422 63.3469 19.7598 63.6908 19.7475 64.2864C19.7168 65.9936 19.6707 67.7039 19.5449 69.408C19.4865 70.2217 18.6084 70.6362 17.8991 70.2125C16.4744 69.3589 15.0804 68.4531 13.6894 67.5412C13.1613 67.1942 13.0815 66.6507 13.364 66.1134C13.6526 65.5576 14.1623 65.4256 14.7457 65.6037C14.9176 65.6559 15.0742 65.7603 15.3014 65.8677C8.83191 52.6585 9.64252 40.008 17.853 27.6677Z" fill="#35BBE3"/>
<path d="M23.4024 15.0419C25.1587 13.5742 27.0593 13.1321 29.1473 13.9796C32.5033 15.3428 33.5442 19.8565 31.0448 22.4817C28.9477 24.6833 26.7093 26.7528 24.5108 28.8592C23.8261 29.5162 22.9357 29.4978 22.2417 28.8285C20.0955 26.7712 17.9369 24.7232 15.8459 22.6107C13.9207 20.6671 13.9115 17.3264 15.7384 15.3121C17.6114 13.2488 20.6696 12.9816 22.9234 14.6858C23.0708 14.7963 23.2181 14.9068 23.4024 15.0419ZM23.3932 26.805C25.1863 25.0702 26.8997 23.4121 28.613 21.751C28.8832 21.49 29.1688 21.2443 29.4021 20.9526C29.6017 20.7009 29.7767 20.4122 29.8965 20.1113C30.4553 18.7173 30.0039 17.1422 28.8433 16.3592C27.5905 15.5148 26.0706 15.6683 24.9253 16.7553C23.4024 18.2015 23.3686 18.2015 21.8856 16.7798C20.5898 15.5394 18.7229 15.4994 17.5408 16.6939C16.331 17.9129 16.3495 19.9271 17.5991 21.1829C18.3238 21.9137 19.073 22.6199 19.813 23.3384C20.9859 24.4745 22.1619 25.6106 23.3962 26.805H23.3932Z" fill="#35BBE3"/>
<path d="M70.6135 15.0387C72.6492 13.396 74.7924 13.0306 77.0493 14.3233C79.8741 15.9414 80.5588 20.0528 78.3204 22.4202C76.1987 24.6647 73.9235 26.7619 71.6943 28.902C71.0679 29.5038 70.1591 29.4946 69.5265 28.8866C67.3127 26.7649 65.0713 24.6678 62.9434 22.4601C61.095 20.541 61.1932 17.2249 63.0017 15.2721C64.8625 13.267 67.893 12.9968 70.0792 14.6395C70.245 14.7654 70.4108 14.8913 70.6104 15.0418L70.6135 15.0387ZM70.6258 26.8263C72.7137 24.7814 74.7894 22.8562 76.7268 20.802C77.7985 19.6629 77.5221 17.6517 76.3707 16.5985C75.21 15.5392 73.4322 15.5761 72.2286 16.6906C71.9891 16.9117 71.768 17.1574 71.5254 17.3784C70.8929 17.9618 70.3648 17.971 69.7353 17.3999C69.4743 17.1635 69.241 16.8994 68.9831 16.663C67.7549 15.5453 65.9279 15.5515 64.7888 16.6722C63.6527 17.7899 63.5084 19.8103 64.6199 20.9494C66.5482 22.9237 68.5593 24.8121 70.6288 26.8263H70.6258Z" fill="#35BBE3"/>
<path d="M74.458 29.2367C74.6392 29.1016 74.8357 29.0002 74.9739 28.8467C75.3024 28.4844 75.6064 28.0944 75.9994 27.6216C79.3432 32.1782 81.4434 37.0234 82.4106 42.3477C83.562 48.679 83.0278 54.8753 80.8354 60.961C80.4393 60.832 80.1139 60.7031 79.7792 60.6232C79.4414 60.5403 79.0945 60.5035 78.683 60.4359C82.4321 49.3914 81.0718 39.0407 74.4611 29.2367H74.458Z" fill="#35BBE3"/>
<path d="M34.5745 17.6058C34.3442 16.8904 34.1324 16.2302 33.8867 15.4626C42.6407 12.1802 51.3517 12.1833 60.121 15.4565C59.8846 16.1995 59.6727 16.8627 59.4363 17.6027C51.1613 14.4708 42.8679 14.4647 34.5776 17.6027L34.5745 17.6058Z" fill="#35BBE3"/>
<path d="M48.1279 66.9947C49.0583 66.9947 49.8965 66.9885 50.7348 66.9947C51.5577 67.0008 52.0612 67.4337 52.0612 68.1185C52.0612 68.797 51.5546 69.2331 50.7348 69.2423C49.8965 69.2515 49.0614 69.2423 48.131 69.2423C48.131 70.145 48.1371 70.9802 48.131 71.8153C48.1249 72.6567 47.7195 73.1541 47.041 73.1725C46.3378 73.194 45.8895 72.6751 45.8834 71.8092C45.8772 70.9924 45.8834 70.1757 45.8834 69.2392C44.9377 69.2392 44.035 69.2546 43.1353 69.2331C42.38 69.2146 41.8703 68.6466 41.9593 67.968C42.0361 67.3877 42.4782 67.0069 43.1414 66.9916C44.0257 66.9762 44.91 66.9885 45.8834 66.9885C45.8834 66.0827 45.8772 65.2476 45.8834 64.4124C45.8895 63.5526 46.3378 63.0307 47.044 63.0522C47.7226 63.0736 48.1249 63.5711 48.131 64.4155C48.1371 65.2322 48.131 66.049 48.131 66.9855L48.1279 66.9947Z" fill="#35BBE3"/>
<path d="M46.9985 52.9348C55.8047 52.9348 64.6078 52.9348 73.414 52.9348C74.9492 52.9348 75.7537 54.3503 74.9461 55.7044C74.7803 55.9807 74.3781 56.1465 74.0526 56.2878C73.8531 56.3738 73.5921 56.3124 73.3556 56.3124C55.7924 56.3124 38.2292 56.3124 20.6629 56.3124C19.0632 56.3124 18.3048 55.0688 19.011 53.598C19.2689 53.0607 19.7387 52.9348 20.2975 52.9348C23.7856 52.944 27.2767 52.9379 30.7648 52.9379C36.175 52.9379 41.5852 52.9379 46.9924 52.9379L46.9985 52.9348Z" fill="white"/>
<path d="M57.5609 50.6657H48.3034C47.6248 48.3567 48.7425 44.9853 50.6216 43.6067C52.4793 42.2434 54.6532 42.5995 56.2621 44.6936C57.5947 46.4284 57.8895 48.4672 57.5609 50.6657Z" fill="#D7F9FF"/>
<path d="M69.3116 50.6597H60.1093C59.3693 48.28 60.6681 44.6998 62.7162 43.4102C64.1224 42.5228 65.8112 42.6426 67.1592 43.7234C68.94 45.1543 69.9533 48.3752 69.3146 50.6597H69.3116Z" fill="#D7F9FF"/>
<path d="M33.9971 50.6904C31.8109 50.6904 29.7353 50.6904 27.6627 50.6904C26.8214 50.6904 25.98 50.7211 25.1418 50.675C24.9453 50.6658 24.6167 50.4201 24.5983 50.2543C24.365 47.9208 24.8133 45.7714 26.5174 44.0458C28.1509 42.3908 30.4384 42.3785 32.075 44.0427C33.8712 45.8697 34.2458 48.1418 34.0002 50.6904H33.9971Z" fill="#D7F9FF"/>
<path d="M41.0729 50.6841C39.7403 50.6841 38.4077 50.6596 37.0751 50.6995C36.5961 50.7149 36.3965 50.5828 36.3597 50.1069C36.2061 48.0497 36.5961 46.1337 37.9103 44.494C39.6789 42.2833 42.43 42.2495 44.2385 44.4326C45.6141 46.0938 46.0133 48.0558 45.8321 50.1652C45.7983 50.5552 45.6448 50.7149 45.2088 50.7056C43.8302 50.6688 42.4515 50.6934 41.0729 50.6934V50.6841Z" fill="#D7F9FF"/>
<path d="M35.2046 44.5187C34.0808 42.5935 32.6376 41.2271 30.4883 40.6683C30.8107 38.5742 31.5507 36.7841 33.4298 35.7002C34.8791 34.865 36.5187 35.1291 37.839 36.3112C38.9383 37.2938 39.7704 39.0624 39.8533 40.6744C37.7991 41.221 36.3284 42.5535 35.2015 44.5217L35.2046 44.5187Z" fill="#D7F9FF"/>
<path d="M54.1006 40.6773C54.4261 38.571 55.166 36.7839 57.0483 35.697C58.4699 34.8771 60.1034 35.1074 61.4022 36.2742C62.6826 37.4226 63.2814 38.9148 63.5117 40.665C61.4114 41.2239 59.9407 42.5565 58.8291 44.5062C57.6992 42.6363 56.2776 41.2146 54.1006 40.6804V40.6773Z" fill="#D7F9FF"/>
<path d="M47.0086 44.5156C45.8817 42.5934 44.4662 41.2271 42.4059 40.7051C42.2339 38.6233 44.0425 35.9489 45.9799 35.3778C46.9748 35.083 47.9389 35.1905 48.8201 35.7217C50.6532 36.8301 51.3963 38.5834 51.7125 40.6621C49.5816 41.224 48.1262 42.575 47.0086 44.5156Z" fill="#D7F9FF"/>
<path d="M45.7271 33.0442C43.6637 33.9531 43.3137 33.8088 41.0753 36.8271C40.9648 36.6674 40.8604 36.5231 40.7652 36.3757C39.8133 34.8927 38.579 33.7719 36.8687 33.2162C36.6876 33.1578 36.4511 32.8201 36.4788 32.6512C36.7643 30.9379 37.4552 29.4272 38.9075 28.3771C40.2401 27.4099 41.7999 27.3915 43.1755 28.288C44.6094 29.2215 45.7732 31.3862 45.7271 33.0473V33.0442Z" fill="#D7F9FF"/>
<path d="M52.9308 36.8148C52.4211 36.17 52.0342 35.4638 51.4508 34.9971C50.6095 34.3215 49.6423 33.7904 48.6966 33.2592C48.4018 33.0933 48.1808 33.0197 48.2606 32.6205C48.5584 31.116 49.1234 29.7527 50.2933 28.7087C52.0588 27.1305 54.3003 27.2963 55.9491 29.1324C56.8334 30.118 57.3186 31.3033 57.5304 32.5959C57.5611 32.7771 57.4168 33.1087 57.2633 33.1793C54.7823 34.3185 54.7209 34.3615 52.9339 36.8209L52.9308 36.8148Z" fill="#D7F9FF"/>
<path d="M77.7186 64.9189C76.5089 70.587 74.292 75.595 69.4529 79.0339C64.8533 82.304 59.6273 82.9949 54.1096 82.4821C55.3992 81.564 56.6888 80.6459 57.9815 79.734C59.4738 78.6808 60.9691 77.6307 62.4614 76.5775C63.1921 76.0617 63.3948 75.4353 63.0171 74.8642C62.6057 74.244 61.9394 74.1826 61.184 74.7168C58.5618 76.5653 55.9427 78.4168 53.3205 80.2652C53.1178 80.4095 52.906 80.5415 52.5498 80.778C52.6266 80.3819 52.6603 80.1608 52.7156 79.9428C54.8527 71.6187 60.3642 66.9577 68.633 65.318C71.3811 64.7746 74.1599 64.6333 76.9572 64.8298C77.1844 64.8452 77.4116 64.882 77.7186 64.9189ZM67.239 73.2061C67.2513 72.5951 66.7693 72.0854 66.1613 72.0608C65.5533 72.0394 65.0314 72.5153 65.0007 73.1232C64.9669 73.7558 65.4796 74.2962 66.1152 74.3023C66.7232 74.3084 67.2268 73.8172 67.2421 73.2061H67.239Z" fill="#FFD701"/>
<path d="M23.3933 26.805C22.159 25.6106 20.983 24.4745 19.8101 23.3384C19.0701 22.623 18.3209 21.9137 17.5962 21.183C16.3465 19.9271 16.3281 17.9129 17.5379 16.6939C18.72 15.5025 20.5869 15.5394 21.8826 16.7799C23.3657 18.2015 23.3995 18.1984 24.9224 16.7553C26.0677 15.6683 27.5845 15.5148 28.8404 16.3592C30.001 17.1422 30.4524 18.7173 29.8935 20.1113C29.7738 20.4092 29.6019 20.7009 29.3992 20.9527C29.1658 21.2444 28.8803 21.49 28.6101 21.751C26.8967 23.4121 25.1834 25.0702 23.3902 26.805H23.3933Z" fill="#FFD701"/>
<path d="M70.6259 26.8264C68.5595 24.8121 66.5453 22.9238 64.617 20.9494C63.5055 19.8103 63.6498 17.793 64.7859 16.6722C65.925 15.5484 67.752 15.5423 68.9802 16.663C69.2381 16.8995 69.4745 17.1635 69.7324 17.3999C70.3619 17.9711 70.89 17.9649 71.5225 17.3785C71.762 17.1574 71.9831 16.9117 72.2257 16.6907C73.4324 15.5761 75.2102 15.5362 76.3678 16.5986C77.5223 17.6548 77.7955 19.666 76.7239 20.8021C74.7865 22.8562 72.7108 24.7814 70.6229 26.8264H70.6259Z" fill="#FFD701"/>
<path d="M67.2391 73.2063C67.2269 73.8173 66.7233 74.3086 66.1123 74.3025C65.4767 74.2963 64.9639 73.7559 64.9977 73.1234C65.0284 72.5154 65.5504 72.0395 66.1583 72.061C66.7663 72.0825 67.2514 72.5953 67.2361 73.2063H67.2391Z" fill="#35BBE3"/>
</g>
<defs>
<clipPath id="clip0_5279_6245">
<rect width="72" height="72" fill="white" transform="translate(11 13)"/>
</clipPath>
</defs>
</svg>
