<svg width="69" height="69" viewBox="0 0 69 69" fill="none" xmlns="http://www.w3.org/2000/svg">
<g clip-path="url(#clip0_4768_5846)">
<path d="M57.5799 23.0532C57.5799 23.0532 57.4836 22.9579 57.4113 22.9579L48.3555 20.9092L57.4113 22.9579C57.4113 22.9579 57.5318 23.0056 57.5799 23.0532Z" fill="#D7F9FF"/>
<path d="M48.2591 20.9092L39.2033 22.9579C39.2033 22.9579 39.0828 23.0056 39.0347 23.0532C39.0828 23.0056 39.131 22.9579 39.2033 22.9579L48.2591 20.9092Z" fill="#D7F9FF"/>
<path d="M57.58 23.3867C57.58 23.3867 57.6522 23.2676 57.6522 23.22C57.6522 23.1485 57.6522 23.1009 57.58 23.0532C57.6281 23.1009 57.6522 23.1723 57.6522 23.22C57.6522 23.2915 57.6522 23.3391 57.58 23.3867Z" fill="#D7F9FF"/>
<path d="M39.0347 23.0532C39.0347 23.0532 38.9624 23.1723 38.9624 23.22C38.9624 23.2915 38.9624 23.3391 39.0347 23.3867C38.9865 23.3391 38.9624 23.2676 38.9624 23.22C38.9624 23.1485 38.9624 23.1009 39.0347 23.0532Z" fill="#D7F9FF"/>
<path d="M48.2592 28.5803C47.8256 28.5803 47.4162 28.5564 46.9827 28.5088C47.3921 28.5564 47.8256 28.5803 48.2592 28.5803Z" fill="#D7F9FF"/>
<path d="M48.3555 28.5802C48.8131 28.5802 49.2707 28.5325 49.7283 28.4849C49.2707 28.5325 48.8131 28.5802 48.3555 28.5802Z" fill="#D7F9FF"/>
<path d="M53.2206 24.4347L56.6406 23.6724L53.2206 24.4347Z" fill="#D7F9FF"/>
<path d="M39.974 23.6724L43.37 24.4347L39.974 23.6724Z" fill="#D7F9FF"/>
<path d="M53.028 27.2222C53.1484 27.0555 53.2206 26.8887 53.2206 26.6743C53.2206 26.8649 53.1484 27.0555 53.028 27.2222Z" fill="#D7F9FF"/>
<path d="M43.37 26.6743C43.37 26.8887 43.4663 27.1031 43.6349 27.2699C43.4904 27.0793 43.37 26.8887 43.37 26.6743Z" fill="#D7F9FF"/>
<path d="M45.658 28.2939C46.0674 28.3892 46.525 28.4607 46.9826 28.5084C46.525 28.4607 46.0674 28.3892 45.658 28.2939Z" fill="#D7F9FF"/>
<path d="M49.7283 28.4846C50.1136 28.437 50.4749 28.3893 50.8121 28.3179C50.4749 28.3893 50.0895 28.437 49.7283 28.4846Z" fill="#D7F9FF"/>
<path d="M51.1012 28.2465C51.9923 28.0083 52.6908 27.6748 53.028 27.2222C52.7149 27.6748 51.9923 28.0083 51.1012 28.2465Z" fill="#D7F9FF"/>
<path d="M45.658 28.294C44.7187 28.0796 43.9962 27.7461 43.6349 27.2935C43.9962 27.7461 44.7428 28.0796 45.658 28.294Z" fill="#D7F9FF"/>
<path d="M53.6783 27.8891C53.1243 28.5323 52.1368 28.9611 51.0048 29.1993C50.4509 29.3184 49.8488 29.3899 49.2467 29.4375L48.3314 29.4614H48.2833H47.368V29.4137C46.8141 29.3661 46.2601 29.2946 45.7544 29.1993C44.6224 28.9611 43.6349 28.5561 43.0569 27.9367C42.0453 29.1755 41.395 30.7478 41.395 32.4868C41.395 36.4414 44.526 39.6337 48.4037 39.6337C52.2813 39.6337 55.4124 36.4414 55.4124 32.4868C55.4124 30.7001 54.7621 29.104 53.7023 27.8652L53.6783 27.8891Z" fill="#5EDEFC"/>
<path d="M57.58 23.0532C57.58 23.0532 57.4837 22.9579 57.4114 22.9579L48.3556 20.9092C48.3556 20.9092 48.3556 20.9092 48.3315 20.9092H48.2833L39.2274 22.9579C39.1552 22.9579 39.107 23.0056 39.0588 23.0532C39.0107 23.1009 38.9866 23.1723 38.9866 23.22C38.9866 23.2915 38.9866 23.3391 39.0588 23.3867C39.107 23.4344 39.1552 23.482 39.2274 23.482L39.9981 23.6488L43.4182 24.4111V26.6505C43.4182 26.8649 43.5145 27.0793 43.6831 27.246C44.0444 27.6987 44.791 28.0322 45.7062 28.2466C46.1157 28.3419 46.5733 28.4133 47.0309 28.461C47.4403 28.5086 47.8739 28.5324 48.3074 28.5324C48.3074 28.5324 48.3315 28.5324 48.3556 28.5324C48.3556 28.5324 48.3796 28.5324 48.4037 28.5324C48.8613 28.5324 49.3189 28.4848 49.7766 28.4372C50.1619 28.3895 50.5232 28.3419 50.8604 28.2704C50.9567 28.2704 51.053 28.2228 51.1494 28.1989C52.0405 27.9607 52.739 27.6272 53.0762 27.1746C53.1966 27.0078 53.2688 26.841 53.2688 26.6266V24.3873L56.6889 23.625L57.4596 23.4582C57.4596 23.4582 57.58 23.4106 57.6282 23.3629C57.6764 23.3153 57.7004 23.2438 57.7004 23.1962C57.7004 23.1247 57.7004 23.077 57.6282 23.0294L57.58 23.0532Z" fill="#5EDEFC"/>
<path d="M39.0347 23.3867C39.0347 23.3867 39.131 23.482 39.2033 23.482L39.974 23.6488L39.2033 23.482C39.2033 23.482 39.0828 23.4344 39.0347 23.3867Z" fill="#D7F9FF"/>
<path d="M56.6406 23.6727L57.4113 23.5059C57.4113 23.5059 57.5318 23.4583 57.5799 23.4106C57.5318 23.4583 57.4836 23.5059 57.4113 23.5059L56.6406 23.6727Z" fill="#D7F9FF"/>
<path d="M51.1011 28.2466C51.1011 28.2466 50.9085 28.2942 50.8121 28.318C50.9085 28.318 51.0048 28.2704 51.1011 28.2466Z" fill="#D7F9FF"/>
<path fill-rule="evenodd" clip-rule="evenodd" d="M13.6012 45.8754L17.9605 43.3502C17.9605 43.3502 22.7293 41.7541 23.3314 41.635C23.9335 41.5159 30.0511 40.8965 30.6532 40.8965C31.2553 40.8965 36.289 41.635 37.3006 42.1591C38.3121 42.6832 41.5877 44.6843 42.3343 45.3513C43.0809 46.0184 43.8035 47.3524 43.8035 48.5912C43.8035 49.83 43.0568 51.8311 42.4547 52.3076C41.8526 52.784 41.0578 53.7608 38.3603 53.9037C35.6628 54.0466 32.9172 53.9037 30.5087 54.1657C28.1002 54.4278 21.3083 54.4278 20.1041 54.5707C18.8998 54.7137 13.6012 52.4505 13.6012 52.4505L13.1436 49.1391L13.6012 45.8993V45.8754Z" fill="#D7F9FF"/>
<path d="M24.5116 23.0771C25.0655 23.1963 25.6918 23.2916 26.318 23.363C25.6918 23.2916 25.0896 23.2201 24.5116 23.0771Z" fill="#35BBE3"/>
<path d="M30.051 23.3393C30.5568 23.2917 31.0626 23.1964 31.5443 23.1011C31.0626 23.1964 30.5809 23.2678 30.051 23.3393Z" fill="#35BBE3"/>
<path d="M31.9537 23.0057C33.1821 22.696 34.1214 22.2196 34.5549 21.624C34.1214 22.2434 33.158 22.696 31.9537 23.0057Z" fill="#35BBE3"/>
<path d="M24.5116 23.0771C23.2351 22.7913 22.2476 22.3148 21.7418 21.7192C22.2476 22.3386 23.2351 22.7913 24.5116 23.0771Z" fill="#35BBE3"/>
<path d="M33.9528 28.8423C33.9528 32.0584 31.3757 34.6789 28.2206 34.6789C25.0655 34.6789 22.4884 32.0584 22.4884 28.8423C22.4884 27.0318 23.3314 25.4118 24.6079 24.3398C23.0665 24.0301 21.7177 23.4822 20.9229 22.6246C19.526 24.316 18.6589 26.46 18.6589 28.8423C18.6589 34.2263 22.946 38.562 28.2206 38.562C33.4952 38.562 37.7822 34.2024 37.7822 28.8423C37.7822 26.4124 36.8911 24.2445 35.446 22.5293C34.6994 23.4107 33.3507 23.9825 31.8092 24.316C33.1098 25.388 33.9528 27.008 33.9528 28.8423Z" fill="#35BBE3"/>
<path d="M43.6349 44.3505C41.4432 42.397 36.7225 39.4668 28.1965 39.4668C19.6705 39.4668 14.974 42.397 12.7823 44.3505C11.4335 45.5416 11 47.233 11 48.6862C11 52.7361 14.2274 55.9998 18.1773 55.9998H38.2399C42.2139 55.9998 45.4171 52.7361 45.4171 48.6862C45.4171 47.233 44.9836 45.5416 43.6349 44.3266V44.3505ZM38.2399 52.1167H18.1773C16.3227 52.1167 14.8295 50.592 14.8295 48.71C14.8295 47.9715 15.0462 47.5189 15.3112 47.2807C16.8044 45.9466 20.658 43.3737 28.2206 43.3737C35.7832 43.3737 39.6127 45.9466 41.1301 47.2807C41.395 47.5189 41.6118 47.9715 41.6118 48.71C41.6118 50.592 40.1185 52.1167 38.264 52.1167H38.2399Z" fill="#35BBE3"/>
<path d="M59.6994 43.8981C58.0857 42.4688 54.6175 40.3247 48.3795 40.3247C45.5375 40.3247 43.2977 40.7773 41.5154 41.3967C42.7919 42.1114 43.7794 42.8499 44.4537 43.4693C45.8506 44.7319 46.6454 46.5901 46.6454 48.7103C46.6454 50.0682 46.3083 51.3308 45.7302 52.4743H55.7495C58.6637 52.4743 61.0241 50.0682 61.0241 47.1142C61.0241 46.0422 60.7109 44.8034 59.7235 43.9219L59.6994 43.8981Z" fill="#5EDEFC"/>
<path d="M40.7688 15.9302C40.7688 15.9302 40.6484 15.8111 40.552 15.7873L28.1965 13C28.1965 13 28.1724 13 28.1484 13H28.0761L15.6965 15.7873C15.6002 15.7873 15.5279 15.8587 15.4798 15.9302C15.4316 16.0017 15.3834 16.0731 15.3834 16.1684C15.3834 16.2637 15.4075 16.3352 15.4798 16.4066C15.5279 16.4781 15.6002 16.5258 15.6965 16.5496L16.7563 16.7878L21.4046 17.836V20.9091C21.4046 21.2188 21.5491 21.4809 21.7418 21.7429C22.2476 22.3623 23.2351 22.815 24.5116 23.1008C25.0655 23.2199 25.6917 23.3152 26.3179 23.3867C26.8959 23.4344 27.474 23.482 28.052 23.482C28.052 23.482 28.1002 23.482 28.1243 23.482C28.1243 23.482 28.1724 23.482 28.1965 23.482C28.8227 23.482 29.4489 23.4343 30.0511 23.3629C30.5568 23.3152 31.0626 23.2199 31.5443 23.1247C31.6888 23.1008 31.8092 23.0532 31.9538 23.0294C33.1821 22.7197 34.1214 22.2432 34.5549 21.6476C34.7235 21.4094 34.8198 21.1712 34.8198 20.9091V17.836L39.4682 16.7878L40.5279 16.5496C40.5279 16.5496 40.6965 16.4781 40.7447 16.4066C40.7929 16.3352 40.841 16.2637 40.841 16.1684C40.841 16.0731 40.817 16.0017 40.7447 15.9302H40.7688Z" fill="#35BBE3"/>
<path d="M15.4797 16.4067C15.4797 16.4067 15.6002 16.5259 15.6965 16.5497L16.7562 16.7879L15.6965 16.5497C15.6965 16.5497 15.5279 16.4782 15.4797 16.4067Z" fill="white"/>
<path d="M39.4923 16.7879L40.552 16.5497C40.552 16.5497 40.7206 16.4782 40.7688 16.4067C40.7206 16.4782 40.6484 16.5259 40.552 16.5497L39.4923 16.7879Z" fill="white"/>
<path d="M31.9538 23.0054C31.8092 23.0292 31.6888 23.0768 31.5443 23.1007C31.6888 23.0768 31.8092 23.0292 31.9538 23.0054Z" fill="white"/>
</g>
<circle cx="34.5" cy="34.5" r="34" stroke="#35BBE3" stroke-dasharray="10 18 30 6"/>
<defs>
<clipPath id="clip0_4768_5846">
<rect width="50" height="43" fill="white" transform="translate(11 13)"/>
</clipPath>
</defs>
</svg>
