<svg width="69" height="69" viewBox="0 0 69 69" fill="none" xmlns="http://www.w3.org/2000/svg">
<g clip-path="url(#clip0_4768_5843)">
<path d="M18.0752 44.3657H49.444V49.4418C49.444 51.5755 47.681 53.305 45.5058 53.305H22.0135C19.8383 53.305 18.0752 51.5755 18.0752 49.4418V44.3657Z" fill="#D7F9FF"/>
<path d="M56.542 32.2815L43.7197 18.3111C42.2772 16.7389 41.1324 15.4811 40.1249 14.5602C39.0946 13.6169 38.0871 12.8982 36.8965 12.4939C35.0189 11.8425 32.9582 11.8425 31.0806 12.4939C29.89 12.8982 28.8825 13.6394 27.8522 14.5602C26.8447 15.4811 25.6998 16.7389 24.2573 18.3111L11.4579 32.2815C10.7939 33.0003 10.8626 34.1008 11.5953 34.7297C12.328 35.3811 13.45 35.3137 14.0911 34.595L15.7168 32.8206V43.1524C15.7168 45.0615 15.7168 46.6113 15.8083 47.8466C15.9228 49.1044 16.1289 50.2274 16.6784 51.2606C17.5256 52.9002 18.8765 54.2254 20.548 55.0564C21.6013 55.573 22.7232 55.7976 24.0284 55.9099C25.2877 56.0222 26.8676 55.9998 28.8138 55.9998H39.1861C41.1324 55.9998 42.7123 55.9998 43.9716 55.9099C45.2538 55.7976 46.3987 55.5955 47.452 55.0564C49.1234 54.2254 50.4744 52.9002 51.3215 51.2606C51.8482 50.2274 52.0771 49.1269 52.1916 47.8466C52.3061 46.6113 52.2832 45.0615 52.2832 43.1524V32.8206L53.9089 34.595C54.5729 35.3137 55.672 35.3586 56.4047 34.7297C57.1374 34.0784 57.1832 33.0003 56.542 32.2815ZM19.2658 28.9574L26.9134 20.6246C28.4017 19.0074 29.432 17.8844 30.3021 17.0758C31.1722 16.2897 31.7446 15.9303 32.2713 15.7506C33.3932 15.3688 34.6297 15.3688 35.7516 15.7506C36.2782 15.9303 36.8507 16.2897 37.7207 17.0758C38.5908 17.8844 39.6212 19.0074 41.1095 20.6246L48.7571 28.9574V43.2422H19.2658C19.2658 43.2422 19.2658 43.1973 19.2658 43.1524V28.9574ZM48.1618 49.6884C47.658 50.6766 46.8337 51.4627 45.8492 51.9569C45.3912 52.1815 44.773 52.3387 43.6968 52.4285C42.5978 52.5184 41.2011 52.5184 39.1861 52.5184H28.8138C26.7989 52.5184 25.4022 52.5184 24.3031 52.4285C23.227 52.3387 22.6087 52.1815 22.1508 51.9569C21.1433 51.4627 20.3419 50.6542 19.8382 49.6884C19.6092 49.2392 19.449 48.6327 19.3574 47.5771C19.3116 46.9931 19.2887 46.2968 19.2658 45.4883H48.7342C48.7342 46.2968 48.7113 46.9931 48.6426 47.5771C48.551 48.6327 48.3907 49.2392 48.1618 49.6884Z" fill="#35BBE3"/>
</g>
<circle cx="34.5" cy="34.5" r="34" stroke="#35BBE3" stroke-dasharray="10 18 30 6"/>
<defs>
<clipPath id="clip0_4768_5843">
<rect width="46" height="44" fill="white" transform="translate(11 12)"/>
</clipPath>
</defs>
</svg>
