<svg width="88" height="88" viewBox="0 0 88 88" fill="none" xmlns="http://www.w3.org/2000/svg">
<path d="M44.0603 88C68.3275 88 87.9999 68.3005 87.9999 44C87.9999 19.6995 68.3275 0 44.0603 0C19.7932 0 0.120728 19.6995 0.120728 44C0.120728 68.3005 19.7932 88 44.0603 88Z" fill="#FFDC00"/>
<path d="M69.5567 20.457H18.564C17.1717 20.457 16.0076 21.6227 16.0076 23.017V61.8056C16.0076 63.2227 17.1488 64.3656 18.564 64.3656H36.7561L34.1768 69.737H28.7442C28.2877 69.737 27.8997 70.1256 27.8997 70.6056C27.8997 71.0856 28.2877 71.4285 28.7442 71.4285H59.3308C59.8102 71.4285 60.1982 71.0627 60.1982 70.6056C60.1982 70.1485 59.8102 69.737 59.3308 69.737H53.9211L51.3418 64.3656H69.5339C70.9263 64.3656 72.0905 63.2227 72.0905 61.8056V23.017C72.0905 21.6227 70.9491 20.457 69.5339 20.457H69.5567ZM17.7195 23.017C17.7195 22.5599 18.1075 22.1942 18.564 22.1942H69.5567C70.0132 22.1942 70.4013 22.5827 70.4013 23.017V55.8627H61.6134L67.7764 54.7656C68.2329 54.697 68.5524 54.2399 68.4611 53.7827L66.1329 40.5942L65.2199 35.4056C65.1743 35.1999 65.0601 34.9942 64.8546 34.857C64.672 34.7199 64.4438 34.697 64.2156 34.7199L58.6689 35.7027L57.8699 31.1542C57.8015 30.697 57.345 30.377 56.8885 30.4685L50.2918 31.6342V28.777C50.2918 28.297 49.9037 27.9085 49.4244 27.9085H41.2529C40.7963 27.9085 40.4083 28.297 40.4083 28.777V30.9713H37.0072V28.777C37.0072 28.297 36.6191 27.9085 36.1626 27.9085H29.9998C29.5433 27.9085 29.1324 28.297 29.1324 28.777V33.0285H21.5542C21.0749 33.0285 20.6868 33.417 20.6868 33.897V55.8399H17.6738V23.017H17.7195ZM37.03 55.8627V41.8513H40.431V55.8627H37.03ZM30.8672 55.8627V29.6456H35.3409V55.8399H30.8672V55.8627ZM22.4216 55.8627V34.7199H29.1552V55.8399H22.4216V55.8627ZM48.5798 35.2456H42.0974V29.6685H48.5798V35.2456ZM37.0072 38.4456H40.4083V40.137H37.0072V38.4456ZM40.4083 36.7313H37.0072V32.6856H40.4083V36.7313ZM42.0974 36.9599H48.5798V55.8627H42.0974V36.9599ZM50.2918 42.3999L52.5516 55.2913C52.5973 55.5199 52.7342 55.7256 52.9168 55.8399C52.9168 55.8627 52.9625 55.8627 52.9625 55.8627H50.2918V42.3999ZM59.8786 42.5599L64.5807 41.7599L66.6123 53.2799L61.9102 54.0799L61.8416 53.6913L59.8786 42.5599ZM59.5819 40.8913L58.9657 37.417L63.6678 36.5942L64.284 40.0685L59.5819 40.8913ZM59.9927 53.1199L54.0581 54.1485L50.406 33.3713L56.3407 32.3427L57.1395 36.8456V36.8913L59.9927 53.1199ZM60.2895 54.7885L60.358 55.2227C60.4265 55.5427 60.6319 55.7713 60.9058 55.8856H54.195L60.2895 54.7885ZM52.0494 69.7599H36.0485L38.6278 64.3885H49.4701L52.0494 69.7599ZM70.3786 61.8285C70.3786 62.3085 69.9904 62.697 69.5339 62.697H18.5412C18.0847 62.697 17.6967 62.3085 17.6967 61.8285V57.5542H70.3786V61.8285Z" fill="#4F2200"/>
</svg>
