<svg width="100" height="100" viewBox="0 0 100 100" fill="none" xmlns="http://www.w3.org/2000/svg">
<circle cx="50" cy="50" r="50" fill="#E6F5FD"/>
<g clip-path="url(#clip0_5279_6247)">
<path d="M49.4919 77.9981C38.8481 77.9981 28.2043 77.9981 17.5605 77.9981C14.6754 77.9981 13.0037 76.3374 13.0037 73.4723C13.0037 71.5758 12.9998 69.6813 13.0037 67.7849C13.0057 66.7363 13.4147 66.3367 14.4728 66.3309C15.7236 66.325 16.9764 66.2977 18.2253 66.3445C18.7897 66.366 18.9018 66.1944 18.9018 65.6604C18.8841 56.5699 18.89 47.4814 18.89 38.3909C18.89 35.9116 18.8861 33.4324 18.89 30.9532C18.8959 28.3882 20.6424 26.6652 23.2384 26.6633C25.7892 26.6633 28.34 26.6555 30.8889 26.7042C31.3373 26.712 31.355 26.443 31.471 26.2111C32.9087 23.2992 34.9206 20.8589 37.5462 18.9235C47.5704 11.5423 61.8762 14.9396 67.4203 26.0357C67.6681 26.5327 67.8884 26.7042 68.4863 26.6906C71.0115 26.6321 73.5387 26.6418 76.064 26.673C78.4044 26.7023 80.1056 28.5305 80.1075 30.9688C80.1115 40.6654 80.1075 50.364 80.1075 60.0607C80.1075 61.9572 80.1252 63.8517 80.0957 65.7481C80.0879 66.2354 80.2373 66.3543 80.7093 66.3426C82.0093 66.3114 83.3093 66.325 84.6093 66.3348C85.5651 66.3426 85.9899 66.7675 85.9919 67.7284C85.9998 69.7203 85.9998 71.7142 85.9919 73.7062C85.984 76.2653 84.2337 77.9961 81.6416 77.9981C70.923 78.0019 60.2065 77.9981 49.488 77.9981H49.4919ZM49.5017 62.8303C57.4216 62.8303 65.3396 62.8303 73.2595 62.8303C74.353 62.8303 74.2192 62.9551 74.2212 61.8441C74.2271 58.1019 74.2212 54.3616 74.2212 50.6194C74.2212 44.8131 74.2153 39.0048 74.231 33.1985C74.231 32.6801 74.1347 32.4637 73.5525 32.4852C72.3528 32.53 71.1492 32.5144 69.9495 32.491C69.509 32.4832 69.3182 32.5904 69.3969 33.066C69.6447 34.5668 69.5522 36.0754 69.3261 37.5606C68.5768 42.4761 66.3623 46.6277 62.5213 49.8514C57.6242 53.9581 51.9719 55.4609 45.6706 54.2797C40.6516 53.3383 36.5687 50.7772 33.5066 46.729C30.4483 42.6866 29.1149 38.1102 29.585 33.0582C29.6322 32.5534 29.463 32.4852 29.0402 32.491C27.9133 32.5086 26.7824 32.5397 25.6575 32.4813C24.9652 32.4462 24.7528 32.6177 24.7547 33.3467C24.7823 42.8698 24.7803 52.395 24.7567 61.9201C24.7567 62.6296 24.8944 62.8537 25.6673 62.8518C33.6108 62.8186 41.5543 62.8323 49.4998 62.8323L49.5017 62.8303ZM49.4604 75.6631C60.1514 75.6631 70.8424 75.6631 81.5314 75.6631C82.9789 75.6631 83.6358 75.0043 83.6397 73.5678C83.6437 72.2073 83.6083 70.8449 83.6555 69.4864C83.6771 68.8491 83.5355 68.6444 82.8373 68.6464C75.531 68.6756 68.2228 68.6639 60.9165 68.6659C60.1593 68.6659 59.233 68.43 58.6902 68.775C58.1061 69.1453 58.1139 70.155 57.8504 70.88C57.8091 70.9931 57.7678 71.1081 57.7284 71.2231C57.52 71.8526 57.0952 72.1664 56.4147 72.1664C51.8047 72.1606 47.1948 72.1606 42.5848 72.1664C41.9044 72.1664 41.4776 71.8604 41.2672 71.2289C41.0371 70.5389 40.7814 69.8548 40.5788 69.157C40.4746 68.7984 40.3231 68.6542 39.9239 68.6542C31.9057 68.6659 23.8874 68.6659 15.8692 68.6542C15.4424 68.6542 15.3401 68.7867 15.346 69.1882C15.3677 70.5721 15.3539 71.9579 15.3539 73.3437C15.3539 75.0861 15.9321 75.6631 17.6785 75.6631C28.2712 75.6631 38.8638 75.6631 49.4565 75.6631H49.4604ZM67.1588 34.8572C67.1647 25.2054 59.2644 17.335 49.5666 17.3311C39.7548 17.3272 31.8427 25.1605 31.8408 34.8786C31.8408 44.4915 39.7803 52.3346 49.5096 52.3307C59.2349 52.3268 67.1529 44.4876 67.1588 34.8572ZM68.6948 29.0022C68.8167 29.7766 69.2376 30.1638 69.9574 30.1638C71.6743 30.1638 73.3912 30.1599 75.1062 30.1638C76.1643 30.1677 76.5773 30.5712 76.5773 31.6178C76.5793 42.3105 76.5793 53.0031 76.5773 63.6938C76.5773 64.7463 76.1663 65.1614 75.118 65.1614C58.051 65.1634 40.982 65.1634 23.915 65.1614C22.8411 65.1614 22.4222 64.7619 22.4222 63.7289C22.4203 53.0128 22.4183 42.2968 22.4222 31.5788C22.4222 30.579 22.8431 30.1658 23.854 30.1619C25.5945 30.156 27.337 30.1619 29.0775 30.1619C29.8131 30.1619 30.2091 29.7734 30.2654 28.9963C28.0077 28.9963 25.7538 28.9963 23.498 28.9963C21.846 28.9963 21.2422 29.5966 21.2422 31.2358C21.2422 42.6808 21.2501 54.1277 21.2225 65.5727C21.2225 66.249 21.429 66.3426 22.0368 66.3406C40.331 66.325 58.6233 66.3231 76.9175 66.3465C77.659 66.3465 77.7691 66.1321 77.7672 65.4635C77.7455 54.0907 77.7514 42.7178 77.7514 31.345C77.7514 31.1267 77.7593 30.9064 77.7455 30.6881C77.6786 29.7389 77.0021 29.0178 76.0483 29.0061C73.5977 28.9768 71.1472 28.9963 68.6908 28.9963L68.6948 29.0022ZM49.5666 68.6639C47.6058 68.6639 45.645 68.6639 43.6842 68.6639C42.8602 68.6639 42.87 68.6893 43.1532 69.4572C43.3086 69.8801 43.6056 69.8295 43.9183 69.8295C47.6452 69.8295 51.3701 69.8295 55.097 69.8295C55.1698 69.8295 55.2445 69.8295 55.3173 69.8295C55.98 69.8275 55.9446 69.2486 55.982 68.8822C56.0253 68.469 55.5847 68.6776 55.3763 68.6756C53.4391 68.6561 51.5038 68.6639 49.5666 68.6639Z" fill="#35BBE3"/>
<path d="M49.5019 62.8323C41.5584 62.8323 33.6149 62.8206 25.6694 62.8518C24.8965 62.8557 24.7568 62.6316 24.7588 61.9201C24.7824 52.397 24.7844 42.8718 24.7568 33.3467C24.7549 32.6197 24.9673 32.4462 25.6596 32.4813C26.7845 32.5398 27.9154 32.5086 29.0423 32.491C29.4671 32.4852 29.6343 32.5534 29.5871 33.0582C29.1151 38.1102 30.4504 42.6867 33.5087 46.729C36.5708 50.7773 40.6517 53.3384 45.6727 54.2798C51.974 55.4609 57.6263 53.9582 62.5234 49.8515C66.3644 46.6277 68.5789 42.4762 69.3282 37.5606C69.5544 36.0734 69.6488 34.5668 69.399 33.066C69.3203 32.5924 69.5111 32.4832 69.9516 32.491C71.1533 32.5125 72.3549 32.53 73.5546 32.4852C74.1368 32.4637 74.2351 32.6801 74.2331 33.1986C74.2154 39.0048 74.2233 44.8131 74.2233 50.6194C74.2233 54.3616 74.2272 58.1019 74.2233 61.8441C74.2233 62.9551 74.3551 62.8304 73.2616 62.8304C65.3417 62.8343 57.4238 62.8304 49.5038 62.8304L49.5019 62.8323Z" fill="#D7F9FF"/>
<path d="M49.4584 75.665C38.8657 75.665 28.2731 75.665 17.6804 75.665C15.934 75.665 15.3558 75.088 15.3558 73.3456C15.3558 71.9598 15.3695 70.5759 15.3479 69.1901C15.342 68.7886 15.4423 68.6561 15.871 68.6561C23.8893 68.6678 31.9075 68.6678 39.9258 68.6561C40.325 68.6561 40.4764 68.8003 40.5807 69.1589C40.7832 69.8567 41.0409 70.5408 41.269 71.2308C41.4795 71.8623 41.9062 72.1703 42.5867 72.1683C47.1967 72.1625 51.8066 72.1625 56.4165 72.1683C57.099 72.1683 57.5238 71.8545 57.7303 71.225C57.7677 71.11 57.8109 70.995 57.8522 70.8819C58.1158 70.1569 58.1079 69.1473 58.692 68.7769C59.2348 68.4319 60.1611 68.6678 60.9183 68.6678C68.2246 68.6639 75.5329 68.6775 82.8392 68.6483C83.5354 68.6463 83.6789 68.851 83.6573 69.4883C83.6101 70.8468 83.6455 72.2093 83.6416 73.5697C83.6376 75.0062 82.9788 75.665 81.5333 75.665C70.8423 75.6669 60.1513 75.665 49.4623 75.665H49.4584Z" fill="white"/>
<path d="M67.1569 34.8591C67.151 44.4895 59.233 52.3287 49.5077 52.3326C39.7784 52.3365 31.8389 44.4934 31.8389 34.8805C31.8389 25.1624 39.7529 17.3291 49.5647 17.333C59.2625 17.3369 67.1628 25.2073 67.1569 34.8591ZM64.7988 34.9156C64.787 26.3787 57.9586 19.6563 49.3051 19.6661C40.9998 19.6758 34.1694 26.5755 34.193 34.9293C34.2166 43.2128 41.1355 50.0229 49.5038 49.9976C57.9232 49.9722 64.8086 43.1817 64.7968 34.9137L64.7988 34.9156Z" fill="#FEFEFE"/>
<path d="M68.6929 29.0042C71.1493 29.0042 73.5998 28.9847 76.0503 29.0139C77.0042 29.0256 77.6807 29.7468 77.7476 30.696C77.7633 30.9143 77.7535 31.1326 77.7535 31.3528C77.7535 42.7257 77.7476 54.0985 77.7692 65.4714C77.7692 66.1399 77.6611 66.3543 76.9196 66.3543C58.6254 66.329 40.3331 66.3329 22.0388 66.3485C21.4292 66.3485 21.2227 66.2569 21.2246 65.5805C21.2502 54.1356 21.2423 42.6906 21.2443 31.2437C21.2443 29.6045 21.8481 29.0042 23.5001 29.0042C25.7559 29.0042 28.0097 29.0042 30.2675 29.0042C30.2111 29.7812 29.8152 30.1697 29.0796 30.1697C27.3391 30.1697 25.5966 30.1658 23.8561 30.1697C22.8452 30.1736 22.4243 30.5849 22.4243 31.5867C22.4204 42.3027 22.4204 53.0187 22.4243 63.7367C22.4243 64.7697 22.8432 65.1673 23.917 65.1693C40.9841 65.1693 58.0531 65.1693 75.1201 65.1693C76.1683 65.1693 76.5774 64.7541 76.5794 63.7016C76.5814 53.009 76.5814 42.3164 76.5794 31.6257C76.5794 30.581 76.1664 30.1756 75.1083 30.1717C73.3914 30.1658 71.6744 30.1717 69.9595 30.1717C69.2397 30.1717 68.8188 29.7844 68.6968 29.01L68.6929 29.0042Z" fill="#D7F9FF"/>
<path d="M49.5647 68.6659C51.5019 68.6659 53.4371 68.6581 55.3743 68.6776C55.5828 68.6796 56.0233 68.471 55.98 68.8842C55.9407 69.2507 55.9781 69.8295 55.3153 69.8315C55.2425 69.8315 55.1678 69.8315 55.095 69.8315C51.3681 69.8315 47.6432 69.8315 43.9163 69.8315C43.6056 69.8315 43.3086 69.8822 43.1513 69.4592C42.8681 68.6913 42.8582 68.6659 43.6823 68.6659C45.6431 68.6659 47.6039 68.6659 49.5647 68.6659Z" fill="#D7F9FF"/>
<path d="M64.7992 34.9156C64.811 43.1816 57.9236 49.9742 49.5061 49.9995C41.1378 50.0248 34.219 43.2148 34.1954 34.9312C34.1718 26.5775 41.0021 19.6777 49.3075 19.668C57.961 19.6582 64.7913 26.3787 64.8012 34.9176L64.7992 34.9156ZM47.7518 22.1336C45.614 22.4396 43.6631 23.2095 41.8911 24.4569C41.3443 24.8408 41.2362 25.0747 41.7888 25.5522C42.4359 26.1136 42.4811 26.9439 41.9992 27.4117C41.5174 27.8794 40.7347 27.7859 40.1092 27.1875C40.0561 27.1368 39.9971 27.0901 39.9539 27.0316C39.6766 26.6535 39.4779 26.6944 39.1928 27.0706C37.9144 28.7526 37.1218 30.6374 36.7226 32.6917C36.5495 33.5844 36.6144 33.6468 37.5053 33.6623C38.3844 33.6779 38.8938 34.1009 38.8997 34.8182C38.9056 35.5374 38.3923 35.9779 37.525 35.9954C36.6105 36.0149 36.5534 36.0636 36.7206 36.9465C37.0628 38.7533 37.7118 40.4471 38.7621 41.9732C38.9941 42.3104 39.1711 42.8074 39.5487 42.8893C39.8693 42.9575 40.0738 42.4507 40.361 42.2324C40.8586 41.8563 41.5784 41.8524 41.9855 42.2324C42.4123 42.6301 42.4299 43.3863 42.015 43.8911C41.8753 44.0607 41.7219 44.2205 41.5508 44.3589C41.2696 44.5869 41.2893 44.7526 41.5803 44.9728C43.3268 46.3002 45.2994 47.1012 47.4509 47.5047C48.0665 47.6197 48.393 47.4969 48.3419 46.7465C48.277 45.8363 48.7785 45.3139 49.5278 45.3295C50.2476 45.3451 50.6645 45.8499 50.6783 46.727C50.694 47.5885 50.7432 47.6548 51.6007 47.491C53.5969 47.1129 55.4436 46.3859 57.1074 45.2009C57.6542 44.813 57.7624 44.583 57.2117 44.1036C56.5666 43.5442 56.5194 42.7119 56.9993 42.2441C57.4791 41.7764 58.2639 41.8699 58.8893 42.4683C58.9424 42.519 59.0014 42.5657 59.0446 42.6242C59.3219 43.0004 59.5186 42.9633 59.8058 42.5852C61.09 40.9051 61.8649 39.0126 62.274 36.9621C62.451 36.0714 62.3841 36.011 61.4893 35.9934C60.6121 35.9779 60.1027 35.553 60.0968 34.8337C60.0929 34.1145 60.6042 33.6779 61.4735 33.6604C62.3861 33.6409 62.451 33.5902 62.274 32.7073C61.8708 30.6822 61.1175 28.8091 59.8549 27.1407C59.5343 26.7158 59.3691 26.6691 58.9935 27.0628C58.2993 27.7898 57.5185 27.9009 57.0091 27.4214C56.482 26.9244 56.6099 26.1487 57.3434 25.3944C57.3611 25.3768 57.3769 25.3573 57.3965 25.3437C57.7427 25.0884 57.7112 24.8974 57.3572 24.6362C55.7799 23.4765 54.0453 22.6735 52.1199 22.2758C50.8376 22.0127 50.8396 22.003 50.6704 23.2738C50.5859 23.9053 50.0883 24.3555 49.4688 24.3224C48.8178 24.2873 48.4343 23.9209 48.332 23.2894C48.2966 23.075 48.3045 22.8508 48.3242 22.6345C48.3635 22.2037 48.1747 22.0517 47.7518 22.1297V22.1336Z" fill="#35BBE3"/>
<path d="M47.7513 22.1336C48.1722 22.0556 48.361 22.2077 48.3236 22.6384C48.304 22.8548 48.2981 23.0789 48.3315 23.2933C48.4338 23.9248 48.8153 24.2912 49.4683 24.3263C50.0878 24.3594 50.5854 23.9092 50.6699 23.2777C50.8391 22.005 50.8371 22.0147 52.1194 22.2798C54.0467 22.6774 55.7794 23.4804 57.3567 24.6401C57.7107 24.8993 57.7422 25.0904 57.396 25.3476C57.3764 25.3613 57.3606 25.3808 57.3429 25.3983C56.6094 26.1526 56.4815 26.9283 57.0086 27.4253C57.518 27.9048 58.2988 27.7937 58.993 27.0667C59.3686 26.673 59.5338 26.7217 59.8544 27.1447C61.117 28.8131 61.8703 30.6862 62.2735 32.7112C62.4485 33.5942 62.3836 33.6468 61.473 33.6643C60.6037 33.6819 60.0924 34.1185 60.0963 34.8377C60.1003 35.5569 60.6096 35.9798 61.4887 35.9974C62.3836 36.0149 62.4505 36.0753 62.2735 36.9661C61.8644 39.0165 61.0895 40.9091 59.8053 42.5892C59.5181 42.9653 59.3195 43.0043 59.0441 42.6281C59.0009 42.5697 58.9419 42.5229 58.8888 42.4722C58.2634 41.8738 57.4786 41.7822 56.9988 42.2481C56.5189 42.7159 56.5661 43.5481 57.2112 44.1075C57.7638 44.587 57.6537 44.817 57.1069 45.2048C55.4411 46.3899 53.5944 47.1169 51.6002 47.495C50.7407 47.6568 50.6916 47.5905 50.6778 46.7309C50.6621 45.8539 50.2471 45.3491 49.5273 45.3335C48.778 45.3179 48.2784 45.8402 48.3413 46.7504C48.3945 47.5008 48.068 47.6236 47.4504 47.5086C45.2989 47.1071 43.3263 46.3061 41.5798 44.9768C41.2888 44.7565 41.2711 44.5909 41.5503 44.3628C41.7195 44.2244 41.8748 44.0646 42.0145 43.895C42.4294 43.3883 42.4117 42.634 41.985 42.2364C41.5759 41.8544 40.8581 41.8583 40.3605 42.2364C40.0733 42.4547 39.8688 42.9614 39.5482 42.8932C39.1706 42.8114 38.9936 42.3143 38.7616 41.9772C37.7113 40.451 37.0643 38.7592 36.7201 36.9505C36.5529 36.0676 36.6119 36.0169 37.5245 35.9993C38.3918 35.9818 38.9051 35.5413 38.8992 34.8221C38.8933 34.1029 38.3839 33.6819 37.5048 33.6663C36.6139 33.6507 36.549 33.5883 36.7221 32.6957C37.1213 30.6413 37.9139 28.7566 39.1923 27.0745C39.4794 26.6983 39.6761 26.6574 39.9534 27.0355C39.9966 27.094 40.0556 27.1408 40.1087 27.1915C40.7341 27.7898 41.5169 27.8834 41.9987 27.4156C42.4806 26.9478 42.4334 26.1175 41.7883 25.5562C41.2376 25.0767 41.3438 24.8448 41.8906 24.4608C43.6645 23.2134 45.6135 22.4435 47.7513 22.1375V22.1336ZM48.3197 31.2592C48.3197 32.4228 48.3079 33.5864 48.3236 34.75C48.3354 35.5335 48.7681 35.9798 49.545 35.9935C50.6955 36.0149 51.844 36.0149 52.9946 35.9935C53.7321 35.9798 54.2178 35.477 54.2041 34.8084C54.1903 34.1653 53.7242 33.7014 53.0201 33.6721C52.4577 33.6487 51.8932 33.6371 51.3327 33.676C50.8273 33.7111 50.6542 33.5552 50.664 33.0328C50.6955 31.3605 50.6817 29.6863 50.6739 28.014C50.6699 27.1661 50.2018 26.6555 49.4761 26.6691C48.776 26.6827 48.3315 27.1759 48.3236 27.9867C48.3138 29.0782 48.3217 30.1696 48.3217 31.2592H48.3197Z" fill="#FFD701"/>
<path d="M48.3215 31.2573C48.3215 30.1659 48.3137 29.0744 48.3235 27.9848C48.3314 27.174 48.7758 26.6809 49.476 26.6673C50.2017 26.6536 50.6698 27.1643 50.6737 28.0121C50.6816 29.6844 50.6953 31.3587 50.6639 33.031C50.654 33.5533 50.8271 33.7093 51.3325 33.6742C51.8931 33.6352 52.4575 33.6489 53.02 33.6703C53.724 33.6995 54.1902 34.1654 54.2039 34.8066C54.2177 35.4751 53.7339 35.978 52.9944 35.9916C51.8458 36.0131 50.6953 36.0131 49.5448 35.9916C48.7699 35.978 48.3353 35.5317 48.3235 34.7481C48.3058 33.5845 48.3196 32.4209 48.3196 31.2573H48.3215Z" fill="#35BBE3"/>
</g>
<defs>
<clipPath id="clip0_5279_6247">
<rect width="73" height="63" fill="white" transform="translate(13 15)"/>
</clipPath>
</defs>
</svg>
