<svg width="150" height="136" viewBox="0 0 150 136" fill="none" xmlns="http://www.w3.org/2000/svg">
<circle cx="75" cy="68" r="68" fill="#FFFDF0"/>
<g clip-path="url(#clip0_5279_6242)">
<path d="M28.7333 60.5298L1.30169 75.0229C0.195863 75.6119 -0.303542 76.9684 0.195863 78.1107L16.9438 116.646C17.3005 117.467 18.228 117.824 19.0484 117.467L48.4598 104.652C49.2803 104.295 49.637 103.367 49.2803 102.546L31.4087 61.4579C30.9093 60.4227 29.6965 60.03 28.7155 60.5119L28.7333 60.5298Z" fill="url(#paint0_linear_5279_6242)"/>
<path d="M15.873 114.183L16.961 116.7C17.3178 117.521 18.2452 117.878 19.0657 117.521L48.4771 104.706C49.2975 104.349 49.6543 103.421 49.2975 102.599L48.5484 100.868C48.7268 103.51 20.1358 118.128 15.873 114.165V114.183Z" fill="url(#paint1_linear_5279_6242)"/>
<path d="M27.8419 65.1706L4.17362 76.2368C3.22832 76.683 2.74675 77.8253 3.13914 78.8249L15.874 112.684C16.1415 113.416 16.9085 113.755 17.6219 113.505L42.9132 103.974C43.6266 103.706 43.9655 102.938 43.6802 102.207L30.107 66.0988C29.7146 65.1885 28.7158 64.7958 27.8597 65.1528L27.8419 65.1706Z" fill="#FFAA00"/>
<path d="M28.5728 64.8492L4.8867 75.8797C3.9414 76.3259 3.45983 77.4504 3.83438 78.4321L16.2838 111.559C16.5514 112.273 17.3005 112.612 18.0139 112.345L43.3053 102.813C44.0187 102.546 44.3576 101.796 44.09 101.082L30.8023 65.7595C30.4277 64.8671 29.4289 64.4922 28.5728 64.8492Z" fill="#D8D8D8"/>
<path d="M29.2857 65.0274L5.59959 76.0579C4.65429 76.5041 4.17272 77.6286 4.54727 78.6103L16.9967 111.737C17.2643 112.451 18.0134 112.791 18.7268 112.523L44.0181 102.992C44.7316 102.724 45.0705 101.974 44.8029 101.26L31.5152 65.9377C31.1406 65.0453 30.1418 64.6705 29.2857 65.0274Z" fill="#E5E5E5"/>
<path d="M29.5181 64.8492L5.83201 75.8797C4.88671 76.3259 4.40514 77.4504 4.7797 78.4321L17.2292 111.559C17.4967 112.273 18.2458 112.612 18.9592 112.345L44.2506 102.813C44.964 102.546 45.3029 101.796 45.0353 101.082L31.7476 65.7595C31.373 64.8671 30.3742 64.4922 29.5181 64.8492Z" fill="#EDEDED"/>
<path d="M27.68 64.2778L4.5825 76.4863C3.65503 76.986 3.2448 78.1283 3.65503 79.0922L17.7632 111.541C18.0664 112.237 18.8334 112.541 19.529 112.237L44.3031 101.457C44.9987 101.153 45.3019 100.386 44.9987 99.6896L29.9452 65.081C29.5171 64.2064 28.5005 63.8673 27.68 64.2778Z" fill="#F7F9FA"/>
<path d="M31.7255 77.6175L9.87471 87.1298C9.68502 87.2124 9.59815 87.4332 9.68067 87.623C9.76318 87.8128 9.98385 87.8998 10.1735 87.8172L32.0243 78.3049C32.214 78.2223 32.3009 78.0015 32.2183 77.8117C32.1358 77.6218 31.9152 77.5349 31.7255 77.6175Z" fill="#E2E2E2"/>
<path d="M30.2984 74.3356L19.7165 78.9423C19.5268 79.0249 19.4399 79.2457 19.5225 79.4355C19.605 79.6253 19.8256 79.7123 20.0153 79.6297L30.5973 75.0231C30.7869 74.9405 30.8738 74.7197 30.7913 74.5298C30.7088 74.34 30.4881 74.2531 30.2984 74.3356Z" fill="#E2E2E2"/>
<path d="M29.6531 72.8649L20.8376 76.7025C20.6479 76.7851 20.561 77.0059 20.6436 77.1958C20.7261 77.3856 20.9467 77.4725 21.1364 77.39L29.952 73.5523C30.1417 73.4697 30.2285 73.2489 30.146 73.059C30.0635 72.8692 29.8428 72.7823 29.6531 72.8649Z" fill="#E2E2E2"/>
<path d="M32.5536 79.5071L10.7028 89.0194C10.5131 89.102 10.4263 89.3228 10.5088 89.5127C10.5913 89.7025 10.812 89.7894 11.0017 89.7068L32.8524 80.1945C33.0421 80.1119 33.129 79.8911 33.0465 79.7013C32.964 79.5115 32.7433 79.4245 32.5536 79.5071Z" fill="#E2E2E2"/>
<path d="M33.3611 81.4181L16.5642 88.7304C16.3745 88.8129 16.2876 89.0338 16.3701 89.2236C16.4526 89.4134 16.6733 89.5004 16.863 89.4178L33.6599 82.1055C33.8496 82.0229 33.9365 81.8021 33.854 81.6123C33.7715 81.4225 33.5508 81.3355 33.3611 81.4181Z" fill="#E2E2E2"/>
<path d="M34.1891 83.3024L23.6071 87.9091C23.4174 87.9917 23.3306 88.2125 23.4131 88.4023C23.4956 88.5921 23.7163 88.6791 23.906 88.5965L34.4879 83.9898C34.6776 83.9073 34.7644 83.6864 34.6819 83.4966C34.5994 83.3068 34.3787 83.2199 34.1891 83.3024Z" fill="#E2E2E2"/>
<path d="M35.023 85.2009L24.4411 89.8075C24.2514 89.8901 24.1646 90.1109 24.2471 90.3007C24.3296 90.4906 24.5503 90.5775 24.7399 90.4949L35.3219 85.8883C35.5116 85.8057 35.5984 85.5849 35.5159 85.3951C35.4334 85.2052 35.2127 85.1183 35.023 85.2009Z" fill="#E2E2E2"/>
<path d="M35.8388 87.0911L13.988 96.6034C13.7983 96.686 13.7114 96.9068 13.7939 97.0966C13.8765 97.2865 14.0971 97.3734 14.2868 97.2908L36.1376 87.7785C36.3273 87.6959 36.4141 87.4751 36.3316 87.2853C36.2491 87.0954 36.0284 87.0085 35.8388 87.0911Z" fill="#E2E2E2"/>
<path d="M36.6669 88.9807L14.8161 98.4931C14.6264 98.5756 14.5396 98.7965 14.6221 98.9863C14.7046 99.1761 14.9253 99.263 15.1149 99.1805L36.9657 89.6682C37.1554 89.5856 37.2423 89.3648 37.1598 89.1749C37.0772 88.9851 36.8566 88.8982 36.6669 88.9807Z" fill="#E2E2E2"/>
<path d="M37.4872 90.9046L15.6364 100.417C15.4467 100.499 15.3599 100.72 15.4424 100.91C15.5249 101.1 15.7456 101.187 15.9353 101.104L37.786 91.592C37.9757 91.5094 38.0626 91.2886 37.9801 91.0987C37.8975 90.9089 37.6769 90.822 37.4872 90.9046Z" fill="#E2E2E2"/>
<path d="M38.3199 92.7692L27.738 97.3759C27.5483 97.4584 27.4614 97.6793 27.5439 97.8691C27.6265 98.0589 27.8471 98.1459 28.0368 98.0633L38.6187 93.4566C38.8084 93.3741 38.8953 93.1532 38.8128 92.9634C38.7303 92.7736 38.5096 92.6867 38.3199 92.7692Z" fill="#E2E2E2"/>
<path d="M40.2724 97.3107L22.9685 104.844C22.7788 104.926 22.6919 105.147 22.7744 105.337C22.8569 105.527 23.0776 105.614 23.2673 105.531L40.5713 97.9981C40.7609 97.9155 40.8478 97.6947 40.7653 97.5049C40.6828 97.315 40.4621 97.2281 40.2724 97.3107Z" fill="#E2E2E2"/>
<path d="M41.124 99.2091L23.82 106.742C23.6303 106.825 23.5435 107.045 23.626 107.235C23.7085 107.425 23.9292 107.512 24.1189 107.429L41.4228 99.8965C41.6125 99.814 41.6994 99.5931 41.6169 99.4033C41.5344 99.2135 41.3137 99.1265 41.124 99.2091Z" fill="#E2E2E2"/>
<path d="M10.5052 73.2561L9.77394 73.6131L8.79297 71.3998L9.32805 71.1143L10.5052 73.2561Z" fill="#FFAA00"/>
<path d="M20.172 68.2225L19.6191 68.526L18.6738 66.7768L19.1911 66.4912L20.172 68.2225Z" fill="#FFAA00"/>
<path d="M15.8376 64.7422C15.6593 64.7958 15.4809 64.7422 15.3561 64.5994C14.4821 63.5821 12.9839 63.2786 11.7532 63.939C10.5225 64.5994 9.95179 66.0095 10.3085 67.3124C10.362 67.5266 10.2728 67.7408 10.0766 67.8479L8.47141 68.7046C8.23954 68.8296 8.1682 69.1151 8.27521 69.3293L9.54156 71.7032L9.8091 72.2208L10.9684 74.3627L11.0755 74.559C11.1468 74.6839 11.3073 74.7375 11.45 74.6661L11.6462 74.559L20.6355 69.7399L20.8317 69.6328C20.9565 69.5614 21.0101 69.4007 20.9387 69.2579L20.8317 69.0616L19.6724 66.9198L19.4048 66.4021L18.1385 64.0283C18.0136 63.7962 17.7282 63.7248 17.5142 63.8319L15.909 64.6887C15.909 64.6887 15.8555 64.7244 15.8198 64.7244L15.8376 64.7422ZM12.9482 66.1523C13.3941 65.9202 13.9292 66.0809 14.1789 66.5271C14.4108 66.9733 14.2502 67.5088 13.8043 67.7586C13.3584 67.9907 12.8234 67.83 12.5737 67.3838C12.3418 66.9376 12.5023 66.4021 12.9482 66.1523ZM20.3323 69.3472L11.5035 74.0771C11.5035 74.0771 11.3965 74.0771 11.3787 74.0414L10.4869 72.3815L19.4762 67.5623L20.368 69.2222C20.368 69.2222 20.368 69.3293 20.3323 69.3472Z" fill="url(#paint2_linear_5279_6242)"/>
<path d="M32.5683 72.6488L32.1046 71.5958C32.0511 71.453 31.8906 71.3994 31.7657 71.453L30.7134 71.917C30.5885 71.9706 30.5172 72.1312 30.5707 72.274L31.0344 73.3271C31.088 73.4699 31.2485 73.5234 31.3733 73.4699L32.4256 73.0058C32.5505 72.9523 32.6218 72.7916 32.5683 72.6488ZM32.39 72.8987L31.3377 73.3628C31.3377 73.3628 31.1771 73.3628 31.1415 73.2914L30.6777 72.2383C30.6777 72.2383 30.6777 72.0777 30.7491 72.042L31.8014 71.5779C31.8014 71.5779 31.9619 71.5779 31.9976 71.6493L32.4613 72.7024C32.4613 72.7024 32.4613 72.863 32.39 72.8987Z" fill="#7FD5EF"/>
<path d="M31.659 72.8096C31.659 72.8096 31.6055 72.8096 31.5877 72.8096L31.2667 72.7025C31.2667 72.7025 31.1953 72.6312 31.1953 72.5776C31.1953 72.5241 31.2667 72.5062 31.3202 72.5241L31.552 72.5955L31.7839 71.9529C31.7839 71.9529 31.8552 71.8815 31.9087 71.8993C31.9623 71.8993 31.9801 71.9707 31.9801 72.0243L31.7304 72.7561C31.7304 72.7561 31.6947 72.7918 31.6769 72.8096H31.659Z" fill="#7FD5EF"/>
<path d="M38.8105 86.8383L38.3468 85.7852C38.2933 85.6424 38.1328 85.5889 38.0079 85.6424L36.9556 86.1065C36.8307 86.16 36.7594 86.3207 36.8129 86.4635L37.2766 87.5165C37.3301 87.6593 37.4907 87.7129 37.6155 87.6593L38.6678 87.1953C38.7927 87.1417 38.864 86.9811 38.8105 86.8383ZM38.6322 87.0882L37.5798 87.5522C37.5798 87.5522 37.4193 87.5522 37.3836 87.4809L36.9199 86.4278C36.9199 86.4278 36.9199 86.2671 36.9913 86.2314L38.0436 85.7674C38.0436 85.7674 38.2041 85.7674 38.2398 85.8388L38.7035 86.8918C38.7035 86.8918 38.7035 87.0525 38.6322 87.0882Z" fill="#7FD5EF"/>
<path d="M37.9012 86.9991C37.9012 86.9991 37.8477 86.9991 37.8299 86.9991L37.5088 86.892C37.5088 86.892 37.4375 86.8206 37.4375 86.767C37.4375 86.7135 37.5088 86.6957 37.5624 86.7135L37.7942 86.7849L38.0261 86.1423C38.0261 86.1423 38.0974 86.071 38.1509 86.0888C38.2044 86.0888 38.2223 86.1602 38.2223 86.2137L37.9726 86.9455C37.9726 86.9455 37.9369 86.9812 37.9191 86.9991H37.9012Z" fill="#7FD5EF"/>
<path d="M43.0742 97.1371L42.6105 96.0841C42.5569 95.9413 42.3964 95.8877 42.2716 95.9413L41.2193 96.4053C41.0944 96.4589 41.0231 96.6195 41.0766 96.7623L41.5403 97.8154C41.5938 97.9582 41.7543 98.0117 41.8792 97.9582L42.9315 97.4941C43.0564 97.4406 43.1277 97.2799 43.0742 97.1371ZM42.8958 97.387L41.8435 97.8511C41.8435 97.8511 41.683 97.8511 41.6473 97.7797L41.1836 96.7266C41.1836 96.7266 41.1836 96.566 41.2549 96.5303L42.3072 96.0662C42.3072 96.0662 42.4678 96.0662 42.5034 96.1376L42.9672 97.1907C42.9672 97.1907 42.9672 97.3513 42.8958 97.387Z" fill="#7FD5EF"/>
<path d="M42.1825 97.2979C42.1825 97.2979 42.129 97.2979 42.1111 97.2979L41.7901 97.1908C41.7901 97.1908 41.7188 97.1194 41.7188 97.0659C41.7188 97.0123 41.7901 96.9945 41.8436 97.0123L42.0755 97.0837L42.3073 96.4412C42.3073 96.4412 42.3787 96.3698 42.4322 96.3876C42.4857 96.3876 42.5035 96.459 42.5035 96.5126L42.2538 97.2444C42.2538 97.2444 42.2182 97.2801 42.2003 97.2979H42.1825Z" fill="#7FD5EF"/>
<path opacity="0.1" d="M40.7193 64.5637L32.4256 62.1005C30.4993 61.5294 28.5552 62.9573 28.5195 64.9563L27.6812 105.098C27.6099 108.632 30.0534 111.72 33.5136 112.434L36.2068 114.647L40.7371 64.5458L40.7193 64.5637Z" fill="black"/>
<path d="M105.196 13.7123L35.3506 18.9955C32.5325 19.2275 30.2852 21.5836 30.2852 24.4037V119.287C30.2852 121.322 31.8547 122.893 33.888 122.893H106.32C108.353 122.893 109.922 121.322 109.922 119.287V18.1031C109.815 15.515 107.675 13.6052 105.196 13.7123Z" fill="url(#paint3_linear_5279_6242)"/>
<path d="M99.6659 20.5128L40.8253 24.975C38.4531 25.1713 36.5625 27.1525 36.5625 29.5264V109.435C36.5625 111.148 37.8824 112.469 39.5946 112.469H100.611C102.323 112.469 103.643 111.148 103.643 109.435V24.2075C103.554 22.03 101.753 20.4236 99.6659 20.5128Z" fill="#F7F9FA"/>
<path opacity="0.6" d="M30.2852 113.201V119.395C30.2852 121.429 31.8547 123 33.888 123H106.32C108.353 123 109.922 121.429 109.922 119.395V115.111C107.889 120.733 35.5646 125.249 30.2852 113.201Z" fill="#009BD1"/>
<path d="M73.6454 28.027V15.8899C73.6454 14.819 72.9319 14.105 71.8618 13.9265L45.9997 11.4277C44.9295 11.4277 43.8594 12.3202 43.8594 13.3911V28.741C43.8594 29.8119 44.7512 30.7043 45.8213 30.7043L71.6834 29.9904C72.7536 29.9904 73.6454 29.0979 73.6454 28.027Z" fill="url(#paint4_linear_5279_6242)"/>
<path d="M45.8205 11.4279H45.9988L71.8609 13.9267C72.931 14.1052 73.6445 14.8191 73.6445 15.8901V28.2057C73.6445 29.2766 72.7527 30.169 71.6825 30.169L45.8205 30.883C44.7503 30.883 43.8585 29.9905 43.8585 28.9196V13.3912C43.8585 12.3203 44.7503 11.4279 45.8205 11.4279ZM45.8205 10C44.0369 10 42.4316 11.4279 42.7884 13.3912V28.7411C42.7884 30.526 44.2152 31.9539 45.9988 31.9539L71.8609 31.2399C73.6445 31.2399 75.0714 29.812 75.0714 28.0272V15.8901C75.0714 14.2837 73.6445 12.8558 72.0393 12.6773L46.1772 10H45.8205V10Z" fill="#F7F9FA"/>
<path d="M73.6445 21.7803V28.0273C73.6445 29.0982 72.7527 29.9907 71.7003 29.9907L45.9988 30.7046C44.9286 30.7046 44.0547 29.8122 44.0547 28.7413V26.4209C44.233 26.5994 44.5898 26.5994 44.9465 26.7779C49.0309 28.0273 53.4542 28.0273 57.717 27.4919C61.6231 26.9564 65.868 25.8855 69.5957 24.1006C70.8442 23.5651 72.2533 22.8512 73.6801 21.7803H73.6445Z" fill="url(#paint5_linear_5279_6242)"/>
<path fill-rule="evenodd" clip-rule="evenodd" d="M56.791 24.9929V20.1738C56.791 19.6383 57.3261 19.2813 57.8612 19.6383L61.9634 21.9586C62.3201 22.1371 62.3201 22.8511 61.9634 23.0296L57.8612 25.5284C57.5044 25.7069 56.791 25.3499 56.791 24.9929Z" fill="url(#paint6_linear_5279_6242)"/>
<path fill-rule="evenodd" clip-rule="evenodd" d="M56.6113 24.1003V19.2812C56.6113 18.7457 57.1464 18.3888 57.6815 18.7457L61.7837 21.0661C62.1405 21.2446 62.1405 21.9585 61.7837 22.137L57.6815 24.6358C57.1464 24.9928 56.6113 24.6358 56.6113 24.1003Z" fill="#F4F4F4"/>
<path d="M61.7844 21.2446C61.7844 21.4231 61.606 21.6016 61.4276 21.7801L57.3254 24.1004C56.9687 24.2789 56.7903 24.2789 56.4336 23.9219C56.4336 24.4574 56.9687 24.8144 57.5038 24.4574L61.606 21.9586C61.9627 21.9586 61.9627 21.4231 61.7844 21.2446Z" fill="#EAE7D0"/>
<path d="M69.4004 120.144C67.6168 120.144 66.1543 118.681 66.1543 116.896C66.1543 115.111 67.6168 113.647 69.4004 113.647C71.184 113.647 72.6466 115.111 72.6466 116.896C72.6466 118.681 71.184 120.144 69.4004 120.144Z" fill="url(#paint7_linear_5279_6242)"/>
<path d="M69.3999 113.861C71.0764 113.861 72.432 115.218 72.432 116.896C72.432 118.573 71.0764 119.93 69.3999 119.93C67.7233 119.93 66.3678 118.573 66.3678 116.896C66.3678 115.218 67.7233 113.861 69.3999 113.861ZM69.3999 113.415C67.4914 113.415 65.9219 114.968 65.9219 116.896C65.9219 118.823 67.4736 120.376 69.3999 120.376C71.3262 120.376 72.8779 118.823 72.8779 116.896C72.8779 114.968 71.3262 113.415 69.3999 113.415Z" fill="white"/>
<path d="M97.3658 51.7837H43.5905C43.1177 51.7837 42.7344 52.1633 42.7344 52.6315C42.7344 53.0997 43.1177 53.4793 43.5905 53.4793H97.3658C97.8386 53.4793 98.2219 53.0997 98.2219 52.6315C98.2219 52.1633 97.8386 51.7837 97.3658 51.7837Z" fill="#E2E2E2"/>
<path d="M97.3655 43.6982H78.3346C77.8618 43.6982 77.4785 44.0778 77.4785 44.5461C77.4785 45.0143 77.8618 45.3939 78.3346 45.3939H97.3655C97.8384 45.3939 98.2217 45.0143 98.2217 44.5461C98.2217 44.0778 97.8384 43.6982 97.3655 43.6982Z" fill="#E2E2E2"/>
<path d="M97.3655 40.1108H78.3346C77.8618 40.1108 77.4785 40.4904 77.4785 40.9587C77.4785 41.4269 77.8618 41.8065 78.3346 41.8065H97.3655C97.8384 41.8065 98.2217 41.4269 98.2217 40.9587C98.2217 40.4904 97.8384 40.1108 97.3655 40.1108Z" fill="#E2E2E2"/>
<path d="M97.3658 56.46H43.5905C43.1177 56.46 42.7344 56.8395 42.7344 57.3078C42.7344 57.776 43.1177 58.1556 43.5905 58.1556H97.3658C97.8386 58.1556 98.2219 57.776 98.2219 57.3078C98.2219 56.8395 97.8386 56.46 97.3658 56.46Z" fill="#E2E2E2"/>
<path d="M97.3658 61.1362H43.5905C43.1177 61.1362 42.7344 61.5158 42.7344 61.984C42.7344 62.4523 43.1177 62.8319 43.5905 62.8319H97.3658C97.8386 62.8319 98.2219 62.4523 98.2219 61.984C98.2219 61.5158 97.8386 61.1362 97.3658 61.1362Z" fill="#E2E2E2"/>
<path d="M97.3658 65.7949H43.5905C43.1177 65.7949 42.7344 66.1745 42.7344 66.6427C42.7344 67.111 43.1177 67.4905 43.5905 67.4905H97.3658C97.8386 67.4905 98.2219 67.111 98.2219 66.6427C98.2219 66.1745 97.8386 65.7949 97.3658 65.7949Z" fill="#E2E2E2"/>
<path d="M97.3658 70.4712H43.5905C43.1177 70.4712 42.7344 70.8508 42.7344 71.319C42.7344 71.7872 43.1177 72.1668 43.5905 72.1668H97.3658C97.8386 72.1668 98.2219 71.7872 98.2219 71.319C98.2219 70.8508 97.8386 70.4712 97.3658 70.4712Z" fill="#E2E2E2"/>
<path d="M97.3658 75.1299H43.5905C43.1177 75.1299 42.7344 75.5095 42.7344 75.9777C42.7344 76.4459 43.1177 76.8255 43.5905 76.8255H97.3658C97.8386 76.8255 98.2219 76.4459 98.2219 75.9777C98.2219 75.5095 97.8386 75.1299 97.3658 75.1299Z" fill="#E2E2E2"/>
<path d="M97.3658 79.8062H43.5905C43.1177 79.8062 42.7344 80.1857 42.7344 80.654C42.7344 81.1222 43.1177 81.5018 43.5905 81.5018H97.3658C97.8386 81.5018 98.2219 81.1222 98.2219 80.654C98.2219 80.1857 97.8386 79.8062 97.3658 79.8062Z" fill="#E2E2E2"/>
<path d="M97.3658 84.4824H43.5905C43.1177 84.4824 42.7344 84.862 42.7344 85.3302C42.7344 85.7985 43.1177 86.178 43.5905 86.178H97.3658C97.8386 86.178 98.2219 85.7985 98.2219 85.3302C98.2219 84.862 97.8386 84.4824 97.3658 84.4824Z" fill="#E2E2E2"/>
<path d="M97.3658 89.1406H43.5905C43.1177 89.1406 42.7344 89.5202 42.7344 89.9884C42.7344 90.4567 43.1177 90.8363 43.5905 90.8363H97.3658C97.8386 90.8363 98.2219 90.4567 98.2219 89.9884C98.2219 89.5202 97.8386 89.1406 97.3658 89.1406Z" fill="#E2E2E2"/>
<path d="M97.3658 100.314H43.5905C43.1177 100.314 42.7344 100.694 42.7344 101.162C42.7344 101.63 43.1177 102.01 43.5905 102.01H97.3658C97.8386 102.01 98.2219 101.63 98.2219 101.162C98.2219 100.694 97.8386 100.314 97.3658 100.314Z" fill="#E2E2E2"/>
<path d="M97.3658 104.973H43.5905C43.1177 104.973 42.7344 105.352 42.7344 105.82C42.7344 106.289 43.1177 106.668 43.5905 106.668H97.3658C97.8386 106.668 98.2219 106.289 98.2219 105.82C98.2219 105.352 97.8386 104.973 97.3658 104.973Z" fill="#E2E2E2"/>
<path d="M147.825 61.4222L108.693 56.8529C107.124 56.6744 105.625 57.7453 105.322 59.2982L95.1558 111.666C94.9417 112.791 95.6374 113.826 96.761 114.04L136.749 121.822C137.873 122.036 138.907 121.34 139.121 120.216L149.966 64.3672C150.18 62.9215 149.199 61.6364 147.825 61.44V61.4222Z" fill="url(#paint8_linear_5279_6242)"/>
<path d="M95.8157 108.311L95.1558 111.72C94.9417 112.844 95.6374 113.879 96.761 114.094L136.749 121.876C137.873 122.09 138.907 121.394 139.121 120.269L139.585 117.913C137.873 120.805 97.4566 115.521 95.8335 108.311H95.8157Z" fill="url(#paint9_linear_5279_6242)"/>
<path d="M143.563 65.6522L110.834 60.1905C109.514 59.9763 108.212 60.833 107.873 62.1538L96.8508 106.758C96.619 107.704 97.154 108.632 98.0815 108.864L131.381 117.11C132.309 117.342 133.218 116.771 133.45 115.825L145.204 68.2581C145.454 67.0265 144.687 65.8842 143.545 65.6522H143.563Z" fill="#FFAA00"/>
<path d="M144.544 65.8484L111.833 60.3332C110.513 60.119 109.211 60.94 108.89 62.243L98.1172 105.865C97.8854 106.793 98.4383 107.704 99.3658 107.936L132.665 116.182C133.593 116.414 134.502 115.86 134.734 114.932L146.221 68.4186C146.47 67.2228 145.703 66.0983 144.544 65.8663V65.8484Z" fill="#D8D8D8"/>
<path d="M145.167 66.5447L112.456 61.0295C111.136 60.8153 109.834 61.6363 109.513 62.9393L98.7403 106.561C98.5084 107.49 99.0613 108.4 99.9888 108.632L133.288 116.878C134.216 117.11 135.126 116.557 135.357 115.629L146.844 69.1149C147.093 67.9191 146.326 66.7946 145.167 66.5626V66.5447Z" fill="#E5E5E5"/>
<path d="M145.56 66.5091L112.849 60.9938C111.529 60.7797 110.227 61.6007 109.906 62.9036L99.1329 106.526C98.901 107.454 99.4539 108.364 100.381 108.596L133.681 116.842C134.608 117.074 135.518 116.521 135.75 115.593L147.236 69.0793C147.486 67.8834 146.719 66.759 145.56 66.5269V66.5091Z" fill="#EDEDED"/>
<path d="M144.044 64.5993L111.083 60.744C109.763 60.6012 108.497 61.4936 108.247 62.7966L99.6861 106.901C99.5077 107.847 100.096 108.721 101.042 108.9L134.716 115.45C135.661 115.629 136.535 115.04 136.713 114.094L145.845 67.0446C146.024 65.8309 145.203 64.7421 144.044 64.5815V64.5993Z" fill="#F7F9FA"/>
<path d="M138.655 81.4813L108.979 75.7087C108.718 75.6579 108.465 75.8285 108.414 76.0898C108.363 76.351 108.534 76.604 108.795 76.6548L138.471 82.4274C138.732 82.4782 138.985 82.3076 139.036 82.0463C139.087 81.785 138.916 81.5321 138.655 81.4813Z" fill="#E2E2E2"/>
<path d="M139.531 77.0174L125.156 74.2213C124.895 74.1706 124.642 74.3412 124.592 74.6025C124.541 74.8637 124.711 75.1167 124.973 75.1675L139.347 77.9635C139.608 78.0143 139.861 77.8437 139.911 77.5824C139.962 77.3212 139.792 77.0682 139.531 77.0174Z" fill="#E2E2E2"/>
<path d="M139.911 75.0294L127.953 72.7033C127.692 72.6525 127.439 72.8231 127.389 73.0844C127.338 73.3457 127.508 73.5986 127.769 73.6494L139.728 75.9755C139.989 76.0263 140.241 75.8557 140.292 75.5944C140.343 75.3331 140.172 75.0802 139.911 75.0294Z" fill="#E2E2E2"/>
<path d="M138.157 84.0521L108.481 78.2795C108.219 78.2287 107.967 78.3993 107.916 78.6606C107.865 78.9218 108.036 79.1748 108.297 79.2256L137.973 84.9982C138.234 85.049 138.487 84.8784 138.538 84.6171C138.589 84.3558 138.418 84.1029 138.157 84.0521Z" fill="#E2E2E2"/>
<path d="M137.673 86.6355L114.842 82.1945C114.581 82.1437 114.328 82.3143 114.277 82.5756C114.227 82.8369 114.397 83.0898 114.658 83.1406L137.489 87.5816C137.75 87.6324 138.003 87.4618 138.053 87.2005C138.104 86.9393 137.934 86.6863 137.673 86.6355Z" fill="#E2E2E2"/>
<path d="M137.161 89.2093L122.787 86.4132C122.526 86.3625 122.273 86.5331 122.223 86.7943C122.172 87.0556 122.342 87.3086 122.603 87.3594L136.978 90.1554C137.239 90.2062 137.491 90.0356 137.542 89.7743C137.593 89.5131 137.422 89.2601 137.161 89.2093Z" fill="#E2E2E2"/>
<path d="M136.659 91.7972L122.285 89.0011C122.024 88.9504 121.771 89.121 121.721 89.3822C121.67 89.6435 121.84 89.8965 122.101 89.9473L136.476 92.7433C136.737 92.7941 136.99 92.6235 137.04 92.3622C137.091 92.101 136.921 91.848 136.659 91.7972Z" fill="#E2E2E2"/>
<path d="M136.155 94.3685L106.479 88.5959C106.218 88.5451 105.965 88.7157 105.914 88.977C105.863 89.2382 106.034 89.4912 106.295 89.542L135.971 95.3146C136.232 95.3654 136.485 95.1948 136.536 94.9335C136.587 94.6723 136.416 94.4193 136.155 94.3685Z" fill="#E2E2E2"/>
<path d="M135.639 96.9359L105.963 91.1632C105.702 91.1125 105.449 91.2831 105.398 91.5443C105.348 91.8056 105.518 92.0586 105.779 92.1094L135.456 97.882C135.717 97.9328 135.969 97.7622 136.02 97.5009C136.071 97.2396 135.9 96.9867 135.639 96.9359Z" fill="#E2E2E2"/>
<path d="M135.139 99.5062L105.463 93.7336C105.202 93.6828 104.949 93.8534 104.898 94.1147C104.848 94.3759 105.018 94.6289 105.279 94.6797L134.956 100.452C135.217 100.503 135.469 100.332 135.52 100.071C135.571 99.8099 135.4 99.557 135.139 99.5062Z" fill="#E2E2E2"/>
<path d="M134.661 102.096L120.287 99.3C120.026 99.2492 119.773 99.4198 119.723 99.6811C119.672 99.9423 119.842 100.195 120.103 100.246L134.478 103.042C134.739 103.093 134.992 102.922 135.042 102.661C135.093 102.4 134.922 102.147 134.661 102.096Z" fill="#E2E2E2"/>
<path d="M133.461 108.264L109.965 103.694C109.704 103.643 109.451 103.813 109.4 104.075C109.35 104.336 109.52 104.589 109.781 104.64L133.277 109.21C133.538 109.261 133.791 109.09 133.842 108.829C133.893 108.568 133.722 108.315 133.461 108.264Z" fill="#E2E2E2"/>
<path d="M132.961 110.834L109.465 106.264C109.204 106.213 108.951 106.384 108.9 106.645C108.85 106.906 109.02 107.159 109.281 107.21L132.777 111.78C133.038 111.831 133.291 111.661 133.342 111.399C133.393 111.138 133.222 110.885 132.961 110.834Z" fill="#E2E2E2"/>
<path d="M119.608 61.6363L118.592 61.4757L119.163 58.4414L119.912 58.5307L119.608 61.6363Z" fill="#FFAA00"/>
<path d="M133.326 63.3141L132.559 63.2427L132.808 60.7261L133.557 60.8153L133.326 63.3141Z" fill="#FFAA00"/>
<path d="M131.327 56.5673C131.113 56.4959 130.953 56.2996 130.935 56.0676C130.739 54.372 129.419 52.9798 127.653 52.7834C125.887 52.5871 124.282 53.658 123.729 55.2644C123.64 55.5321 123.39 55.6928 123.105 55.6571L120.804 55.4072C120.483 55.3715 120.198 55.6035 120.162 55.9248L119.788 59.316L119.698 60.0478L119.359 63.1178L119.324 63.4034C119.306 63.5997 119.449 63.7604 119.627 63.7961L119.912 63.8318L132.79 65.2596L133.075 65.2953C133.271 65.3132 133.432 65.1704 133.468 64.9919L133.503 64.7063L133.842 61.6364L133.931 60.9046L134.306 57.5133C134.342 57.192 134.11 56.9065 133.789 56.8708L131.488 56.6209C131.488 56.6209 131.399 56.6209 131.363 56.5852L131.327 56.5673ZM127.296 55.9605C127.921 56.0319 128.384 56.603 128.313 57.2277C128.242 57.8524 127.671 58.3165 127.047 58.2451C126.422 58.1737 125.959 57.6026 126.03 56.9779C126.101 56.3532 126.672 55.8891 127.296 55.9605ZM132.736 64.6171L120.109 63.2249C120.109 63.2249 120.002 63.1535 120.002 63.0821L120.269 60.7082L133.147 62.1361L132.879 64.51C132.879 64.51 132.808 64.6171 132.736 64.6171Z" fill="url(#paint10_linear_5279_6242)"/>
<path d="M143.134 76.8611L143.42 75.4153C143.455 75.2368 143.33 75.0583 143.152 75.0226L141.707 74.7371C141.529 74.7014 141.351 74.8263 141.315 75.0048L141.03 76.4505C140.994 76.629 141.119 76.8075 141.297 76.8432L142.742 77.1288C142.92 77.1645 143.098 77.0395 143.134 76.8611ZM142.76 76.986L141.315 76.7004C141.208 76.6826 141.137 76.5755 141.172 76.4684L141.458 75.0226C141.475 74.9155 141.582 74.8442 141.689 74.862L143.134 75.1476C143.241 75.1654 143.313 75.2725 143.277 75.3796L142.991 76.8254C142.974 76.9324 142.867 77.0038 142.76 76.9681V76.986Z" fill="#7FD5EF"/>
<path d="M142.064 76.3792C142.064 76.3792 142.01 76.3614 141.975 76.3257L141.707 75.9866C141.707 75.9866 141.671 75.8616 141.725 75.8259C141.778 75.7902 141.85 75.8081 141.903 75.8616L142.082 76.1115L142.777 75.6117C142.777 75.6117 142.902 75.5939 142.955 75.6474C142.991 75.701 142.991 75.7724 142.938 75.8081L142.153 76.3792C142.153 76.3792 142.099 76.3971 142.064 76.3971V76.3792Z" fill="#7FD5EF"/>
<path d="M139.478 96.2268L139.763 94.781C139.799 94.6025 139.674 94.4241 139.496 94.3884L138.051 94.1028C137.873 94.0671 137.694 94.192 137.659 94.3705L137.373 95.8163C137.338 95.9947 137.462 96.1732 137.641 96.2089L139.086 96.4945C139.264 96.5302 139.442 96.4053 139.478 96.2268ZM139.103 96.3517L137.659 96.0661C137.552 96.0483 137.48 95.9412 137.516 95.8341L137.801 94.3884C137.819 94.2813 137.926 94.2099 138.033 94.2277L139.478 94.5133C139.585 94.5312 139.656 94.6382 139.621 94.7453L139.335 96.1911C139.317 96.2982 139.21 96.3696 139.103 96.3339V96.3517Z" fill="#7FD5EF"/>
<path d="M138.407 95.7274C138.407 95.7274 138.354 95.7095 138.318 95.6738L138.051 95.3347C138.051 95.3347 138.015 95.2098 138.069 95.1741C138.122 95.1384 138.193 95.1562 138.247 95.2098L138.425 95.4597L139.121 94.9599C139.121 94.9599 139.246 94.942 139.299 94.9956C139.335 95.0491 139.335 95.1205 139.281 95.1562L138.497 95.7274C138.497 95.7274 138.443 95.7452 138.407 95.7452V95.7274Z" fill="#7FD5EF"/>
<path d="M136.535 110.077L136.82 108.632C136.856 108.453 136.731 108.275 136.552 108.239L135.108 107.953C134.929 107.918 134.751 108.043 134.715 108.221L134.43 109.667C134.394 109.845 134.519 110.024 134.697 110.06L136.142 110.345C136.321 110.381 136.499 110.256 136.535 110.077ZM136.16 110.202L134.715 109.917C134.608 109.899 134.537 109.792 134.573 109.685L134.858 108.239C134.876 108.132 134.983 108.06 135.09 108.078L136.535 108.364C136.642 108.382 136.713 108.489 136.677 108.596L136.392 110.042C136.374 110.149 136.267 110.22 136.16 110.184V110.202Z" fill="#7FD5EF"/>
<path d="M135.464 109.578C135.464 109.578 135.411 109.56 135.375 109.524L135.107 109.185C135.107 109.185 135.072 109.06 135.125 109.025C135.179 108.989 135.25 109.007 135.304 109.06L135.482 109.31L136.178 108.81C136.178 108.81 136.302 108.793 136.356 108.846C136.392 108.9 136.392 108.971 136.338 109.007L135.553 109.578C135.553 109.578 135.5 109.596 135.464 109.596V109.578Z" fill="#7FD5EF"/>
<path d="M64.1553 36.6836H44.3218C43.4451 36.6836 42.7344 37.3948 42.7344 38.2721V46.2683C42.7344 47.1457 43.4451 47.8569 44.3218 47.8569H64.1553C65.032 47.8569 65.7427 47.1457 65.7427 46.2683V38.2721C65.7427 37.3948 65.032 36.6836 64.1553 36.6836Z" fill="#E2E2E2"/>
</g>
<defs>
<linearGradient id="paint0_linear_5279_6242" x1="7.94837" y1="95.934" x2="40.2576" y2="81.8889" gradientUnits="userSpaceOnUse">
<stop stop-color="#FECC00"/>
<stop offset="0.01" stop-color="#FECC00"/>
<stop offset="0.51" stop-color="#FFD900"/>
<stop offset="1" stop-color="#FFDD00"/>
</linearGradient>
<linearGradient id="paint1_linear_5279_6242" x1="16.7299" y1="116.172" x2="49.0718" y2="102.112" gradientUnits="userSpaceOnUse">
<stop stop-color="#FECC00"/>
<stop offset="0.09" stop-color="#FDCC03"/>
<stop offset="0.55" stop-color="#FCCC10"/>
<stop offset="1" stop-color="#FBCC14"/>
</linearGradient>
<linearGradient id="paint2_linear_5279_6242" x1="8.81219" y1="70.5291" x2="19.4947" y2="65.8854" gradientUnits="userSpaceOnUse">
<stop stop-color="#00A8E3"/>
<stop offset="0.38" stop-color="#00B0E8"/>
<stop offset="1" stop-color="#00B9EE"/>
</linearGradient>
<linearGradient id="paint3_linear_5279_6242" x1="30.2852" y1="68.2936" x2="109.815" y2="68.2936" gradientUnits="userSpaceOnUse">
<stop stop-color="#00A8E3"/>
<stop offset="0.38" stop-color="#00B0E8"/>
<stop offset="1" stop-color="#00B9EE"/>
</linearGradient>
<linearGradient id="paint4_linear_5279_6242" x1="43.8594" y1="21.066" x2="73.5918" y2="21.066" gradientUnits="userSpaceOnUse">
<stop stop-color="#FECC00"/>
<stop offset="0.01" stop-color="#FECC00"/>
<stop offset="0.51" stop-color="#FFD900"/>
<stop offset="1" stop-color="#FFDD00"/>
</linearGradient>
<linearGradient id="paint5_linear_5279_6242" x1="43.8585" y1="26.2424" x2="73.4126" y2="26.2424" gradientUnits="userSpaceOnUse">
<stop stop-color="#FECC00"/>
<stop offset="0.09" stop-color="#FDCC03"/>
<stop offset="0.55" stop-color="#FCCC10"/>
<stop offset="1" stop-color="#FBCC14"/>
</linearGradient>
<linearGradient id="paint6_linear_5279_6242" x1="56.8089" y1="22.5477" x2="62.2131" y2="22.5477" gradientUnits="userSpaceOnUse">
<stop stop-color="#FECC00"/>
<stop offset="0.09" stop-color="#FDCC03"/>
<stop offset="0.55" stop-color="#FCCC10"/>
<stop offset="1" stop-color="#FBCC14"/>
</linearGradient>
<linearGradient id="paint7_linear_5279_6242" x1="66.1543" y1="116.896" x2="72.6466" y2="116.896" gradientUnits="userSpaceOnUse">
<stop stop-color="#FECC00"/>
<stop offset="0.01" stop-color="#FECC00"/>
<stop offset="0.51" stop-color="#FFD900"/>
<stop offset="1" stop-color="#FFDD00"/>
</linearGradient>
<linearGradient id="paint8_linear_5279_6242" x1="100.657" y1="83.5316" x2="144.57" y2="92.0613" gradientUnits="userSpaceOnUse">
<stop stop-color="#FECC00"/>
<stop offset="0.01" stop-color="#FECC00"/>
<stop offset="0.51" stop-color="#FFD900"/>
<stop offset="1" stop-color="#FFDD00"/>
</linearGradient>
<linearGradient id="paint9_linear_5279_6242" x1="95.2766" y1="111.022" x2="139.242" y2="119.561" gradientUnits="userSpaceOnUse">
<stop stop-color="#FECC00"/>
<stop offset="0.09" stop-color="#FDCC03"/>
<stop offset="0.55" stop-color="#FCCC10"/>
<stop offset="1" stop-color="#FBCC14"/>
</linearGradient>
<linearGradient id="paint10_linear_5279_6242" x1="119.816" y1="57.5557" x2="134.332" y2="60.3752" gradientUnits="userSpaceOnUse">
<stop stop-color="#00A8E3"/>
<stop offset="0.38" stop-color="#00B0E8"/>
<stop offset="1" stop-color="#00B9EE"/>
</linearGradient>
<clipPath id="clip0_5279_6242">
<rect width="150" height="113" fill="white" transform="translate(0 10)"/>
</clipPath>
</defs>
</svg>
