<svg width="88" height="88" viewBox="0 0 88 88" fill="none" xmlns="http://www.w3.org/2000/svg">
<path d="M44.0126 88C68.2798 88 87.9522 68.3005 87.9522 44C87.9522 19.6995 68.2798 0 44.0126 0C19.7454 0 0.072998 19.6995 0.072998 44C0.072998 68.3005 19.7454 88 44.0126 88Z" fill="#FFDC00"/>
<path d="M27.6237 52.0915L27.8976 51.9544L28.4682 51.6572L27.6237 52.0915Z" fill="#4F2200"/>
<path d="M63.1634 46.1258C62.684 45.92 62.1134 46.1486 61.9079 46.6286C61.2231 48.2058 60.4014 49.8515 59.6482 51.4515C58.3471 54.08 57.0232 56.8 56.133 59.4972H47.7331V54.0115C47.7331 52.4115 49.0571 51.0629 50.6777 51.0629C51.2027 51.0629 51.6135 50.6058 51.6135 50.1029C51.6135 49.5543 51.2027 49.1429 50.6777 49.1429C48.0071 49.1429 45.8386 51.3372 45.8386 54.0115V59.4972H43.0995V54.0115C43.0995 51.36 40.9082 49.1429 38.2376 49.1429C37.7126 49.1429 37.3017 49.5543 37.3017 50.1029C37.3017 50.6058 37.7126 51.0629 38.2376 51.0629C39.8582 51.0629 41.1822 52.3886 41.1822 54.0115V59.4972H31.9377C31.0703 56.8915 29.7693 54.2172 28.491 51.6572L27.9204 51.9315L26.8019 52.5029C27.9432 54.8115 29.0845 57.1886 29.9291 59.4972H29.3356C28.8106 59.4972 28.3997 59.9315 28.3997 60.4572C28.3997 60.9829 28.8106 61.4172 29.3356 61.4172H30.3855V64.2515H29.3356C28.8106 64.2515 28.3997 64.6629 28.3997 65.1886C28.3997 65.7372 28.8106 66.1486 29.3356 66.1486H30.3855V68.0458C30.3855 69.6 31.6638 70.88 33.2388 70.88H36.5485C37.1192 73.4858 40.5202 75.4058 44.743 75.4058C48.9657 75.4058 52.0929 73.4629 52.4352 70.88H54.9917C56.5667 70.88 57.8449 69.6 57.8449 68.0458V66.1486H58.7808C59.3058 66.1486 59.7167 65.7372 59.7167 65.1886C59.7167 64.6858 59.3058 64.2515 58.7808 64.2515H57.8449V61.4172H58.7808C59.3058 61.4172 59.7167 60.96 59.7167 60.4572C59.7167 59.9315 59.3058 59.4972 58.7808 59.4972H58.1645C59.0091 57.0972 60.2188 54.6743 61.3601 52.2972C62.159 50.6972 62.9807 49.0286 63.6883 47.36C63.8938 46.88 63.6883 46.3315 63.1862 46.1258H63.1634ZM44.6973 73.4629C41.7985 73.4629 39.1963 72.3429 38.5115 70.8572H50.4494C50.0157 72.1829 47.7788 73.4629 44.6973 73.4629ZM55.9276 68.0458C55.9276 68.5486 55.4939 68.9829 54.9689 68.9829H33.1931C32.6681 68.9829 32.2344 68.5486 32.2344 68.0458V66.1486H55.9276V68.0458ZM32.2344 64.2743V61.44H55.9276V64.2743H32.2344Z" fill="#4F2200"/>
<path d="M67.5232 27.7258C67.5232 27.7258 67.5688 27.4972 67.5917 27.3829C67.934 25.2115 67.4318 22.9715 66.1079 21.1658C64.8069 19.36 62.8895 18.1715 60.6754 17.8286C58.4157 17.4629 56.1103 18.0572 54.307 19.4058C53.3712 15.9772 50.4723 13.28 46.8658 12.7086C42.4376 12 38.2377 14.56 36.754 18.6286C35.4986 17.3029 33.8552 16.3886 31.9834 16.1143C29.7922 15.7486 27.5781 16.2743 25.7748 17.5772C23.9716 18.88 22.7847 20.8 22.4423 22.9943C22.3282 23.7029 22.3053 24.3886 22.351 25.0515C18.3565 26.6972 15.4804 30.2858 14.7956 34.56C14.2707 37.8286 15.0467 41.12 16.9869 43.8172C18.9271 46.4915 21.8032 48.2515 25.0672 48.7772C25.7292 48.8915 26.414 48.9372 27.0759 48.9372C30.34 48.9372 33.4671 47.6343 35.7953 45.2572C36.9822 46.3315 38.4431 47.04 40.0181 47.2915C43.1909 47.7943 46.3408 46.4458 48.1441 43.84C48.8973 44.2286 49.719 44.48 50.5636 44.64C53.782 45.1429 56.9776 43.7258 58.7809 41.12C60.0591 42.56 61.7939 43.5429 63.7341 43.8629C65.9254 44.2058 68.1395 43.7029 69.9427 42.4C71.7459 41.0743 72.9329 39.1543 73.2752 36.96C73.9372 32.8458 71.4036 28.8915 67.5232 27.68V27.7258ZM71.4035 36.7086C71.1296 38.4 70.2166 39.9086 68.8242 40.9143C67.4318 41.92 65.7428 42.3315 64.0308 42.08C62.2733 41.76 60.7211 40.7772 59.7396 39.3143C59.8994 38.8115 60.0591 38.3315 60.1276 37.8058C60.2417 37.0972 60.2645 36.3886 60.1961 35.68C60.1504 35.1772 59.6939 34.7658 59.1689 34.8343C58.6439 34.9029 58.2559 35.3372 58.3016 35.8858C58.3472 36.4343 58.3244 36.96 58.2331 37.4858C58.1418 38.0115 57.982 38.5372 57.7765 39.04C56.6124 41.7143 53.7592 43.3143 50.8603 42.8343C50.2212 42.7429 49.6278 42.5143 49.0343 42.2629C49.2854 41.6686 49.4452 41.0743 49.5365 40.4572C49.6962 39.52 49.6734 38.56 49.5365 37.6458C49.4452 37.1429 48.9429 36.8 48.418 36.8915C47.9158 37.0058 47.5734 37.4858 47.6647 37.9886C47.8017 38.6972 47.8017 39.4286 47.6647 40.16C47.5506 40.8915 47.3224 41.5772 46.98 42.2172V42.24C45.6561 44.6172 42.9855 45.92 40.3148 45.4858C39.0822 45.28 37.941 44.7315 37.0279 43.8858C38.0323 42.5143 38.7627 40.9143 39.1279 39.2458C39.2421 38.7429 38.9225 38.24 38.3975 38.1258C37.8725 38.0115 37.3703 38.3315 37.2562 38.8572C36.891 40.5029 36.1377 42.08 35.0421 43.3829C35.0421 43.3829 34.9965 43.4058 34.9965 43.4515C32.5998 46.24 29.0161 47.5658 25.3868 46.9715C22.6248 46.56 20.2053 45.0286 18.539 42.7658C16.8956 40.5029 16.2336 37.7143 16.6902 34.9486C17.2608 31.4286 19.5662 28.48 22.7847 27.04C23.3553 28.8 24.5422 30.3543 26.0944 31.36C26.2541 31.4743 26.4368 31.52 26.6194 31.52C26.9389 31.52 27.2357 31.36 27.4183 31.0858C27.715 30.6286 27.5781 30.0343 27.1444 29.76C25.6835 28.8 24.6564 27.2686 24.3596 25.5543V25.5086C24.2227 24.8 24.2227 24.0686 24.3596 23.36C24.6336 21.6686 25.5466 20.16 26.939 19.1543C28.3313 18.1715 30.0204 17.7372 31.7323 18.0343C33.6497 18.3543 35.2932 19.4743 36.2747 21.1658C36.1377 22.8115 36.4344 24.4115 37.142 25.8972C37.3018 26.2172 37.6442 26.4 38.0094 26.4C38.1464 26.4 38.2834 26.3772 38.4203 26.3086C38.8768 26.08 39.0822 25.5086 38.854 25.0286C38.2377 23.7486 38.0094 22.3772 38.1692 20.9829L38.2148 20.64C38.854 16.6629 42.6203 13.9429 46.6148 14.56C49.8789 15.1086 52.3897 17.8058 52.7321 21.0515C51.9332 22.1258 51.3853 23.36 51.1571 24.7315C51.0658 25.2343 51.431 25.7143 51.9331 25.8286H52.0929C52.5495 25.8286 52.9603 25.4858 53.0288 25.0286C53.2114 23.8629 53.6907 22.7886 54.4211 21.92C54.4211 21.92 54.4668 21.8515 54.4896 21.8286C55.9505 20.1372 58.1874 19.3143 60.4015 19.6572C62.0906 19.9315 63.5743 20.8686 64.6015 22.2629C65.6058 23.6572 66.0167 25.3715 65.7428 27.0629C65.7428 27.1772 65.6971 27.2229 65.6971 27.3372C64.4188 27.2458 63.1406 27.4286 61.9537 27.9086C61.4743 28.1143 61.2232 28.6629 61.4287 29.1429C61.5885 29.5086 61.9309 29.7372 62.3189 29.7372C62.433 29.7372 62.57 29.7143 62.6613 29.6686C63.7569 29.2115 64.9438 29.0743 66.1079 29.28H66.2449C69.6687 29.8972 71.997 33.2115 71.4492 36.64L71.4035 36.7086Z" fill="#4F2200"/>
</svg>
