<svg width="88" height="88" viewBox="0 0 88 88" fill="none" xmlns="http://www.w3.org/2000/svg">
<path d="M43.9875 88C68.2546 88 87.9271 68.3005 87.9271 44C87.9271 19.6995 68.2546 0 43.9875 0C19.7203 0 0.0478516 19.6995 0.0478516 44C0.0478516 68.3005 19.7203 88 43.9875 88Z" fill="#FFDC00"/>
<path d="M77.336 38.1257C77.2675 37.6229 76.8339 37.2343 76.3089 37.2343H70.5568C69.6209 33.6457 67.9318 30.24 65.6492 27.3143C60.4906 20.7543 52.7755 17.0286 44.4669 17.0286C36.1583 17.0286 28.4204 20.7771 23.2618 27.3143C20.3629 30.9943 18.5597 35.2228 17.8521 39.7486L10.5707 43.0628C10.1826 43.2457 9.95435 43.6114 9.95435 44.0229C9.95435 44.4343 10.1826 44.7771 10.5707 44.96L17.8521 48.2286C18.5597 52.7543 20.3857 57.0286 23.2618 60.6628C28.4204 67.2457 36.1355 70.9943 44.4669 70.9943C52.7983 70.9943 60.4906 67.2686 65.6492 60.6628C67.9318 57.76 69.6209 54.3314 70.5339 50.7429H76.3089C76.811 50.7429 77.2219 50.3771 77.3132 49.92C77.7469 48 77.9751 45.9886 77.9751 44C77.9751 42.0114 77.7697 40.0457 77.336 38.1257ZM24.8824 48.6629C25.0878 47.4743 25.2248 46.24 25.2704 45.0514H69.3242C69.2785 46.24 69.1187 47.4743 68.8905 48.6629H24.8824ZM28.7628 57.1428C28.3748 57.2571 27.9867 57.3943 27.5987 57.5086C27.165 57.6686 26.7541 57.8057 26.3433 57.9657C25.9552 58.1257 25.6128 58.24 25.2476 58.4228C24.9509 58.5143 24.677 58.6286 24.4031 58.72C22.2803 55.8629 20.8651 52.6628 20.1118 49.2343L23.239 50.6514C23.239 50.6514 23.3074 50.6743 23.3531 50.6743L23.3987 50.6971C23.4672 50.72 23.5129 50.72 23.5813 50.72H29.2193C29.653 52.6857 30.3149 54.6057 31.1367 56.4571C30.7714 56.5257 30.4291 56.64 30.0638 56.7543C29.6301 56.8457 29.2193 56.96 28.7856 57.12L28.7628 57.1428ZM24.3802 29.2343C24.677 29.3486 24.9965 29.4857 25.2933 29.6C25.6356 29.76 25.978 29.8743 26.3204 29.9886C26.7541 30.1714 27.2335 30.3314 27.69 30.4686C28.0324 30.5828 28.3747 30.72 28.7399 30.8343C29.1965 30.9486 29.6758 31.1086 30.178 31.2228C30.4747 31.3143 30.7714 31.4057 31.091 31.4971C30.2693 33.3257 29.6302 35.2229 29.1736 37.1886H23.6498V37.2114C23.5813 37.2114 23.5357 37.2114 23.4672 37.2343H23.3531C23.3531 37.2343 23.2846 37.2571 23.239 37.2571L20.1575 38.6743C20.8651 35.2686 22.3031 32.0686 24.4031 29.1886L24.3802 29.2343ZM33.7616 32.1371C34.2866 32.2286 34.8344 32.32 35.3594 32.4114C35.7018 32.48 36.0442 32.5257 36.3638 32.5943C36.9572 32.6629 37.505 32.7086 38.0985 32.8C38.3953 32.8 38.7148 32.8686 39.0344 32.8914C39.6963 32.96 40.3583 32.9829 41.0202 33.0514C41.2485 33.0514 41.4767 33.0743 41.705 33.0743C42.2756 33.0971 42.8234 33.0971 43.3941 33.1428V37.2114H31.2964C31.7301 35.4057 32.3464 33.6686 33.1225 31.9771C33.3279 32.0457 33.5562 32.0686 33.7616 32.1371ZM45.4712 33.1428C46.0419 33.12 46.5897 33.12 47.1375 33.0743C47.3886 33.0743 47.6169 33.0514 47.8679 33.0514C48.5299 32.9829 49.1918 32.96 49.831 32.8914C50.1505 32.8686 50.4701 32.8 50.7896 32.8C51.3603 32.7086 51.9309 32.64 52.4788 32.5943C52.8211 32.5257 53.1863 32.48 53.5287 32.3886C54.0537 32.32 54.5787 32.2286 55.0809 32.1371C55.2863 32.0686 55.5146 32.0457 55.7428 31.9771C56.4961 33.6686 57.1124 35.4057 57.5689 37.2114H45.4712V33.1428ZM54.5103 30.1486C54.0309 30.24 53.5287 30.3086 53.0494 30.4C52.707 30.4686 52.3875 30.5143 52.0451 30.56C51.5201 30.6514 50.9951 30.72 50.4701 30.7657C50.1733 30.7886 49.8538 30.8343 49.5342 30.8571C48.9636 30.9257 48.3473 30.9714 47.7538 30.9714C47.5027 30.9943 47.2745 31.04 47.0234 31.04C46.5212 31.0628 45.9962 31.0628 45.4941 31.1086V19.8857C49.4201 22.5143 52.5929 26.0343 54.807 30.0571C54.7157 30.1257 54.6244 30.1257 54.5331 30.1486H54.5103ZM43.3941 31.0857C42.8691 31.0629 42.3669 31.0628 41.8648 31.0171C41.6137 31.0171 41.3626 30.9943 41.1115 30.9486C40.518 30.9257 39.9246 30.88 39.3539 30.8343C39.0344 30.8114 38.692 30.7657 38.3724 30.7428C37.8703 30.6743 37.3453 30.6286 36.8431 30.5371C36.4779 30.5143 36.1355 30.4457 35.7931 30.3771C35.3138 30.2857 34.8344 30.2171 34.3779 30.1257C34.2866 30.1029 34.1953 30.1029 34.104 30.0343C36.3181 26.0114 39.4909 22.4914 43.4169 19.8628V31.0857H43.3941ZM22.8281 39.7486C23.0563 41.12 23.1705 42.5371 23.1705 43.9771C23.1705 45.4171 23.0563 46.7886 22.8281 48.1828L20.0433 46.9486C20.3857 44.9829 20.3857 42.9714 20.0433 41.0057L22.8281 39.7486ZM43.3941 54.8114H42.8691C42.5039 54.8343 42.1159 54.8343 41.7735 54.8343C41.2713 54.8571 40.792 54.9028 40.3126 54.9486C39.9018 54.9486 39.4909 54.9714 39.08 55.0171C38.6235 55.0857 38.167 55.1314 37.7105 55.2C37.2768 55.2686 36.8431 55.2914 36.4322 55.36C35.9986 55.4286 35.542 55.52 35.1083 55.5657C34.6747 55.6343 34.241 55.7257 33.8301 55.8171C33.6247 55.84 33.3964 55.8857 33.1681 55.9314C32.3921 54.24 31.753 52.5028 31.3193 50.6971H43.4169V54.8114H43.3941ZM34.3779 57.8057C34.8344 57.7143 35.291 57.6457 35.7475 57.5543C36.1127 57.4857 36.4779 57.44 36.8431 57.3714C37.3224 57.3029 37.8018 57.2571 38.2811 57.1886C38.6463 57.1657 38.9887 57.0971 39.3539 57.0743C39.8789 57.0514 40.4039 56.9828 40.9061 56.9828C41.2256 56.96 41.5452 56.9143 41.8876 56.8914C42.3669 56.8914 42.8919 56.8686 43.3941 56.8686V67.9543C39.4909 65.28 36.3409 61.8286 34.1268 57.8514C34.1953 57.8514 34.2866 57.8286 34.3779 57.8286V57.8057ZM45.4712 56.8457C45.9734 56.8457 46.4756 56.8686 46.9777 56.8686C47.2973 56.8914 47.6397 56.9371 47.9592 56.96C48.4842 56.9828 49.0092 57.0286 49.5114 57.0514C49.8766 57.0743 50.2418 57.1429 50.607 57.1657C51.0864 57.2343 51.5657 57.28 52.0223 57.3486C52.3875 57.4171 52.7755 57.4628 53.1407 57.5314C53.5972 57.6229 54.0537 57.6914 54.4874 57.7829C54.6472 57.8057 54.7842 57.8514 54.9439 57.8743C52.7527 62.0114 49.5342 65.6 45.4712 68.2971V56.8457ZM55.058 55.7943C54.6244 55.7028 54.145 55.6114 53.6885 55.5428C53.2777 55.4514 52.844 55.3828 52.4331 55.3371C51.9994 55.2686 51.5201 55.2228 51.0864 55.1771C50.6527 55.1086 50.219 55.0629 49.7625 54.9943C49.3288 54.9714 48.8951 54.9257 48.4386 54.9028C47.9821 54.88 47.5255 54.8343 47.069 54.8114C46.6582 54.8114 46.2473 54.8114 45.8593 54.7886H45.4256V50.6743H57.5917C57.1808 52.5028 56.5874 54.2628 55.8341 55.9543C55.5831 55.9314 55.3092 55.84 55.0124 55.7943H55.058ZM69.3013 42.9028H25.2476C25.202 41.6686 25.0878 40.4571 24.8596 39.2686H68.8676C69.0959 40.4571 69.2557 41.6914 69.3013 42.9028ZM59.7145 37.1657C59.258 35.2 58.6189 33.3029 57.82 31.4743C58.1167 31.3829 58.4363 31.2914 58.733 31.2C59.2123 31.0857 59.6917 30.9257 60.1482 30.8114C60.4906 30.6971 60.8558 30.56 61.1982 30.4457C61.6547 30.2857 62.1112 30.1486 62.5449 29.9657C62.8873 29.8514 63.2525 29.7143 63.5949 29.5771C63.8916 29.4628 64.2112 29.3257 64.4851 29.2114C66.2655 31.6343 67.5666 34.3543 68.3883 37.2114H59.7145V37.1657ZM63.1156 27.4971C62.9558 27.5657 62.7732 27.6571 62.5906 27.7028C62.2482 27.8628 61.9058 27.9771 61.5634 28.0914C61.1525 28.2514 60.7417 28.3886 60.3308 28.5257C59.9656 28.64 59.646 28.7771 59.2808 28.8686C58.8471 29.0286 58.4134 29.1428 57.9569 29.2571C57.5917 29.3486 57.2722 29.44 56.907 29.5314C56.907 29.5314 56.8841 29.5314 56.8613 29.5543C54.7613 25.5771 51.8396 22.08 48.256 19.2914C53.9852 20.1828 59.2124 23.04 63.1156 27.4743V27.4971ZM40.6094 19.3143C37.0029 22.1028 34.0812 25.6 32.004 29.5771C32.004 29.5543 31.9812 29.5543 31.9812 29.5543C31.5932 29.4629 31.2508 29.3714 30.8856 29.28C30.4519 29.1657 30.041 29.0286 29.6073 28.8914C29.2649 28.8 28.8997 28.6857 28.5345 28.5486C28.1237 28.4343 27.7128 28.2743 27.3019 28.1143C26.9367 28 26.6171 27.8629 26.2748 27.7257C26.0921 27.6571 25.9096 27.5657 25.7498 27.52C29.6302 23.0857 34.8801 20.2286 40.6094 19.3371V19.3143ZM18.126 41.8743C18.3314 43.2457 18.3314 44.6628 18.126 46.0343L13.4923 43.9543L18.126 41.8743ZM25.7498 60.4114C25.9324 60.3428 26.115 60.2514 26.2748 60.16C26.5943 60.0457 26.9367 59.9086 27.2791 59.7943C27.69 59.6343 28.1008 59.4971 28.5345 59.3371C28.8769 59.2228 29.2193 59.1314 29.5845 58.9943C30.0182 58.88 30.4519 58.7429 30.8856 58.6286C31.2508 58.5371 31.5932 58.4457 31.9584 58.3314H32.0497C34.1725 62.2857 37.1398 65.8057 40.8148 68.6171C34.9942 67.7714 29.6758 64.8914 25.7726 60.4114H25.7498ZM48.6897 68.5028C52.2048 65.7371 55.0124 62.2857 57.0211 58.4C57.3406 58.4686 57.683 58.56 58.0026 58.6514C58.4363 58.7657 58.8471 58.9028 59.2808 59.0171C59.6232 59.1314 59.9884 59.2686 60.3536 59.3828C60.7645 59.4971 61.1754 59.6571 61.5634 59.8171C61.9058 59.9314 62.271 60.0686 62.6134 60.2057C62.7732 60.2743 62.9558 60.3657 63.1156 60.4114C59.3265 64.7314 54.2592 67.5428 48.6897 68.5028ZM64.4851 58.6971C64.2112 58.5828 63.8916 58.4914 63.6177 58.3543C63.2753 58.1943 62.9101 58.08 62.5677 57.92C62.1341 57.76 61.7004 57.6228 61.2438 57.4628C60.8786 57.3486 60.5134 57.2114 60.1482 57.0971C59.7145 56.9371 59.2352 56.8228 58.8015 56.7086C58.5047 56.6171 58.2308 56.5486 57.9569 56.4571C58.733 54.6286 59.3493 52.6857 59.783 50.6971H68.3883C67.5666 53.5543 66.2655 56.2971 64.5079 58.6971H64.4851ZM75.4415 48.6171H71.0133C71.2644 47.0857 71.4013 45.5314 71.4013 43.9543C71.4013 42.3543 71.2644 40.8 71.0133 39.2686H75.4415C75.7382 40.8 75.8752 42.3543 75.8752 43.9543C75.8752 45.5543 75.7382 47.0857 75.4415 48.6171Z" fill="#4F2200"/>
</svg>
