<svg width="100" height="100" viewBox="0 0 100 100" fill="none" xmlns="http://www.w3.org/2000/svg">
<circle cx="50" cy="50" r="50" fill="#E6F5FD"/>
<path d="M81.1562 35.1724C81.1562 31.8529 81.1562 28.5333 81.1562 25.2138C81.1397 24.2229 80.6777 23.265 79.9186 22.6044C79.1266 21.8942 78.021 21.5309 76.965 21.663C58.4014 24.2394 39.8378 26.8158 21.2577 29.4086C20.6141 29.5077 19.9376 29.5408 19.3435 29.8215C18.073 30.3665 17.1654 31.6217 17.0664 32.9759V60.292V66.4356V80.1763C17.1819 81.6791 18.304 83.0334 19.7891 83.4628C20.3996 83.6775 21.0431 83.5949 21.6867 83.6114C27.8415 83.6114 33.9964 83.6114 40.1678 83.6114C41.4879 86.4025 42.8079 89.177 44.1115 91.9681H44.326C47.2797 89.177 50.2334 86.4025 53.1871 83.6114C61.0415 83.6114 68.896 83.6114 76.7505 83.6114C77.2455 83.6114 77.7405 83.661 78.219 83.4958C79.2421 83.182 80.0342 82.3728 80.5457 81.4645C80.9252 80.7708 81.1562 80.0111 81.1727 79.2184C81.1727 68.5166 81.1727 57.8312 81.1727 47.1294V35.1724H81.1562Z" fill="#D7F9FF"/>
<path d="M77.3936 23.0832C77.9546 23.0832 78.5322 23.2979 78.9612 23.6778C79.4067 24.0741 79.6872 24.6522 79.7037 25.1972C79.7037 27.6084 79.7037 30.0196 79.7037 32.4308V35.1723V46.7495V47.1293V68.5165V79.1853C79.7037 79.6972 79.5387 80.2257 79.2582 80.7377C78.8787 81.4148 78.3507 81.9103 77.7566 82.0754C77.6411 82.1084 77.4431 82.125 77.2781 82.125H77.0801H76.8491H76.7336H68.8791H61.0246H53.1702H52.5926L52.1636 82.5213L48.6984 85.7913L44.6061 89.6394L43.2366 86.7327L41.4545 82.9672L41.0584 82.125H40.1344H33.336H29.5077H25.6795H21.4553H21.1417H20.8612C20.6137 82.125 20.3827 82.125 20.2012 82.0589H20.1682L20.1352 82.0424C19.2606 81.7947 18.5676 80.9854 18.4851 80.1101V66.4355V60.2919V33.0254C18.5676 32.2161 19.1121 31.4729 19.9207 31.1261C20.2012 30.994 20.5972 30.9444 21.0097 30.8949C21.1417 30.8784 21.2903 30.8619 21.4058 30.8453L36.5537 28.7479L77.0801 23.1162C77.1626 23.1162 77.2451 23.1162 77.3276 23.1162M77.3276 21.6464C77.1791 21.6464 77.0471 21.6464 76.8986 21.6794C58.335 24.2558 39.7714 26.8322 21.1912 29.425C20.5477 29.5241 19.8712 29.5572 19.2771 29.8379C18.0066 30.3829 17.099 31.6381 17 32.9923V60.2919V66.4355V80.1762C17.1155 81.679 18.2376 83.0333 19.7227 83.4627C20.0857 83.5948 20.4652 83.6113 20.8612 83.6113C21.0592 83.6113 21.2573 83.6113 21.4388 83.6113C21.5048 83.6113 21.5543 83.6113 21.6203 83.6113C22.9734 83.6113 24.3099 83.6113 25.663 83.6113C28.2042 83.6113 30.7618 83.6113 33.303 83.6113C35.5636 83.6113 37.8242 83.6113 40.1014 83.6113C41.4215 86.4024 42.7415 89.1769 44.0451 91.968H44.2596C47.2133 89.1769 50.167 86.4024 53.1206 83.6113C55.7443 83.6113 58.3515 83.6113 60.9751 83.6113C66.2059 83.6113 71.4367 83.6113 76.6841 83.6113C76.7171 83.6113 76.7501 83.6113 76.7996 83.6113C76.9481 83.6113 77.0801 83.6113 77.2286 83.6113C77.5421 83.6113 77.8556 83.6113 78.1691 83.4957C79.1922 83.1819 79.9842 82.3727 80.4958 81.4644C80.8753 80.7707 81.1063 80.011 81.1228 79.2183C81.1228 68.5165 81.1228 57.8311 81.1228 47.1293V35.1723C81.1228 31.8528 81.1228 28.5332 81.1228 25.2137C81.1063 24.2228 80.6443 23.2649 79.8852 22.6043C79.2087 21.9932 78.2846 21.6299 77.3606 21.6299L77.3276 21.6464Z" fill="#35BBE3"/>
<path d="M75.3476 77.5341H22.8745C21.4884 77.5341 20.3828 76.0643 20.3828 74.2476V42.9513C20.3828 41.2668 21.3399 39.863 22.6104 39.6813L75.0836 32.3321C76.5522 32.1174 77.8392 33.6533 77.8392 35.6021V74.2311C77.8392 76.0477 76.7172 77.5176 75.3476 77.5176V77.5341Z" fill="#35BBE3"/>
<g opacity="0.22">
<path d="M42.2465 53.6694C40.7944 53.9007 39.4743 54.6108 38.3193 55.8164C37.1477 57.022 36.4712 58.3928 36.2401 59.9452C36.0256 61.4976 36.3556 62.7032 37.2302 63.5951C38.1047 64.4869 39.2598 64.8172 40.7284 64.586C42.23 64.3548 43.5666 63.6281 44.7381 62.4225C45.9097 61.2169 46.5863 59.8461 46.8173 58.2937C47.0318 56.7578 46.7018 55.5357 45.8272 54.6438C44.9527 53.752 43.7646 53.4382 42.263 53.6694H42.2465Z" fill="#014E60"/>
<path d="M46.1241 36.0974C41.4214 36.8406 37.9067 36.758 35.5965 35.8496C33.2864 34.9413 32.3788 32.6787 32.8904 29.0454C32.9894 28.3022 32.9564 28.3187 33.1709 27.6416L25.1679 28.7481C24.8379 29.8216 25.1349 29.0949 24.9699 30.284C24.2603 35.3212 25.2834 38.8554 28.0391 40.9033C30.7947 42.9512 34.7385 43.5787 39.8703 42.7695L39.3422 48.6324L46.5367 47.5094L48.5498 35.7175L46.1406 36.0974H46.1241Z" fill="#014E60"/>
</g>
<path d="M40.7281 10.8789C43.9788 10.3669 44.1438 9.06222 46.4045 9.97055C48.6651 10.8789 52.9059 13.9177 53.8794 16.0481C54.853 18.1786 55.15 20.7384 54.721 23.7277L46.9325 24.9498C46.9325 24.9498 45.4639 24.2066 44.0778 23.3313C44.9029 21.4651 46.0745 19.7641 45.5299 19.2521C44.2263 18.0465 42.2627 17.6501 39.6556 18.063C37.0484 18.4759 34.8868 19.5494 33.1872 21.2669C31.5041 23.001 30.4645 25.181 30.1015 27.8235C29.59 31.4568 30.4975 33.7359 32.8077 34.6277C35.1178 35.536 38.9295 35.3213 42.8898 32.8771L45.7444 34.4956L43.7313 46.2874L36.5369 47.4104L33.6822 45.792L37.0649 41.5476C31.9166 42.3568 27.9729 41.7292 25.2337 39.6813C22.4946 37.6335 21.455 34.0827 22.1645 29.0621C22.8411 24.2231 24.8707 20.1934 28.2369 16.9234C31.6031 13.67 35.7778 11.6551 40.7116 10.8789H40.7281ZM37.9395 63.3476C36.4874 63.5788 32.6427 61.7952 31.7681 60.9199C30.8935 60.028 33.2532 60.2593 33.4677 58.7233C33.6822 57.1874 34.3753 55.8002 35.5468 54.5946C36.7184 53.3889 36.0254 50.9942 37.4939 50.763C38.9625 50.5318 42.1802 52.5302 43.0548 53.422C43.9293 54.3138 44.2593 55.5194 44.0448 57.0718C43.8303 58.6243 43.1373 59.995 41.9657 61.2006C40.7941 62.4062 39.4741 63.1329 37.956 63.3641L37.9395 63.3476Z" fill="#EF8601"/>
<path d="M37.8746 9.27682C41.1253 8.76485 43.881 8.96303 46.1581 9.87137C48.4187 10.7797 50.0523 12.2991 51.0259 14.4461C51.9995 16.5765 52.2965 19.1364 51.8675 22.1256L44.079 23.3477C44.442 20.7549 43.98 18.8556 42.6764 17.65C41.3728 16.4444 39.4092 16.048 36.8021 16.4609C34.1949 16.8738 32.0333 17.9473 30.3337 19.6649C28.6506 21.399 27.611 23.579 27.248 26.2214C26.7365 29.8547 27.644 32.1338 29.9541 33.0256C32.2643 33.934 35.779 34.0165 40.4818 33.2734L42.8909 32.8935L40.8778 44.6854L33.6834 45.8084L34.2114 39.9455C29.0631 40.7547 25.1194 40.1272 22.3802 38.0793C19.641 36.0314 18.6015 32.4806 19.311 27.46C20.0206 22.4394 22.0172 18.5914 25.3834 15.3214C28.7661 12.0679 32.9243 10.053 37.8746 9.27682ZM35.086 61.7455C33.6339 61.9767 32.4623 61.6464 31.5877 60.7546C30.7132 59.8628 30.3832 58.6572 30.5977 57.1048C30.8122 55.5523 31.5052 54.1816 32.6768 52.976C33.8484 51.7704 35.152 51.0602 36.604 50.829C38.0561 50.5978 39.2937 50.9116 40.1683 51.8034C41.0428 52.6952 41.3728 53.9008 41.1583 55.4532C40.9438 57.0057 40.2508 58.3764 39.0792 59.582C37.9076 60.7876 36.5875 61.5143 35.0695 61.7455H35.086Z" fill="#FFD701"/>
<path d="M64.9127 30.8862C65.5241 30.0569 65.4668 28.9763 64.7848 28.4726C64.1028 27.969 63.0543 28.2331 62.443 29.0625C61.8316 29.8919 61.8888 30.9725 62.5708 31.4761C63.2528 31.9797 64.3013 31.7156 64.9127 30.8862Z" fill="#35BBE3"/>
<path d="M73.6988 29.5066C74.3102 28.6772 74.253 27.5966 73.571 27.093C72.889 26.5894 71.8405 26.8535 71.2291 27.6829C70.6177 28.5122 70.6749 29.5928 71.3569 30.0964C72.0389 30.6001 73.0874 30.336 73.6988 29.5066Z" fill="#35BBE3"/>
<path d="M69.3209 30.1277C69.9323 29.2983 69.875 28.2177 69.193 27.7141C68.511 27.2105 67.4626 27.4746 66.8512 28.3039C66.2398 29.1333 66.297 30.2139 66.979 30.7175C67.661 31.2211 68.7095 30.9571 69.3209 30.1277Z" fill="#35BBE3"/>
<path d="M52.0478 56.4771C51.2228 56.4771 50.5463 55.8331 50.4968 55.0073C50.4473 54.1485 51.1073 53.4218 51.9653 53.3723L74.6047 52.2493C75.4462 52.2162 76.1888 52.8603 76.2383 53.7191C76.2878 54.5779 75.6277 55.3046 74.7697 55.3541L52.1303 56.4771C52.1303 56.4771 52.0808 56.4771 52.0478 56.4771Z" fill="#FFD701"/>
<path d="M52.0474 62.5545C51.2223 62.5545 50.5293 61.8939 50.4963 61.0682C50.4633 60.2094 51.1233 59.4827 51.9814 59.4497L74.6207 58.4918C75.4953 58.4423 76.2048 59.1194 76.2378 59.9782C76.2708 60.837 75.6108 61.5636 74.7527 61.5967L52.1134 62.5545C52.1134 62.5545 52.0639 62.5545 52.0474 62.5545Z" fill="#D7F9FF"/>
<path d="M52.0465 68.8139C51.205 68.8139 50.5119 68.1533 50.4954 67.3111C50.4789 66.4523 51.139 65.7421 51.997 65.7091L74.6364 65.065C75.4614 65.0485 76.204 65.7091 76.237 66.5679C76.2535 67.4267 75.5934 68.1368 74.7354 68.1699L52.096 68.8139C52.096 68.8139 52.063 68.8139 52.0465 68.8139Z" fill="#D7F9FF"/>
</svg>
