<svg width="100" height="100" viewBox="0 0 100 100" fill="none" xmlns="http://www.w3.org/2000/svg">
<circle cx="50" cy="50" r="50" fill="#E6F5FD"/>
<path d="M20.4894 28.4683H75.0846C77.5864 28.4683 79.6289 30.4967 79.6289 33.0165V70.3532H15.9609V33.0165C15.9609 30.5126 17.9877 28.4683 20.5053 28.4683H20.4894Z" fill="#D7F9FF"/>
<path d="M57.9054 27.9775H37.7331C36.9414 39.1659 19.6824 44.5223 14.8848 54.633V69.5455C26.1743 50.9089 43.7816 41.7332 57.9054 27.9775Z" fill="#E9FDFF"/>
<path d="M44.6055 77.5483H53.5674C61.9594 66.3124 71.4122 54.6328 80.675 48.5474V36.9312C66.472 47.9135 61.1202 67.184 44.6055 77.5483Z" fill="#E9FDFF"/>
<path d="M55.7035 77.0251H39.7588V84.6161H55.7035V77.0251Z" fill="#35BBE3"/>
<path d="M16.3271 70.5752H79.0926V73.0633C79.0926 75.0283 77.5092 76.6131 75.5458 76.6131H19.8423C17.8947 76.6131 16.3271 75.0283 16.3271 73.0949V70.5752Z" fill="#FFD701"/>
<path d="M75.5763 27.4224H70.6995V29.435H75.5763C77.2072 29.435 78.5531 30.7662 78.5531 32.4143V69.751H16.991V32.4143C16.991 30.7662 18.3368 29.435 19.9836 29.435H24.8762V27.4224H19.9836C17.2443 27.4224 15.0117 29.6569 15.0117 32.4143V72.7303C15.0117 75.5037 17.2285 77.7223 19.9836 77.7223H38.8417V83.9979H32.049C31.4948 83.9979 31.0673 84.4416 31.0673 84.9963C31.0673 85.5193 31.5106 85.963 32.049 85.963H63.495C64.0334 85.963 64.4768 85.5193 64.4768 84.9963C64.4768 84.4416 64.0334 83.9979 63.495 83.9979H56.7181V77.7223H75.5763C78.3156 77.7223 80.5481 75.5037 80.5481 72.7303V32.4143C80.5481 29.6727 78.3314 27.4224 75.5763 27.4224ZM54.7231 83.9979H40.8209V77.7223H54.7231V83.9979ZM78.5531 72.7303C78.5531 74.3785 77.2072 75.7414 75.5763 75.7414H19.9836C18.3368 75.7414 16.991 74.3785 16.991 72.7303V71.732H78.5531V72.7303Z" fill="#35BBE3"/>
<path d="M25.3506 20.1333L31.6208 20.6563C31.6208 20.6563 38.7461 21.0208 39.0152 21.2268C39.2844 21.4328 45.9663 23.3503 45.9663 23.3503L47.7555 24.222C47.7555 24.222 51.6982 22.5738 51.9673 22.5738C52.2365 22.5738 57.5409 21.2109 58.0951 21.2426C58.6492 21.2743 64.9511 20.4978 65.0144 20.4978C65.0778 20.4978 70.5721 20.6721 70.5721 20.6721C70.5721 20.6721 70.3188 53.5715 70.5721 53.5715C70.8255 53.5715 61.0085 53.5715 61.0085 53.5715L52.8699 55.1404L47.9614 57.3274L41.517 55.0453L33.5209 53.8251L25.3506 53.3972V20.1333Z" fill="#D7F9FF"/>
<path d="M31.3516 53.7613V61.5424C31.3516 61.5424 31.7791 63.3966 32.2383 63.7452C32.6975 64.0939 34.4233 65.1398 34.7242 65.1398H61.6893L63.5893 63.1589L64.4444 61.1304L64.1752 53.6504L53.1548 55.3302L47.9613 56.7248L43.227 55.457L35.7534 53.9515L31.3516 53.7772V53.7613Z" fill="#FFD701"/>
<path d="M64.191 20.656L64.4444 18.675C64.4444 18.675 64.0169 16.8209 63.5577 16.4722C63.0985 16.1236 61.3726 15.0776 61.0718 15.0776H34.1067L32.2066 17.0586L31.3516 19.0871L31.4149 20.6401L40.2344 21.6543L47.7713 24.2216L53.1548 22.1773L59.4567 20.7669L64.191 20.656Z" fill="#FFD701"/>
<path d="M51.8423 19.5147C52.2699 19.5147 52.6182 19.1661 52.6182 18.7223C52.6182 18.2786 52.2699 17.9458 51.8423 17.9458H44.0046C43.5771 17.9458 43.2129 18.2786 43.2129 18.7223C43.2129 19.1661 43.5771 19.5147 44.0046 19.5147H51.8423Z" fill="#35BBE3"/>
<path d="M37.7331 60.7656C37.3056 60.7656 36.9414 61.1143 36.9414 61.558C36.9414 62.0017 37.3056 62.3345 37.7331 62.3345C38.1606 62.3345 38.5089 61.9859 38.5089 61.558C38.5089 61.1143 38.1606 60.7656 37.7331 60.7656Z" fill="#35BBE3"/>
<path d="M58.0962 60.7656C57.6845 60.7656 57.3203 61.1143 57.3203 61.558C57.3203 62.0017 57.6845 62.3345 58.0962 62.3345C58.5395 62.3345 58.8879 61.9859 58.8879 61.558C58.8879 61.1143 58.5395 60.7656 58.0962 60.7656Z" fill="#35BBE3"/>
<path d="M55.3093 19.5147C55.7368 19.5147 56.0851 19.1661 56.0851 18.7223C56.0851 18.2786 55.7368 17.9458 55.3093 17.9458C54.8818 17.9458 54.5176 18.2786 54.5176 18.7223C54.5176 19.1661 54.8818 19.5147 55.3093 19.5147Z" fill="#35BBE3"/>
<path d="M43.9558 27.2166C40.3773 26.1389 35.7063 25.4892 30.0536 25.2673C29.8478 25.2356 29.6419 25.3307 29.4836 25.4734C29.3253 25.616 29.2461 25.822 29.2461 26.028V31.5271C29.2461 31.9391 29.5628 32.2878 30.0061 32.3195C35.5163 32.5255 40.0764 33.1752 43.5282 34.2053C43.5916 34.237 43.6708 34.2529 43.7658 34.2529C43.9241 34.2529 44.0824 34.1895 44.2249 34.0944C44.4149 33.9359 44.5416 33.7299 44.5416 33.4605V27.9614C44.5416 27.6128 44.3041 27.3117 43.9716 27.2166H43.9558ZM42.9582 32.4146C39.6964 31.5746 35.6113 31.02 30.8136 30.7823V26.8521C35.6746 27.1056 39.7598 27.692 42.9582 28.5478V32.4146Z" fill="#35BBE3"/>
<path d="M43.9558 38.1834C40.3773 37.1374 35.7064 36.4877 30.0537 36.2183C29.642 36.2183 29.2461 36.5511 29.2461 36.9631C29.2145 37.4068 29.5628 37.7713 30.0062 37.803C35.5163 38.009 40.0765 38.6588 43.5283 39.6889C43.6074 39.7206 43.6708 39.7206 43.7658 39.7206C44.0983 39.7206 44.415 39.5145 44.51 39.1659C44.6367 38.7539 44.3991 38.326 43.9716 38.1834H43.9558Z" fill="#35BBE3"/>
<path d="M43.9558 43.6821C40.3773 42.6362 35.7064 41.9547 30.0537 41.7329C29.642 41.7012 29.2461 42.0657 29.2461 42.4777C29.2145 42.9214 29.5628 43.2859 30.0062 43.3176C35.5163 43.5236 40.0765 44.1734 43.5283 45.2035C43.6074 45.2352 43.6708 45.2352 43.7658 45.2352C44.0983 45.2352 44.415 45.0292 44.51 44.6805C44.6367 44.2685 44.3991 43.8248 43.9716 43.698L43.9558 43.6821Z" fill="#35BBE3"/>
<path d="M43.9558 49.1656C40.3773 48.1197 35.7064 47.4382 30.0537 47.2164C29.642 47.1847 29.2461 47.5333 29.2461 47.9612C29.2145 48.4049 29.5628 48.7694 30.0062 48.7694C35.5163 49.0071 40.0765 49.6569 43.5283 50.687C43.6074 50.7187 43.6708 50.7187 43.7658 50.7187C44.0983 50.7187 44.415 50.4809 44.51 50.164C44.6367 49.752 44.3991 49.3082 43.9716 49.1814L43.9558 49.1656Z" fill="#35BBE3"/>
<path d="M70.6523 19.6417C68.6573 19.6417 66.8522 19.7209 65.158 19.7843V18.6592C65.158 16.0919 63.0837 14 60.5028 14H35.3111C32.746 14 30.656 16.0919 30.656 18.6592V19.7843C28.9776 19.7209 27.1725 19.6417 25.1774 19.6417C24.7341 19.6417 24.3857 20.022 24.3857 20.4341V53.5712C24.3857 54.0149 24.7341 54.3636 25.1774 54.3636C27.1567 54.3636 28.9776 54.4111 30.656 54.5062V61.1463C30.656 63.7136 32.746 65.7738 35.3111 65.7738H60.5028C63.0679 65.7738 65.158 63.6977 65.158 61.1463V54.5062C66.8364 54.4111 68.6414 54.3636 70.6523 54.3636C71.0798 54.3636 71.4282 54.0149 71.4282 53.5712V20.4341C71.4282 20.022 71.0798 19.6417 70.6523 19.6417ZM32.2394 18.6592C32.2394 16.9635 33.6327 15.5689 35.327 15.5689H60.5187C62.2287 15.5689 63.6063 16.9635 63.6063 18.6592V19.8636C53.4726 20.5133 49.2608 22.5101 47.9307 23.3342C46.5848 22.526 42.373 20.5133 32.2552 19.8636V18.6592H32.2394ZM25.9691 21.2265C40.6788 21.3215 45.9515 23.9681 47.1232 24.6971V56.0592C44.7798 54.8865 38.8737 52.8739 25.9691 52.7947V21.2265ZM60.5028 64.2049H35.3111C33.6169 64.2049 32.2235 62.8261 32.2235 61.1304V58.9435H40.7263C41.4863 58.9435 42.1989 59.2446 42.5947 59.7517C43.5289 60.9244 45.5081 61.6376 47.8991 61.6376C50.29 61.6376 52.2692 60.9244 53.2034 59.7517C53.5992 59.2446 54.2959 58.9435 55.0718 58.9435H63.5904V61.1304C63.5904 62.8261 62.2129 64.2049 60.5028 64.2049ZM63.5904 57.3746H55.0718C53.8051 57.3746 52.6809 57.8817 51.9842 58.7692C51.3667 59.5615 49.7674 60.0528 47.9149 60.0528C46.0623 60.0528 44.4631 59.5615 43.8456 58.7692C43.1489 57.8817 42.0247 57.3746 40.758 57.3746H32.2552V54.5537C44.0673 55.3461 47.3765 57.9768 47.4082 57.9926C47.4557 58.056 47.519 58.0877 47.5982 58.1036C47.6932 58.1511 47.804 58.1987 47.9149 58.1987C47.9307 58.1987 47.9465 58.167 47.9782 58.167C48.0574 58.167 48.1366 58.1353 48.2157 58.1194H48.2316C48.2316 58.1194 48.3107 58.0719 48.3266 58.0402C48.3582 58.0243 48.4057 57.9926 48.4374 57.9926C48.4691 57.9451 51.7783 55.3144 63.5904 54.522V57.3429V57.3746ZM69.8606 52.7947C56.956 52.8581 51.0342 54.8865 48.7066 56.0592V24.6971C49.8941 23.9839 55.1668 21.3215 69.8606 21.2265V52.8105V52.7947Z" fill="#35BBE3"/>
<path d="M52.0959 28.754C52.0959 28.754 52.2384 28.7223 52.3176 28.7064C55.7694 27.6763 60.3295 27.0583 65.8397 26.8206C66.2672 26.7889 66.5997 26.4244 66.5839 26.0124C66.568 25.5686 66.2039 25.22 65.7764 25.2675C60.1237 25.5052 55.4527 26.155 51.8584 27.2168C51.4467 27.3277 51.2092 27.7714 51.3359 28.1993C51.4467 28.5321 51.7476 28.754 52.0959 28.754Z" fill="#35BBE3"/>
<path d="M52.0946 45.2193C52.0946 45.2193 52.2371 45.2193 52.3163 45.1876C55.7681 44.1575 60.3283 43.5077 65.8384 43.3017C66.2501 43.27 66.5826 42.9372 66.5826 42.5094V31.527C66.5826 31.321 66.5035 31.115 66.3451 30.9724C66.1868 30.8298 65.9809 30.7347 65.7593 30.7664C60.1066 31.0041 55.4356 31.6538 51.8413 32.6998C51.5088 32.8107 51.2871 33.1118 51.2871 33.4604V44.4269C51.2871 44.6805 51.3979 44.9182 51.6038 45.0766C51.7463 45.1717 51.9046 45.2193 52.0788 45.2193H52.0946ZM52.8705 34.0468C56.0689 33.1593 60.1541 32.6047 65.0309 32.3511V41.7645C60.2174 42.0181 56.1481 42.5727 52.8705 43.4127V34.0468Z" fill="#35BBE3"/>
<path d="M65.7764 47.2162C60.1237 47.4539 55.4527 48.1195 51.8584 49.1654C51.4467 49.2763 51.2092 49.7201 51.3359 50.148C51.4467 50.4808 51.7476 50.7026 52.0959 50.7026C52.1751 50.7026 52.2384 50.7026 52.3176 50.6709C55.7694 49.6408 60.3295 48.9911 65.8397 48.7534C66.2672 48.7534 66.5997 48.3889 66.5839 47.9452C66.568 47.5331 66.2039 47.1528 65.7764 47.2003V47.2162Z" fill="#35BBE3"/>
<path d="M58.9475 34.3481C60.7526 34.3481 62.2251 35.822 62.2251 37.6286C62.2251 39.4352 60.7526 40.909 58.9475 40.909C57.1425 40.909 55.6699 39.4352 55.6699 37.6286C55.6699 35.822 57.1425 34.3481 58.9475 34.3481Z" fill="#35BBE3"/>
<path d="M58.9486 40.9566C60.8025 40.9566 62.3053 39.4525 62.3053 37.597C62.3053 35.7415 60.8025 34.2373 58.9486 34.2373C57.0947 34.2373 55.5918 35.7415 55.5918 37.597C55.5918 39.4525 57.0947 40.9566 58.9486 40.9566Z" fill="#FFD701"/>
<path d="M58.2197 39.3879V35.9331L60.6898 37.5971L58.2197 39.3879Z" fill="#B1E6F2"/>
<path d="M58.0288 39.7363C58.0288 39.7363 58.0921 39.7522 58.1396 39.7522C58.1871 39.7522 58.2346 39.7522 58.2821 39.7046L60.8314 37.8188C60.8314 37.8188 60.9264 37.7078 60.9264 37.6286C60.9264 37.5494 60.8947 37.486 60.8314 37.4384L58.2821 35.5526C58.2821 35.5526 58.1238 35.4892 58.0446 35.5367C57.9654 35.5684 57.918 35.6477 57.918 35.7427V39.5303C57.918 39.6095 57.9654 39.7046 58.0446 39.7363H58.0288ZM58.3613 36.2023L60.2772 37.6286L58.3613 39.0549V36.2023Z" fill="#35BBE3"/>
</svg>
