<svg width="69" height="69" viewBox="0 0 69 69" fill="none" xmlns="http://www.w3.org/2000/svg">
<path fill-rule="evenodd" clip-rule="evenodd" d="M46.703 20.1846C42.7297 20.1846 39.5262 23.4347 39.5262 27.4669C39.5262 31.4991 42.7545 34.7493 46.703 34.7493C50.6514 34.7493 53.8797 31.4991 53.8797 27.4669C53.8797 23.4347 50.6514 20.1846 46.703 20.1846Z" fill="#5EDEFC"/>
<path fill-rule="evenodd" clip-rule="evenodd" d="M12.7068 40.9317L17.2264 38.3413C17.2264 38.3413 22.1682 36.704 22.789 36.5574C23.4098 36.4107 29.7422 35.7998 30.363 35.7998C30.9838 35.7998 36.1987 36.5574 37.2417 37.095C38.2847 37.6326 41.6868 39.6854 42.4566 40.3696C43.2265 41.0538 43.9963 42.4223 43.9963 43.7175C43.9963 45.0127 43.2265 47.0654 42.6056 47.5542C41.9848 48.0429 41.1405 49.0693 38.3592 49.1915C35.5779 49.3137 32.7221 49.1915 30.2388 49.4603C27.7556 49.7291 20.7278 49.7291 19.4613 49.8757C18.1949 50.0224 12.7316 47.7008 12.7316 47.7008L12.235 44.2796L12.7316 40.9317H12.7068Z" fill="#D7F9FF"/>
<path fill-rule="evenodd" clip-rule="evenodd" d="M27.83 13C22.3667 13 17.9216 17.4965 17.9216 23.0193C17.9216 28.5422 22.3419 33.0387 27.83 33.0387C33.3181 33.0387 37.7383 28.5422 37.7383 23.0193C37.7383 17.4965 33.3181 13 27.83 13ZM21.8949 23.0193C21.8949 19.6958 24.552 17.0077 27.83 17.0077C31.1079 17.0077 33.765 19.6958 33.765 23.0193C33.765 26.3428 31.1079 29.0309 27.83 29.0309C24.552 29.0309 21.8949 26.3428 21.8949 23.0193Z" fill="#35BBE3"/>
<path d="M43.7976 39.0014C41.5378 36.9975 36.6457 33.9673 27.83 33.9673C19.0143 33.9673 14.1222 36.9731 11.8624 39.0014C10.4718 40.2477 10.0248 41.9827 10.0248 43.4734C10.0248 47.6278 13.3524 51.0001 17.4498 51.0001H38.2102C42.3076 51.0001 45.6352 47.6278 45.6352 43.4734C45.6352 41.9827 45.1882 40.2233 43.7976 39.0014ZM38.2102 46.9924H17.4498C15.5377 46.9924 13.9732 45.4284 13.9732 43.4734C13.9732 42.7159 14.1967 42.2516 14.4699 42.0072C15.7612 40.8586 18.7908 38.8303 24.3286 38.195L28.1032 42.5937L31.8033 38.2438C37.0182 38.9525 39.9236 40.8831 41.1901 42.0072C41.4633 42.2516 41.6868 42.7159 41.6868 43.4734C41.6868 45.4284 40.1223 46.9924 38.2102 46.9924Z" fill="#35BBE3"/>
<path d="M58.3 39.0254C56.661 37.5592 53.1099 35.3843 46.703 35.3843C44.7164 35.3843 43.0278 35.6042 41.5626 35.9463C42.8788 36.7039 43.9217 37.4615 44.6419 38.0724C46.107 39.3676 46.9017 41.2737 46.9017 43.4486C46.9017 45.0126 46.4547 46.4544 45.7345 47.7252H54.2522C57.2322 47.7252 59.641 45.2814 59.641 42.2512C59.641 41.1759 59.3181 39.9052 58.3 39.001V39.0254Z" fill="#5EDEFC"/>
<circle cx="34.5" cy="34.5" r="34" stroke="#35BBE3" stroke-dasharray="10 18 30 6"/>
</svg>
