<svg width="90" height="88" viewBox="0 0 90 88" fill="none" xmlns="http://www.w3.org/2000/svg">
<path d="M83.3506 9.88023H77.9404V1.94132C77.9404 1.94132 72.5733 1.14312 72.2931 1.20783C72.0345 1.27255 57.7869 3.42987 57.7869 3.42987L48.7556 6.4501L44.0135 9.27618L29.572 3.0847L10.9057 1.20783L10.6902 9.88023H5.45237C2.93049 9.88023 0.882812 11.9297 0.882812 14.4537V62.1735C0.882812 64.6975 2.93049 66.747 5.45237 66.747H83.3506C85.8725 66.747 87.9202 64.6975 87.9202 62.1735V14.4753C87.9202 11.9512 85.8725 9.9018 83.3506 9.9018V9.88023Z" fill="#D7F9FF"/>
<path d="M55.3734 75.5491H33.668V85.8826H55.3734V75.5491Z" fill="#35BBE3"/>
<path d="M1.78906 66.7688H87.2315V70.1558C87.2315 72.8308 85.076 74.9882 82.4032 74.9882H6.57418C3.92297 74.9882 1.78906 72.8308 1.78906 70.1989V66.7688Z" fill="#FFD701"/>
<path d="M82.4463 8.0252H79.7304V1.31596C79.7304 0.604048 79.1269 0 78.394 0C56.2144 0 47.3554 5.30699 44.5964 7.55059C41.8374 5.30699 32.9785 0 10.7988 0C10.066 0 9.46246 0.604048 9.46246 1.31596V8.0252H6.76814C3.03919 8.0252 0 11.067 0 14.8207V69.7027C0 73.478 3.01764 76.4983 6.76814 76.4983H32.4396V85.0412H23.1927C22.4599 85.0412 21.8563 85.6453 21.8563 86.4003C21.8563 87.1123 22.4599 87.7163 23.1927 87.7163H66.0001C66.733 87.7163 67.3365 87.1123 67.3365 86.4003C67.3365 85.6453 66.733 85.0412 66.0001 85.0412H56.7748V76.4983H82.4463C86.1752 76.4983 89.2144 73.478 89.2144 69.7027V14.8207C89.2144 11.0886 86.1968 8.0252 82.4463 8.0252ZM82.4463 10.765C84.6664 10.765 86.4985 12.5771 86.4985 14.8207V65.647H48.7996C52.8949 63.4034 61.6245 60.2969 78.4155 60.2969C79.1484 60.2969 79.752 59.6928 79.752 58.9378V10.765H82.4678H82.4463ZM44.5964 16.9565C55.0288 16.9565 63.5214 25.4347 63.5214 35.8761C63.5214 46.3175 55.0288 54.8173 44.5964 54.8173C34.164 54.8173 25.6715 46.2959 25.6715 35.8761C25.6715 25.4563 34.164 16.9565 44.5964 16.9565ZM77.0361 2.69664V57.5787C58.6069 57.7728 49.7264 61.6775 45.9543 64.1584V57.4061C57.2489 56.7157 66.2157 47.3314 66.2157 35.8545C66.2157 24.3776 57.2489 15.0149 45.9543 14.303V9.96678C47.5063 8.56453 55.0935 2.93394 77.0361 2.69664ZM12.1568 2.69664C34.0993 2.93394 41.7297 8.60767 43.2385 9.96678V14.303C31.9439 15.0149 22.9772 24.3776 22.9772 35.8545C22.9772 47.3314 31.9439 56.7373 43.2385 57.4061V64.1584C39.4665 61.6775 30.6075 57.7728 12.1568 57.5787V2.67507V2.69664ZM2.69432 14.8207C2.69432 12.5771 4.52646 10.765 6.76814 10.765H9.46246V58.9593C9.46246 59.7144 10.066 60.3184 10.7988 60.3184C27.5898 60.3184 36.3195 63.4034 40.4149 65.6686H2.71587V14.8207H2.69432ZM54.0589 85.0412H35.134V76.4983H54.0589V85.0412ZM86.4985 69.7027C86.4985 71.9464 84.6664 73.8016 82.4463 73.8016H6.76814C4.52646 73.8016 2.69432 71.9464 2.69432 69.7027V68.3436H86.4985V69.7027Z" fill="#35BBE3"/>
<path d="M44.5962 55.0976C55.2862 55.0976 63.9522 46.4242 63.9522 35.725C63.9522 25.0257 55.2862 16.3523 44.5962 16.3523C33.9062 16.3523 25.2402 25.0257 25.2402 35.725C25.2402 46.4242 33.9062 55.0976 44.5962 55.0976Z" fill="#FFD701"/>
<path d="M40.3926 45.9939V26.1035L54.5755 35.7251L40.3926 45.9939Z" fill="#B1E6F2"/>
<path d="M39.2504 48.0217C39.4229 48.108 39.66 48.1511 39.854 48.1511C40.1342 48.1511 40.4359 48.0648 40.6515 47.8707L55.3517 36.9547C55.7181 36.7174 55.9121 36.3075 55.9121 35.876C55.9121 35.4445 55.7181 35.0347 55.3517 34.7974L40.6515 23.8814C40.2419 23.5578 39.7031 23.5146 39.2504 23.7519C38.7978 23.9461 38.5176 24.4423 38.5176 24.96V46.8567C38.5176 47.3313 38.7978 47.8275 39.2504 48.0648V48.0217ZM41.1903 27.6135L52.2909 35.8544L41.1903 44.1169V27.6135Z" fill="#35BBE3"/>
</svg>
