<svg width="72" height="99" viewBox="0 0 72 99" fill="none" xmlns="http://www.w3.org/2000/svg">
<path d="M63.7362 8.08997H12.0698V7.03289C12.0698 4.24996 9.82815 2.00635 7.04761 2.00635C4.26707 2.00635 2.02539 4.24996 2.02539 7.03289V91.1465C2.02539 93.9294 4.26707 96.173 7.04761 96.173H57.3129C58.3906 96.173 59.2743 95.2885 59.2743 94.2099V89.097H63.7362C66.6676 89.097 69.0602 86.724 69.0602 83.7684V13.4185C69.0602 10.4846 66.6676 8.08997 63.7362 8.08997Z" fill="#35BBE3"/>
<path d="M7.02678 2.0063C9.80732 2.0063 12.049 4.24991 12.049 7.03284V8.08992H63.7153C66.6468 8.08992 69.0393 10.463 69.0393 13.4185V83.7684C69.0393 86.7024 66.6683 89.097 63.7153 89.097H59.2536V94.2098C59.2536 95.2885 58.3698 96.173 57.2921 96.173H7.02678C4.24624 96.173 2.00458 93.9294 2.00458 91.1464V7.03284C2.00458 4.24991 4.24624 2.0063 7.02678 2.0063ZM7.02678 0C3.14696 0 0 3.14968 0 7.03284V91.1464C0 95.0296 3.14696 98.1793 7.02678 98.1793H57.2921C59.4907 98.1793 61.2581 96.3887 61.2581 94.2098V91.1033H63.7153C67.746 91.1033 71.0439 87.8242 71.0439 83.7684V13.4185C71.0439 9.38431 67.7676 6.08362 63.7153 6.08362H13.9889C13.5147 2.65349 10.5833 0 7.02678 0Z" fill="#35BBE3"/>
<path d="M14.291 8.08984H62.3793C66.0436 8.08984 69.0396 11.0669 69.0396 14.7559V82.4308C69.0396 86.0982 66.0651 89.0969 62.3793 89.0969H14.291V8.08984Z" fill="#D7F9FF"/>
<path d="M5.25865 82.9486C5.81907 82.7329 6.40103 82.625 7.02611 82.625C7.65119 82.625 8.25474 82.7329 8.7936 82.9486C10.13 83.1643 11.2939 83.9194 12.0483 84.9765V7.05437C12.0483 4.27144 9.80665 2.02783 7.02611 2.02783C4.24557 2.02783 2.00391 4.27144 2.00391 7.05437V84.9765C2.75832 83.9194 3.92227 83.1643 5.25865 82.9486Z" fill="#D7F9FF"/>
<path d="M13.8805 90.8877C12.5441 90.8877 12.0483 89.6364 12.0483 89.6364C11.9621 86.9614 9.74199 84.7825 7.02611 84.7825C4.31023 84.7825 2.00391 87.0261 2.00391 89.809V91.1466C2.00391 93.9295 4.24557 96.1731 7.02611 96.1731H57.2914C58.3691 96.1731 59.2529 95.2886 59.2529 94.2099V90.8877H13.8589H13.8805Z" fill="#35BBE3"/>
<path d="M57.9811 12.9438H24.8302C21.497 12.9438 18.7949 15.6483 18.7949 18.9843V69.9616C18.7949 73.2977 21.497 76.0021 24.8302 76.0021H57.9811C61.3143 76.0021 64.0164 73.2977 64.0164 69.9616V18.9843C64.0164 15.6483 61.3143 12.9438 57.9811 12.9438Z" fill="#35BBE3"/>
<path d="M41.6856 86.9611C44.0069 86.9611 45.8887 85.0777 45.8887 82.7544C45.8887 80.4311 44.0069 78.5476 41.6856 78.5476C39.3642 78.5476 37.4824 80.4311 37.4824 82.7544C37.4824 85.0777 39.3642 86.9611 41.6856 86.9611Z" fill="#2FA5DE"/>
<path d="M41.687 84.998C42.925 84.998 43.9287 83.9935 43.9287 82.7544C43.9287 81.5153 42.925 80.5107 41.687 80.5107C40.4489 80.5107 39.4453 81.5153 39.4453 82.7544C39.4453 83.9935 40.4489 84.998 41.687 84.998Z" fill="#FFD701"/>
<path d="M50.0282 17.4312H33.194C31.4203 17.4312 29.9824 18.8703 29.9824 20.6455V33.2443C29.9824 35.0195 31.4203 36.4586 33.194 36.4586H50.0282C51.8019 36.4586 53.2398 35.0195 53.2398 33.2443V20.6455C53.2398 18.8703 51.8019 17.4312 50.0282 17.4312Z" fill="#35BBE3"/>
<g filter="url(#filter0_d_4755_6052)">
<path d="M58.2448 42.0307L24.8569 42.1241C24.2855 42.1257 23.8236 42.5906 23.8252 43.1624L23.8254 43.2487C23.827 43.8206 24.2915 44.283 24.8629 44.2814L58.2508 44.188C58.8222 44.1865 59.2841 43.7215 59.2825 43.1496L59.2823 43.0633C59.2807 42.4915 58.8162 42.0291 58.2448 42.0307Z" fill="#FFD701"/>
</g>
<g filter="url(#filter1_d_4755_6052)">
<path d="M58.2409 48.0278L24.853 48.1211C24.2816 48.1227 23.8197 48.5876 23.8212 49.1595L23.8215 49.2458C23.8231 49.8177 24.2876 50.28 24.859 50.2784L58.2469 50.1851C58.8183 50.1835 59.2802 49.7186 59.2786 49.1467L59.2784 49.0604C59.2768 48.4885 58.8123 48.0262 58.2409 48.0278Z" fill="#D7F9FF"/>
</g>
<g filter="url(#filter2_d_4755_6052)">
<path d="M58.235 54.0036L24.8471 54.097C24.2757 54.0986 23.8138 54.5635 23.8154 55.1353L23.8156 55.2216C23.8172 55.7935 24.2817 56.2559 24.8531 56.2543L58.2411 56.1609C58.8125 56.1594 59.2744 55.6944 59.2728 55.1225L59.2725 55.0362C59.2709 54.4644 58.8064 54.002 58.235 54.0036Z" fill="#D7F9FF"/>
</g>
<g filter="url(#filter3_d_4755_6052)">
<path d="M58.2526 59.9792L24.8647 60.0725C24.2933 60.0741 23.8314 60.5391 23.833 61.111L23.8332 61.1972C23.8348 61.7691 24.2993 62.2314 24.8707 62.2299L58.2586 62.1365C58.83 62.1349 59.2919 61.67 59.2903 61.0981L59.2901 61.0119C59.2885 60.44 58.824 59.9776 58.2526 59.9792Z" fill="#D7F9FF"/>
</g>
<g filter="url(#filter4_d_4755_6052)">
<path d="M58.2468 65.9768L24.8588 66.0701C24.2874 66.0717 23.8255 66.5366 23.8271 67.1085L23.8273 67.1948C23.8289 67.7667 24.2934 68.229 24.8648 68.2274L58.2528 68.1341C58.8242 68.1325 59.2861 67.6676 59.2845 67.0957L59.2842 67.0094C59.2827 66.4375 58.8182 65.9752 58.2468 65.9768Z" fill="#D7F9FF"/>
</g>
<path d="M53.2398 33.9777V28.1098L50.0928 25.0896L42.6565 30.7417L35.3926 23.7305L29.9824 27.8294V33.9777C29.9824 35.3368 31.1032 36.4586 32.4612 36.4586H50.7826C52.1405 36.4586 53.2614 35.3368 53.2614 33.9777H53.2398Z" fill="#FFD701"/>
<path d="M50.6975 36.782H32.5054C30.932 36.782 29.6387 35.4876 29.6387 33.9127V19.9549C29.6387 18.3801 30.932 17.0857 32.5054 17.0857H50.6975C52.271 17.0857 53.5643 18.3801 53.5643 19.9549V33.9127C53.5643 35.4876 52.271 36.782 50.6975 36.782ZM32.5054 17.7545C31.2768 17.7545 30.2853 18.7468 30.2853 19.9765V33.9343C30.2853 35.164 31.2768 36.1563 32.5054 36.1563H50.6975C51.9261 36.1563 52.9176 35.164 52.9176 33.9343V19.9765C52.9176 18.7468 51.9261 17.7545 50.6975 17.7545H32.5054Z" fill="#D7F9FF"/>
<path d="M11.1434 89.895C11.1434 87.667 9.33884 85.8608 7.11274 85.8608C4.88665 85.8608 3.08203 87.667 3.08203 89.895V91.2973C3.08203 93.5253 4.88665 95.3314 7.11274 95.3314C9.33884 95.3314 11.1434 93.5253 11.1434 91.2973V89.895Z" fill="#35BBE3"/>
<defs>
<filter id="filter0_d_4755_6052" x="21.4242" y="40.8308" width="40.259" height="7.05049" filterUnits="userSpaceOnUse" color-interpolation-filters="sRGB">
<feFlood flood-opacity="0" result="BackgroundImageFix"/>
<feColorMatrix in="SourceAlpha" type="matrix" values="0 0 0 0 0 0 0 0 0 0 0 0 0 0 0 0 0 0 127 0" result="hardAlpha"/>
<feOffset dy="1.2"/>
<feGaussianBlur stdDeviation="1.2"/>
<feColorMatrix type="matrix" values="0 0 0 0 0.333333 0 0 0 0 0.745098 0 0 0 0 0.803922 0 0 0 0.34 0"/>
<feBlend mode="normal" in2="BackgroundImageFix" result="effect1_dropShadow_4755_6052"/>
<feBlend mode="normal" in="SourceGraphic" in2="effect1_dropShadow_4755_6052" result="shape"/>
</filter>
<filter id="filter1_d_4755_6052" x="21.4203" y="46.8278" width="40.259" height="7.05049" filterUnits="userSpaceOnUse" color-interpolation-filters="sRGB">
<feFlood flood-opacity="0" result="BackgroundImageFix"/>
<feColorMatrix in="SourceAlpha" type="matrix" values="0 0 0 0 0 0 0 0 0 0 0 0 0 0 0 0 0 0 127 0" result="hardAlpha"/>
<feOffset dy="1.2"/>
<feGaussianBlur stdDeviation="1.2"/>
<feColorMatrix type="matrix" values="0 0 0 0 0.333333 0 0 0 0 0.745098 0 0 0 0 0.803922 0 0 0 0.34 0"/>
<feBlend mode="normal" in2="BackgroundImageFix" result="effect1_dropShadow_4755_6052"/>
<feBlend mode="normal" in="SourceGraphic" in2="effect1_dropShadow_4755_6052" result="shape"/>
</filter>
<filter id="filter2_d_4755_6052" x="21.4145" y="52.8037" width="40.259" height="7.05049" filterUnits="userSpaceOnUse" color-interpolation-filters="sRGB">
<feFlood flood-opacity="0" result="BackgroundImageFix"/>
<feColorMatrix in="SourceAlpha" type="matrix" values="0 0 0 0 0 0 0 0 0 0 0 0 0 0 0 0 0 0 127 0" result="hardAlpha"/>
<feOffset dy="1.2"/>
<feGaussianBlur stdDeviation="1.2"/>
<feColorMatrix type="matrix" values="0 0 0 0 0.333333 0 0 0 0 0.745098 0 0 0 0 0.803922 0 0 0 0.34 0"/>
<feBlend mode="normal" in2="BackgroundImageFix" result="effect1_dropShadow_4755_6052"/>
<feBlend mode="normal" in="SourceGraphic" in2="effect1_dropShadow_4755_6052" result="shape"/>
</filter>
<filter id="filter3_d_4755_6052" x="21.432" y="58.7792" width="40.259" height="7.05049" filterUnits="userSpaceOnUse" color-interpolation-filters="sRGB">
<feFlood flood-opacity="0" result="BackgroundImageFix"/>
<feColorMatrix in="SourceAlpha" type="matrix" values="0 0 0 0 0 0 0 0 0 0 0 0 0 0 0 0 0 0 127 0" result="hardAlpha"/>
<feOffset dy="1.2"/>
<feGaussianBlur stdDeviation="1.2"/>
<feColorMatrix type="matrix" values="0 0 0 0 0.333333 0 0 0 0 0.745098 0 0 0 0 0.803922 0 0 0 0.34 0"/>
<feBlend mode="normal" in2="BackgroundImageFix" result="effect1_dropShadow_4755_6052"/>
<feBlend mode="normal" in="SourceGraphic" in2="effect1_dropShadow_4755_6052" result="shape"/>
</filter>
<filter id="filter4_d_4755_6052" x="21.4262" y="64.7768" width="40.259" height="7.05049" filterUnits="userSpaceOnUse" color-interpolation-filters="sRGB">
<feFlood flood-opacity="0" result="BackgroundImageFix"/>
<feColorMatrix in="SourceAlpha" type="matrix" values="0 0 0 0 0 0 0 0 0 0 0 0 0 0 0 0 0 0 127 0" result="hardAlpha"/>
<feOffset dy="1.2"/>
<feGaussianBlur stdDeviation="1.2"/>
<feColorMatrix type="matrix" values="0 0 0 0 0.333333 0 0 0 0 0.745098 0 0 0 0 0.803922 0 0 0 0.34 0"/>
<feBlend mode="normal" in2="BackgroundImageFix" result="effect1_dropShadow_4755_6052"/>
<feBlend mode="normal" in="SourceGraphic" in2="effect1_dropShadow_4755_6052" result="shape"/>
</filter>
</defs>
</svg>
