<svg width="80" height="91" viewBox="0 0 80 91" fill="none" xmlns="http://www.w3.org/2000/svg">
<path d="M78.1884 39.5652H77.7357C77.1762 39.5652 76.7227 40.0191 76.7227 40.5791V54.5153C76.7227 55.0753 77.1762 55.5293 77.7357 55.5293H78.1884C78.7479 55.5293 79.2014 55.0753 79.2014 54.5153V40.5791C79.2014 40.0191 78.7479 39.5652 78.1884 39.5652Z" fill="#35BBE3"/>
<path d="M2.05751 13.5913H1.60486C1.04536 13.5913 0.591797 14.0453 0.591797 14.6052V28.5199C0.591797 29.0799 1.04536 29.5338 1.60486 29.5338H2.05751C2.61701 29.5338 3.07057 29.0799 3.07057 28.5199V14.6052C3.07057 14.0453 2.61701 13.5913 2.05751 13.5913Z" fill="#35BBE3"/>
<path d="M2.05751 63.0366H1.60486C1.04536 63.0366 0.591797 63.4905 0.591797 64.0505V77.9652C0.591797 78.5252 1.04536 78.9792 1.60486 78.9792H2.05751C2.61701 78.9792 3.07057 78.5252 3.07057 77.9652V64.0505C3.07057 63.4905 2.61701 63.0366 2.05751 63.0366Z" fill="#35BBE3"/>
<path d="M66.3776 0H12.3834C8.31213 0 5.01172 3.30326 5.01172 7.37802V82.9271C5.01172 87.0018 8.31213 90.3051 12.3834 90.3051H66.3776C70.4489 90.3051 73.7493 87.0018 73.7493 82.9271V7.37802C73.7493 3.30326 70.4489 0 66.3776 0Z" fill="#D7F9FF"/>
<path d="M13.3087 0.625732H65.4708C69.4584 0.625732 72.7132 3.88327 72.7132 7.8743V15.6622H6.06641V7.8743C6.06641 3.88327 9.32115 0.625732 13.3087 0.625732Z" fill="#35BBE3"/>
<path d="M66.3776 2.04936C69.3306 2.04936 71.7231 4.44397 71.7231 7.39949V82.9485C71.7231 85.9041 69.3306 88.2987 66.3776 88.2987H12.3834C9.43041 88.2987 7.03785 85.9041 7.03785 82.9485V7.39949C7.03785 4.44397 9.43041 2.04936 12.3834 2.04936H66.3776ZM66.3776 0.0214844H12.3834C8.30957 0.0214844 5.01172 3.32217 5.01172 7.39949V82.9485C5.01172 87.0259 8.30957 90.3266 12.3834 90.3266H66.3776C70.4514 90.3266 73.7493 87.0259 73.7493 82.9485V7.39949C73.7493 3.32217 70.4514 0.0214844 66.3776 0.0214844Z" fill="#35BBE3"/>
<path d="M16.3704 8.15461H15.6159C15.1849 8.15461 14.9693 7.76631 14.9693 6.98968C14.9693 6.21305 15.1849 5.82472 15.6159 5.80315H15.6806C15.9393 5.80315 16.1117 5.82473 16.1979 5.88945C16.3704 5.99731 16.4566 6.19146 16.4566 6.47191C16.8661 6.42877 17.0601 6.21305 17.0601 5.82473C17.0601 5.609 16.9308 5.41484 16.6721 5.26382C16.435 5.11281 16.0901 5.0481 15.6591 5.0481H15.6159C15.034 5.0481 14.5813 5.24224 14.2364 5.60898C13.9131 5.97573 13.7407 6.42878 13.7407 6.98968C13.7407 7.55058 13.9131 8.00361 14.2364 8.37036C14.5813 8.75867 15.0555 8.93125 15.6375 8.93125H16.0686C15.853 9.70788 15.3788 10.0962 14.6029 10.0962C14.0856 10.0962 13.6976 9.92362 13.4174 9.53531C13.1587 9.21171 13.0294 8.75867 13.0294 8.21935C13.0294 7.72316 13.0725 7.31327 13.1803 6.9681C12.9216 6.90338 12.6845 6.86023 12.4259 6.86023C11.9948 6.86023 11.8008 7.07596 11.8008 7.48585V8.24091C11.8008 8.97439 12.081 9.60002 12.6199 10.0962C13.1587 10.614 13.8269 10.8728 14.6029 10.8728C15.3357 10.8728 15.9608 10.6355 16.4997 10.1609C17.017 9.70788 17.3188 9.12542 17.3619 8.45665V8.4135C17.3619 8.26248 17.2541 8.06833 17.0601 7.87417C16.8877 8.04675 16.6506 8.13305 16.3488 8.13305L16.3704 8.15461Z" fill="#D7F9FF"/>
<path d="M24.797 4.55188C24.9695 4.55188 25.1203 4.48717 25.2497 4.35773C25.379 4.22829 25.4437 4.07727 25.4437 3.88312C25.4437 3.71053 25.379 3.53794 25.2497 3.40851C25.1203 3.27907 24.9695 3.21436 24.797 3.21436C24.6246 3.21436 24.4737 3.27907 24.3444 3.40851C24.2151 3.53794 24.1504 3.68896 24.1504 3.88312C24.1504 4.07727 24.2151 4.22829 24.3444 4.35773C24.4737 4.48717 24.6246 4.55188 24.797 4.55188Z" fill="#D7F9FF"/>
<path d="M23.2267 4.57362C23.3992 4.57362 23.55 4.5089 23.6794 4.37946C23.8087 4.25002 23.8734 4.09902 23.8734 3.90486C23.8734 3.73228 23.8087 3.55969 23.6794 3.43025C23.55 3.30081 23.3992 3.23608 23.2267 3.23608C23.0543 3.23608 22.9034 3.30081 22.7741 3.43025C22.6447 3.55969 22.5801 3.7107 22.5801 3.90486C22.5801 4.09902 22.6447 4.25002 22.7741 4.37946C22.9034 4.5089 23.0543 4.57362 23.2267 4.57362Z" fill="#D7F9FF"/>
<path d="M26.9767 4.55188C27.1492 4.55188 27.3 4.48717 27.4294 4.35773C27.5587 4.22829 27.6234 4.07727 27.6234 3.88312C27.6234 3.71053 27.5587 3.53794 27.4294 3.40851C27.3 3.27907 27.1492 3.21436 26.9767 3.21436C26.8043 3.21436 26.6534 3.27907 26.5241 3.40851C26.3947 3.53794 26.3301 3.68896 26.3301 3.88312C26.3301 4.07727 26.3947 4.22829 26.5241 4.35773C26.6534 4.48717 26.8043 4.55188 26.9767 4.55188Z" fill="#D7F9FF"/>
<path d="M32.3864 5.56603C32.0415 5.17772 31.5673 5.00513 30.9853 5.00513C30.4034 5.00513 29.9507 5.19929 29.6058 5.58761C29.2825 5.95435 29.1101 6.40739 29.1101 6.96829C29.1101 7.74492 28.8945 8.13323 28.4635 8.1548H28.3988H28.2048C27.7737 8.1548 27.5582 7.7665 27.5582 6.98987V6.40738C27.5582 5.9112 27.6013 5.50131 27.709 5.15614C27.4504 5.09142 27.2133 5.04828 26.9546 5.04828C26.5235 5.04828 26.3296 5.26402 26.3296 5.6739V7.01143C26.3296 7.78806 26.114 8.17638 25.6829 8.17638H25.6183H25.2949C24.8638 8.17638 24.6483 7.78806 24.6483 7.01143V6.42896C24.6483 5.93278 24.6914 5.52289 24.7992 5.17772C24.5405 5.113 24.3034 5.06984 24.0448 5.06984C23.6137 5.06984 23.4197 5.28558 23.4197 5.69547V7.03301C23.4197 7.80964 23.2041 8.19796 22.773 8.19796H22.5575H22.3635C21.9324 8.19796 21.7169 7.80964 21.7169 7.03301C21.7169 6.4721 21.5444 5.9975 21.2211 5.65233C20.8762 5.26401 20.402 5.09142 19.8201 5.09142H19.7985C19.3674 5.09142 19.0226 5.17771 18.7855 5.30715C18.5268 5.47973 18.3975 5.65233 18.3975 5.88963C18.3975 6.27795 18.5915 6.49367 19.001 6.53682C19.001 6.25637 19.0872 6.06221 19.2597 5.95435C19.3459 5.88963 19.5183 5.86805 19.777 5.86805H19.8416C20.2727 5.86805 20.4883 6.25637 20.4883 7.03301C20.4883 7.80964 20.2727 8.19796 19.8416 8.19796H19.0872C18.7854 8.19796 18.5699 8.11166 18.3975 7.93907C18.2035 8.13323 18.0957 8.30582 18.0957 8.4784C18.0957 8.52155 18.0957 8.58627 18.1173 8.62941C18.225 8.86672 18.4837 8.99617 18.9148 8.99617H19.8416C20.3589 8.99617 20.7685 8.84514 21.1133 8.54312C21.4582 8.84514 21.8678 8.99617 22.3635 8.99617H22.5575H22.773C23.2688 8.99617 23.6999 8.84514 24.0232 8.54312C24.3681 8.84514 24.7776 8.99617 25.2734 8.99617H25.532H25.6829C26.1787 8.99617 26.6098 8.84514 26.9331 8.54312C27.278 8.84514 27.6875 8.99617 28.1832 8.99617H28.3772H28.4419C28.9377 8.99617 29.3688 8.84514 29.6921 8.54312C30.0369 8.84514 30.4465 8.99617 30.9638 8.99617C31.5458 8.99617 32.02 8.802 32.3648 8.41368C32.6882 8.04694 32.8606 7.59391 32.8606 7.03301C32.8606 6.4721 32.6882 6.01907 32.3648 5.65233L32.3864 5.56603ZM31.0069 8.11166C30.5758 8.11166 30.3603 7.72334 30.3603 6.94671C30.3603 6.60154 30.4034 6.3211 30.5111 6.12694C30.6189 5.88963 30.7914 5.78176 31.0069 5.78176C31.2224 5.78176 31.3949 5.88963 31.5027 6.12694C31.6104 6.34267 31.6535 6.60154 31.6751 6.94671C31.6751 7.72334 31.4595 8.11166 31.0285 8.11166H31.0069Z" fill="#D7F9FF"/>
<path d="M73.7285 32.0793L25.0152 32.0793C23.1615 32.0793 21.6742 30.5691 21.6742 28.7354V21.0122C21.6742 19.157 23.183 17.6684 25.0152 17.6684L73.7285 17.6684V32.1008V32.0793Z" fill="#FFD701"/>
<path d="M73.7285 78.1593H25.0152C23.1615 78.1593 21.6742 76.6492 21.6742 74.8155V67.0923C21.6742 65.237 23.183 63.7485 25.0152 63.7485L73.7285 63.7485V78.1809V78.1593Z" fill="#FFD701"/>
<path d="M58.7479 20.106H27.1058C26.7248 20.106 26.416 20.415 26.416 20.7963V20.8826C26.416 21.2639 26.7248 21.5729 27.1058 21.5729H58.7479C59.1288 21.5729 59.4376 21.2639 59.4376 20.8826V20.7963C59.4376 20.415 59.1288 20.106 58.7479 20.106Z" fill="#35BBE3"/>
<path d="M46.4833 23.9246H27.1058C26.7248 23.9246 26.416 24.2336 26.416 24.6149V24.7012C26.416 25.0825 26.7248 25.3915 27.1058 25.3915H46.4833C46.8643 25.3915 47.1731 25.0825 47.1731 24.7012V24.6149C47.1731 24.2336 46.8643 23.9246 46.4833 23.9246Z" fill="#35BBE3"/>
<path d="M57.9935 27.592H27.1058C26.7248 27.592 26.416 27.9011 26.416 28.2824V28.3687C26.416 28.7499 26.7248 29.059 27.1058 29.059H57.9935C58.3744 29.059 58.6832 28.7499 58.6832 28.3687V28.2824C58.6832 27.9011 58.3744 27.592 57.9935 27.592Z" fill="#35BBE3"/>
<path d="M59.4803 66.4668H27.8382C27.4572 66.4668 27.1484 66.7759 27.1484 67.1571V67.2434C27.1484 67.6247 27.4572 67.9338 27.8382 67.9338H59.4803C59.8612 67.9338 60.1701 67.6247 60.1701 67.2434V67.1571C60.1701 66.7759 59.8612 66.4668 59.4803 66.4668Z" fill="#35BBE3"/>
<path d="M47.2157 70.2854H27.8382C27.4572 70.2854 27.1484 70.5945 27.1484 70.9757V71.062C27.1484 71.4433 27.4572 71.7524 27.8382 71.7524H47.2157C47.5967 71.7524 47.9055 71.4433 47.9055 71.062V70.9757C47.9055 70.5945 47.5967 70.2854 47.2157 70.2854Z" fill="#35BBE3"/>
<path d="M58.7259 73.9529H27.8382C27.4572 73.9529 27.1484 74.2619 27.1484 74.6432V74.7295C27.1484 75.1108 27.4572 75.4198 27.8382 75.4198H58.7259C59.1068 75.4198 59.4156 75.1108 59.4156 74.7295V74.6432C59.4156 74.2619 59.1068 73.9529 58.7259 73.9529Z" fill="#35BBE3"/>
<path d="M5.52734 40.0829H54.2407C56.0944 40.0829 57.5817 41.593 57.5817 43.4267V51.1499C57.5817 53.0051 56.0728 54.4937 54.2407 54.4937H5.52734V40.0613V40.0829Z" fill="#FFD701"/>
<path d="M34.3481 44.8184L52.906 44.6628C53.2869 44.6596 53.5931 44.3479 53.5899 43.9667L53.5892 43.8804C53.586 43.4991 53.2746 43.1927 52.8937 43.1958L34.3359 43.3515C33.9549 43.3546 33.6487 43.6663 33.6519 44.0475L33.6526 44.1338C33.6558 44.5151 33.9672 44.8216 34.3481 44.8184Z" fill="#35BBE3"/>
<path d="M23.7554 48.7235L52.9177 48.4789C53.2986 48.4757 53.6048 48.1641 53.6016 47.7828L53.6009 47.6965C53.5977 47.3153 53.2863 47.0088 52.9054 47.012L23.7431 47.2565C23.3622 47.2597 23.056 47.5714 23.0592 47.9526L23.0599 48.0389C23.0631 48.4202 23.3745 48.7266 23.7554 48.7235Z" fill="#35BBE3"/>
<path d="M22.0838 52.4127L52.9704 52.1537C53.3514 52.1505 53.6576 51.8389 53.6544 51.4577L53.6537 51.3713C53.6505 50.9901 53.3391 50.6836 52.9582 50.6868L22.0715 50.9458C21.6906 50.949 21.3844 51.2606 21.3876 51.6419L21.3883 51.7282C21.3915 52.1095 21.7029 52.4159 22.0838 52.4127Z" fill="#35BBE3"/>
</svg>
