<svg width="84" height="109" viewBox="0 0 84 109" fill="none" xmlns="http://www.w3.org/2000/svg">
<path d="M83.8059 34.1882C83.8059 29.852 83.8059 25.5158 83.8059 21.1796C83.7843 19.8852 83.1808 18.6339 82.1893 17.771C81.1547 16.8434 79.7105 16.3688 78.331 16.5413C54.0821 19.9067 29.8332 23.2722 5.56275 26.6591C4.72213 26.7886 3.83839 26.8317 3.06242 27.1985C1.40272 27.9104 0.217218 29.5499 0.0878906 31.3189V67.0009V75.0261V92.9749C0.238773 94.938 1.70448 96.707 3.6444 97.2679C4.44192 97.5484 5.28254 97.4405 6.12317 97.4621C14.163 97.4621 22.2029 97.4621 30.2643 97.4621C31.9887 101.108 33.713 104.732 35.4158 108.378H35.6961C39.5543 104.732 43.4126 101.108 47.2709 97.4621C57.5308 97.4621 67.7908 97.4621 78.0508 97.4621C78.6974 97.4621 79.3441 97.5268 79.9692 97.3111C81.3055 96.9012 82.3402 95.8441 83.0084 94.6576C83.5041 93.7515 83.8059 92.7592 83.8274 91.7236C83.8274 77.7443 83.8274 63.7865 83.8274 49.8071V34.1882H83.8059Z" fill="#D7F9FF"/>
<path d="M78.8898 18.3965C79.6226 18.3965 80.377 18.6769 80.9375 19.1731C81.5194 19.6909 81.8858 20.4459 81.9074 21.1578C81.9074 24.3075 81.9074 27.4572 81.9074 30.6069V34.188V49.3108V49.8069V77.7441V91.6804C81.9074 92.3491 81.6919 93.0395 81.3254 93.7082C80.8297 94.5927 80.1399 95.2399 79.364 95.4557C79.2131 95.4988 78.9544 95.5204 78.7389 95.5204H78.4802H78.1785H78.0276H67.7676H57.5076H47.2476H46.4932L45.9328 96.0381L41.4063 100.31L36.0608 105.336L34.2718 101.539L31.9439 96.6206L31.4266 95.5204H30.2195H21.339H16.3384H11.3377H5.81974H5.4102H5.04377C4.72045 95.5204 4.41869 95.5204 4.18159 95.4341H4.13848L4.09537 95.4125C2.95298 95.0889 2.04768 94.0318 1.93991 92.8885V75.0259V67.0007V31.3835C2.04768 30.3264 2.75899 29.3556 3.81516 28.9026C4.18159 28.73 4.6989 28.6653 5.23776 28.6006C5.4102 28.579 5.60419 28.5574 5.75507 28.5358L25.5422 25.7961L78.4802 18.4396C78.588 18.4396 78.6958 18.4396 78.8035 18.4396M78.8035 16.5196C78.6096 16.5196 78.4371 16.5196 78.2431 16.5628C53.9942 19.9282 29.7453 23.2936 5.47486 26.6806C4.63423 26.81 3.7505 26.8531 2.97453 27.2199C1.31483 27.9318 0.129327 29.5714 0 31.3404V67.0007V75.0259V92.9747C0.150882 94.9379 1.61659 96.7069 3.5565 97.2678C4.03071 97.4404 4.52646 97.462 5.04377 97.462C5.30243 97.462 5.56108 97.462 5.79818 97.462C5.8844 97.462 5.94906 97.462 6.03528 97.462C7.80276 97.462 9.54868 97.462 11.3162 97.462C14.6356 97.462 17.9765 97.462 21.2959 97.462C24.2489 97.462 27.2019 97.462 30.1764 97.462C31.9008 101.108 33.6251 104.732 35.328 108.378H35.6082C39.4664 104.732 43.3247 101.108 47.183 97.462C50.6102 97.462 54.0158 97.462 57.443 97.462C64.2758 97.462 71.1086 97.462 77.9629 97.462C78.006 97.462 78.0491 97.462 78.1138 97.462C78.3078 97.462 78.4802 97.462 78.6742 97.462C79.0838 97.462 79.4933 97.462 79.9028 97.3109C81.2392 96.9011 82.2738 95.844 82.942 94.6574C83.4378 93.7514 83.7395 92.759 83.7611 91.7235C83.7611 77.7441 83.7611 63.7863 83.7611 49.8069V34.188C83.7611 29.8518 83.7611 25.5156 83.7611 21.1794C83.7395 19.885 83.136 18.6338 82.1445 17.7709C81.2608 16.9727 80.0537 16.498 78.8467 16.498L78.8035 16.5196Z" fill="#35BBE3"/>
<path d="M76.2163 89.5235H7.67271C5.86213 89.5235 4.41797 87.6035 4.41797 85.2304V44.3494C4.41797 42.1489 5.66814 40.3152 7.32784 40.0779L75.8714 30.4779C77.7898 30.1974 79.471 32.2037 79.471 34.7494V85.2089C79.471 87.5819 78.0053 89.5019 76.2163 89.5019V89.5235Z" fill="#35BBE3"/>
<g opacity="0.22">
<path d="M32.9794 58.3501C31.0826 58.6521 29.3583 59.5798 27.8494 61.1546C26.3191 62.7294 25.4353 64.52 25.1336 66.5479C24.8534 68.5757 25.2845 70.1506 26.4268 71.3155C27.5692 72.4805 29.0781 72.9119 30.9964 72.6099C32.9579 72.3079 34.7038 71.3587 36.2342 69.7838C37.7646 68.209 38.6483 66.4184 38.9501 64.3906C39.2303 62.3843 38.7992 60.7878 37.6568 59.6229C36.5144 58.458 34.9625 58.0481 33.001 58.3501H32.9794Z" fill="#014E60"/>
<path d="M38.0446 35.3963C31.9015 36.3671 27.3104 36.2592 24.2928 35.0727C21.2751 33.8861 20.0896 30.9306 20.7578 26.1845C20.8872 25.2138 20.844 25.2353 21.1243 24.3508L10.6703 25.7962C10.2392 27.1985 10.6272 26.2493 10.4116 27.8025C9.48478 34.3823 10.8212 38.999 14.4208 41.674C18.0204 44.3491 23.1719 45.1689 29.8754 44.1118L29.1857 51.7703L38.5835 50.3033L41.2131 34.9001L38.0662 35.3963H38.0446Z" fill="#014E60"/>
</g>
<path d="M30.9963 2.45421C35.2425 1.78544 35.4581 0.0811633 38.4111 1.26768C41.364 2.45421 46.9036 6.42366 48.1753 9.20659C49.447 11.9895 49.835 15.3334 49.2746 19.2381L39.1008 20.8345C39.1008 20.8345 37.1824 19.8637 35.3719 18.7203C36.4496 16.2826 37.98 14.0605 37.2687 13.3918C35.5658 11.8169 33.0009 11.2992 29.5952 11.8385C26.1896 12.3778 23.366 13.7801 21.1458 16.0237C18.9473 18.2889 17.5893 21.1365 17.1151 24.5882C16.4469 29.3343 17.6324 32.3114 20.6501 33.4763C23.6677 34.6629 28.6468 34.3824 33.8199 31.1896L37.5489 33.3038L34.9192 48.707L25.5214 50.1739L21.7925 48.0598L26.2112 42.5155C19.4861 43.5726 14.3346 42.7528 10.7565 40.0777C7.17847 37.4027 5.82053 32.7644 6.74737 26.2062C7.63111 19.8853 10.2823 14.6214 14.6795 10.35C19.0766 6.10006 24.5299 3.46814 30.9747 2.45421H30.9963ZM27.3536 70.992C25.4567 71.294 20.4345 68.9641 19.2921 67.8207C18.1497 66.6558 21.2321 66.9578 21.5123 64.9515C21.7925 62.9452 22.6978 61.1331 24.2281 59.5582C25.7585 57.9834 24.8532 54.8553 26.7716 54.5533C28.6899 54.2513 32.8931 56.8616 34.0355 58.0266C35.1779 59.1915 35.609 60.7663 35.3287 62.7942C35.0485 64.8221 34.1432 66.6127 32.6129 68.1875C31.0825 69.7623 29.3581 70.7115 27.3751 71.0136L27.3536 70.992Z" fill="#EF8601"/>
<path d="M27.2678 0.361601C31.514 -0.307166 35.1136 -0.0482887 38.0882 1.13823C41.0411 2.32475 43.175 4.30948 44.4468 7.11399C45.7185 9.89692 46.1065 13.2408 45.546 17.1455L35.3723 18.7419C35.8465 15.3549 35.243 12.874 33.5401 11.2992C31.8373 9.72433 29.2723 9.20658 25.8667 9.74591C22.4611 10.2852 19.6374 11.6875 17.4173 13.9311C15.2188 16.1963 13.8608 19.0439 13.3866 22.4956C12.7184 27.2417 13.9039 30.2188 16.9216 31.3837C19.9392 32.5703 24.5303 32.6781 30.6734 31.7073L33.8204 31.2112L31.1907 46.6144L21.7929 48.0813L22.4826 40.4229C15.7576 41.48 10.6061 40.6602 7.02801 37.9851C3.44995 35.3101 2.09201 30.6718 3.01886 24.1136C3.94571 17.5554 6.55381 12.5288 10.9509 8.25736C15.3696 4.00746 20.8014 1.37554 27.2678 0.361601ZM23.625 68.8994C21.7282 69.2014 20.1979 68.77 19.0555 67.605C17.9131 66.4401 17.482 64.8652 17.7622 62.8373C18.0424 60.8095 18.9477 59.0189 20.4781 57.4441C22.0084 55.8692 23.7113 54.9416 25.6081 54.6396C27.5049 54.3375 29.1215 54.7474 30.2638 55.9124C31.4062 57.0773 31.8373 58.6522 31.5571 60.68C31.2769 62.7079 30.3716 64.4985 28.8412 66.0733C27.3109 67.6481 25.5865 68.5974 23.6035 68.8994H23.625Z" fill="#FFD701"/>
<path d="M62.5862 28.5893C63.3849 27.506 63.3101 26.0944 62.4192 25.4366C61.5284 24.7787 60.1588 25.1237 59.3601 26.2071C58.5615 27.2904 58.6363 28.702 59.5271 29.3598C60.418 30.0177 61.7876 29.6727 62.5862 28.5893Z" fill="#35BBE3"/>
<path d="M74.0628 26.7871C74.8614 25.7037 74.7867 24.2922 73.8958 23.6343C73.0049 22.9765 71.6353 23.3214 70.8367 24.4048C70.038 25.4882 70.1128 26.8997 71.0037 27.5576C71.8945 28.2154 73.2642 27.8705 74.0628 26.7871Z" fill="#35BBE3"/>
<path d="M68.344 27.5984C69.1427 26.515 69.0679 25.1034 68.177 24.4456C67.2862 23.7878 65.9166 24.1327 65.1179 25.2161C64.3193 26.2995 64.3941 27.711 65.2849 28.3689C66.1758 29.0267 67.5454 28.6818 68.344 27.5984Z" fill="#35BBE3"/>
<path d="M45.7815 62.0175C44.7038 62.0175 43.82 61.1761 43.7554 60.0975C43.6907 58.9757 44.5529 58.0264 45.6737 57.9617L75.2466 56.4948C76.3459 56.4516 77.3158 57.293 77.3805 58.4148C77.4452 59.5366 76.583 60.4858 75.4622 60.5505L45.8893 62.0175C45.8893 62.0175 45.8246 62.0175 45.7815 62.0175Z" fill="#FFD701"/>
<path d="M45.7796 69.9563C44.7019 69.9563 43.7966 69.0934 43.7535 68.0147C43.7104 66.8929 44.5726 65.9437 45.6934 65.9006L75.2663 64.6493C76.4087 64.5846 77.3355 65.4691 77.3787 66.5909C77.4218 67.7127 76.5596 68.6619 75.4387 68.7051L45.8658 69.9563C45.8658 69.9563 45.8012 69.9563 45.7796 69.9563Z" fill="#D7F9FF"/>
<path d="M45.7785 78.1326C44.6792 78.1326 43.7739 77.2697 43.7523 76.1694C43.7308 75.0476 44.593 74.12 45.7138 74.0769L75.2867 73.2355C76.3644 73.2139 77.3344 74.0769 77.3775 75.1987C77.399 76.3205 76.5369 77.2481 75.416 77.2913L45.8431 78.1326C45.8431 78.1326 45.8 78.1326 45.7785 78.1326Z" fill="#D7F9FF"/>
</svg>
