<svg width="94" height="102" viewBox="0 0 94 102" fill="none" xmlns="http://www.w3.org/2000/svg">
<path d="M10.024 23.4824H84.3442C87.7498 23.4824 90.5304 26.2438 90.5304 29.6739V80.5002H3.85938V29.6739C3.85938 26.2654 6.61835 23.4824 10.0455 23.4824H10.024Z" fill="#D7F9FF"/>
<path d="M60.4388 22.8137H32.9782C31.9005 38.0443 8.40604 45.3361 1.875 59.0997V79.4C17.2434 54.03 41.2121 41.5392 60.4388 22.8137Z" fill="#E9FDFF"/>
<path d="M42.334 90.2946H54.5339C65.9578 74.9993 78.8259 59.0998 91.4353 50.8158V35.0027C72.1009 49.9529 64.8154 76.1858 42.334 90.2946Z" fill="#E9FDFF"/>
<path d="M3.85742 80.802H89.2998V84.189C89.2998 86.8641 87.1443 89.0214 84.4716 89.0214H8.64254C5.99133 89.0214 3.85742 86.864 3.85742 84.2321V80.802Z" fill="#FFD701"/>
<path d="M84.5146 22.0583H77.8758V24.7981H84.5146C86.7347 24.7981 88.5669 26.6103 88.5669 28.8539V79.6801H4.76268V28.8539C4.76268 26.6103 6.59482 24.7981 8.8365 24.7981H15.4969V22.0583H8.8365C5.10755 22.0583 2.06836 25.1001 2.06836 28.8539V83.7359C2.06836 87.5112 5.086 90.5314 8.8365 90.5314H34.508V99.0744H25.2611C24.5067 99.0744 23.9247 99.6784 23.9247 100.433C23.9247 101.145 24.5282 101.749 25.2611 101.749H68.0685C68.8013 101.749 69.4048 101.145 69.4048 100.433C69.4048 99.6784 68.8013 99.0744 68.0685 99.0744H58.8431V90.5314H84.5146C88.2436 90.5314 91.2828 87.5112 91.2828 83.7359V28.8539C91.2828 25.1217 88.2651 22.0583 84.5146 22.0583ZM88.5669 83.7359C88.5669 85.9795 86.7347 87.8348 84.5146 87.8348H8.8365C6.59482 87.8348 4.76268 85.9795 4.76268 83.7359V82.3768H88.5669V83.7359Z" fill="#35BBE3"/>
<path d="M31.1675 66.5205C30.5855 66.5205 30.1113 66.9951 30.1113 67.5776V80.0037H32.2237V67.5776C32.2237 66.9951 31.7495 66.5205 31.1675 66.5205Z" fill="#35BBE3"/>
<path d="M15.433 66.5205C14.8511 66.5205 14.3984 66.9951 14.3984 67.5776V80.0037H16.4892V67.5776C16.4892 66.9951 16.015 66.5205 15.433 66.5205Z" fill="#35BBE3"/>
<path d="M10.2822 80.0039V66.4775C10.2822 63.6514 12.5886 61.3431 15.4122 61.3431H22.3312V69.5193C22.3312 70.1018 22.8054 70.5764 23.3658 70.5764C23.9263 70.5764 24.4005 70.1018 24.4005 69.5193V61.3431H31.1471C33.9707 61.3431 36.2771 63.6514 36.2771 66.4775V80.0039H38.3678V66.4775C38.3678 62.4865 35.1347 59.2505 31.1471 59.2505H15.4122C11.4246 59.2505 8.19141 62.4865 8.19141 66.4775V80.0039H10.2822Z" fill="#35BBE3"/>
<path d="M16.7266 50.0173C16.7266 53.5768 19.6149 56.4892 23.1929 56.4892C26.771 56.4892 29.6593 53.5552 29.6593 50.0173C29.6593 46.4793 26.771 43.5669 23.1929 43.5669C19.6149 43.5669 16.7266 46.4577 16.7266 50.0173ZM27.5685 50.0173C27.5685 52.4119 25.607 54.375 23.1929 54.375C20.7788 54.375 18.8174 52.4119 18.8174 50.0173C18.8174 47.6226 20.7788 45.6595 23.1929 45.6595C25.607 45.6595 27.5685 47.6226 27.5685 50.0173Z" fill="#35BBE3"/>
<path d="M46.5813 1.45615C46.5813 1.45615 2.39442 11.4445 3.08416 11.725C3.77391 12.0054 46.6675 22.0585 46.6675 22.0585L91.264 11.7465L46.5598 1.43457L46.5813 1.45615Z" fill="#D7F9FF"/>
<path d="M70.0098 12.9116H23.8184V29.0267H70.0098V12.9116Z" fill="#D7F9FF"/>
<path d="M23.6016 16.7084V31.1193C23.6016 31.1193 30.068 34.5062 30.5637 34.5062C31.0595 34.5062 45.458 37.5265 45.7382 37.5265C46.0184 37.5265 57.6794 37.1813 57.6794 37.1813L61.3006 32.8235L65.202 34.0101L68.004 32.6078L70.3966 28.5089L69.6853 16.428L46.8806 21.4329L23.5801 16.73L23.6016 16.7084Z" fill="#FFD701"/>
<path d="M21.9425 29.1345C21.9425 35.3475 34.6813 38.6698 46.6657 38.6698C50.5455 38.6698 54.4469 38.3246 58.0465 37.6127C58.6716 39.6406 60.5253 41.0644 62.7238 41.0644C65.4613 41.0644 67.6814 38.8855 67.6814 36.1026C67.6814 35.5201 67.5521 35.0024 67.3581 34.4631C69.8584 33.0392 71.3888 31.2271 71.3888 29.0482V17.8302L92.2536 13.0841C92.8787 12.9546 93.3529 12.3722 93.3529 11.7034C93.3529 11.0778 92.8787 10.4953 92.2536 10.3227L46.9674 0.0323597C46.7735 -0.0107866 46.5795 -0.0107866 46.3639 0.0323597L1.09927 10.3227C0.452634 10.4953 0 11.0778 0 11.7034C0 12.3722 0.452634 12.9546 1.09927 13.0841L21.921 17.8302V29.1345H21.9425ZM57.9818 34.8082C54.8133 35.4338 51.0197 35.8653 46.6657 35.8653C33.1078 35.8653 24.7662 31.9606 24.7662 29.1345V26.4163C29.1849 29.6091 38.0869 31.3349 46.6657 31.3349C51.7741 31.3349 56.9903 30.7525 61.3227 29.5659V31.4212C59.7061 31.9174 58.4345 33.1902 57.9818 34.8298V34.8082ZM24.7662 21.8212V18.4558L46.3639 23.3745C46.3639 23.3745 46.5794 23.4176 46.6657 23.4176C46.795 23.4176 46.8812 23.3745 46.989 23.3745L61.3227 20.0953V26.6536C57.6369 27.7538 52.6794 28.5089 46.6657 28.5089C33.1078 28.5089 24.7662 24.6041 24.7662 21.8212ZM62.7238 38.2599C61.5599 38.2599 60.6115 37.2891 60.6115 36.1242C60.6115 34.9592 61.5599 34.01 62.7238 34.01C63.8878 34.01 64.8577 34.9808 64.8577 36.1242C64.8577 37.2675 63.9093 38.2599 62.7238 38.2599ZM68.5867 29.1345C68.5867 30.1053 67.5736 31.2055 65.7415 32.1979C65.2673 31.8096 64.7284 31.5722 64.168 31.3997V28.6167C65.8923 27.948 67.4012 27.1929 68.5867 26.3516V29.1129V29.1345ZM68.5867 21.8212C68.5651 23.0293 66.9916 24.4315 64.168 25.6396V19.4697L68.5867 18.4558V21.8212ZM7.80275 11.7034L46.6657 2.88001L85.5286 11.7034L62.8316 16.881L47.3769 10.409C46.6656 10.107 45.825 10.4522 45.5233 11.1641C45.1999 11.876 45.5233 12.7173 46.2777 13.0194L58.068 17.9812L46.6226 20.5915L7.75963 11.725L7.80275 11.7034Z" fill="#35BBE3"/>
<path d="M82.0136 67.2974H43.7112C43.3421 67.2974 43.043 67.5968 43.043 67.9661V68.8506C43.043 69.22 43.3421 69.5194 43.7112 69.5194H82.0136C82.3827 69.5194 82.6818 69.22 82.6818 68.8506V67.9661C82.6818 67.5968 82.3827 67.2974 82.0136 67.2974Z" fill="#35BBE3"/>
<path d="M68.2834 71.1375H43.4525C43.2263 71.1375 43.043 71.321 43.043 71.5473V72.0435C43.043 72.2699 43.2263 72.4534 43.4525 72.4534H68.2834C68.5095 72.4534 68.6929 72.2699 68.6929 72.0435V71.5473C68.6929 71.321 68.5095 71.1375 68.2834 71.1375Z" fill="#35BBE3"/>
<path d="M68.2834 73.2515H43.4525C43.2263 73.2515 43.043 73.435 43.043 73.6614V74.1575C43.043 74.3839 43.2263 74.5674 43.4525 74.5674H68.2834C68.5095 74.5674 68.6929 74.3839 68.6929 74.1575V73.6614C68.6929 73.435 68.5095 73.2515 68.2834 73.2515Z" fill="#35BBE3"/>
<path d="M68.2834 75.3442H43.4525C43.2263 75.3442 43.043 75.5278 43.043 75.7541V76.2503C43.043 76.4767 43.2263 76.6602 43.4525 76.6602H68.2834C68.5095 76.6602 68.6929 76.4767 68.6929 76.2503V75.7541C68.6929 75.5278 68.5095 75.3442 68.2834 75.3442Z" fill="#35BBE3"/>
<path d="M81.8412 44.624H43.8836C43.4193 44.624 43.043 45.0007 43.043 45.4654V63.3063C43.043 63.771 43.4193 64.1477 43.8836 64.1477H81.8412C82.3055 64.1477 82.6818 63.771 82.6818 63.3063V45.4654C82.6818 45.0007 82.3055 44.624 81.8412 44.624Z" fill="#35BBE3"/>
<path d="M62.8533 61.5158C66.7936 61.5158 69.9879 58.3188 69.9879 54.3751C69.9879 50.4314 66.7936 47.2344 62.8533 47.2344C58.913 47.2344 55.7188 50.4314 55.7188 54.3751C55.7188 58.3188 58.913 61.5158 62.8533 61.5158Z" fill="#E9FDFF"/>
<path d="M61.0202 58.0856C61.0202 58.0856 61.1496 58.1287 61.2142 58.1287C61.3004 58.1287 61.3867 58.1072 61.4514 58.0424L65.9347 54.6986C66.0425 54.6339 66.1071 54.5045 66.1071 54.375C66.1071 54.2456 66.0425 54.1161 65.9347 54.0514L61.4514 50.7292C61.322 50.6213 61.1711 50.6213 61.0202 50.686C60.8694 50.7507 60.8047 50.9017 60.8047 51.0527V57.7404C60.8047 57.8914 60.8909 58.0424 61.0202 58.1072V58.0856Z" fill="#35BBE3"/>
</svg>
