<svg width="90" height="98" viewBox="0 0 90 98" fill="none" xmlns="http://www.w3.org/2000/svg">
<path d="M7.62946 19.696H81.9497C85.3553 19.696 88.1358 22.4574 88.1358 25.8875V76.7138H1.46484V25.8875C1.46484 22.479 4.22384 19.696 7.65101 19.696H7.62946Z" fill="#D7F9FF"/>
<path d="M58.5638 19.0276H31.1033C30.0255 34.2582 6.53104 41.5499 0 55.3136V75.6139C15.3684 50.2439 39.3371 37.7531 58.5638 19.0276Z" fill="#E9FDFF"/>
<path d="M40.459 86.5084H52.6589C64.0828 71.2131 76.9509 55.3137 89.5603 47.0296V31.2166C70.2259 46.1667 62.9404 72.3996 40.459 86.5084Z" fill="#E9FDFF"/>
<path d="M55.5668 85.7961H33.8613V96.1297H55.5668V85.7961Z" fill="#35BBE3"/>
<path d="M1.96289 77.0159H87.4052V80.4029C87.4052 83.0779 85.2498 85.2352 82.577 85.2352H6.74801C4.0968 85.2352 1.96289 83.0779 1.96289 80.446V77.0159Z" fill="#FFD701"/>
<path d="M82.6201 18.2722H75.9813V21.012H82.6201C84.8402 21.012 86.6724 22.8241 86.6724 25.0677V75.894H2.86815V25.0677C2.86815 22.8241 4.70029 21.012 6.94196 21.012H13.6023V18.2722H6.94196C3.21302 18.2722 0.173828 21.314 0.173828 25.0677V79.9498C0.173828 83.7251 3.19147 86.7453 6.94196 86.7453H32.6135V95.2882H23.3665C22.6121 95.2882 22.0302 95.8923 22.0302 96.6474C22.0302 97.3593 22.6337 97.9633 23.3665 97.9633H66.1739C66.9068 97.9633 67.5103 97.3593 67.5103 96.6474C67.5103 95.8923 66.9068 95.2882 66.1739 95.2882H56.9486V86.7453H82.6201C86.349 86.7453 89.3882 83.7251 89.3882 79.9498V25.0677C89.3882 21.3356 86.3706 18.2722 82.6201 18.2722ZM54.2327 95.2882H35.3078V86.7453H54.2327V95.2882ZM86.6724 79.9498C86.6724 82.1934 84.8402 84.0487 82.6201 84.0487H6.94196C4.70029 84.0487 2.86815 82.1934 2.86815 79.9498V78.5907H86.6724V79.9498Z" fill="#35BBE3"/>
<path d="M14.248 8.34888L22.7837 9.06079C22.7837 9.06079 32.4832 9.55697 32.8497 9.83742C33.2161 10.1179 42.3121 12.7282 42.3121 12.7282L44.7478 13.9147C44.7478 13.9147 50.1149 11.6711 50.4813 11.6711C50.8477 11.6711 58.0685 9.81585 58.8229 9.859C59.5773 9.90214 68.1561 8.84506 68.2423 8.84506C68.3285 8.84506 75.8079 9.08236 75.8079 9.08236C75.8079 9.08236 75.463 53.8682 75.8079 53.8682C76.1528 53.8682 62.789 53.8682 62.789 53.8682L51.7099 56.0039L45.028 58.981L36.2553 55.8745L25.3702 54.2133L14.248 53.6309V8.34888Z" fill="#D7F9FF"/>
<path d="M22.416 54.1268V64.7192C22.416 64.7192 22.998 67.2433 23.6231 67.7179C24.2482 68.1925 26.5976 69.6163 27.0072 69.6163H63.7146L66.3011 66.9197L67.4651 64.1583L67.0987 53.9758L52.0967 56.2626L45.0268 58.161L38.582 56.4352L28.4082 54.3857L22.416 54.1484V54.1268Z" fill="#FFD701"/>
<path d="M67.1202 9.06078L67.4651 6.36414C67.4651 6.36414 66.8831 3.84008 66.2581 3.36548C65.633 2.89087 63.2835 1.46704 62.874 1.46704H26.1665L23.58 4.16368L22.416 6.92504L22.5023 9.03921L34.5081 10.4199L44.7681 13.9147L52.0967 11.1318L60.6754 9.21179L67.1202 9.06078Z" fill="#FFD701"/>
<path d="M50.3097 7.50732C50.8917 7.50732 51.3659 7.03271 51.3659 6.42866C51.3659 5.82462 50.8917 5.37158 50.3097 5.37158H39.6402C39.0583 5.37158 38.5625 5.82462 38.5625 6.42866C38.5625 7.03271 39.0583 7.50732 39.6402 7.50732H50.3097Z" fill="#35BBE3"/>
<path d="M31.1031 63.6624C30.5211 63.6624 30.0254 64.137 30.0254 64.741C30.0254 65.3451 30.5211 65.7981 31.1031 65.7981C31.6851 65.7981 32.1593 65.3235 32.1593 64.741C32.1593 64.137 31.6851 63.6624 31.1031 63.6624Z" fill="#35BBE3"/>
<path d="M58.8238 63.6624C58.2633 63.6624 57.7676 64.137 57.7676 64.741C57.7676 65.3451 58.2633 65.7981 58.8238 65.7981C59.4273 65.7981 59.9015 65.3235 59.9015 64.741C59.9015 64.137 59.4273 63.6624 58.8238 63.6624Z" fill="#35BBE3"/>
<path d="M55.0289 7.50732C55.6109 7.50732 56.0851 7.03271 56.0851 6.42866C56.0851 5.82462 55.6109 5.37158 55.0289 5.37158C54.4469 5.37158 53.9512 5.82462 53.9512 6.42866C53.9512 7.03271 54.4469 7.50732 55.0289 7.50732Z" fill="#35BBE3"/>
<path d="M39.575 17.9919C34.7036 16.5249 28.345 15.6404 20.6501 15.3384C20.3698 15.2952 20.0896 15.4247 19.8741 15.6188C19.6585 15.813 19.5508 16.0935 19.5508 16.3739V23.8598C19.5508 24.4207 19.9819 24.8953 20.5854 24.9384C28.0864 25.2189 34.2941 26.1034 38.993 27.5056C39.0792 27.5488 39.187 27.5703 39.3163 27.5703C39.5319 27.5703 39.7474 27.4841 39.9414 27.3546C40.2001 27.1389 40.3725 26.8584 40.3725 26.4917V19.0058C40.3725 18.5312 40.0492 18.1213 39.5965 17.9919H39.575ZM38.217 25.0679C33.7768 23.9245 28.2157 23.1694 21.6847 22.8458V17.4957C28.3019 17.8409 33.863 18.6391 38.217 19.804V25.0679Z" fill="#35BBE3"/>
<path d="M39.5738 32.9204C34.7025 31.4966 28.3439 30.6121 20.6489 30.2454C20.0885 30.2454 19.5496 30.6984 19.5496 31.2593C19.5065 31.8633 19.9807 32.3595 20.5842 32.4027C28.0852 32.6831 34.2929 33.5676 38.9918 34.9699C39.0996 35.013 39.1858 35.013 39.3151 35.013C39.7678 35.013 40.1989 34.7326 40.3282 34.258C40.5006 33.6971 40.1773 33.1146 39.5953 32.9204H39.5738Z" fill="#35BBE3"/>
<path d="M39.5738 40.4064C34.7025 38.9825 28.3439 38.0549 20.6489 37.7529C20.0885 37.7097 19.5496 38.2059 19.5496 38.7668C19.5065 39.3709 19.9807 39.867 20.5842 39.9102C28.0852 40.1906 34.2929 41.0751 38.9918 42.4774C39.0996 42.5205 39.1858 42.5205 39.3151 42.5205C39.7678 42.5205 40.1989 42.2401 40.3282 41.7655C40.5006 41.2046 40.1773 40.6005 39.5953 40.4279L39.5738 40.4064Z" fill="#35BBE3"/>
<path d="M39.5738 47.8706C34.7025 46.4467 28.3439 45.5191 20.6489 45.2171C20.0885 45.1739 19.5496 45.6485 19.5496 46.231C19.5065 46.8351 19.9807 47.3312 20.5842 47.3312C28.0852 47.6548 34.2929 48.5393 38.9918 49.9416C39.0996 49.9847 39.1858 49.9847 39.3151 49.9847C39.7678 49.9847 40.1989 49.6611 40.3282 49.2297C40.5006 48.6688 40.1773 48.0647 39.5953 47.8921L39.5738 47.8706Z" fill="#35BBE3"/>
<path d="M75.9161 7.68003C73.2002 7.68003 70.743 7.7879 68.4366 7.87419V6.3425C68.4366 2.84765 65.613 0 62.0996 0H27.8062C24.3144 0 21.4692 2.84765 21.4692 6.3425V7.87419C19.1844 7.7879 16.7272 7.68003 14.0113 7.68003C13.4078 7.68003 12.9336 8.19778 12.9336 8.75869V53.8681C12.9336 54.4721 13.4078 54.9467 14.0113 54.9467C16.7056 54.9467 19.1844 55.0115 21.4692 55.1409V64.18C21.4692 67.6749 24.3144 70.4794 27.8062 70.4794H62.0996C65.5914 70.4794 68.4366 67.6533 68.4366 64.18V55.1409C70.7214 55.0115 73.1786 54.9467 75.9161 54.9467C76.4981 54.9467 76.9723 54.4721 76.9723 53.8681V8.75869C76.9723 8.19778 76.4981 7.68003 75.9161 7.68003ZM23.6247 6.3425C23.6247 4.03417 25.5215 2.13574 27.8278 2.13574H62.1212C64.4491 2.13574 66.3243 4.03417 66.3243 6.3425V7.98205C52.5294 8.86655 46.7958 11.5848 44.9852 12.7066C43.1531 11.6063 37.4196 8.86655 23.6462 7.98205V6.3425H23.6247ZM15.0891 9.83734C35.1133 9.96678 42.2909 13.5695 43.886 14.5619V57.2551C40.6959 55.6586 32.656 52.9189 15.0891 52.811V9.83734ZM62.0996 68.3436H27.8062C25.4999 68.3436 23.6031 66.4668 23.6031 64.1584V61.1814H35.1779C36.2126 61.1814 37.1825 61.5913 37.7214 62.2816C38.9931 63.878 41.6874 64.8488 44.9422 64.8488C48.1969 64.8488 50.8912 63.878 52.1629 62.2816C52.7018 61.5913 53.6502 61.1814 54.7064 61.1814H66.3027V64.1584C66.3027 66.4668 64.4275 68.3436 62.0996 68.3436ZM66.3027 59.0456H54.7064C52.982 59.0456 51.4516 59.736 50.5032 60.9441C49.6626 62.0227 47.4856 62.6915 44.9637 62.6915C42.4418 62.6915 40.2648 62.0227 39.4242 60.9441C38.4758 59.736 36.9454 59.0456 35.221 59.0456H23.6462V55.2056C39.7259 56.2843 44.2309 59.8654 44.274 59.887C44.3386 59.9733 44.4248 60.0164 44.5326 60.038C44.6619 60.1027 44.8128 60.1674 44.9637 60.1674C44.9853 60.1674 45.0068 60.1243 45.0499 60.1243C45.1577 60.1243 45.2655 60.0811 45.3732 60.0596H45.3948C45.3948 60.0596 45.5026 59.9948 45.5241 59.9517C45.5672 59.9301 45.6319 59.887 45.675 59.887C45.7181 59.8223 50.223 56.2411 66.3027 55.1625V59.0025V59.0456ZM74.8383 52.811C57.2714 52.8973 49.21 55.6586 46.0414 57.2551V14.5619C47.658 13.5911 54.8357 9.96678 74.8383 9.83734V52.8326V52.811Z" fill="#35BBE3"/>
<path d="M50.6553 20.0845C50.6553 20.0845 50.8493 20.0414 50.957 20.0198C55.6559 18.6175 61.8637 17.7762 69.3647 17.4526C69.9466 17.4095 70.3993 16.9133 70.3777 16.3524C70.3561 15.7483 69.8604 15.2737 69.2784 15.3384C61.5834 15.662 55.2249 16.5465 50.332 17.9919C49.7716 18.1429 49.4482 18.747 49.6207 19.3295C49.7715 19.7825 50.1811 20.0845 50.6553 20.0845Z" fill="#35BBE3"/>
<path d="M50.654 42.4992C50.654 42.4992 50.8479 42.4992 50.9557 42.456C55.6546 41.0538 61.8624 40.1693 69.3634 39.8888C69.9238 39.8457 70.3764 39.3926 70.3764 38.8102V23.86C70.3764 23.5795 70.2686 23.2991 70.0531 23.1049C69.8375 22.9108 69.5573 22.7813 69.2556 22.8245C61.5606 23.1481 55.202 24.0326 50.3091 25.4564C49.8564 25.6074 49.5547 26.0173 49.5547 26.4919V41.4205C49.5547 41.7657 49.7056 42.0893 49.9858 42.305C50.1798 42.4344 50.3953 42.4992 50.6324 42.4992H50.654ZM51.7101 27.2901C56.0642 26.082 61.6252 25.327 68.264 24.9818V37.7962C61.7115 38.1414 56.1719 38.8964 51.7101 40.0398V27.2901Z" fill="#35BBE3"/>
<path d="M69.2784 45.2172C61.5834 45.5408 55.2249 46.4469 50.332 47.8707C49.7716 48.0218 49.4482 48.6258 49.6207 49.2083C49.7715 49.6613 50.1811 49.9633 50.6553 49.9633C50.763 49.9633 50.8493 49.9633 50.957 49.9202C55.6559 48.5179 61.8637 47.6334 69.3647 47.3098C69.9466 47.3098 70.3993 46.8137 70.3777 46.2096C70.3561 45.6487 69.8604 45.131 69.2784 45.1957V45.2172Z" fill="#35BBE3"/>
<path d="M59.9853 27.7002C62.4425 27.7002 64.447 29.7065 64.447 32.1658C64.447 34.6252 62.4425 36.6315 59.9853 36.6315C57.528 36.6315 55.5234 34.6252 55.5234 32.1658C55.5234 29.7065 57.528 27.7002 59.9853 27.7002Z" fill="#35BBE3"/>
<path d="M59.9856 36.6961C62.5093 36.6961 64.5551 34.6484 64.5551 32.1226C64.5551 29.5967 62.5093 27.5491 59.9856 27.5491C57.4619 27.5491 55.416 29.5967 55.416 32.1226C55.416 34.6484 57.4619 36.6961 59.9856 36.6961Z" fill="#FFD701"/>
<path d="M58.9941 34.5606V29.8577L62.3567 32.1228L58.9941 34.5606Z" fill="#B1E6F2"/>
<path d="M58.7348 35.0349C58.7348 35.0349 58.8211 35.0565 58.8857 35.0565C58.9504 35.0565 59.0151 35.0565 59.0797 34.9917L62.55 32.4245C62.55 32.4245 62.6793 32.2735 62.6793 32.1657C62.6793 32.0578 62.6362 31.9715 62.55 31.9068L59.0797 29.3396C59.0797 29.3396 58.8642 29.2533 58.7564 29.318C58.6486 29.3612 58.584 29.469 58.584 29.5985V34.7544C58.584 34.8623 58.6486 34.9917 58.7564 35.0349H58.7348ZM59.1875 30.2241L61.7956 32.1657L59.1875 34.1072V30.2241Z" fill="#35BBE3"/>
</svg>
