<svg width="259" height="78" viewBox="0 0 259 78" fill="none" xmlns="http://www.w3.org/2000/svg">
<path d="M2.89029 7.1981C19.4071 4.80659 35.9249 2.42085 52.4418 0.0293367C53.3502 -0.0985568 54.3021 0.197618 54.9965 0.802467C55.6946 1.40059 56.1331 2.30257 56.1634 3.23052C56.1549 6.70961 56.1625 10.1887 56.1597 13.6668C47.3608 20.6548 39.7413 29.1689 33.7378 38.732C32.8521 37.8935 31.9759 37.0434 31.1575 36.1376C32.5736 35.0491 33.6563 33.5144 34.1763 31.7873C34.4965 30.7959 34.5391 29.7218 34.3251 28.7034C34.0816 27.5207 33.5521 26.4273 33.0037 25.3647C32.4154 24.2599 31.9153 23.0723 31.0183 22.179C30.3041 21.4327 29.3322 20.8875 28.2893 20.8789C27.1943 20.8635 26.0444 21.277 25.3387 22.1549C24.7505 22.8771 24.5298 23.8396 24.5373 24.7599C24.5421 25.6994 24.7789 26.6216 25.1312 27.4851C25.908 29.4997 26.8732 31.4382 27.9862 33.2826C25.1294 34.9173 21.8605 35.5751 18.6465 36.0232C12.4554 36.8877 6.1175 36.5934 0.0126073 35.2568C0.0107129 26.9783 0.015449 18.6989 0.00976562 10.4214C0.0637577 8.83379 1.33778 7.40293 2.89029 7.1981ZM27.7598 14.94C27.3279 15.4343 26.9433 15.9689 26.6298 16.5478C26.5208 16.8055 26.1798 16.9017 25.9591 16.7295C25.4325 16.4016 24.9143 16.0603 24.3896 15.7295C23.6772 16.6574 23.054 17.6613 22.5235 18.7076C23.3685 19.2509 24.2124 19.7961 25.0593 20.3365C25.5101 19.8144 25.9013 19.2432 26.2414 18.6412C26.3456 18.4316 26.6326 18.3229 26.8334 18.4614C27.3819 18.7826 27.9341 19.0989 28.4873 19.4134C28.7838 19.1153 28.9978 18.7489 29.2271 18.3979C29.6268 17.7604 30.0133 17.1142 30.3609 16.4459C29.5027 15.9285 28.635 15.4246 27.7598 14.94Z" fill="#2BA7DF"/>
<path d="M60.4359 4.17736C61.3879 3.80234 62.5246 4.59759 62.4961 5.63804C62.4791 21.3728 62.4507 37.1075 62.4355 52.8413C62.4781 53.4567 62.3834 54.1347 61.9164 54.576C61.3386 55.1867 60.3137 55.1588 59.7227 54.5809C60.5202 54.3491 61.1596 53.5991 61.1662 52.7413C61.1691 37.0373 61.1681 21.3324 61.1662 5.62843C61.188 5.05146 60.8802 4.51681 60.435 4.17736H60.4359Z" fill="#2BA7DF"/>
<path d="M35.5653 42.5458C41.1559 33.6827 48.1303 25.7216 56.1591 19.0615C56.1638 30.0969 56.1477 41.1332 56.1714 52.1677C56.2121 53.4245 55.7432 54.6967 54.868 55.5919C54.3783 56.0968 53.7237 56.4728 53.0152 56.5093C45.892 56.517 38.7679 56.5035 31.6448 56.516C29.019 59.0989 26.3876 61.677 23.7543 64.2541C22.5807 61.6731 21.4118 59.0903 20.2354 56.5112C14.7727 56.5122 9.31003 56.5112 3.84735 56.5112C3.46467 56.5035 3.0782 56.543 2.70215 56.4603C1.68009 56.2555 0.774541 55.5391 0.333132 54.5803C0.055594 54.013 -0.0306039 53.3697 0.00917979 52.7417C0.0158104 48.1885 0.00917979 43.6344 0.0120215 39.0802C6.76482 40.7111 13.8283 41.0688 20.6938 40.0024C24.0698 39.5158 27.3955 38.4581 30.3404 36.6964C31.9545 38.759 33.795 40.6226 35.5653 42.5458Z" fill="#2BA7DF"/>
<path d="M27.9314 25.6509C28.8957 25.022 30.1574 24.9278 31.2259 25.3269C31.5934 25.4548 31.9714 25.6461 32.1675 26.0057C32.4308 26.4452 32.3313 26.9818 32.248 27.4597C31.7838 29.5675 30.4208 31.4388 28.5954 32.5418C28.1067 31.8687 27.6302 31.1859 27.1746 30.4897C26.7067 29.7704 26.5996 28.8723 26.6565 28.029C26.7199 27.102 27.1481 26.1673 27.9314 25.6509Z" fill="#2BA7DF"/>
<path d="M105.724 3.06329C107.236 3.06329 108.749 3.06888 110.264 3.05957C110.271 7.32201 110.265 11.5854 110.265 15.8497C111.451 13.6952 112.934 11.7316 114.264 9.66831C116.09 9.66459 117.917 9.67018 119.743 9.66645C118.012 11.6394 116.273 13.6067 114.541 15.5797C116.535 18.4623 118.492 21.37 120.491 24.247C118.628 24.2936 116.765 24.2535 114.902 24.2675C113.737 22.2741 112.572 20.2807 111.405 18.2872C111.021 18.7528 110.641 19.222 110.265 19.6941C110.266 21.2183 110.266 22.7433 110.265 24.2675C108.75 24.2675 107.235 24.2656 105.723 24.2694C105.721 17.2007 105.719 10.132 105.723 3.06236L105.724 3.06329Z" fill="#2BA7DF"/>
<path d="M189.98 3.06343C191.207 3.06343 192.434 3.06529 193.663 3.06343C193.661 9.04742 193.663 15.0333 193.663 21.0182C193.673 22.101 193.716 23.1848 193.773 24.2676H190.484C190.427 23.5042 190.408 22.7379 190.311 21.9781C188.89 24.5563 185.297 25.2955 182.809 23.9045C180.932 22.8925 179.802 20.8553 179.487 18.7892C179.151 16.5444 179.425 14.1087 180.697 12.1861C181.715 10.6163 183.459 9.526 185.332 9.40309C187.055 9.24761 188.99 9.79414 189.984 11.3118C189.974 8.56234 189.98 5.81288 189.98 3.0625V3.06343ZM185.923 12.3211C185.068 12.5203 184.325 13.0948 183.876 13.8471C183.142 15.0566 182.983 16.5398 183.136 17.9261C183.276 19.117 183.779 20.3488 184.794 21.048C186.037 21.9111 187.886 21.7873 188.951 20.6849C189.78 19.8823 190.038 18.6738 189.98 17.5565C189.927 16.3154 190.186 14.9607 189.506 13.8434C188.834 12.5874 187.282 11.9673 185.922 12.322L185.923 12.3211Z" fill="#2BA7DF"/>
<path d="M122.847 3.4748C123.984 3.03161 125.521 3.39194 126.047 4.58092C126.594 5.67586 126.129 7.17861 124.97 7.6488C123.995 8.08826 122.709 7.93463 121.989 7.10039C121.026 6.00173 121.412 3.96269 122.848 3.4748H122.847Z" fill="#2BA7DF"/>
<path d="M75.4169 4.12549C80.5502 4.13201 85.6826 4.12363 90.8178 4.12921C90.8159 5.40292 90.8178 6.67476 90.8159 7.94847C88.9908 7.95405 87.1666 7.94195 85.3414 7.95498C85.3488 13.3924 85.3433 18.829 85.3451 24.2683H80.7795C80.7814 18.8299 80.7777 13.3906 80.7814 7.95219C78.9929 7.94381 77.2045 7.95405 75.416 7.94847C75.4178 6.6729 75.416 5.39919 75.4179 4.12549H75.4169Z" fill="#2BA7DF"/>
<path d="M140.029 4.12549C141.599 4.13573 143.167 4.11711 144.737 4.13573C146.886 10.8515 149.072 17.5553 151.236 24.2664C149.918 24.2701 148.602 24.2683 147.283 24.2683C146.681 22.3633 146.077 20.4593 145.473 18.5562C143.36 18.5543 141.246 18.5543 139.133 18.5562C138.558 20.4593 137.984 22.3633 137.408 24.2683C136.142 24.2683 134.873 24.2701 133.607 24.2664C135.747 17.5525 137.891 10.8404 140.029 4.12549ZM142.214 7.12633C141.573 10.0573 140.625 12.9027 139.735 15.7648C141.435 15.7667 143.138 15.7611 144.841 15.7667C144.048 13.1625 143.115 10.5964 142.489 7.94195C142.42 7.6617 142.353 7.37958 142.215 7.12726L142.214 7.12633Z" fill="#2BA7DF"/>
<path d="M90.6476 10.6151C92.5718 9.61981 94.7794 9.26693 96.9283 9.35539C98.5911 9.4336 100.364 9.96244 101.441 11.3162C102.578 12.7166 102.769 14.6094 102.707 16.3515C102.757 18.9836 102.561 21.6362 102.923 24.2544C101.56 24.2851 100.199 24.2581 98.836 24.2702C98.7415 23.7665 98.6498 23.2628 98.5572 22.7609C96.7449 24.9154 93.0799 25.2748 90.9861 23.3475C88.9977 21.5068 89.2215 17.9222 91.3584 16.2872C93.2744 14.7882 95.8195 14.5238 98.1683 14.5051C98.2325 13.6588 97.6923 12.846 96.8659 12.6365C95.0408 12.1467 93.1047 12.6914 91.4694 13.5378C91.2264 12.5545 90.9265 11.5872 90.6495 10.6151H90.6476ZM94.7895 18.1615C93.887 18.8365 93.8247 20.4435 94.7913 21.086C95.8617 21.7386 97.3658 21.2414 97.9858 20.1875C98.4976 19.3393 98.2187 18.2974 98.2921 17.3635C97.0961 17.3635 95.7864 17.4203 94.7895 18.1615Z" fill="#2BA7DF"/>
<path d="M155.79 10.3761C158.178 9.12846 161.108 9.09215 163.602 10.0437C163.404 10.9748 163.169 11.8956 162.953 12.8211C161.512 12.2103 159.817 12.0111 158.341 12.6097C157.078 13.1172 156.18 14.3173 155.901 15.6376C155.607 17.0388 155.748 18.5984 156.546 19.8162C157.166 20.7659 158.205 21.4009 159.317 21.5797C160.585 21.7771 161.891 21.562 163.076 21.0862C163.239 22.0015 163.412 22.9167 163.582 23.8329C161.802 24.5302 159.835 24.7155 157.948 24.4539C156.163 24.1857 154.436 23.2733 153.372 21.7836C152.065 19.9875 151.774 17.618 152.15 15.4709C152.524 13.3369 153.864 11.3789 155.791 10.3752L155.79 10.3761Z" fill="#2BA7DF"/>
<path d="M165.745 10.6479C167.765 9.52965 170.165 9.18887 172.437 9.48682C174.028 9.69258 175.57 10.6116 176.281 12.0929C177.174 13.8303 176.969 15.8395 176.989 17.7259C177.02 19.9083 176.884 22.1019 177.193 24.2704C176.087 24.2666 174.981 24.2704 173.875 24.2666C173.796 23.7108 173.712 23.1577 173.63 22.6037C171.895 24.775 168.308 25.3188 166.147 23.4948C164.103 21.7472 164.294 18.1653 166.4 16.5471C168.351 15.0332 170.937 14.7753 173.32 14.7772C173.314 14.1459 173.239 13.4755 172.837 12.9634C172.339 12.2884 171.473 12.0398 170.673 11.9998C169.203 11.9374 167.732 12.334 166.462 13.0696C166.225 12.2614 165.982 11.457 165.745 10.6488V10.6479ZM169.802 17.7221C169.148 18.0164 168.569 18.5685 168.418 19.2919C168.208 20.1643 168.463 21.2556 169.314 21.6904C170.704 22.3877 172.557 21.6354 173.175 20.2267C173.575 19.2593 173.334 18.1774 173.381 17.1607C172.173 17.1607 170.919 17.2128 169.802 17.7231V17.7221Z" fill="#2BA7DF"/>
<path d="M199.108 10.6173C200.706 9.44882 202.81 9.15553 204.722 9.53541C206.085 9.8138 207.332 10.6294 208.106 11.7933C209.33 13.6033 209.59 15.9067 209.302 18.0352C206.066 18.0352 202.831 18.0333 199.595 18.037C199.622 19.536 200.584 20.9597 202.019 21.4317C203.984 22.089 206.149 21.7585 208.079 21.1272C208.255 21.9699 208.426 22.8162 208.618 23.6588C206.71 24.4344 204.608 24.6607 202.567 24.521C200.674 24.3683 198.762 23.5639 197.576 22.0313C196.249 20.3461 195.91 18.0789 196.157 15.9924C196.401 13.918 197.384 11.8501 199.108 10.6173ZM200.943 12.6424C200.141 13.3481 199.743 14.4021 199.6 15.4421C201.712 15.4486 203.825 15.4319 205.937 15.4486C205.968 14.3081 205.584 13.0586 204.619 12.3789C203.518 11.6508 201.931 11.7597 200.944 12.6415L200.943 12.6424Z" fill="#2BA7DF"/>
<path d="M217.393 9.78891C218.936 9.15857 220.863 9.19861 222.215 10.2544C222.829 10.7116 223.258 11.3633 223.573 12.0542C224.31 10.9313 225.39 10.0105 226.676 9.59897C228.275 9.13529 230.172 9.36527 231.408 10.5589C232.679 11.774 233.091 13.611 233.134 15.3139C233.142 18.2989 233.138 21.2839 233.136 24.2671H229.541C229.538 21.5074 229.541 18.7467 229.541 15.9889C229.52 14.9834 229.367 13.8949 228.694 13.1082C228.025 12.3242 226.816 12.1911 225.92 12.6249C224.857 13.137 224.245 14.3204 224.267 15.4833C224.257 18.4116 224.269 21.3388 224.261 24.2671C223.064 24.2652 221.865 24.2671 220.667 24.2671C220.665 21.3947 220.665 18.5224 220.667 15.6491C220.648 14.6835 220.441 13.6296 219.718 12.9378C218.896 12.1818 217.54 12.2199 216.686 12.9015C215.858 13.5467 215.395 14.6025 215.392 15.6463C215.388 18.5186 215.39 21.3928 215.392 24.2652C214.191 24.2689 212.993 24.2652 211.794 24.2671C211.79 21.4534 211.794 18.6397 211.792 15.826C211.786 13.7841 211.831 11.7404 211.684 9.70325C212.742 9.70325 213.799 9.70139 214.858 9.70325C214.907 10.4304 214.958 11.1567 215.006 11.8857C215.628 11.017 216.385 10.1967 217.393 9.78798V9.78891Z" fill="#2BA7DF"/>
<path d="M121.58 9.66357C123.093 9.67382 124.608 9.66544 126.12 9.66916C126.115 14.5349 126.12 19.4026 126.117 24.2693C124.602 24.2693 123.087 24.2674 121.575 24.2693C121.577 19.4016 121.565 14.5321 121.58 9.6645V9.66357Z" fill="#2BA7DF"/>
<path d="M234.255 9.7045C235.6 9.70264 236.948 9.70636 238.294 9.70264C239.451 13.2658 240.768 16.7797 241.753 20.3969C242.705 16.8151 243.785 13.2696 244.803 9.70636C246.121 9.70077 247.439 9.7045 248.759 9.7045C247.435 13.3059 246.131 16.9119 244.803 20.5114C243.948 22.7423 243.078 24.9955 241.777 27.0112C240.52 28.9479 238.545 30.5307 236.224 30.8854C235.948 29.8436 235.667 28.8054 235.39 27.7654C237.272 27.2459 238.914 25.8772 239.693 24.0709C239.871 23.6613 239.608 23.2488 239.473 22.8717C237.724 18.4854 235.995 14.0936 234.254 9.7045H234.255Z" fill="#2BA7DF"/>
<path d="M97.4135 51.6592H99.5247V54.4976H97.132C95.9748 54.4976 95.0286 54.1926 94.2936 53.5827C93.543 54.1926 92.589 54.4976 91.4318 54.4976H83.0573C81.7281 54.4976 80.6881 54.0519 79.9375 53.1605C79.265 52.3785 78.9288 51.3699 78.9288 50.1344V47.7417L81.861 46.1935V49.9467C81.861 50.5723 81.9861 51.018 82.2363 51.2838C82.5022 51.5341 82.9322 51.6592 83.5265 51.6592H91.1737C91.768 51.6592 92.1902 51.5262 92.4405 51.2604C92.6907 50.9945 92.8158 50.5566 92.8158 49.9467V40.9155L95.748 39.3673V49.9702C95.748 50.5801 95.8731 51.018 96.1233 51.2838C96.3892 51.5341 96.8193 51.6592 97.4135 51.6592ZM87.96 42.7687C89.086 42.9563 89.649 43.621 89.649 44.7626C89.649 46.0449 89.0313 46.6861 87.7958 46.6861H84.3241L85.0513 45.3256H87.6551C88.0773 45.3256 88.2884 45.1144 88.2884 44.6922C88.2884 44.1605 87.9366 43.8946 87.2328 43.8946C86.7637 43.8946 86.3258 44.0197 85.9192 44.27V43.0971L87.9366 40.8686H89.649L87.96 42.7687ZM100.357 42.018C99.8878 42.018 99.5124 41.8773 99.2309 41.5958C98.9494 41.3143 98.8087 40.9311 98.8087 40.4463C98.8087 39.9928 98.9494 39.6253 99.2309 39.3438C99.5124 39.0623 99.8878 38.9216 100.357 38.9216C100.826 38.9216 101.194 39.0623 101.459 39.3438C101.741 39.6097 101.882 39.9772 101.882 40.4463C101.882 41.4941 101.373 42.018 100.357 42.018ZM103.946 42.018C103.477 42.018 103.101 41.8773 102.82 41.5958C102.538 41.2986 102.398 40.9155 102.398 40.4463C102.398 39.9928 102.538 39.6253 102.82 39.3438C103.117 39.0623 103.492 38.9216 103.946 38.9216C104.415 38.9216 104.783 39.0623 105.048 39.3438C105.33 39.6097 105.471 39.9772 105.471 40.4463C105.471 41.4941 104.962 42.018 103.946 42.018ZM106.479 51.6592H108.591V54.4976H106.198C105.056 54.4976 104.11 54.1926 103.36 53.5827C102.609 54.1926 101.663 54.4976 100.521 54.4976H98.1284V51.6592H100.24C100.834 51.6592 101.256 51.5341 101.506 51.2838C101.757 51.018 101.882 50.5801 101.882 49.9702V45.6305L104.837 44.0823V49.9702C104.837 50.5801 104.962 51.018 105.213 51.2838C105.463 51.5341 105.885 51.6592 106.479 51.6592ZM107.177 54.4976V51.6592H109.288C109.883 51.6592 110.305 51.5341 110.555 51.2838C110.805 51.018 110.93 50.5801 110.93 49.9702V45.6305L113.886 44.0823V50.1109C113.886 51.5341 113.448 52.6444 112.572 53.442C111.806 54.1457 110.805 54.4976 109.57 54.4976H107.177ZM108.444 59.7286C107.975 59.7286 107.599 59.5879 107.318 59.3064C107.036 59.0249 106.896 58.6418 106.896 58.157C106.896 57.1405 107.412 56.6322 108.444 56.6322C108.913 56.6322 109.28 56.7651 109.546 57.031C109.828 57.3125 109.969 57.6878 109.969 58.157C109.969 59.2048 109.46 59.7286 108.444 59.7286ZM112.056 59.7286C111.587 59.7286 111.212 59.5879 110.93 59.3064C110.649 59.0249 110.508 58.6418 110.508 58.157C110.508 57.1405 111.024 56.6322 112.056 56.6322C112.525 56.6322 112.893 56.7651 113.159 57.031C113.44 57.3125 113.581 57.6878 113.581 58.157C113.581 59.2048 113.073 59.7286 112.056 59.7286ZM118.101 54.4976V40.9389L121.057 39.3673V54.4976H118.101ZM132.694 51.6592H134.806V54.4976H132.413C131.881 54.4976 131.389 54.4272 130.935 54.2864C130.732 55.7877 130.13 56.9763 129.129 57.852C128.222 58.634 127.135 59.0249 125.868 59.0249C124.883 59.0249 123.921 58.7747 122.983 58.2743V55.6939C123.796 56.1474 124.594 56.3742 125.376 56.3742C126.236 56.3742 126.9 56.0927 127.369 55.5297C127.854 54.9824 128.097 54.2161 128.097 53.2308V45.6305L130.02 44.6218L131.029 44.0823V44.1058L131.052 44.0823V49.9702C131.052 50.5801 131.177 51.018 131.428 51.2838C131.678 51.5341 132.1 51.6592 132.694 51.6592ZM139.389 42.018C138.919 42.018 138.544 41.8773 138.263 41.5958C137.981 41.3143 137.84 40.9311 137.84 40.4463C137.84 39.4298 138.356 38.9216 139.389 38.9216C139.858 38.9216 140.225 39.0623 140.491 39.3438C140.773 39.6097 140.913 39.9772 140.913 40.4463C140.913 41.4941 140.405 42.018 139.389 42.018ZM143.001 42.018C142.532 42.018 142.157 41.8773 141.875 41.5958C141.594 41.3143 141.453 40.9311 141.453 40.4463C141.453 39.4298 141.969 38.9216 143.001 38.9216C143.47 38.9216 143.838 39.0623 144.104 39.3438C144.385 39.6097 144.526 39.9772 144.526 40.4463C144.526 41.4941 144.018 42.018 143.001 42.018ZM133.407 54.4976V51.6592H137.16C136.691 50.9711 136.456 50.1109 136.456 49.0788C136.456 47.3586 136.925 45.998 137.864 44.9971C138.708 44.1214 139.811 43.6835 141.171 43.6835C142.563 43.6835 143.642 44.1292 144.408 45.0206C145.097 45.7869 145.441 46.7878 145.441 48.0232V50.1344C145.425 51.4793 145.026 52.5427 144.244 53.3247C143.478 54.1066 142.438 54.4976 141.124 54.4976H133.407ZM142.485 47.9763C142.485 46.9441 142.047 46.4281 141.171 46.4281C139.967 46.4281 139.365 47.2804 139.365 48.985C139.365 50.7678 139.944 51.6592 141.101 51.6592C142.024 51.6592 142.485 51.1587 142.485 50.1579V47.9763ZM169.22 54.4976C169.032 55.9363 168.219 57.0623 166.78 57.8755C165.482 58.5949 163.864 58.9545 161.925 58.9545C159.329 58.9545 157.374 58.2117 156.06 56.726C155.091 55.6157 154.606 54.2552 154.606 52.6444C154.606 51.4089 154.895 50.3299 155.474 49.4072L158.289 48.8208C157.663 49.8842 157.35 51.0023 157.35 52.1752C157.35 53.4889 157.741 54.4976 158.523 55.2013C159.305 55.9207 160.439 56.2804 161.925 56.2804C164.239 56.2804 165.647 55.6861 166.147 54.4976H163.895L165.373 51.6592H169.29V54.4976H169.22ZM176.159 51.6592H178.27V54.4976H175.877C174.658 54.4976 173.665 54.1535 172.898 53.4654C172.038 54.1535 170.983 54.4976 169.732 54.4976H168.089V51.6592H169.567C170.287 51.6592 170.795 51.5028 171.092 51.19C171.405 50.8772 171.561 50.3455 171.561 49.5949V40.9389L174.493 39.3673V44.1058L174.517 44.0823V49.9702C174.517 50.5801 174.642 51.018 174.892 51.2838C175.142 51.5341 175.565 51.6592 176.159 51.6592ZM189.859 51.6592V54.4976H176.863V51.6592H180.335C179.897 50.799 179.678 49.8451 179.678 48.7973C179.678 47.1396 180.257 45.826 181.414 44.8564C182.352 44.0745 183.439 43.6835 184.675 43.6835C186.348 43.6835 187.701 44.4029 188.733 45.8416V48.4454C187.591 47.1005 186.348 46.4281 185.003 46.4281C184.284 46.4281 183.705 46.6548 183.267 47.1084C182.845 47.5462 182.634 48.1405 182.634 48.8911C182.634 49.7513 182.9 50.4315 183.431 50.932C183.979 51.4168 184.722 51.6592 185.66 51.6592H189.859ZM212.929 54.4976C212.741 55.9363 211.928 57.0623 210.489 57.8755C209.191 58.5949 207.572 58.9545 205.633 58.9545C203.037 58.9545 201.082 58.2117 199.769 56.726C198.799 55.6157 198.314 54.2552 198.314 52.6444C198.314 51.4089 198.604 50.3299 199.182 49.4072L201.997 48.8208C201.372 49.8842 201.059 51.0023 201.059 52.1752C201.059 53.4889 201.45 54.4976 202.232 55.2013C203.014 55.9207 204.147 56.2804 205.633 56.2804C207.948 56.2804 209.355 55.6861 209.856 54.4976H207.604L209.081 51.6592H212.999V54.4976H212.929ZM217.494 32.9129L219.159 31.998V34.4142C219.159 34.9459 218.964 35.3838 218.573 35.7278C218.198 36.0719 217.713 36.2439 217.118 36.2439C216.634 36.2439 216.227 36.1344 215.899 35.9155C215.555 36.1344 215.156 36.2439 214.702 36.2439C214.108 36.2439 213.623 36.0719 213.248 35.7278C212.873 35.3838 212.685 34.9459 212.685 34.4142V33.4055L214.327 32.4907V34.3204C214.327 34.5393 214.46 34.6488 214.726 34.6488C214.976 34.6488 215.101 34.5471 215.101 34.3438V33.1475L216.743 32.2326V34.3438C216.743 34.5471 216.868 34.6488 217.118 34.6488C217.369 34.6488 217.494 34.5393 217.494 34.3204V32.9129ZM216.396 41.7131C215.927 41.7131 215.551 41.5723 215.27 41.2908C214.988 41.0093 214.847 40.6262 214.847 40.1414C214.847 39.6879 214.988 39.3204 215.27 39.0389C215.551 38.7574 215.927 38.6166 216.396 38.6166C216.865 38.6166 217.232 38.7574 217.498 39.0389C217.78 39.3047 217.92 39.6722 217.92 40.1414C217.92 41.1892 217.412 41.7131 216.396 41.7131ZM220.149 51.6592H222.26V54.4976H219.867C218.726 54.4976 217.78 54.1926 217.029 53.5827C216.278 54.1926 215.332 54.4976 214.191 54.4976H211.798V51.6592H213.909C214.503 51.6592 214.926 51.5341 215.176 51.2838C215.426 51.018 215.551 50.5801 215.551 49.9702V45.6305L218.507 44.0823V49.9702C218.507 50.5801 218.632 51.018 218.882 51.2838C219.132 51.5341 219.555 51.6592 220.149 51.6592ZM236.868 51.6592H238.98V54.4976H236.587C235.43 54.4976 234.476 54.1848 233.725 53.5592C232.974 54.1848 232.005 54.4976 230.816 54.4976H227.861C227.329 54.4976 226.828 54.4194 226.359 54.263C225.874 54.4194 225.374 54.4976 224.858 54.4976H220.847V51.6592H223.239C222.973 51.0805 222.841 50.4472 222.841 49.7591C222.841 48.7895 223.099 47.9763 223.615 47.3195C224.006 46.0058 224.702 44.9737 225.702 44.223C226.719 43.4724 227.892 43.0971 229.221 43.0971C231.004 43.0971 232.466 43.6835 233.608 44.8564C234.671 45.9511 235.203 47.3664 235.203 49.1023V49.9702C235.203 50.5801 235.328 51.018 235.578 51.2838C235.844 51.5341 236.274 51.6592 236.868 51.6592ZM230.769 51.6592C231.348 51.6592 231.739 51.5419 231.942 51.3073C232.161 51.0571 232.271 50.6036 232.271 49.9467V49.1023C232.271 48.117 231.981 47.3273 231.403 46.733C230.84 46.1388 230.089 45.8416 229.151 45.8416C228.51 45.8416 227.954 45.9824 227.485 46.2639C228.22 46.4828 228.799 46.905 229.221 47.5306C229.659 48.1561 229.878 48.899 229.878 49.7591C229.878 50.4472 229.745 51.0805 229.479 51.6592H230.769ZM226.359 51.448C227.36 51.1196 227.861 50.4706 227.861 49.501C227.861 49.0163 227.72 48.6331 227.438 48.3516C227.172 48.0545 226.813 47.9059 226.359 47.9059C225.906 47.9059 225.538 48.0545 225.257 48.3516C224.991 48.6331 224.858 49.0163 224.858 49.501C224.858 50.4706 225.358 51.1196 226.359 51.448ZM239.258 41.7131C238.789 41.7131 238.414 41.5723 238.132 41.2908C237.851 41.0093 237.71 40.6262 237.71 40.1414C237.71 39.1249 238.226 38.6166 239.258 38.6166C239.728 38.6166 240.095 38.7574 240.361 39.0389C240.642 39.3047 240.783 39.6722 240.783 40.1414C240.783 41.1892 240.275 41.7131 239.258 41.7131ZM242.871 41.7131C242.402 41.7131 242.026 41.5723 241.745 41.2908C241.463 41.0093 241.323 40.6262 241.323 40.1414C241.323 39.1249 241.839 38.6166 242.871 38.6166C243.34 38.6166 243.708 38.7574 243.973 39.0389C244.255 39.3047 244.396 39.6722 244.396 40.1414C244.396 41.1892 243.887 41.7131 242.871 41.7131ZM237.569 54.4976V51.6592H239.681C240.275 51.6592 240.697 51.5341 240.947 51.2838C241.198 51.018 241.323 50.5801 241.323 49.9702V45.6305L244.278 44.0823V50.1109C244.278 51.5341 243.841 52.6444 242.965 53.442C242.198 54.1457 241.198 54.4976 239.962 54.4976H237.569Z" fill="#2BA7DF"/>
</svg>
