<svg width="103" height="103" viewBox="0 0 103 103" fill="none" xmlns="http://www.w3.org/2000/svg">
<circle cx="51.5" cy="51.5" r="51.5" fill="white"/>
<g clip-path="url(#clip0_1_2)">
<path d="M14.0973 54.7551C14.1193 54.7462 14.1595 54.7427 14.1632 54.7285C14.804 52.4202 16.5012 51.3015 18.7935 50.7529C20.5823 50.3232 22.3271 49.7248 24.103 49.2312C24.5435 49.1137 24.9245 48.8441 25.1741 48.473C25.6483 47.8302 25.8735 46.9105 26.9153 46.8235C27.0324 46.8128 27.0526 46.7311 27.0837 46.6335C27.1641 46.3091 27.1531 45.9697 27.052 45.6508C26.9509 45.3318 26.7633 45.0451 26.5088 44.8206C23.9291 42.7005 22.4021 40.0265 21.9994 36.7611C21.9946 36.6005 21.9395 36.4452 21.8413 36.3157C21.7432 36.1863 21.6067 36.089 21.4501 36.0367C19.1414 34.9713 18.5829 32.2848 20.2783 30.4116C20.3812 30.2989 20.46 30.1677 20.5103 30.0254C20.5605 29.883 20.5813 29.7325 20.5713 29.5824C20.5713 27.5528 20.4871 25.5144 20.6335 23.4938C21.0308 18.0338 25.1942 14.2234 30.8352 14.1239C34.1948 14.0653 37.5563 14.0955 40.9196 14.1186C43.2998 14.1364 44.9475 15.2568 45.8044 17.3662C45.9041 17.6049 46.0694 17.8124 46.2823 17.9663C47.9099 19.2252 48.7045 20.8819 48.7173 22.8865C48.7338 25.1061 48.7265 27.3256 48.7173 29.5468C48.7053 29.7078 48.727 29.8694 48.7811 30.022C48.8352 30.1746 48.9207 30.3149 49.0322 30.4346C49.4225 30.8423 49.7072 31.334 49.863 31.8693C50.0189 32.4046 50.0413 32.9682 49.9284 33.5136C49.8156 34.0589 49.5708 34.5705 49.2141 35.0061C48.8574 35.4417 48.3991 35.7888 47.8769 36.0189C47.7106 36.0759 47.5655 36.1796 47.4602 36.3168C47.3549 36.4541 47.2941 36.6186 47.2856 36.7895C46.8901 40.0868 45.3101 42.7609 42.7084 44.8845C42.3184 45.2023 42.0383 46.2517 42.2415 46.6725C42.269 46.7276 42.3294 46.8022 42.3807 46.8075C43.4078 46.9194 43.6623 47.8196 44.1255 48.4695C44.3719 48.8415 44.7514 49.1122 45.1911 49.2294C47.313 49.826 49.4314 50.4315 51.5387 51.0725C53.7467 51.7437 55.1455 53.4873 55.1712 55.5239C55.1712 56.2732 54.8233 56.7189 54.1807 56.7669C53.538 56.8148 53.0693 56.4348 52.9979 55.6908C52.8606 54.2277 52.0275 53.4039 50.605 53.0274C49.2721 52.6723 47.9502 52.271 46.632 51.8644C46.3024 51.7614 46.1925 51.8076 45.971 52.1077C45.0922 53.292 44.1401 54.4248 43.2027 55.5719C42.6754 56.2217 42.15 56.8716 41.6062 57.5073C40.5699 58.7147 39.3341 58.8745 38.0122 57.9636C37.2798 57.4593 36.5768 56.9249 35.7364 56.3141V81.5277C35.7254 82.4155 35.3245 82.9197 34.6379 82.9126C33.9513 82.9055 33.5394 82.3924 33.5394 81.5046C33.5394 73.4043 33.5394 65.304 33.5394 57.2037C33.5394 56.9568 33.6089 56.6958 33.4478 56.3869C32.7521 56.8929 32.082 57.3848 31.4064 57.8677C29.9728 58.894 28.715 58.7413 27.5982 57.3972C26.2726 55.7992 24.8702 54.2455 23.6691 52.5605C23.1308 51.8058 22.7152 51.7774 21.9536 52.0491C20.8551 52.4362 19.7291 52.7167 18.6141 53.0434C17.0157 53.5122 16.2943 54.4373 16.2943 56.046C16.2943 64.3582 16.2943 72.6709 16.2943 80.9843C16.2943 81.1264 16.2943 81.2667 16.2943 81.4087C16.3181 82.0035 16.2541 82.5611 15.5876 82.8203C14.9212 83.0795 14.4891 82.6889 14.101 82.2486L14.0973 54.7551ZM35.7236 16.2405C34.1179 16.2405 32.5104 16.2227 30.9029 16.2405C26.4557 16.3097 23.1382 19.2838 22.8141 23.5897C22.7024 25.0457 22.7702 26.5159 22.7647 27.9808C22.7647 29.2539 22.7647 29.2237 24.0573 29.2432C24.5571 29.2432 24.7219 29.0799 24.7896 28.6129C24.9526 27.6132 25.1796 26.6224 25.3993 25.6316C25.8295 23.7015 26.9189 23.057 28.9072 23.5275C31.6774 24.1916 34.4804 24.3017 37.3128 24.0354C38.8857 23.8865 40.4342 23.5539 41.9248 23.0446C42.6352 22.8031 43.2375 23.0748 43.4407 23.6305C43.6623 24.2378 43.3583 24.7776 42.6077 25.051C42.0414 25.2608 41.4631 25.4386 40.8757 25.5837C36.7974 26.5656 32.5333 26.5656 28.455 25.5837C27.8179 25.4292 27.6073 25.5837 27.5176 26.2034C27.3711 27.2066 27.1221 28.1938 26.9226 29.1882C26.7688 29.9641 26.4136 30.598 25.6831 31.0135C25.2617 31.2535 24.7803 31.3763 24.2916 31.3686C23.8302 31.3686 23.3762 31.3526 22.9056 31.3686C22.5371 31.3751 22.1844 31.5153 21.9172 31.7616C21.65 32.0078 21.4877 32.3422 21.4621 32.6988C21.4366 33.0554 21.5498 33.4084 21.7794 33.688C22.009 33.9677 22.3383 34.1538 22.7024 34.2096C23.9071 34.4741 23.984 34.5647 24.0829 35.7419C24.0994 35.9301 24.1158 36.1184 24.1342 36.3066C24.6962 41.779 29.3998 45.7173 35.1798 45.5521C40.5187 45.403 44.9787 41.0208 45.2094 35.7011C45.2533 34.6624 45.4529 34.4138 46.491 34.2256C47.1592 34.1048 47.5749 33.7603 47.747 33.1176C47.9191 32.4748 47.6774 31.9954 47.1629 31.6421C46.6484 31.2887 46.5166 30.875 46.5221 30.3068C46.5422 27.9222 46.5221 25.5375 46.5349 23.1511C46.5496 21.5992 45.9857 20.3563 44.6455 19.4632C44.2745 19.237 43.9977 18.8912 43.8637 18.4866C43.34 16.8513 42.4759 16.2547 40.6981 16.2511C39.0381 16.2416 37.3799 16.2381 35.7236 16.2405ZM40.0316 47.6793C40.0237 47.5486 40.0237 47.4176 40.0316 47.2869C40.1415 46.5767 39.8486 46.5767 39.2792 46.8181C38.0444 47.3201 36.7279 47.6062 35.3904 47.6633C33.4897 47.7749 31.5876 47.4684 29.8263 46.7667C29.6616 46.701 29.4803 46.5305 29.3027 46.6903C29.083 46.8874 29.3448 48.5156 29.6176 48.7358C31.1684 49.9911 32.7301 51.2341 34.2662 52.5072C34.583 52.77 34.7569 52.7238 35.0425 52.4877C36.4706 51.3104 37.8987 50.1332 39.3615 48.9968C39.8632 48.608 40.1873 48.2173 40.0316 47.6793ZM32.8729 54.1301C31.0073 52.6208 29.1782 51.1524 27.3657 49.6662C27.0947 49.446 26.9995 49.5952 26.875 49.7852C26.5271 50.2966 26.1811 50.8062 25.8204 51.3087C25.7831 51.3448 25.7535 51.3877 25.7333 51.4349C25.7131 51.4821 25.7027 51.5327 25.7027 51.5839C25.7027 51.635 25.7131 51.6856 25.7333 51.7328C25.7535 51.7801 25.7831 51.823 25.8204 51.8591C27.0129 53.2796 28.1963 54.7125 29.3705 56.1578C29.5535 56.3904 29.7366 56.4224 29.982 56.2466C30.9304 55.5506 31.8769 54.8599 32.8729 54.1301ZM36.4157 54.1301C37.3549 54.8172 38.2594 55.4511 39.1272 56.1276C39.5337 56.4437 39.7662 56.3673 40.0591 55.9945C40.8116 55.0392 41.6025 54.1141 42.3697 53.1713C42.7908 52.6563 43.5158 52.1343 43.5213 51.6069C43.5213 51.0388 42.842 50.4723 42.4887 49.8882C42.2891 49.5579 42.1518 49.4709 41.8003 49.7621C40.0445 51.2145 38.263 52.6386 36.4157 54.1301Z" fill="#35BBE3" stroke="#D7F9FF" stroke-width="0.32201" stroke-miterlimit="10"/>
<path d="M56.4836 35.7984C57.2507 35.5356 57.9904 35.5623 58.6971 35.4149C60.0465 35.1343 61.0077 34.259 61.8938 33.3001C62.478 32.6391 62.996 31.9256 63.4409 31.1694C63.895 30.4379 64.5284 30.271 65.215 30.7752C67.3755 32.3733 69.9149 32.9663 72.4891 33.5008C74.1973 33.8559 75.922 34.1365 77.5753 34.7171C80.9825 35.9156 82.6303 38.4192 82.4216 41.9278C82.1561 46.3668 80.1367 49.7955 76.2699 52.1873C76.1538 52.2453 76.0587 52.3361 75.9969 52.4477C75.9351 52.5593 75.9096 52.6864 75.9238 52.8123C75.9458 53.4249 75.9238 54.0392 75.9238 54.6536C75.9348 55.6852 76.2113 56.0847 77.2054 56.4718C79.8834 57.5158 82.5644 58.5564 85.2485 59.5933C87.8446 60.5983 88.9011 62.12 88.9011 64.8562C88.9011 66.6513 88.8919 68.4465 88.9011 70.2416C88.9011 70.9394 88.674 71.4632 87.9069 71.5786C87.4711 71.6461 87.5975 71.9338 87.5956 72.1557C87.5956 75.2026 87.5956 78.2496 87.5956 81.2965C87.6062 81.5335 87.5983 81.7709 87.5718 82.0068C87.5491 82.2448 87.4373 82.4666 87.2575 82.6301C87.0777 82.7937 86.8424 82.8878 86.596 82.8946C86.3521 82.9288 86.1039 82.873 85.9005 82.7382C85.697 82.6033 85.5532 82.3993 85.4975 82.1666C85.4302 81.8922 85.4013 81.6103 85.4114 81.3285C85.4114 78.2815 85.3986 75.2346 85.4114 72.1877C85.4114 71.7349 85.3089 71.5627 84.8182 71.6017C84.2595 71.6461 83.698 71.6461 83.1393 71.6017C82.59 71.5591 82.4069 71.6976 82.4069 72.2782C82.4417 75.2772 82.4234 78.2762 82.4234 81.2752C82.4234 82.3672 82.0792 82.8892 81.3505 82.9141C80.5926 82.9407 80.2282 82.4116 80.2282 81.2717C80.2282 77.0445 80.2282 72.8168 80.2282 68.5885C80.2228 68.3514 80.2332 68.1141 80.2593 67.8783C80.2754 67.626 80.393 67.3898 80.5868 67.2208C80.7807 67.0518 81.0352 66.9633 81.2956 66.9745C81.8284 66.9603 82.211 67.2426 82.3502 67.7753C82.4355 68.1926 82.457 68.6197 82.4143 69.0431C82.4051 69.3787 82.5131 69.4941 82.8702 69.487C84.0151 69.4669 85.1594 69.4669 86.303 69.487C86.6381 69.487 86.7077 69.3662 86.7058 69.0733C86.693 67.4752 86.7315 65.8612 86.6839 64.256C86.6454 62.9971 85.9369 62.1573 84.7358 61.6938C82.6852 60.9002 80.631 60.1153 78.5932 59.2897C78.13 59.1121 77.925 59.2027 77.6778 59.5915C76.2131 61.8874 74.3712 63.869 72.0295 65.3374C69.4132 66.978 69.8856 66.9922 67.2326 65.3196C64.9367 63.8743 63.1168 61.946 61.6759 59.6839C61.383 59.224 61.1395 59.0997 60.5921 59.3287C58.6696 60.1171 56.7216 60.8451 54.7864 61.598C53.1679 62.2283 52.5893 63.0362 52.5893 64.7195C52.5893 66.14 52.6003 67.5604 52.5783 68.9703C52.5783 69.3627 52.6808 69.503 53.1074 69.503C54.206 69.4763 55.3045 69.4799 56.403 69.503C56.782 69.503 56.9285 69.4071 56.8974 69.0271C56.8691 68.6724 56.8721 68.3159 56.9065 67.9617C56.9079 67.8302 56.9364 67.7002 56.9902 67.5794C57.044 67.4587 57.1222 67.3495 57.22 67.2584C57.3179 67.1673 57.4335 67.0961 57.5602 67.0488C57.6868 67.0016 57.8218 66.9794 57.9574 66.9834C58.5323 66.9638 58.9095 67.2959 59.0431 67.8481C59.0758 68.01 59.0894 68.175 59.0834 68.3399C59.0834 72.7328 59.0834 77.1256 59.0834 81.5185C59.09 81.6837 59.0789 81.8491 59.0505 82.0121C58.9205 82.5963 58.5305 82.939 57.9208 82.8999C57.3111 82.8608 56.9504 82.5022 56.901 81.8931C56.8827 81.6818 56.8919 81.4688 56.89 81.2557C56.89 78.2372 56.879 75.2098 56.9028 72.1877C56.9028 71.7171 56.771 71.5769 56.2968 71.607C55.6873 71.649 55.0755 71.649 54.466 71.607C53.968 71.5698 53.8599 71.7473 53.8636 72.2019C53.8837 75.2204 53.8746 78.2478 53.8636 81.2699C53.8636 82.4152 53.5066 82.9407 52.7486 82.9194C52.0162 82.8981 51.6702 82.3761 51.6702 81.2877C51.6702 78.2691 51.6702 75.2417 51.6702 72.2179C51.6702 71.8627 51.6537 71.6124 51.1887 71.5325C50.6394 71.4366 50.3904 70.9998 50.3904 70.4866C50.3904 68.1961 50.2275 65.8985 50.4655 63.6186C50.6669 61.6903 51.8954 60.4225 53.7354 59.7123C56.4207 58.6753 59.1023 57.6354 61.7803 56.5925C63.1626 56.0598 63.245 55.8095 63.3603 54.3997C63.4794 53.036 63.0747 52.1944 61.859 51.3509C59.0505 49.3978 57.4649 46.6261 57.0182 43.2737C56.9578 42.8192 56.8351 42.496 56.317 42.2616C55.1049 41.7289 54.3286 40.7204 54.3122 39.4349C54.2774 36.5637 53.9954 33.6766 54.6783 30.8267C55.5852 26.9973 57.7084 23.9788 61.0479 21.7711C61.7199 21.3272 62.1099 20.9703 62.1135 20.0417C62.1135 17.7458 63.5178 16.1354 65.5281 15.1428C68.6534 13.6087 71.786 13.7383 74.6825 15.7359C76.3614 16.89 77.3208 18.4952 77.1761 20.5673C77.145 20.997 77.3189 21.1976 77.6558 21.4C80.9276 23.371 83.1283 26.1551 84.3056 29.7045C85.0654 31.9933 85.0507 34.3549 84.9464 36.7164C84.9226 37.2491 84.5363 37.5687 83.9888 37.6042C83.4084 37.6486 83.0002 37.3823 82.8665 36.8141C82.6926 36.0683 82.7933 35.3084 82.7951 34.5555C82.7951 32.7923 82.5937 31.07 81.8797 29.4329C79.97 24.9477 76.5518 22.1689 71.5791 21.4675C63.5105 20.34 56.6374 26.1409 56.4836 34.0654C56.4836 34.6212 56.4836 35.1805 56.4836 35.7984ZM69.6659 51.857C70.4935 51.843 71.3177 51.7502 72.1266 51.58C74.6717 50.9864 76.899 49.4978 78.3771 47.4026C79.8553 45.3075 80.479 42.7549 80.1275 40.2392C79.9444 38.904 79.2487 37.8635 77.9872 37.2207C76.1948 36.2956 74.2101 36.031 72.2676 35.6226C69.9039 35.1308 67.5567 34.6105 65.4549 33.4262C64.9514 33.1439 64.7225 33.1545 64.382 33.6322C62.7946 35.8428 60.8319 37.4906 57.875 37.6681C57.5035 37.6868 57.1536 37.8435 56.8979 38.1057C56.6423 38.3678 56.5004 38.7154 56.5019 39.0762C56.5019 39.7687 57.0072 40.3191 57.8512 40.5073C58.8784 40.7435 59.0724 40.9743 59.1127 42.0024C59.2182 44.649 60.3759 47.1533 62.3433 48.9905C64.3106 50.8276 66.9348 51.8548 69.6659 51.857ZM65.5647 53.3858C65.5647 53.7409 65.5482 54.096 65.5647 54.4369C65.6526 56.035 65.1235 57.3134 63.6423 58.1213C63.3365 58.2882 63.4354 58.409 63.5727 58.6061C65.096 60.8043 66.9269 62.69 69.2832 64.0838C69.3977 64.1645 69.5363 64.2066 69.6778 64.2037C69.8193 64.2008 69.9559 64.1531 70.0668 64.0678C72.4049 62.6988 74.2083 60.8131 75.7426 58.6469C75.9421 58.3646 75.9256 58.2492 75.6034 58.0698C74.309 57.333 73.7542 56.1877 73.7469 54.7619C73.7469 54.302 73.7469 53.8439 73.7469 53.3663C70.3488 54.1635 69.9771 54.1653 65.5574 53.3858H65.5647ZM64.371 20.0701C67.797 18.8672 71.5494 18.8672 74.9754 20.0701C74.8235 17.8826 72.4598 16.2188 69.6348 16.2472C66.7731 16.2774 64.4076 17.9571 64.371 20.0701Z" fill="#35BBE3" stroke="#D7F9FF" stroke-width="0.32201" stroke-miterlimit="10"/>
<path d="M45.2217 71.7606C45.2217 68.6001 45.2217 65.4377 45.2217 62.2771C45.2126 61.7587 45.3346 61.246 45.5769 60.7839C46.3495 59.319 47.1001 57.8417 47.8618 56.3715C48.1108 55.8903 48.4898 55.5689 49.0757 55.6612C49.3081 55.6901 49.524 55.7929 49.6897 55.9535C49.8554 56.1142 49.9614 56.3236 49.9911 56.549C50.0588 56.9042 49.8904 57.1936 49.7403 57.4866C49.072 58.7934 48.4019 60.0985 47.7153 61.3929C47.5136 61.7657 47.4105 62.1811 47.4151 62.6021C47.426 68.8309 47.426 75.0597 47.4151 81.2885C47.4151 82.377 47.0654 82.8972 46.3312 82.9061C45.597 82.915 45.2327 82.3876 45.2327 81.3081L45.2217 71.7606Z" fill="#35BBE3" stroke="#D7F9FF" stroke-width="0.32201" stroke-miterlimit="10"/>
<path d="M24.0574 71.8702C24.0574 75.0118 24.0574 78.1535 24.0574 81.2951C24.0655 81.5321 24.057 81.7694 24.0318 82.0054C24.013 82.2452 23.9021 82.4694 23.7211 82.6338C23.5401 82.7982 23.3021 82.8907 23.0541 82.8932C22.8102 82.921 22.5641 82.8618 22.3619 82.7265C22.1597 82.5912 22.0153 82.3891 21.9556 82.1581C21.8757 81.861 21.8472 81.5532 21.8714 81.2472C21.8714 75.0337 21.8714 68.8221 21.8714 62.6122C21.8823 62.1896 21.7828 61.7712 21.5821 61.3959C20.8882 60.1015 20.2291 58.7893 19.5535 57.4896C19.3704 57.1451 19.2386 56.7935 19.3539 56.4047C19.4075 56.2084 19.5213 56.0326 19.6802 55.9004C19.8391 55.7682 20.0356 55.6859 20.2437 55.6643C20.4761 55.6281 20.7143 55.6686 20.9201 55.7794C21.126 55.8901 21.2875 56.0647 21.3788 56.2751C22.2394 57.9104 23.0742 59.5599 23.9183 61.2024C24.0885 61.5362 24.0592 61.8931 24.0592 62.2447C24.058 65.4502 24.0574 68.6587 24.0574 71.8702Z" fill="#35BBE3" stroke="#D7F9FF" stroke-width="0.32201" stroke-miterlimit="10"/>
<path d="M31.855 70.5511C31.8391 70.8226 31.7205 71.079 31.5219 71.271C31.3232 71.463 31.0585 71.5771 30.7784 71.5916C30.6328 71.5916 30.4886 71.5635 30.3542 71.509C30.2198 71.4544 30.098 71.3745 29.9958 71.2739C29.8935 71.1733 29.813 71.0539 29.7587 70.9228C29.7045 70.7917 29.6777 70.6515 29.6799 70.5102C29.6813 70.238 29.7939 69.9774 29.9929 69.7855C30.1918 69.5935 30.4611 69.4857 30.7418 69.4857C30.8873 69.4838 31.0317 69.51 31.1667 69.5627C31.3017 69.6154 31.4245 69.6936 31.5281 69.7927C31.6316 69.8918 31.7139 70.0099 31.77 70.1401C31.8261 70.2703 31.855 70.41 31.855 70.5511Z" fill="#35BBE3" stroke="#D7F9FF" stroke-width="0.32201" stroke-miterlimit="10"/>
<path d="M31.8526 65.4727C31.861 65.7452 31.7583 66.0099 31.5666 66.2094C31.375 66.4088 31.11 66.5269 30.8291 66.538C30.6845 66.5493 30.5391 66.5315 30.402 66.4858C30.2648 66.4402 30.1388 66.3676 30.0317 66.2727C29.9247 66.1777 29.839 66.0624 29.78 65.934C29.7209 65.8055 29.6898 65.6666 29.6885 65.5259C29.6841 65.3852 29.7088 65.2449 29.7613 65.1136C29.8138 64.9823 29.8929 64.8625 29.994 64.7613C30.095 64.6601 30.216 64.5797 30.3497 64.5247C30.4834 64.4697 30.6271 64.4412 30.7724 64.4411C31.0528 64.4509 31.3193 64.5623 31.5192 64.7532C31.7192 64.9442 31.8381 65.2009 31.8526 65.4727Z" fill="#35BBE3" stroke="#D7F9FF" stroke-width="0.32201" stroke-miterlimit="10"/>
<path d="M31.8484 75.5578C31.8484 75.8356 31.7346 76.1021 31.532 76.2986C31.3294 76.495 31.0547 76.6054 30.7682 76.6054C30.4817 76.6054 30.207 76.495 30.0044 76.2986C29.8018 76.1021 29.688 75.8356 29.688 75.5578C29.6875 75.2854 29.7947 75.0232 29.9874 74.825C30.1802 74.6269 30.4438 74.5079 30.7243 74.4924C30.8702 74.4908 31.0151 74.517 31.1505 74.5697C31.286 74.6224 31.4095 74.7004 31.5139 74.7993C31.6183 74.8982 31.7015 75.0161 31.7589 75.1463C31.8163 75.2764 31.8467 75.4163 31.8484 75.5578Z" fill="#35BBE3" stroke="#D7F9FF" stroke-width="0.32201" stroke-miterlimit="10"/>
<path d="M40.0332 47.6793C40.1962 48.212 39.8648 48.608 39.3649 48.9968C37.9002 50.1332 36.474 51.3051 35.0459 52.4877C34.7603 52.7238 34.5864 52.77 34.2696 52.5072C32.7353 51.2341 31.1718 49.9911 29.621 48.7358C29.3482 48.5156 29.0864 46.8874 29.3061 46.6903C29.4892 46.5305 29.6723 46.701 29.8297 46.7667C31.591 47.4684 33.4931 47.7749 35.3938 47.6633C36.7313 47.6062 38.0478 47.3201 39.2826 46.8181C39.8501 46.5802 40.1449 46.5802 40.035 47.2869C40.0265 47.4176 40.0259 47.5486 40.0332 47.6793Z" fill="#FBFBFB"/>
<path d="M34.6728 41.4042C34.0343 41.3918 33.4057 41.2489 32.8281 40.9849C32.2504 40.7208 31.7367 40.3416 31.3204 39.8719C30.8609 39.3658 30.8536 38.7781 31.2875 38.3538C31.7214 37.9294 32.3238 37.8992 32.8364 38.3786C33.5193 39.0161 34.2315 39.4724 35.2348 39.1812C35.6944 39.0462 36.0313 38.755 36.37 38.4479C36.9559 37.9152 37.571 37.8974 38.0288 38.3768C38.4865 38.8562 38.4242 39.3818 37.9006 39.9411C37.4937 40.3853 36.9975 40.7442 36.4424 40.9958C35.8874 41.2474 35.2852 41.3864 34.6728 41.4042Z" fill="#35BBE3" stroke="#D7F9FF" stroke-width="0.32201" stroke-miterlimit="10"/>
<path d="M28.3707 33.4122C28.3707 33.2701 28.3707 33.1281 28.3707 32.9878C28.4036 32.187 28.7808 31.7626 29.4564 31.7609C30.132 31.7591 30.5238 32.1888 30.5549 32.9843C30.5787 33.3596 30.5695 33.7362 30.5274 34.11C30.4487 34.7261 30.088 35.0937 29.4161 35.0883C28.8101 35.0883 28.4311 34.7013 28.3743 34.0461C28.356 33.8365 28.3743 33.6235 28.3743 33.4122H28.3707Z" fill="#35BBE3" stroke="#D7F9FF" stroke-width="0.32201" stroke-miterlimit="10"/>
<path d="M38.723 33.4351C38.7268 33.1531 38.7464 32.8716 38.7816 32.5917C38.8089 32.3667 38.9199 32.1592 39.0939 32.0081C39.2679 31.857 39.4928 31.7728 39.7264 31.7714C40.2756 31.727 40.6784 31.9489 40.8395 32.4816C40.9837 33.0304 41.0012 33.6034 40.8908 34.1595C40.7919 34.8059 40.358 35.145 39.7447 35.09C39.1313 35.0349 38.7963 34.6727 38.7523 34.0761C38.7358 33.8648 38.7523 33.6517 38.7523 33.4404L38.723 33.4351Z" fill="#35BBE3" stroke="#D7F9FF" stroke-width="0.32201" stroke-miterlimit="10"/>
<path d="M69.6802 47.6829C68.2777 47.6634 67.1499 47.0881 66.2546 46.0636C65.8518 45.6019 65.8719 45.1065 66.2857 44.6573C66.6995 44.2081 67.2854 44.2169 67.7907 44.6094C67.961 44.7408 68.1056 44.9059 68.2722 45.0426C68.6478 45.3707 69.1337 45.5548 69.6392 45.5607C70.1446 45.5666 70.6349 45.3938 71.0185 45.0746C71.187 44.9414 71.3316 44.778 71.4982 44.6395C71.998 44.2276 72.5693 44.224 73.0032 44.6236C73.2081 44.8131 73.3283 45.0729 73.3382 45.3473C73.3482 45.6217 73.247 45.889 73.0563 46.092C72.161 47.0792 71.0551 47.6527 69.6802 47.6829Z" fill="#35BBE3" stroke="#D7F9FF" stroke-width="0.32201" stroke-miterlimit="10"/>
<path d="M65.5472 39.7477C65.5582 40.8912 65.2104 41.4203 64.4615 41.4114C63.7127 41.4025 63.363 40.8645 63.363 39.7264C63.3543 39.4451 63.3751 39.1637 63.4252 38.8865C63.5443 38.3272 63.9361 38.02 64.5146 38.0502C65.1243 38.0821 65.4886 38.4337 65.5417 39.041C65.5655 39.2718 65.5472 39.508 65.5472 39.7477Z" fill="#35BBE3" stroke="#D7F9FF" stroke-width="0.32201" stroke-miterlimit="10"/>
<path d="M75.9249 39.725C75.9249 40.8809 75.6009 41.3994 74.8557 41.4065C74.1105 41.4136 73.7334 40.8632 73.737 39.6735C73.7282 39.4361 73.7411 39.1984 73.7755 38.9633C73.8927 38.3507 74.376 37.96 74.9436 38.0382C75.5514 38.1198 75.892 38.475 75.9231 39.0804C75.9341 39.3006 75.9249 39.5119 75.9249 39.725Z" fill="#35BBE3" stroke="#D7F9FF" stroke-width="0.32201" stroke-miterlimit="10"/>
</g>
<defs>
<clipPath id="clip0_1_2">
<rect width="75" height="69" fill="white" transform="translate(14 14)"/>
</clipPath>
</defs>
</svg>
