<svg width="104" height="103" viewBox="0 0 104 103" fill="none" xmlns="http://www.w3.org/2000/svg">
<circle cx="52" cy="51.5" r="51.5" fill="white"/>
<path d="M51.781 87.0437H80.4667C81.6063 87.0437 81.992 86.6561 81.994 85.5242C81.994 83.5627 82.0075 81.6012 81.994 79.6397C81.9702 76.8726 81.0511 74.1875 79.374 71.9863C77.6969 69.7852 75.3521 68.1863 72.6905 67.4289C69.0079 66.3707 65.3156 65.2969 61.6233 64.2483C61.2066 64.1301 61.0419 63.9789 61.0554 63.5215C61.0981 62.5795 61.0961 61.6317 61.0554 60.6897C61.036 60.2265 61.2008 59.9571 61.5516 59.6664C64.4783 57.2281 66.7131 54.3091 67.6454 50.5412C67.7772 50.016 67.9458 49.8221 68.5331 49.826C70.9403 49.8396 72.6711 48.0719 72.6905 45.6511C72.6905 44.5386 72.7041 43.4241 72.6905 42.3096C72.6951 41.776 72.5941 41.2467 72.3932 40.7522C72.1924 40.2578 71.8957 39.808 71.5202 39.4288C71.1448 39.0495 70.698 38.7483 70.2056 38.5425C69.7132 38.3367 69.185 38.2304 68.6513 38.2296C68.2268 38.2296 68.0349 38.187 68.0272 37.6656C67.9845 34.8378 68.2695 31.9963 67.7229 29.1878C67.6512 28.8254 67.8644 28.8002 68.1105 28.7265C69.4673 28.3215 70.8415 27.9164 72.1982 27.4841C72.644 27.3427 72.7119 27.4841 72.7041 27.9028C72.6828 29.2596 72.6789 30.6163 72.7041 31.9731C72.7041 32.4072 72.6072 32.6417 72.1924 32.8588C71.5341 33.2043 71.007 33.7561 70.692 34.4295C70.377 35.103 70.2913 35.8612 70.448 36.588C70.6084 37.3557 71.0228 38.0469 71.6244 38.5502C72.2259 39.0535 72.9794 39.3394 73.7634 39.3618C74.5474 39.3842 75.316 39.1418 75.9453 38.6737C76.5746 38.2056 77.0278 37.5391 77.2318 36.7818C77.6582 35.1789 76.9701 33.6244 75.4661 32.8026C75.2335 32.6747 75.0183 32.6088 75.0241 32.2464C75.0474 30.502 75.0338 28.7576 75.0358 27.0132C75.0358 26.829 74.9912 26.6468 75.2703 26.5654C75.8673 26.3929 76.2258 25.984 76.1851 25.3405C76.1464 24.7261 75.7161 24.4431 75.187 24.2318C67.6098 21.2095 60.0366 18.1794 52.4672 15.1416C52.0426 14.9598 51.5634 14.9528 51.1337 15.1222C42.7955 18.1678 34.4547 21.2043 26.1113 24.2318C25.4736 24.4625 25.0123 24.7881 25.055 25.5072C25.0976 26.1913 25.5725 26.4763 26.1927 26.6333C29.0399 27.3911 31.8794 28.1838 34.7209 28.9456C35.7501 29.2247 35.7636 29.2169 35.6454 30.2732C35.3702 32.7115 35.5427 35.1595 35.5175 37.6017C35.5175 38.1114 35.3915 38.2296 34.8837 38.2355C32.9261 38.2529 31.2883 39.5321 30.9762 41.4568C30.6952 43.156 30.6952 44.8899 30.9762 46.5892C31.3077 48.5972 32.9629 49.8125 35.0949 49.8435C35.4109 49.8435 35.7132 49.7369 35.8295 50.266C36.5137 53.3555 38.1728 55.8868 40.3223 58.1701C41.022 58.9105 42.1908 59.3233 42.4272 60.3428C42.6637 61.3623 42.4543 62.4632 42.4912 63.5273C42.5067 63.9808 42.3477 64.1281 41.9213 64.2483C38.2038 65.2969 34.467 66.2951 30.7863 67.4638C25.6132 69.1094 22.5295 72.6738 21.696 78.0562C21.322 80.479 21.6069 82.9405 21.5604 85.3827C21.5352 86.7142 21.8899 87.0437 23.2311 87.0437H51.781Z" stroke="#D7F9FF" stroke-width="0.0744029" stroke-miterlimit="10"/>
<path d="M51.781 87.0447H23.2311C21.8899 87.0447 21.5352 86.7152 21.5604 85.3837C21.6069 82.9415 21.322 80.48 21.696 78.0572C22.5295 72.6748 25.6132 69.1104 30.7863 67.4648C34.4689 66.3019 38.2038 65.2998 41.9213 64.2532C42.3477 64.133 42.5028 63.9857 42.4912 63.5322C42.4543 62.4681 42.6637 61.3575 42.4272 60.3477C42.1907 59.3379 41.022 58.9153 40.3223 58.1749C38.1728 55.8995 36.5215 53.3604 35.8295 50.2709C35.7132 49.7417 35.4109 49.8522 35.0949 49.8483C32.9629 49.8173 31.3077 48.6021 30.9762 46.5941C30.6952 44.8948 30.6952 43.1609 30.9762 41.4616C31.296 39.5234 32.9261 38.2539 34.8856 38.2364C35.3934 38.2364 35.5136 38.1124 35.5194 37.6026C35.5446 35.1605 35.3721 32.7125 35.6473 30.2742C35.7656 29.2179 35.752 29.2257 34.7228 28.9466C31.8794 28.1713 29.0399 27.396 26.1946 26.6343C25.5744 26.4695 25.0996 26.1923 25.0569 25.5081C25.0123 24.7891 25.4736 24.4634 26.1113 24.2347C34.456 21.2072 42.7968 18.1707 51.1337 15.1251C51.5634 14.9557 52.0426 14.9627 52.4672 15.1445C60.0353 18.1797 67.6072 21.2118 75.1831 24.2406C75.7122 24.4518 76.1425 24.7348 76.1813 25.3492C76.222 25.9985 75.8634 26.4017 75.2664 26.5742C74.9873 26.6556 75.0319 26.8378 75.0319 27.0219C75.0319 28.7663 75.0435 30.5107 75.0203 32.2551C75.0203 32.6137 75.2296 32.6834 75.4622 32.8114C76.9662 33.6332 77.6543 35.1876 77.2279 36.7905C77.0239 37.5478 76.5707 38.2143 75.9414 38.6824C75.3121 39.1505 74.5435 39.3929 73.7595 39.3705C72.9756 39.3481 72.222 39.0622 71.6205 38.5589C71.019 38.0557 70.6045 37.3644 70.4441 36.5967C70.2874 35.8699 70.3731 35.1118 70.6881 34.4383C71.0031 33.7648 71.5302 33.2131 72.1885 32.8676C72.6033 32.6505 72.7099 32.416 72.7002 31.9818C72.6731 30.6251 72.677 29.2683 72.7002 27.9115C72.7002 27.5006 72.6401 27.3514 72.1943 27.4929C70.8376 27.9251 69.4711 28.3302 68.1066 28.7353C67.8644 28.8089 67.6512 28.8341 67.719 29.1966C68.2656 32.0051 67.9807 34.8465 68.0233 37.6744C68.0233 38.1957 68.2171 38.2306 68.6474 38.2384C69.1811 38.2391 69.7093 38.3455 70.2017 38.5513C70.6941 38.7571 71.1409 39.0583 71.5163 39.4375C71.8918 39.8168 72.1885 40.2666 72.3894 40.761C72.5902 41.2554 72.6912 41.7847 72.6866 42.3183C72.7022 43.4328 72.6963 44.5473 72.6866 45.6598C72.6673 48.0807 70.9423 49.8483 68.5292 49.8348C67.9477 49.8348 67.7733 50.0286 67.6415 50.55C66.7092 54.3179 64.4744 57.2368 61.5477 59.6751C61.1969 59.9658 61.0322 60.2353 61.0515 60.6985C61.0903 61.6405 61.0922 62.5883 61.0515 63.5302C61.0322 63.9877 61.2027 64.1388 61.6194 64.2571C65.3117 65.3037 68.9963 66.3891 72.6866 67.4377C75.3482 68.195 77.693 69.7939 79.3701 71.9951C81.0472 74.1963 81.9664 76.8813 81.9901 79.6485C82.0056 81.61 81.9901 83.5714 81.9901 85.5329C81.9901 86.6668 81.6024 87.0525 80.4628 87.0525L51.781 87.0447ZM51.781 38.2209C47.3231 38.2209 42.8769 38.2209 38.4229 38.2209C37.9519 38.2209 37.8259 38.3372 37.8298 38.8024C37.853 41.7097 37.8298 44.6171 37.8414 47.5244C37.8278 48.9024 38.099 50.2683 38.638 51.5365C40.7138 56.2948 44.3577 59.3359 49.1916 61.0338C50.6134 61.5437 52.1553 61.6159 53.6185 61.2412C57.1635 60.3419 60.0146 58.3513 62.3986 55.6397C64.6702 53.0503 65.8525 50.0557 65.744 46.5572C65.6664 44.0375 65.6994 41.5179 65.744 39.0079C65.7575 38.312 65.5288 38.2074 64.9066 38.2113C60.5321 38.2345 56.1517 38.2209 51.7714 38.2209H51.781ZM41.3147 84.7189C44.222 84.7189 47.1293 84.7189 50.0366 84.7286C50.4805 84.7286 50.6704 84.6588 50.6472 84.1471C50.6026 83.1082 50.6278 82.0654 50.6472 81.0246C50.6595 80.895 50.6389 80.7644 50.5874 80.6448C50.536 80.5252 50.4552 80.4206 50.3526 80.3404C45.7538 76.4317 41.1706 72.5158 36.6029 68.5929C36.5054 68.4903 36.3794 68.4193 36.2412 68.3892C36.1029 68.3592 35.9588 68.3714 35.8276 68.4242C34.2576 68.901 32.6528 69.2693 31.1061 69.8081C27.4041 71.097 25.0395 73.6594 24.146 77.4971C23.6129 79.788 23.9696 82.1275 23.8746 84.4417C23.8591 84.808 24.1169 84.7266 24.3165 84.7266C25.964 84.7266 27.6115 84.7266 29.2551 84.7363C29.6117 84.7363 29.7009 84.6278 29.6951 84.2866C29.6737 83.3175 29.6776 82.3484 29.6951 81.3793C29.7067 80.5827 30.1661 80.0807 30.858 80.0788C31.5499 80.0768 32.0093 80.5808 32.0209 81.3754C32.0345 82.269 32.0578 83.1683 32.0209 84.0599C31.9938 84.5871 32.1178 84.7479 32.6799 84.7402C35.5524 84.7014 38.4248 84.7189 41.305 84.7189H41.3147ZM61.6349 84.7189C64.3698 84.7189 67.1046 84.7092 69.8394 84.7305C70.2833 84.7305 70.4209 84.6336 70.4015 84.1762C70.3608 83.2574 70.3821 82.3368 70.3918 81.4161C70.3918 80.5769 70.8667 80.0594 71.578 80.073C72.2583 80.0885 72.7022 80.5924 72.7118 81.3968C72.7235 82.2922 72.7429 83.1896 72.7118 84.0831C72.6905 84.5677 72.7874 84.7441 73.3243 84.7344C75.2625 84.6975 77.2008 84.7072 79.139 84.7344C79.5538 84.7344 79.7204 84.6801 79.7204 84.1975C79.6836 82.6721 79.7204 81.1467 79.7011 79.6233C79.6824 77.3942 78.9479 75.2301 77.6057 73.4502C76.2635 71.6704 74.3848 70.3691 72.2467 69.7384C70.793 69.2945 69.3258 68.8972 67.8741 68.4456C67.7105 68.3791 67.5307 68.3631 67.358 68.3997C67.1853 68.4364 67.0275 68.5239 66.9049 68.651C62.3954 72.5352 57.8761 76.4116 53.3471 80.2803C53.2153 80.3796 53.1107 80.5105 53.043 80.6609C52.9752 80.8113 52.9465 80.9764 52.9595 81.1409C52.9827 82.1333 53.0002 83.1256 52.9595 84.1161C52.9343 84.6336 53.0893 84.7499 53.5933 84.746C56.2506 84.7053 58.9389 84.7189 61.6252 84.7189H61.6349ZM30.1467 25.2426C30.2727 25.3076 30.4021 25.3658 30.5343 25.4171C37.4499 27.3049 44.3628 29.1927 51.2732 31.0805C51.6227 31.1699 51.9908 31.1544 52.3315 31.036C58.4408 29.1972 64.5448 27.363 70.6438 25.5333C70.8686 25.4655 71.1807 25.5081 71.3202 25.2C64.9486 22.6531 58.5868 20.1076 52.2346 17.5634C52.0817 17.4969 51.9168 17.4626 51.75 17.4626C51.5833 17.4626 51.4184 17.4969 51.2655 17.5634C49.9087 18.0751 48.552 18.5538 47.1952 19.0481L30.1467 25.2426ZM38.9966 67.5172C39.1439 67.6703 39.2292 67.7769 39.3319 67.8641C43.3556 71.3141 47.3774 74.7674 51.3973 78.2239C51.7675 78.5418 51.9419 78.408 52.2268 78.1638C56.1898 74.7551 60.1567 71.3497 64.1275 67.9474C64.2632 67.8311 64.4744 67.7536 64.4725 67.4764C63.2088 67.1159 61.9334 66.7748 60.6755 66.3775C60.51 66.3144 60.3306 66.2969 60.156 66.3269C59.9814 66.3569 59.8181 66.4333 59.6832 66.548C57.3689 68.2188 55.0469 69.8773 52.7172 71.5235C51.907 72.1049 51.6415 72.0914 50.8313 71.5138C48.5055 69.8585 46.1796 68.202 43.8537 66.5442C43.6425 66.391 43.4661 66.203 43.1444 66.3C41.7954 66.7089 40.4367 67.0966 38.9966 67.5172ZM51.721 35.8951H65.2226C65.4765 35.8951 65.7498 35.9765 65.7362 35.5307C65.6877 33.7669 65.8215 31.9993 65.5734 30.2393C65.5017 29.7354 65.4067 29.5125 64.7981 29.7025C60.7666 30.9487 56.7177 32.1427 52.6804 33.3715C52.1066 33.553 51.4916 33.5584 50.9147 33.387C46.8173 32.2512 42.7238 31.1561 38.6244 30.0223C38.1089 29.8788 38.0216 30.0223 37.9577 30.4894C37.7484 32.0574 37.8879 33.6312 37.8201 35.1993C37.7968 35.7458 37.9209 35.9203 38.5101 35.9164C42.9176 35.8834 47.3173 35.8951 51.721 35.8951ZM58.7547 61.5901C54.0778 64.4838 49.4513 64.4509 44.7996 61.5901C44.7996 62.47 44.8209 63.1697 44.7996 63.8694C44.7834 64.0222 44.8113 64.1764 44.88 64.3137C44.9487 64.4511 45.0553 64.566 45.1872 64.6447C47.2547 66.1087 49.3221 67.5824 51.3895 69.0658C51.6551 69.2596 51.8353 69.3139 52.1357 69.0949C54.2116 67.5908 56.3048 66.1119 58.3904 64.6234C58.5842 64.4858 58.778 64.3617 58.7586 64.0574C58.7392 63.2938 58.7547 62.5282 58.7547 61.5901ZM35.5058 44.1073V41.5004C35.5058 40.4945 35.1744 40.2755 34.2402 40.698C33.9232 40.825 33.6525 41.0459 33.4644 41.3309C33.2763 41.616 33.1798 41.9517 33.1877 42.2931C33.1722 43.4561 33.1625 44.619 33.1877 45.7684C33.211 46.8073 33.963 47.4876 35.0077 47.5302C35.438 47.5477 35.5233 47.3965 35.5117 47.005C35.4884 46.0397 35.5058 45.0725 35.5058 44.1073ZM68.0543 44.0375V46.5727C68.0543 47.5729 68.3916 47.7919 69.3258 47.3655C69.642 47.2368 69.9116 47.0149 70.0985 46.7292C70.2855 46.4436 70.381 46.1077 70.3724 45.7664C70.3879 44.6035 70.3976 43.4406 70.3724 42.2912C70.3492 41.2775 69.6223 40.5991 68.628 40.5468C68.2152 40.5216 68.0311 40.5894 68.0466 41.074C68.0853 42.0567 68.0543 43.0471 68.0543 44.0375ZM75.0319 35.8776C75.0283 35.6468 74.9561 35.4222 74.8244 35.2326C74.6928 35.0429 74.5076 34.8967 74.2926 34.8126C74.0776 34.7286 73.8424 34.7104 73.617 34.7604C73.3916 34.8105 73.1862 34.9265 73.027 35.0937C72.8677 35.2609 72.7619 35.4717 72.7229 35.6992C72.6839 35.9268 72.7135 36.1608 72.808 36.3715C72.9024 36.5822 73.0574 36.76 73.2533 36.8822C73.4492 37.0045 73.677 37.0657 73.9077 37.058C74.2117 37.0469 74.4993 36.9171 74.7087 36.6964C74.9182 36.4758 75.0328 36.1818 75.028 35.8776H75.0319Z" fill="#35BBE3" stroke="#D7F9FF" stroke-width="0.0744029" stroke-miterlimit="10"/>
<path d="M51.7735 38.2201C56.1539 38.2201 60.5343 38.2337 64.9147 38.2065C65.5368 38.2065 65.7655 38.3073 65.752 39.0032C65.7016 41.5228 65.6686 44.0425 65.752 46.5525C65.8605 50.051 64.6782 53.0456 62.4066 55.635C60.0265 58.3485 57.1734 60.3371 53.6265 61.2365C52.1618 61.6136 50.6177 61.5427 49.1938 61.033C44.3599 59.3409 40.716 56.2998 38.6402 51.5357C38.0963 50.2646 37.8218 48.8945 37.8339 47.5119C37.8339 44.6046 37.8455 41.6973 37.8223 38.7996C37.8223 38.3248 37.9444 38.2046 38.4154 38.2182C42.8694 38.2279 47.3215 38.2201 51.7735 38.2201ZM51.7852 51.0124C49.9458 51.0124 48.1026 51.0124 46.269 51.0124C45.1759 51.0124 44.7184 51.5066 44.827 52.5901C44.8957 53.3399 45.1243 54.0662 45.4974 54.7202C45.8705 55.3742 46.3795 55.9406 46.99 56.3812C49.1725 58.0249 51.6146 58.4067 54.1963 57.6081C56.5726 56.8735 58.2453 55.3831 58.7104 52.8188C58.9333 51.5841 58.4468 51.0162 57.2258 51.0143C55.4129 51.0078 53.5993 51.0053 51.7852 51.0066V51.0124ZM47.1335 44.0348C47.1334 43.5762 46.9978 43.1278 46.7437 42.7461C46.4895 42.3643 46.1282 42.0663 45.7051 41.8893C45.282 41.7123 44.8161 41.6644 44.3658 41.7515C43.9156 41.8386 43.5011 42.0569 43.1746 42.3788C42.848 42.7008 42.6239 43.1122 42.5305 43.5612C42.4371 44.0101 42.4785 44.4767 42.6495 44.9022C42.8205 45.3278 43.1134 45.6933 43.4916 45.9527C43.8697 46.2122 44.3161 46.3541 44.7746 46.3606C45.0824 46.3627 45.3876 46.304 45.6727 46.188C45.9578 46.072 46.2173 45.9009 46.4362 45.6845C46.6551 45.4681 46.8292 45.2107 46.9485 44.9269C47.0678 44.6432 47.13 44.3387 47.1315 44.0309L47.1335 44.0348ZM56.4369 43.996C56.4291 44.4546 56.557 44.9052 56.8046 45.2913C57.0522 45.6773 57.4084 45.9815 57.8285 46.1657C58.2485 46.3499 58.7136 46.4057 59.1653 46.3263C59.617 46.2469 60.0351 46.0357 60.3671 45.7192C60.6991 45.4028 60.9301 44.9953 61.0312 44.5479C61.1322 44.1006 61.0987 43.6333 60.9349 43.2049C60.7711 42.7765 60.4843 42.4062 60.1106 42.1403C59.7369 41.8745 59.2929 41.7251 58.8345 41.7108C58.2136 41.6952 57.6119 41.9267 57.1616 42.3545C56.7113 42.7822 56.4493 43.3713 56.433 43.9921L56.4369 43.996Z" stroke="#D7F9FF" stroke-width="0.0744029" stroke-miterlimit="10"/>
<path d="M41.3079 84.7173C38.4277 84.7173 35.5476 84.6998 32.6674 84.7328C32.1053 84.7328 31.9812 84.5797 32.0084 84.0525C32.0549 83.1609 32.0316 82.2616 32.0084 81.368C31.9967 80.5734 31.5316 80.0694 30.8454 80.0714C30.1593 80.0733 29.7 80.5753 29.6825 81.3719C29.6709 82.341 29.667 83.3101 29.6825 84.2792C29.6825 84.6204 29.5992 84.7328 29.2425 84.7289C27.597 84.7115 25.9476 84.7289 24.304 84.7192C24.1101 84.7192 23.8465 84.8006 23.862 84.4343C23.957 82.1201 23.6004 79.7826 24.1334 77.4897C25.0269 73.652 27.3915 71.0935 31.0935 69.8007C32.6441 69.2619 34.2451 68.8936 35.815 68.4168C35.9463 68.364 36.0904 68.3518 36.2286 68.3818C36.3669 68.4119 36.4929 68.4829 36.5903 68.5855C41.158 72.5149 45.7329 76.4359 50.3148 80.3485C50.4174 80.4287 50.4982 80.5333 50.5497 80.6529C50.6012 80.7725 50.6217 80.9031 50.6094 81.0327C50.5978 82.0735 50.5726 83.1163 50.6094 84.1552C50.6327 84.6611 50.4428 84.7367 49.9989 84.7367C47.1187 84.7095 44.2133 84.7173 41.3079 84.7173Z" stroke="#D7F9FF" stroke-width="0.0744029" stroke-miterlimit="10"/>
<path d="M61.6256 84.7176C58.9392 84.7176 56.2509 84.7041 53.5646 84.7312C53.0606 84.7312 52.9056 84.6188 52.9308 84.1013C52.9754 83.1108 52.9579 82.1185 52.9308 81.1261C52.9178 80.9616 52.9465 80.7965 53.0143 80.6461C53.082 80.4957 53.1866 80.3648 53.3184 80.2655C57.8409 76.4033 62.3602 72.5269 66.8762 68.6362C66.9988 68.5091 67.1566 68.4216 67.3293 68.3849C67.502 68.3483 67.6818 68.3643 67.8454 68.4308C69.2971 68.8824 70.7643 69.2797 72.218 69.7235C74.356 70.3543 76.2348 71.6556 77.577 73.4354C78.9192 75.2153 79.6537 77.3794 79.6724 79.6085C79.6976 81.1319 79.6549 82.6573 79.6917 84.1827C79.7034 84.6653 79.5309 84.7234 79.1103 84.7196C77.1721 84.6982 75.2338 84.6885 73.2956 84.7196C72.7587 84.7293 72.6618 84.5529 72.6831 84.0683C72.7219 83.1748 72.7025 82.2774 72.6831 81.3819C72.6735 80.5776 72.2296 80.0736 71.5493 80.0581C70.838 80.0426 70.3709 80.5621 70.3631 81.4013C70.3631 82.322 70.3321 83.2426 70.3728 84.1614C70.3922 84.6188 70.2546 84.7196 69.8107 84.7157C67.0953 84.7079 64.3604 84.7176 61.6256 84.7176Z" stroke="#D7F9FF" stroke-width="0.0744029" stroke-miterlimit="10"/>
<path d="M30.1465 25.2428L47.1892 19.0405C48.546 18.5463 49.9144 18.0714 51.2595 17.5559C51.4124 17.4894 51.5773 17.4551 51.744 17.4551C51.9108 17.4551 52.0757 17.4894 52.2286 17.5559C58.5846 20.1066 64.9465 22.6521 71.3142 25.1925C71.1747 25.5006 70.8626 25.458 70.6378 25.5258C64.5466 27.3736 58.449 29.2104 52.3449 31.0362C52.0041 31.1546 51.6361 31.1701 51.2866 31.0808C44.3736 29.1878 37.4607 27.2999 30.5477 25.4173C30.4109 25.3665 30.277 25.3082 30.1465 25.2428V25.2428Z" stroke="#D7F9FF" stroke-width="0.0744029" stroke-miterlimit="10"/>
<path d="M38.9961 67.5162C40.4362 67.0956 41.7949 66.708 43.1497 66.299C43.4676 66.2021 43.6478 66.3901 43.8591 66.5432C46.1849 68.1998 48.5108 69.8563 50.8367 71.5129C51.6468 72.0943 51.9124 72.0943 52.7225 71.5225C55.0484 69.8712 57.3704 68.2127 59.6885 66.5471C59.8234 66.4324 59.9868 66.356 60.1613 66.326C60.3359 66.296 60.5153 66.3135 60.6809 66.3766C61.9388 66.7739 63.2141 67.115 64.4778 67.4755C64.4778 67.7585 64.2685 67.8302 64.1328 67.9465C60.1634 71.3487 56.1926 74.7542 52.2205 78.1629C51.9356 78.4071 51.7612 78.5408 51.391 78.223C47.3853 74.7561 43.3635 71.3029 39.3256 67.8632C39.2345 67.776 39.1434 67.6694 38.9961 67.5162Z" stroke="#D7F9FF" stroke-width="0.0744029" stroke-miterlimit="10"/>
<path d="M51.7139 35.8933C47.3103 35.8933 42.9067 35.8817 38.5031 35.9088C37.9216 35.9088 37.7898 35.7383 37.8131 35.1917C37.8809 33.6237 37.7413 32.0498 37.9507 30.4818C38.0146 30.0127 38.1018 29.8713 38.6174 30.0147C42.707 31.1544 46.8103 32.2495 50.8999 33.3853C51.4768 33.5566 52.0918 33.5512 52.6656 33.3697C56.7029 32.1409 60.7518 30.947 64.7833 29.7007C65.3997 29.5069 65.4947 29.7336 65.5586 30.2376C65.8067 31.9975 65.673 33.7651 65.7214 35.5289C65.735 35.9747 65.4617 35.8933 65.2078 35.8933H51.7139V35.8933Z" stroke="#D7F9FF" stroke-width="0.0744029" stroke-miterlimit="10"/>
<path d="M58.7506 61.5894C58.7506 62.5275 58.7351 63.2931 58.7506 64.0586C58.7603 64.363 58.5742 64.487 58.3823 64.6246C56.2968 66.1132 54.2035 67.592 52.1277 69.0961C51.8273 69.3151 51.647 69.2589 51.3815 69.067C49.3218 67.5849 47.2544 66.1112 45.1792 64.6459C45.0473 64.5672 44.9407 64.4524 44.872 64.315C44.8033 64.1776 44.7754 64.0234 44.7916 63.8706C44.8226 63.1709 44.7916 62.4712 44.7916 61.5913C49.453 64.4502 54.0737 64.4831 58.7506 61.5894Z" stroke="#D7F9FF" stroke-width="0.0744029" stroke-miterlimit="10"/>
<path d="M35.5029 44.1073C35.5029 45.0764 35.4855 46.0456 35.5029 47.0147C35.5146 47.4023 35.4293 47.5574 34.999 47.5399C33.9601 47.4973 33.2023 46.817 33.179 45.7781C33.1519 44.6152 33.1616 43.4522 33.179 42.3029C33.1711 41.9614 33.2676 41.6257 33.4557 41.3406C33.6438 41.0556 33.9145 40.8347 34.2315 40.7077C35.1657 40.2852 35.4971 40.5042 35.4971 41.5101L35.5029 44.1073Z" stroke="#D7F9FF" stroke-width="0.0744029" stroke-miterlimit="10"/>
<path d="M68.0546 44.0362C68.0546 43.0458 68.0856 42.0554 68.043 41.0669C68.0197 40.5823 68.2038 40.5145 68.6244 40.5397C69.6284 40.5978 70.3553 41.2762 70.3688 42.2841C70.396 43.447 70.3863 44.6002 70.3688 45.7593C70.3775 46.1006 70.2819 46.4364 70.095 46.7221C69.908 47.0077 69.6384 47.2297 69.3222 47.3583C68.388 47.7847 68.0507 47.5657 68.0507 46.5656L68.0546 44.0362Z" stroke="#D7F9FF" stroke-width="0.0744029" stroke-miterlimit="10"/>
<path d="M75.0269 35.8769C75.0307 36.1077 74.9658 36.3345 74.8404 36.5282C74.7149 36.722 74.5347 36.8741 74.3226 36.9651C74.1104 37.0561 73.876 37.0819 73.6492 37.0392C73.4223 36.9966 73.2133 36.8874 73.0487 36.7255C72.8841 36.5637 72.7714 36.3565 72.725 36.1304C72.6785 35.9043 72.7004 35.6695 72.7878 35.4559C72.8752 35.2423 73.0242 35.0595 73.2159 34.9308C73.4075 34.8022 73.6331 34.7334 73.8639 34.7334C74.169 34.7334 74.4619 34.8532 74.6795 35.0671C74.897 35.2811 75.0218 35.5719 75.0269 35.8769Z" fill="#F2F2F2" stroke="#D7F9FF" stroke-width="0.0744029" stroke-miterlimit="10"/>
<path d="M51.7852 51.0076C53.5942 51.0076 55.409 51.0076 57.2297 51.0076C58.4507 51.0076 58.9372 51.5775 58.7143 52.8121C58.2492 55.3764 56.5823 56.8669 54.2002 57.6014C51.6185 58.4 49.1764 58.0182 46.9939 56.3745C46.3832 55.9347 45.8737 55.3691 45.4999 54.7158C45.1261 54.0625 44.8967 53.3367 44.827 52.5873C44.7146 51.5038 45.1759 51.0115 46.269 51.0096C48.1084 51.0037 49.9458 51.0076 51.7852 51.0076ZM56.1733 53.3645H47.3952C48.4495 55.0488 49.9885 55.6438 51.7813 55.6438C53.5742 55.6438 55.1131 55.0488 56.1733 53.3645Z" fill="#35BBE3" stroke="#D7F9FF" stroke-width="0.0744029" stroke-miterlimit="10"/>
<path d="M47.1302 44.0312C47.1302 44.4927 46.9929 44.9437 46.7357 45.3269C46.4786 45.7101 46.1132 46.0082 45.6862 46.1832C45.2592 46.3581 44.7897 46.4021 44.3376 46.3095C43.8855 46.2169 43.4712 45.9919 43.1474 45.6631C42.8235 45.3343 42.6048 44.9166 42.519 44.4632C42.4333 44.0097 42.4843 43.541 42.6657 43.1167C42.8471 42.6924 43.1507 42.3316 43.5377 42.0802C43.9248 41.8289 44.3778 41.6984 44.8393 41.7053C45.4489 41.718 46.0296 41.9681 46.4575 42.4026C46.8855 42.837 47.1268 43.4214 47.1302 44.0312Z" fill="#35BBE3" stroke="#D7F9FF" stroke-width="0.0744029" stroke-miterlimit="10"/>
<path d="M56.43 43.991C56.438 43.5295 56.583 43.0809 56.8467 42.7021C57.1104 42.3233 57.4808 42.0316 57.9108 41.8639C58.3408 41.6963 58.8109 41.6604 59.2614 41.7607C59.7118 41.8611 60.1223 42.0932 60.4404 42.4276C60.7586 42.7619 60.9701 43.1833 61.048 43.6382C61.1259 44.0931 61.0668 44.5609 60.8781 44.982C60.6893 45.4032 60.3796 45.7587 59.9882 46.0033C59.5969 46.2479 59.1416 46.3705 58.6803 46.3556C58.0699 46.3358 57.4917 46.0768 57.0707 45.6343C56.6496 45.1919 56.4195 44.6016 56.43 43.991Z" fill="#35BBE3" stroke="#D7F9FF" stroke-width="0.0744029" stroke-miterlimit="10"/>
<path d="M56.1766 53.3628C55.1164 55.0471 53.5775 55.6421 51.7846 55.6421C49.9918 55.6421 48.4528 55.0471 47.3984 53.3628H56.1766Z" stroke="#D7F9FF" stroke-width="0.0744029" stroke-miterlimit="10"/>
</svg>
