<svg width="82" height="82" viewBox="0 0 82 82" fill="none" xmlns="http://www.w3.org/2000/svg">
<circle cx="41" cy="41" r="40.5" fill="#F8F5FF" stroke="#DFDFDF" stroke-dasharray="4 4"/>
<g clip-path="url(#clip0_5284_7351)">
<path d="M19.2914 57.2217C19.9893 53.0689 20.6859 48.9162 21.3838 44.7634C21.6099 43.4176 21.8289 42.069 22.0663 40.7246C22.1379 40.321 22.0901 40.096 21.5958 40.1452C21.1605 40.1888 20.7308 40.0692 20.4317 40.5966C20.2253 40.9594 19.7633 40.9468 19.3925 40.7274C19.0443 40.5221 18.8912 40.2 18.9684 39.7908C19.1061 39.0609 19.6818 38.5055 20.4134 38.3789C20.9527 38.2861 21.4961 38.3283 22.0382 38.3325C22.3232 38.3339 22.4805 38.2875 22.5184 37.9514C22.6476 36.8137 23.2473 36.1218 24.4395 36.0445C24.7442 36.0248 24.7807 35.8912 24.7063 35.6001C24.2176 33.6763 24.476 31.8467 25.4674 30.1282C25.6092 29.8835 25.6457 29.6543 25.6205 29.3829C25.4772 27.8093 26.1316 26.6294 27.4587 25.825C27.7269 25.6619 27.8392 25.4959 27.8954 25.1936C28.3869 22.5835 30.6056 21.0633 33.2246 21.5358C33.4942 21.5851 33.6375 21.4852 33.806 21.3052C35.9306 19.0439 38.7251 18.5714 41.4887 20.0114C41.7092 20.1267 41.8496 20.1099 42.049 19.9735C43.8676 18.7275 45.7746 18.9708 47.1816 20.6344C47.3431 20.8257 47.5131 20.8524 47.7265 20.8608C49.8708 20.9508 51.7034 21.7454 53.1737 23.3232C54.0626 24.2753 54.6734 25.3876 54.9669 26.6631C55.0357 26.9627 55.1635 27.1244 55.4725 27.2299C57.3331 27.8641 58.3288 29.7035 57.8569 31.6245C57.7895 31.8987 57.7853 32.1181 57.9201 32.3713C58.4748 33.4091 58.6391 34.5229 58.472 35.6816C58.4383 35.9165 58.4439 36.0473 58.7177 36.0726C59.7906 36.1738 60.3439 36.8235 60.4661 37.8445C60.5166 38.2664 60.6978 38.355 61.0727 38.3353C61.4912 38.3128 61.9139 38.3184 62.3309 38.3592C63.3266 38.4548 63.8883 38.9723 64.0792 39.9469C64.405 41.6133 64.7196 43.2812 65.044 44.9476C65.9989 49.8612 66.951 54.7748 67.9171 59.6855C68.3173 61.7176 67.1335 63.204 65.0679 63.2054C59.0969 63.2096 53.1273 63.2096 47.1564 63.2012C46.8025 63.2012 46.5483 63.2687 46.2998 63.5598C45.856 64.0773 45.2325 64.3529 44.5908 64.5414C42.4521 65.1728 40.312 65.163 38.1901 64.4711C37.554 64.2644 36.9515 63.9564 36.5359 63.4051C36.3449 63.152 36.1076 63.2096 35.8745 63.2096C29.8866 63.2068 23.8988 63.2096 17.911 63.2068C16.4323 63.2068 15.2977 62.3631 15.0449 61.0735C14.9031 60.3493 15.0955 59.6475 15.2331 58.9416C16.0082 54.9744 16.7792 51.0059 17.5459 47.0374C17.633 46.586 17.8268 46.2414 18.307 46.1472C18.6918 46.0713 18.9909 46.2288 19.2128 46.5396C19.4164 46.8236 19.3644 47.1471 19.3055 47.455C19.0555 48.7615 18.7887 50.0637 18.5331 51.3701C17.963 54.2896 17.3943 57.2104 16.8297 60.1313C16.6739 60.9357 17.0376 61.3843 17.8534 61.4082C18.1315 61.4166 18.4123 61.3913 18.6904 61.3815C20.999 61.3899 23.3076 61.4026 25.6163 61.4054C28.9584 61.4096 32.2992 61.4068 35.6413 61.4054C35.911 61.4054 36.2087 61.4855 36.2325 61.0327C36.2761 60.1946 36.3561 59.3592 36.4362 58.5239C36.4643 58.237 36.366 58.1273 36.0781 58.0781C34.9589 57.884 33.8312 57.7434 32.6994 57.6858C29.0581 57.5015 25.48 57.8826 21.9932 58.9992C20.4584 59.49 19.4515 58.8263 19.2844 57.2273L19.2914 57.2217ZM30.784 39.1903C31.3738 39.3127 31.9678 39.2663 32.5604 39.2311C32.7949 39.217 32.9002 39.1299 32.8707 38.8669C32.8286 38.4942 32.7415 38.2664 32.2978 38.1539C31.0297 37.829 30.1015 36.6435 30.0509 35.4144C30.0229 34.7254 30.3093 34.3232 30.8598 34.2824C31.4299 34.2402 31.7585 34.5636 31.8386 35.2555C31.8948 35.7435 32.1293 36.1106 32.5632 36.3426C32.889 36.517 33.1333 36.5324 33.2611 36.0867C33.3412 35.8068 33.49 35.5326 33.6585 35.2921C34.0292 34.7647 34.7623 34.7858 35.126 35.3104C35.383 35.6802 35.2945 36.0346 35.0923 36.3946C34.6064 37.2623 34.5053 38.1989 34.7384 39.1453C35.0951 40.591 36.0219 41.5458 37.4529 41.9382C38.9133 42.3376 40.1912 41.9269 41.2458 40.8652C41.5842 40.5249 41.9423 40.3688 42.372 40.5277C43.8718 41.0846 45.3786 41.079 46.9078 40.6796C47.3923 40.553 47.8417 40.8202 47.9849 41.2716C48.1281 41.7244 47.9091 42.1941 47.426 42.3699C47.1171 42.4824 46.7871 42.5499 46.4599 42.6006C46.0877 42.6582 46.0456 42.789 46.2927 43.0632C46.7899 43.6131 47.4218 43.9534 48.1029 44.1897C49.472 44.6636 50.7696 45.2303 51.7554 46.3638C52.0657 46.721 52.5277 46.7857 52.9504 46.5044C53.3689 46.226 53.4644 45.8125 53.3057 45.347C53.1933 45.0166 53.0445 44.6973 52.9265 44.3683C52.7931 43.9984 52.5895 43.907 52.2061 44.0631C51.8551 44.2065 51.4675 44.2754 51.0897 44.3359C50.5772 44.4189 50.1573 44.0982 50.0618 43.5892C49.9818 43.1687 50.2612 42.7117 50.726 42.5977C51.4436 42.422 52.1443 42.2166 52.7847 41.8384C53.3857 41.4826 53.9151 41.0494 54.3533 40.4166C54.2058 40.4166 54.137 40.4053 54.0724 40.418C52.4435 40.7218 50.9395 40.4391 49.6012 39.4336C49.3793 39.2677 49.1982 39.2522 48.9342 39.3183C47.5945 39.6544 46.2015 39.0778 45.533 37.9415C45.182 37.3439 45.2395 36.8671 45.7015 36.5549C46.1664 36.2413 46.627 36.3735 47.0328 36.9403C47.485 37.5703 48.2054 37.7756 48.8232 37.4507C49.4116 37.1414 49.6321 36.4593 49.3793 35.7238C49.1743 35.1219 49.3456 34.6733 49.8624 34.4666C50.3567 34.2669 50.8257 34.5018 51.0588 35.0868C51.4155 35.9826 51.3931 36.8714 50.9268 37.7222C50.792 37.9683 50.7654 38.1047 51.0476 38.2481C52.4561 38.9653 53.8267 38.8936 55.113 37.9922C56.3726 37.109 56.8711 35.849 56.6815 34.333C56.6015 33.6974 56.5636 33.696 56.0005 33.9857C55.6466 34.1671 55.3068 34.2121 54.9655 33.9674C54.6411 33.7339 54.5709 33.4021 54.6229 33.0336C54.6791 32.6342 55.0133 32.4823 55.304 32.2897C56.5243 31.4783 56.4386 29.7092 55.1481 29.044C54.4796 28.7009 53.8351 28.7909 53.2032 29.1691C52.6625 29.4926 52.1584 29.3942 51.8747 28.9371C51.5911 28.4801 51.7315 27.9865 52.2539 27.6377C52.4126 27.5308 52.5755 27.4043 52.7552 27.3593C53.2046 27.2439 53.2172 26.995 53.0754 26.6181C52.3086 24.572 50.8805 23.2979 48.746 22.8113C48.2994 22.7101 47.961 22.6046 47.8585 23.2585C47.8023 23.6129 47.4246 23.7915 47.0328 23.7718C46.6452 23.7521 46.3658 23.5553 46.2394 23.1896C46.172 22.9942 46.1621 22.779 46.1341 22.5709C46.0119 21.6877 45.2269 21.0324 44.2889 21.031C43.3368 21.031 42.5672 21.668 42.4408 22.561C42.4142 22.7509 42.4057 22.9477 42.3524 23.1306C42.2288 23.5482 41.9339 23.7746 41.4986 23.7704C41.0394 23.7648 40.7557 23.5173 40.6335 23.0729C40.5409 22.734 40.6209 22.3979 40.7122 22.0899C40.8133 21.7496 40.6939 21.6174 40.4229 21.481C39.5129 21.0183 38.5538 20.8805 37.568 21.1013C35.8969 21.474 34.7791 22.4865 34.2455 24.129C34.0419 24.7548 33.5785 25.0501 33.0729 24.8955C32.5688 24.7408 32.3694 24.2893 32.5154 23.6579C32.5463 23.5257 32.7022 23.3654 32.4649 23.2628C31.2727 23.2009 30.1619 23.9082 29.7912 24.9742C29.7238 25.1669 29.6002 25.3989 29.9555 25.4439C30.4891 25.5114 30.9384 25.7884 31.4089 26.0163C31.6083 26.2103 31.8161 26.3974 32.0043 26.6013C32.4761 27.1103 32.4986 27.6419 32.0745 28.0272C31.656 28.4083 31.1912 28.3423 30.7081 27.8444C30.4821 27.611 30.2827 27.3255 29.9007 27.341C29.7855 27.1821 29.6114 27.1652 29.4387 27.1483C28.6677 27.0738 27.9024 27.5097 27.564 28.2171C27.2298 28.9132 27.373 29.7963 27.9221 30.3448C28.1299 30.5529 28.3644 30.7343 28.5863 30.9284C28.8068 31.595 28.7253 31.8551 28.165 32.2798C27.7859 32.3516 27.4474 32.2841 27.1315 32.0394C26.6681 31.6808 26.6512 31.6948 26.4897 32.2503C25.5671 35.4102 27.5401 38.6039 30.7812 39.2002L30.784 39.1903ZM59.8496 56.7365C60.4169 56.9081 60.987 57.0712 61.5502 57.2554C61.7945 57.3356 61.9012 57.3483 61.8465 57.022C61.4912 54.9351 61.1527 52.8453 60.8059 50.7584C60.1192 46.6338 59.4297 42.5106 58.7444 38.3859C58.7009 38.1258 58.7135 37.8726 58.3358 37.829C58.0156 37.7925 57.7628 37.7123 57.5283 38.0681C57.2685 38.4619 57.1225 38.8739 57.0368 39.3225C56.499 40.7246 55.6915 41.934 54.4951 42.8565C54.2845 43.0196 54.3238 43.1532 54.4249 43.3445C54.6889 43.8395 54.9009 44.3584 55.0638 44.8956C55.4275 46.0994 54.9431 47.4016 53.8913 48.0597C52.8563 48.7066 51.4464 48.6335 50.5968 47.7349C49.7571 46.8461 48.7544 46.3342 47.631 45.9377C46.4683 45.527 45.2395 45.0166 44.6989 43.8634C44.2341 42.8692 43.5727 42.564 42.615 42.4684C42.365 42.4431 42.1993 42.4613 42.0041 42.6118C39.1885 44.769 35.6189 44.1672 33.6571 41.1985C33.5083 40.9735 33.3847 40.92 33.1109 40.965C30.2405 41.4376 27.8519 40.5544 26.0446 38.2734C25.6359 37.7587 25.261 37.7081 24.7147 37.8192C24.4549 37.8726 24.3173 37.9542 24.2794 38.2326C24.1867 38.9091 24.0688 39.5813 23.9564 40.2549C23.2739 44.364 22.5915 48.4718 21.909 52.581C21.6492 54.1475 21.3908 55.7127 21.131 57.2765C21.2012 57.2962 21.2363 57.3187 21.263 57.3117C21.4315 57.2667 21.5986 57.2175 21.7657 57.1654C27.8448 55.3063 33.9211 55.319 39.9974 57.1781C40.5928 57.3609 40.5928 57.3665 40.5928 56.7126C40.5928 53.3291 40.5928 49.9442 40.5928 46.5606C40.5928 45.6733 40.8989 45.2317 41.5098 45.2359C42.1164 45.2387 42.4184 45.6803 42.4184 46.5691C42.4184 50.006 42.424 53.443 42.4113 56.88C42.4099 57.2709 42.4914 57.3609 42.8762 57.2315C44.4377 56.7098 46.0414 56.3568 47.6703 56.1178C50.139 55.7563 52.612 55.6804 55.0989 55.9279C56.704 56.0882 58.2782 56.399 59.8496 56.7393V56.7365ZM56.2827 61.3519C56.2827 61.3421 56.2827 61.3337 56.2827 61.3238C59.2415 61.3238 62.2003 61.3041 65.1591 61.3365C65.9301 61.3449 66.3134 60.8499 66.1562 60.1678C65.8571 58.8642 65.6717 57.5381 65.3838 56.2359C64.8628 53.8719 64.4444 51.4883 63.9711 49.1145C63.3968 46.233 62.8463 43.3473 62.2888 40.463C62.2691 40.3618 62.2916 40.2197 62.1582 40.2141C61.7917 40.2 61.3859 40.1185 61.0699 40.2464C60.8157 40.3491 60.9477 40.7611 60.9898 41.0171C61.4982 44.1292 62.0248 47.2371 62.5458 50.3478C62.8997 52.4656 63.2297 54.5891 63.6088 56.7028C63.929 58.4916 62.7943 59.5336 61.0488 58.9908C56.4204 57.5522 51.7217 57.2653 46.9457 58.0655C46.6213 58.1203 46.5385 58.23 46.5708 58.5337C46.648 59.265 46.7309 59.9963 46.7604 60.7304C46.7786 61.1846 46.9022 61.3674 47.4035 61.3632C50.3623 61.3393 53.3225 61.3505 56.2813 61.3505L56.2827 61.3519ZM41.4915 63.1857C41.9002 63.159 42.3215 63.1548 42.7371 63.0985C43.3789 63.0128 44.0136 62.8792 44.602 62.5937C44.8548 62.4713 45.1033 62.3406 45.0654 61.9777C44.9615 60.9511 44.8646 59.9232 44.7803 58.8938C44.7579 58.6237 44.6666 58.5844 44.4152 58.6505C43.6022 58.8656 42.8102 59.1413 42.0378 59.4661C41.6741 59.6194 41.3455 59.611 40.979 59.4675C40.2628 59.1905 39.5256 58.9641 38.8038 58.6997C38.4387 58.5647 38.2322 58.5591 38.2084 59.0527C38.1676 59.926 38.1058 60.8021 37.9724 61.6641C37.8882 62.2112 38.0876 62.4812 38.5538 62.6682C39.4947 63.0465 40.4861 63.1281 41.4915 63.1843V63.1857Z" fill="#6D28F9"/>
<path d="M19.2916 57.2216C19.4587 58.822 20.4655 59.4843 22.0004 58.9935C25.4872 57.877 29.0653 57.4958 32.7066 57.6801C33.837 57.7377 34.9646 57.8784 36.0852 58.0724C36.3731 58.1216 36.47 58.2313 36.4433 58.5182C36.3633 59.3535 36.2833 60.1903 36.2397 61.027C36.2158 61.4813 35.9167 61.3997 35.6485 61.3997C32.3064 61.4011 28.9656 61.4039 25.6234 61.3997C23.3148 61.3969 21.0062 61.3842 18.6976 61.3758C18.3816 59.9625 18.9784 58.6546 19.1666 57.299C19.1708 57.2666 19.2494 57.2455 19.293 57.2202L19.2916 57.2216Z" fill="#E6E1FF"/>
<path d="M33.0826 12.8145C33.3339 12.8229 33.5994 13.0212 33.7496 13.3742C34.0965 14.1926 34.4489 15.0097 34.7733 15.838C34.9798 16.3667 34.7565 16.8533 34.2706 17.0389C33.8016 17.2175 33.3396 17.0249 33.1177 16.5158C32.7708 15.7156 32.4338 14.9112 32.1221 14.097C31.8595 13.4107 32.2639 12.8032 33.0826 12.8159V12.8145Z" fill="#6D28F9"/>
<path d="M50.9732 13.8113C50.9493 13.8942 50.917 14.0489 50.858 14.1924C50.5477 14.9532 50.2402 15.714 49.9144 16.4677C49.677 17.0162 49.2235 17.2243 48.7376 17.0359C48.2391 16.8432 48.034 16.3398 48.2573 15.7786C48.5817 14.9672 48.9201 14.1614 49.2712 13.3626C49.465 12.9225 49.8357 12.734 50.3005 12.8508C50.7387 12.9605 50.9662 13.2755 50.9718 13.8113H50.9732Z" fill="#6D28F9"/>
<path d="M24.167 27.0937C24.1586 27.5184 23.5968 27.9487 22.9972 27.7322C22.1125 27.4129 21.2461 27.0374 20.3895 26.6493C19.9486 26.4496 19.7969 25.9645 19.9682 25.5412C20.1508 25.0912 20.61 24.8465 21.0776 25.0251C21.9567 25.3612 22.8259 25.7254 23.6853 26.1065C24.0069 26.2485 24.1824 26.5368 24.167 27.0937Z" fill="#6D28F9"/>
<path d="M63.1188 25.9081C63.0655 26.2653 62.8927 26.555 62.5361 26.7041C61.7314 27.0416 60.9296 27.3861 60.1179 27.7011C59.5744 27.9121 59.0872 27.7011 58.8976 27.2258C58.7066 26.7463 58.9144 26.2808 59.4593 26.0431C60.2429 25.7014 61.0293 25.3653 61.8255 25.0559C62.4841 24.8014 63.1399 25.2429 63.1188 25.9095V25.9081Z" fill="#6D28F9"/>
<path d="M57.7685 19.0551C57.7615 19.2337 57.732 19.4193 57.6141 19.5459C57.2321 19.9523 56.8586 20.3728 56.4317 20.7272C56.0806 21.0183 55.6748 20.9536 55.3405 20.6386C55.0021 20.3208 54.9375 19.9172 55.1889 19.5473C55.5119 19.072 55.9289 18.6557 56.398 18.3267C56.9653 17.9301 57.7559 18.3745 57.7699 19.0551H57.7685Z" fill="#6D28F9"/>
<path d="M26.223 18.182C26.3859 18.175 26.6078 18.2706 26.7903 18.4478C27.0908 18.7403 27.3956 19.0314 27.6792 19.3408C28.0486 19.7458 28.0429 20.2535 27.6877 20.6121C27.3352 20.9693 26.824 20.9749 26.421 20.605C26.0994 20.3083 25.7905 19.9975 25.4942 19.6755C25.2372 19.3942 25.1572 19.0581 25.3383 18.7051C25.4998 18.3915 25.7498 18.1876 26.223 18.182Z" fill="#6D28F9"/>
<path d="M42.4198 13.3656C42.4198 14.2488 42.1207 14.6946 41.5197 14.703C40.9173 14.7128 40.5957 14.2572 40.5943 13.3909C40.5943 13.2686 40.5901 13.1462 40.5957 13.0239C40.6252 12.4122 40.9805 12.0086 41.493 12.0001C42.0224 11.9917 42.3918 12.4108 42.417 13.052C42.4212 13.1561 42.417 13.2616 42.417 13.367L42.4198 13.3656Z" fill="#6D28F9"/>
<path d="M20.0725 43.4839C20.0781 43.9845 19.6905 44.3825 19.1906 44.3895C18.6893 44.3951 18.2932 44.0084 18.2862 43.5064C18.2792 43.0043 18.6668 42.6077 19.1667 42.6021C19.668 42.5965 20.0654 42.9832 20.0711 43.4839H20.0725Z" fill="#6D28F9"/>
<path d="M59.8494 56.7379C58.278 56.3975 56.7038 56.0867 55.0988 55.9264C52.6118 55.6789 50.1389 55.7549 47.6702 56.1163C46.0412 56.3553 44.4389 56.7083 42.876 57.2301C42.4912 57.358 42.4098 57.268 42.4112 56.8785C42.4238 53.4415 42.4182 50.0046 42.4182 46.5676C42.4182 45.6774 42.1163 45.2373 41.5096 45.2345C40.8988 45.2316 40.5926 45.6718 40.5926 46.5592C40.5926 49.9427 40.5926 53.3276 40.5926 56.7111C40.5926 57.3651 40.5926 57.3594 39.9972 57.1766C33.921 55.3175 27.8447 55.3049 21.7656 57.164C21.5985 57.2146 21.4314 57.2652 21.2629 57.3102C21.2362 57.3172 21.2011 57.2947 21.1309 57.2751C21.3892 55.7113 21.649 54.1461 21.9088 52.5795C22.5913 48.4703 23.2738 44.3626 23.9563 40.2534C24.0686 39.5798 24.1866 38.9076 24.2792 38.2312C24.3172 37.9527 24.4548 37.8712 24.7146 37.8177C25.2608 37.7066 25.6372 37.7573 26.0444 38.272C27.8503 40.5529 30.239 41.4361 33.1107 40.9636C33.3845 40.9186 33.5081 40.972 33.657 41.197C35.6201 44.1657 39.1884 44.7676 42.0039 42.6103C42.1991 42.4599 42.3662 42.443 42.6148 42.4669C43.5711 42.5625 44.2339 42.8677 44.6987 43.8619C45.238 45.0151 46.4681 45.5256 47.6309 45.9362C48.7543 46.3342 49.7569 46.8447 50.5967 47.7334C51.4463 48.632 52.8561 48.7052 53.8911 48.0583C54.9429 47.4001 55.4274 46.0979 55.0637 44.8941C54.9008 44.3569 54.6887 43.838 54.4247 43.343C54.3236 43.1518 54.2829 43.0182 54.4949 42.855C55.6914 41.9311 56.4988 40.7217 57.0367 39.321C57.1378 39.3843 57.1476 39.4856 57.1645 39.5925C57.5155 41.7736 57.8624 43.9547 58.2261 46.1331C58.7723 49.3914 59.3397 52.647 59.8663 55.9096C59.907 56.1599 60.157 56.4721 59.8494 56.7364V56.7379Z" fill="#EEE9FF"/>
<path d="M28.1677 32.2717C28.728 31.847 28.8095 31.5869 28.589 30.9203C28.9808 30.5237 29.4175 30.1651 29.2335 29.4859C29.1577 29.2102 29.169 28.8868 29.2279 28.6041C29.329 28.126 29.3557 27.5832 29.9034 27.3343C30.2867 27.3188 30.4848 27.6043 30.7108 27.8377C31.1939 28.3355 31.6587 28.4016 32.0772 28.0205C32.5013 27.6352 32.4788 27.1036 32.007 26.5946C31.8174 26.3906 31.6096 26.2036 31.4116 26.0095C31.3919 25.1981 31.6194 24.464 32.087 23.8017C32.2148 23.6217 32.4578 23.5204 32.4676 23.2574C32.7049 23.3601 32.549 23.5204 32.5181 23.6526C32.3735 24.284 32.5729 24.7354 33.0756 24.8901C33.5812 25.0462 34.0446 24.7509 34.2482 24.1237C34.7832 22.4812 35.8996 21.4701 37.5707 21.096C38.5565 20.8766 39.5156 21.013 40.4256 21.4757C40.6952 21.6135 40.816 21.7457 40.7149 22.0846C40.6222 22.3912 40.5435 22.7287 40.6362 23.0676C40.7584 23.512 41.0421 23.7609 41.5013 23.7651C41.9366 23.7693 42.2315 23.5443 42.3551 23.1253C42.4084 22.9424 42.4168 22.747 42.4435 22.5557C42.5699 21.6627 43.3394 21.0257 44.2915 21.0257C45.2296 21.0257 46.0146 21.6824 46.1368 22.5656C46.1662 22.7737 46.1747 22.9888 46.2421 23.1843C46.3685 23.55 46.6465 23.7468 47.0355 23.7665C47.4273 23.7862 47.8064 23.6062 47.8612 23.2532C47.9637 22.5993 48.3021 22.7048 48.7487 22.806C50.8832 23.2926 52.3127 24.5667 53.0781 26.6128C53.2199 26.9911 53.2073 27.2386 52.7579 27.3539C52.5781 27.4004 52.4153 27.5269 52.2566 27.6324C51.7342 27.9812 51.5938 28.4748 51.8774 28.9318C52.1611 29.3888 52.6652 29.4873 53.2059 29.1638C53.8378 28.787 54.4823 28.6955 55.1508 29.0387C56.4427 29.7024 56.527 31.473 55.3066 32.2844C55.016 32.4784 54.6817 32.6289 54.6256 33.0283C54.5736 33.3967 54.6438 33.7286 54.9682 33.9621C55.3095 34.2082 55.6493 34.1632 56.0032 33.9804C56.5663 33.6907 56.6042 33.6921 56.6842 34.3277C56.8738 35.8451 56.3753 37.1037 55.1157 37.9869C53.8294 38.8883 52.4588 38.9586 51.0503 38.2428C50.768 38.0994 50.7947 37.9615 50.9295 37.7168C51.3958 36.866 51.4182 35.9773 51.0615 35.0815C50.8284 34.4965 50.3594 34.2616 49.8651 34.4613C49.3483 34.6694 49.177 35.118 49.382 35.7185C49.6334 36.4554 49.4143 37.1361 48.8259 37.4454C48.2081 37.7703 47.4877 37.565 47.0355 36.935C46.6297 36.3682 46.1691 36.236 45.7042 36.5496C45.2422 36.8618 45.1847 37.34 45.5357 37.9362C46.2042 39.0725 47.5972 39.6491 48.9369 39.313C49.2009 39.2469 49.3834 39.2624 49.6039 39.4283C50.9408 40.4338 52.4447 40.7164 54.0751 40.4127C54.1397 40.4 54.2099 40.4113 54.356 40.4113C53.9178 41.0441 53.3884 41.4773 52.7874 41.833C52.147 42.2113 51.4463 42.4166 50.7287 42.5924C50.2653 42.7063 49.9859 43.1634 50.0645 43.5839C50.1614 44.0929 50.5799 44.4136 51.0924 44.3306C51.4702 44.2701 51.8578 44.1998 52.2088 44.0578C52.5922 43.9017 52.7958 43.9931 52.9292 44.3629C53.0486 44.692 53.196 45.0112 53.3084 45.3417C53.4671 45.8072 53.3716 46.2206 52.9531 46.4991C52.5304 46.7803 52.0684 46.7157 51.7581 46.3585C50.7723 45.2264 49.4747 44.6597 48.1055 44.1843C47.4245 43.9481 46.7926 43.6078 46.2954 43.0579C46.0469 42.7837 46.0904 42.6543 46.4625 42.5952C46.7883 42.5446 47.1197 42.4785 47.4287 42.3646C47.9118 42.1874 48.1308 41.7191 47.9876 41.2663C47.8444 40.8149 47.395 40.5477 46.9105 40.6743C45.3813 41.0736 43.8745 41.0793 42.3747 40.5224C41.9436 40.3621 41.5855 40.5196 41.2485 40.8599C40.1939 41.9216 38.9146 42.3337 37.4556 41.9329C36.0232 41.5405 35.0978 40.5857 34.7411 39.14C34.508 38.1936 34.6091 37.257 35.095 36.3893C35.2972 36.0293 35.3843 35.6749 35.1287 35.3051C34.765 34.7805 34.0319 34.7594 33.6612 35.2868C33.4927 35.5273 33.3438 35.8001 33.2638 36.0813C33.136 36.5271 32.8903 36.5117 32.5659 36.3373C32.132 36.1052 31.8974 35.7382 31.8413 35.2502C31.7612 34.5583 31.4326 34.2349 30.8625 34.2771C30.312 34.3179 30.0256 34.7215 30.0536 35.4091C30.1042 36.6382 31.0324 37.8223 32.3005 38.1486C32.7442 38.2625 32.8313 38.4903 32.8734 38.8616C32.9029 39.1245 32.7962 39.2117 32.5631 39.2258C31.9691 39.2609 31.3765 39.3074 30.7867 39.185C30.7684 39.0317 30.6687 38.9375 30.5536 38.8517C29.5116 38.0755 28.8488 37.0362 28.4106 35.8268C27.988 34.6596 28.0259 33.4671 28.1705 32.2647L28.1677 32.2717ZM39.7824 38.1908C41.1221 38.0853 42.348 37.2612 43.1302 35.7945C43.2945 35.4865 43.4785 35.3318 43.8043 35.2404C45.8629 34.661 47.1689 33.3236 47.7123 31.2508C47.8766 30.6222 47.6253 30.1159 47.1183 29.9893C46.5847 29.8557 46.1494 30.1398 45.9879 30.7965C45.2394 33.8285 41.6529 34.3952 39.8569 32.5009C39.4412 32.0622 38.8683 32.0537 38.5045 32.4152C38.131 32.785 38.1661 33.3096 38.5944 33.7638C39.2586 34.4697 40.0633 34.9535 40.9915 35.2094C41.3384 35.3051 41.2934 35.4021 41.094 35.6032C40.6039 36.0954 40.024 36.3696 39.326 36.4118C38.652 36.4526 38.2532 36.8126 38.263 37.3357C38.2742 37.9236 38.6913 38.2287 39.7824 38.1922V38.1908ZM34.5038 30.3479C34.4687 30.9104 34.8492 31.3815 35.3674 31.4139C35.8814 31.4462 36.2535 31.0483 36.3321 30.3803C36.488 29.0527 37.2533 28.3018 38.5748 28.1808C39.2025 28.1232 39.5493 27.7688 39.5184 27.2161C39.4889 26.6888 39.1224 26.3892 38.5102 26.3906C36.4192 26.3935 34.6414 28.1513 34.5052 30.3493L34.5038 30.3479Z" fill="#FFD701"/>
<path d="M56.2829 61.3523C53.3241 61.3523 50.3639 61.3396 47.4051 61.3649C46.9038 61.3692 46.7802 61.1863 46.762 60.7321C46.7325 59.998 46.6496 59.2668 46.5724 58.5355C46.5401 58.2317 46.623 58.122 46.9473 58.0672C51.7233 57.267 56.422 57.5539 61.0504 58.9925C62.7959 59.5354 63.9306 58.4933 63.6104 56.7045C63.2313 54.5909 62.9013 52.4688 62.5474 50.3495C62.0278 47.2402 61.4998 44.1309 60.9915 41.0188C60.9493 40.7615 60.8173 40.3508 61.0715 40.2482C61.3875 40.1202 61.7933 40.2032 62.1598 40.2158C62.2932 40.2215 62.2707 40.3635 62.2904 40.4648C62.8493 43.349 63.3984 46.2347 63.9727 49.1162C64.446 51.4886 64.8644 53.8723 65.3854 56.2376C65.6719 57.5413 65.8573 58.866 66.1578 60.1696C66.315 60.8516 65.9317 61.3467 65.1607 61.3382C62.2019 61.3059 59.2431 61.3256 56.2843 61.3256C56.2843 61.3354 56.2843 61.3438 56.2843 61.3537L56.2829 61.3523Z" fill="#E6E1FF"/>
<path d="M59.8494 56.738C60.1569 56.4736 59.907 56.1628 59.8662 55.9111C59.3396 52.6485 58.7709 49.3943 58.226 46.1346C57.8609 43.9562 57.5155 41.7751 57.1644 39.594C57.1476 39.4871 57.1377 39.3858 57.0366 39.3225C57.1223 38.8739 57.2697 38.4619 57.5281 38.0681C57.7626 37.7109 58.0154 37.7925 58.3356 37.8291C58.7133 37.8713 58.7007 38.1244 58.7442 38.386C59.4295 42.5106 60.119 46.6338 60.8057 50.7584C61.1525 52.8468 61.491 54.9365 61.8462 57.022C61.9024 57.3469 61.7943 57.3342 61.5499 57.2555C60.9868 57.0726 60.4167 56.9081 59.8494 56.7365V56.738Z" fill="#E6ECFB"/>
<path d="M41.4915 63.186C40.4861 63.1298 39.4961 63.0482 38.5538 62.6699C38.0876 62.4829 37.8882 62.2129 37.9724 61.6658C38.1058 60.8038 38.1662 59.9262 38.2084 59.0543C38.2322 58.5607 38.4387 58.5678 38.8038 58.7014C39.5256 58.9672 40.2614 59.1922 40.979 59.4692C41.3469 59.6112 41.6741 59.6197 42.0378 59.4678C42.8116 59.1429 43.6022 58.8673 44.4152 58.6521C44.668 58.5846 44.7593 58.6254 44.7803 58.8954C44.8646 59.9234 44.9615 60.9514 45.0654 61.9794C45.1019 62.3436 44.8548 62.473 44.602 62.5954C44.0136 62.8808 43.3789 63.0144 42.7371 63.1002C42.3229 63.1551 41.9002 63.1607 41.4915 63.1874V63.186Z" fill="#E6E1FF"/>
<path d="M28.1681 32.2716C28.0234 33.474 27.9855 34.6651 28.4082 35.8337C28.8463 37.0431 29.5091 38.0824 30.5511 38.8586C30.6663 38.9444 30.766 39.04 30.7842 39.1919C27.5418 38.5971 25.5688 35.402 26.4928 32.2421C26.6543 31.6866 26.6711 31.6725 27.1345 32.0311C27.4505 32.2758 27.7889 32.3433 28.1681 32.2716Z" fill="#FDFEFE"/>
<path d="M29.9034 27.3327C29.3557 27.5816 29.3291 28.1244 29.228 28.6026C29.1676 28.8852 29.1577 29.2087 29.2336 29.4843C29.4189 30.1635 28.9822 30.5221 28.589 30.9187C28.3671 30.7246 28.1326 30.5432 27.9248 30.3351C27.3743 29.7867 27.2325 28.9035 27.5667 28.2074C27.9065 27.5 28.6705 27.0641 29.4414 27.1386C29.6155 27.1555 29.7897 27.1724 29.9034 27.3313V27.3327Z" fill="#FDFEFE"/>
<path d="M32.4678 23.2557C32.4579 23.5186 32.215 23.6185 32.0872 23.7999C31.6196 24.4637 31.3921 25.1963 31.4118 26.0078C30.9413 25.7799 30.492 25.5029 29.9583 25.4354C29.6016 25.3904 29.7266 25.1584 29.794 24.9657C30.1648 23.8997 31.2755 23.1924 32.4678 23.2542V23.2557Z" fill="#FDFEFE"/>
<path d="M39.7825 38.1891C38.69 38.2257 38.2743 37.9219 38.2631 37.3327C38.2533 36.8095 38.6521 36.4495 39.3261 36.4088C40.0241 36.3666 40.6054 36.0923 41.0941 35.6001C41.2935 35.4004 41.3385 35.302 40.9916 35.2064C40.0648 34.949 39.2601 34.4653 38.5945 33.7607C38.1662 33.3065 38.1311 32.7819 38.5046 32.4121C38.8684 32.0507 39.4413 32.0591 39.857 32.4979C41.653 34.3907 45.2395 33.8254 45.988 30.7935C46.1495 30.1381 46.5848 29.8541 47.1184 29.9863C47.6254 30.1128 47.8768 30.6191 47.7125 31.2477C47.169 33.3206 45.863 34.6565 43.8044 35.2373C43.4772 35.3287 43.2946 35.4834 43.1303 35.7914C42.3481 37.2581 41.1222 38.0836 39.7825 38.1877V38.1891Z" fill="#6D28F9"/>
<path d="M34.5041 30.3478C34.6404 28.1498 36.4182 26.3934 38.5091 26.3892C39.1214 26.3892 39.4879 26.6887 39.5174 27.2146C39.5483 27.7673 39.2014 28.1217 38.5737 28.1794C37.2523 28.3003 36.487 29.0513 36.3311 30.3788C36.2525 31.0454 35.8803 31.4447 35.3664 31.4124C34.8482 31.3801 34.4676 30.9104 34.5027 30.3464L34.5041 30.3478Z" fill="#6D28F9"/>
</g>
<defs>
<clipPath id="clip0_5284_7351">
<rect width="53" height="53" fill="white" transform="translate(15 12)"/>
</clipPath>
</defs>
</svg>
