<svg width="82" height="82" viewBox="0 0 82 82" fill="none" xmlns="http://www.w3.org/2000/svg">
<circle cx="41" cy="41" r="40.5" fill="#F8F5FF" stroke="#DFDFDF" stroke-dasharray="4 4"/>
<g clip-path="url(#clip0_5284_7350)">
<path d="M40.4941 61.9984C32.1832 61.9984 23.8723 61.9984 15.5614 61.9984C13.3086 61.9984 12.0033 60.6805 12.0033 58.4066C12.0033 56.9015 12.0002 55.3979 12.0033 53.8928C12.0049 53.0605 12.3243 52.7434 13.1504 52.7388C14.1271 52.7341 15.1053 52.7125 16.0805 52.7496C16.5212 52.7666 16.6087 52.6305 16.6087 52.2067C16.5949 44.992 16.5995 37.7789 16.5995 30.5642C16.5995 28.5965 16.5964 26.6289 16.5995 24.6613C16.6041 22.6256 17.9678 21.2581 19.9948 21.2566C21.9865 21.2566 23.9783 21.2504 25.9685 21.289C26.3186 21.2952 26.3324 21.0818 26.423 20.8977C27.5456 18.5866 29.1165 16.6499 31.1666 15.1139C38.9938 9.25582 50.164 11.952 54.493 20.7585C54.6865 21.1529 54.8585 21.289 55.3253 21.2782C57.2971 21.2318 59.2704 21.2395 61.2422 21.2643C63.0696 21.2875 64.3979 22.7385 64.3995 24.6736C64.4025 32.3694 64.3995 40.0667 64.3995 47.7625C64.3995 49.2676 64.4133 50.7711 64.3902 52.2763C64.3841 52.663 64.5008 52.7574 64.8694 52.7481C65.8844 52.7233 66.8995 52.7341 67.9145 52.7419C68.6609 52.7481 68.9926 53.0853 68.9941 53.8479C69.0002 55.4288 69.0002 57.0113 68.9941 58.5922C68.988 60.6233 67.6212 61.9969 65.5973 61.9984C57.228 62.0015 48.8603 61.9984 40.491 61.9984H40.4941ZM40.5018 49.9606C46.6858 49.9606 52.8683 49.9606 59.0523 49.9606C59.9062 49.9606 59.8017 50.0596 59.8033 49.1779C59.8079 46.2078 59.8033 43.2394 59.8033 40.2693C59.8033 35.6612 59.7987 31.0514 59.811 26.4433C59.811 26.0318 59.7357 25.8601 59.2812 25.8771C58.3444 25.9127 57.4046 25.9003 56.4679 25.8818C56.1239 25.8756 55.9749 25.9606 56.0364 26.3381C56.2298 27.5292 56.1577 28.7265 55.9811 29.9052C55.396 33.8064 53.6669 37.1013 50.6677 39.6599C46.844 42.9192 42.4305 44.1118 37.5103 43.1744C33.5914 42.4272 30.4034 40.3946 28.0124 37.1818C25.6245 33.9735 24.5833 30.3414 24.9503 26.3319C24.9872 25.9313 24.8551 25.8771 24.525 25.8818C23.645 25.8957 22.762 25.9204 21.8836 25.874C21.3431 25.8462 21.1772 25.9823 21.1788 26.5608C21.2003 34.1189 21.1987 41.6786 21.1803 49.2382C21.1803 49.8013 21.2878 49.9791 21.8913 49.9776C28.0938 49.9513 34.2962 49.9621 40.5002 49.9621L40.5018 49.9606ZM40.4695 60.1453C48.8173 60.1453 57.165 60.1453 65.5113 60.1453C66.6415 60.1453 67.1544 59.6224 67.1575 58.4824C67.1605 57.4026 67.1329 56.3214 67.1698 55.2432C67.1867 54.7374 67.0761 54.5749 66.5309 54.5765C60.826 54.5997 55.1196 54.5904 49.4147 54.592C48.8234 54.592 48.1001 54.4048 47.6763 54.6786C47.2202 54.9725 47.2264 55.7738 47.0206 56.3492C46.9883 56.4389 46.9561 56.5302 46.9254 56.6215C46.7626 57.1211 46.4309 57.3702 45.8996 57.3702C42.3 57.3655 38.7005 57.3655 35.1009 57.3702C34.5696 57.3702 34.2364 57.1273 34.072 56.6261C33.8924 56.0785 33.6927 55.5356 33.5346 54.9818C33.4532 54.6971 33.3349 54.5827 33.0232 54.5827C26.7624 54.592 20.5016 54.592 14.2408 54.5827C13.9075 54.5827 13.8277 54.6879 13.8323 55.0065C13.8492 56.1048 13.8384 57.2046 13.8384 58.3045C13.8384 59.6874 14.2899 60.1453 15.6535 60.1453C23.9245 60.1453 32.1955 60.1453 40.4665 60.1453H40.4695ZM54.2888 27.7597C54.2934 20.0995 48.1247 13.8532 40.5525 13.8501C32.8911 13.847 26.7132 20.0639 26.7117 27.7767C26.7117 35.4059 32.9111 41.6306 40.5079 41.6275C48.1017 41.6244 54.2842 35.4028 54.2888 27.7597ZM55.4881 23.1128C55.5833 23.7275 55.912 24.0348 56.474 24.0348C57.8146 24.0348 59.1552 24.0317 60.4943 24.0348C61.3205 24.0379 61.643 24.3581 61.643 25.1887C61.6445 33.675 61.6445 42.1612 61.643 50.6459C61.643 51.4812 61.322 51.8107 60.5035 51.8107C47.1772 51.8122 33.8494 51.8122 20.5231 51.8107C19.6846 51.8107 19.3575 51.4935 19.3575 50.6737C19.356 42.1689 19.3544 33.6641 19.3575 25.1578C19.3575 24.3643 19.6861 24.0363 20.4755 24.0332C21.8345 24.0286 23.1951 24.0332 24.5541 24.0332C25.1285 24.0332 25.4376 23.7249 25.4817 23.1082C23.7187 23.1082 21.9589 23.1082 20.1975 23.1082C18.9076 23.1082 18.4361 23.5846 18.4361 24.8856C18.4361 33.9689 18.4423 43.0537 18.4208 52.1371C18.4208 52.6738 18.582 52.7481 19.0565 52.7465C33.3411 52.7341 47.6241 52.7326 61.9086 52.7512C62.4876 52.7512 62.5736 52.581 62.572 52.0504C62.5552 43.0243 62.5598 33.9983 62.5598 24.9722C62.5598 24.7989 62.5659 24.6241 62.5551 24.4509C62.5029 23.6975 61.9747 23.1252 61.2299 23.1159C59.3165 23.0927 57.4031 23.1082 55.4851 23.1082L55.4881 23.1128ZM40.5525 54.5904C39.0214 54.5904 37.4904 54.5904 35.9594 54.5904C35.3159 54.5904 35.3236 54.6105 35.5447 55.22C35.666 55.5557 35.8979 55.5154 36.1421 55.5154C39.0521 55.5154 41.9606 55.5154 44.8707 55.5154C44.9275 55.5154 44.9859 55.5154 45.0427 55.5154C45.5602 55.5139 45.5326 55.0545 45.5617 54.7637C45.5955 54.4357 45.2515 54.6012 45.0887 54.5997C43.5761 54.5842 42.0651 54.5904 40.5525 54.5904Z" fill="#6D28F9"/>
<path d="M40.5016 49.9621C34.2992 49.9621 28.0967 49.9528 21.8927 49.9776C21.2892 49.9806 21.1802 49.8028 21.1817 49.2381C21.2002 41.6801 21.2017 34.1204 21.1802 26.5608C21.1787 25.9838 21.3445 25.8461 21.885 25.874C22.7634 25.9204 23.6464 25.8956 24.5264 25.8817C24.8581 25.8771 24.9886 25.9312 24.9517 26.3318C24.5832 30.3414 25.6259 33.9735 28.0138 37.1817C30.4048 40.3946 33.5913 42.4272 37.5118 43.1743C42.432 44.1118 46.8454 42.9191 50.6691 39.6598C53.6683 37.1013 55.3974 33.8064 55.9825 29.9052C56.1591 28.7249 56.2328 27.5291 56.0377 26.338C55.9763 25.9621 56.1253 25.8755 56.4693 25.8817C57.4075 25.8987 58.3458 25.9126 59.2826 25.8771C59.7371 25.86 59.8139 26.0318 59.8124 26.4432C59.7985 31.0514 59.8047 35.6611 59.8047 40.2693C59.8047 43.2393 59.8078 46.2078 59.8047 49.1778C59.8047 50.0595 59.9076 49.9605 59.0538 49.9605C52.8697 49.9636 46.6872 49.9605 40.5032 49.9605L40.5016 49.9621Z" fill="#EEE9FF"/>
<path d="M40.4679 60.147C32.1969 60.147 23.9259 60.147 15.655 60.147C14.2913 60.147 13.8398 59.6891 13.8398 58.3062C13.8398 57.2064 13.8506 56.1081 13.8337 55.0083C13.8291 54.6896 13.9074 54.5844 14.2422 54.5844C20.503 54.5937 26.7638 54.5937 33.0246 54.5844C33.3364 54.5844 33.4546 54.6989 33.536 54.9835C33.6942 55.5373 33.8953 56.0802 34.0735 56.6278C34.2378 57.129 34.571 57.3734 35.1023 57.3719C38.7019 57.3673 42.3014 57.3673 45.901 57.3719C46.4338 57.3719 46.7656 57.1228 46.9268 56.6232C46.956 56.5319 46.9898 56.4407 47.022 56.3509C47.2278 55.7755 47.2216 54.9742 47.6777 54.6803C48.1016 54.4065 48.8248 54.5937 49.4161 54.5937C55.121 54.5906 60.8274 54.6014 66.5323 54.5782C67.076 54.5767 67.1881 54.7391 67.1712 55.2449C67.1343 56.3231 67.162 57.4044 67.1589 58.4841C67.1558 59.6242 66.6414 60.147 65.5127 60.147C57.1649 60.1486 48.8172 60.147 40.4709 60.147H40.4679Z" fill="white"/>
<path d="M54.287 27.7612C54.2824 35.4043 48.0999 41.6259 40.5062 41.629C32.9094 41.6321 26.71 35.4074 26.71 27.7782C26.71 20.0654 32.8894 13.8485 40.5507 13.8516C48.123 13.8547 54.2916 20.101 54.287 27.7612ZM52.4458 27.806C52.4366 21.0307 47.1048 15.6955 40.348 15.7032C33.863 15.7109 28.5297 21.1869 28.5481 27.8169C28.5666 34.3911 33.9689 39.7959 40.5031 39.7758C47.0772 39.7557 52.4535 34.3664 52.4443 27.8045L52.4458 27.806Z" fill="#FEFEFE"/>
<path d="M55.4862 23.1144C57.4042 23.1144 59.3176 23.099 61.231 23.1222C61.9758 23.1314 62.5041 23.7038 62.5563 24.4571C62.5686 24.6304 62.5609 24.8036 62.5609 24.9784C62.5609 34.0045 62.5563 43.0306 62.5732 52.0567C62.5732 52.5872 62.4887 52.7574 61.9098 52.7574C47.6252 52.7373 33.3422 52.7404 19.0576 52.7528C18.5816 52.7528 18.4204 52.6801 18.4219 52.1433C18.4418 43.06 18.4357 33.9767 18.4372 24.8918C18.4372 23.5909 18.9087 23.1144 20.1986 23.1144C21.96 23.1144 23.7199 23.1144 25.4828 23.1144C25.4388 23.7311 25.1296 24.0395 24.5552 24.0395C23.1962 24.0395 21.8356 24.0364 20.4766 24.0395C19.6873 24.0426 19.3586 24.369 19.3586 25.164C19.3556 33.6688 19.3556 42.1736 19.3586 50.6799C19.3586 51.4998 19.6857 51.8153 20.5242 51.8169C33.8505 51.8169 47.1783 51.8169 60.5047 51.8169C61.3232 51.8169 61.6426 51.4874 61.6441 50.6521C61.6456 42.1659 61.6456 33.6797 61.6441 25.195C61.6441 24.3659 61.3216 24.0441 60.4954 24.041C59.1548 24.0364 57.8142 24.041 56.4751 24.041C55.9131 24.041 55.5845 23.7337 55.4892 23.1191L55.4862 23.1144Z" fill="#EEE9FF"/>
<path d="M40.5506 54.5922C42.0632 54.5922 43.5743 54.586 45.0869 54.6014C45.2497 54.603 45.5937 54.4375 45.5599 54.7654C45.5292 55.0562 45.5583 55.5157 45.0408 55.5172C44.984 55.5172 44.9256 55.5172 44.8688 55.5172C41.9588 55.5172 39.0503 55.5172 36.1402 55.5172C35.8976 55.5172 35.6657 55.5574 35.5429 55.2218C35.3217 54.6123 35.3141 54.5922 35.9575 54.5922C37.4885 54.5922 39.0196 54.5922 40.5506 54.5922Z" fill="#EEE9FF"/>
<path d="M52.446 27.8059C52.4552 34.3662 47.0774 39.7571 40.5048 39.7772C33.9707 39.7973 28.5683 34.3925 28.5499 27.8183C28.5314 21.1883 33.8647 15.7123 40.3497 15.7046C47.1066 15.6969 52.4399 21.0305 52.4475 27.8074L52.446 27.8059ZM39.135 17.6614C37.4658 17.9043 35.9424 18.5153 34.5588 19.5053C34.1319 19.81 34.0475 19.9957 34.479 20.3746C34.9842 20.8202 35.0195 21.4791 34.6433 21.8504C34.2671 22.2216 33.6559 22.1474 33.1675 21.6725C33.1261 21.6323 33.08 21.5951 33.0462 21.5487C32.8297 21.2486 32.6746 21.2811 32.4519 21.5797C31.4538 22.9146 30.8349 24.4105 30.5232 26.0409C30.388 26.7494 30.4387 26.7989 31.1343 26.8112C31.8208 26.8236 32.2185 27.1593 32.2231 27.7285C32.2277 28.2993 31.8269 28.6489 31.1497 28.6629C30.4356 28.6783 30.3911 28.717 30.5216 29.4177C30.7888 30.8517 31.2956 32.196 32.1156 33.4072C32.2968 33.6748 32.435 34.0692 32.7299 34.1342C32.9802 34.1883 33.1399 33.7861 33.3641 33.6129C33.7526 33.3144 34.3147 33.3113 34.6325 33.6129C34.9658 33.9285 34.9796 34.5287 34.6556 34.9293C34.5465 35.0639 34.4268 35.1907 34.2932 35.3006C34.0736 35.4815 34.0889 35.613 34.3162 35.7878C35.6798 36.8412 37.2201 37.477 38.9001 37.7972C39.3807 37.8885 39.6357 37.791 39.5957 37.1955C39.5451 36.4731 39.9366 36.0585 40.5217 36.0709C41.0838 36.0833 41.4093 36.4839 41.4201 37.18C41.4324 37.8637 41.4708 37.9163 42.1403 37.7864C43.699 37.4863 45.1409 36.9093 46.4401 35.9688C46.867 35.661 46.9515 35.4784 46.5215 35.0979C46.0178 34.654 45.9809 33.9934 46.3556 33.6222C46.7303 33.2509 47.3431 33.3252 47.8314 33.8001C47.8729 33.8403 47.9189 33.8774 47.9527 33.9238C48.1692 34.2224 48.3228 34.193 48.547 33.8929C49.5498 32.5595 50.1548 31.0574 50.4742 29.4301C50.6124 28.7232 50.5602 28.6752 49.8615 28.6613C49.1766 28.6489 48.7789 28.3117 48.7743 27.7409C48.7712 27.1701 49.1705 26.8236 49.8492 26.8097C50.5618 26.7942 50.6124 26.754 50.4742 26.0533C50.1594 24.4461 49.5713 22.9595 48.5854 21.6354C48.3351 21.2981 48.2061 21.261 47.9128 21.5735C47.3707 22.1505 46.761 22.2386 46.3633 21.8581C45.9518 21.4637 46.0516 20.848 46.6244 20.2493C46.6382 20.2354 46.6505 20.22 46.6658 20.2091C46.9361 20.0065 46.9115 19.8549 46.6351 19.6476C45.4035 18.7272 44.0491 18.0899 42.5457 17.7743C41.5445 17.5655 41.546 17.5578 41.4139 18.5663C41.3479 19.0675 40.9594 19.4249 40.4757 19.3986C39.9674 19.3707 39.6679 19.0799 39.5881 18.5787C39.5604 18.4086 39.5666 18.2307 39.5819 18.059C39.6126 17.7171 39.4652 17.5964 39.135 17.6583V17.6614Z" fill="#6D28F9"/>
<path d="M39.1351 17.6615C39.4637 17.5997 39.6111 17.7203 39.5819 18.0622C39.5666 18.2339 39.562 18.4118 39.5881 18.5819C39.6679 19.0831 39.9658 19.3739 40.4757 19.4018C40.9594 19.4281 41.3479 19.0708 41.4139 18.5696C41.546 17.5594 41.5445 17.5672 42.5457 17.7776C44.0507 18.0931 45.4036 18.7304 46.6351 19.6508C46.9116 19.8566 46.9361 20.0082 46.6659 20.2124C46.6505 20.2232 46.6382 20.2387 46.6244 20.2526C46.0516 20.8512 45.9518 21.4669 46.3633 21.8613C46.7611 22.2419 47.3707 22.1537 47.9128 21.5767C48.2061 21.2642 48.3351 21.3029 48.5854 21.6386C49.5713 22.9627 50.1594 24.4493 50.4742 26.0565C50.6109 26.7572 50.5602 26.799 49.8492 26.8129C49.1705 26.8268 48.7712 27.1733 48.7743 27.7441C48.7774 28.3149 49.1751 28.6506 49.8615 28.6645C50.5602 28.6785 50.6125 28.7264 50.4742 29.4333C50.1548 31.0607 49.5498 32.5627 48.547 33.8961C48.3228 34.1947 48.1677 34.2256 47.9527 33.927C47.9189 33.8806 47.8729 33.8435 47.8314 33.8033C47.3431 33.3284 46.7303 33.2557 46.3556 33.6254C45.981 33.9967 46.0178 34.6572 46.5215 35.1011C46.953 35.4817 46.867 35.6642 46.4401 35.972C45.1394 36.9125 43.6975 37.4895 42.1403 37.7896C41.4692 37.918 41.4308 37.8654 41.4201 37.1832C41.4078 36.4871 41.0838 36.0865 40.5217 36.0741C39.9367 36.0618 39.5466 36.4763 39.5957 37.1987C39.6372 37.7943 39.3823 37.8917 38.9001 37.8004C37.2201 37.4818 35.6799 36.846 34.3162 35.791C34.0889 35.6162 34.0751 35.4848 34.2932 35.3038C34.4252 35.1939 34.5466 35.0671 34.6556 34.9325C34.9796 34.5303 34.9658 33.9317 34.6326 33.6161C34.3131 33.3129 33.7526 33.316 33.3641 33.6161C33.1399 33.7894 32.9802 34.1916 32.7299 34.1374C32.435 34.0725 32.2968 33.678 32.1156 33.4104C31.2956 32.1992 30.7904 30.8565 30.5216 29.421C30.3911 28.7202 30.4372 28.68 31.1497 28.6661C31.8269 28.6522 32.2277 28.3026 32.2231 27.7318C32.2185 27.161 31.8208 26.8268 31.1344 26.8145C30.4387 26.8021 30.388 26.7526 30.5232 26.0441C30.8349 24.4137 31.4538 22.9179 32.4519 21.5829C32.6761 21.2844 32.8297 21.2519 33.0462 21.552C33.08 21.5984 33.1261 21.6355 33.1675 21.6757C33.6559 22.1506 34.2671 22.2249 34.6433 21.8536C35.0195 21.4824 34.9827 20.8234 34.479 20.3779C34.049 19.9973 34.1319 19.8133 34.5588 19.5085C35.944 18.5185 37.4658 17.9075 39.1351 17.6646V17.6615ZM39.5789 24.9041C39.5789 25.8276 39.5696 26.751 39.5819 27.6745C39.5911 28.2964 39.929 28.6506 40.5356 28.6615C41.4339 28.6785 42.3307 28.6785 43.2291 28.6615C43.8049 28.6506 44.1842 28.2515 44.1735 27.7209C44.1628 27.2105 43.7988 26.8423 43.249 26.8191C42.8099 26.8005 42.3691 26.7913 41.9315 26.8222C41.5368 26.85 41.4017 26.7263 41.4093 26.3117C41.4339 24.9845 41.4232 23.6557 41.417 22.3285C41.4139 21.6556 41.0485 21.2503 40.4818 21.2611C39.9351 21.272 39.5881 21.6633 39.5819 22.3068C39.5743 23.1731 39.5804 24.0394 39.5804 24.9041H39.5789Z" fill="#FFD701"/>
<path d="M39.5802 24.9024C39.5802 24.0361 39.5741 23.1699 39.5818 22.3052C39.5879 21.6617 39.935 21.2703 40.4816 21.2595C41.0483 21.2487 41.4138 21.6539 41.4169 22.3268C41.423 23.6541 41.4337 24.9828 41.4092 26.3101C41.4015 26.7246 41.5366 26.8484 41.9313 26.8205C42.369 26.7896 42.8097 26.8004 43.2489 26.8175C43.7986 26.8407 44.1626 27.2104 44.1733 27.7193C44.1841 28.2499 43.8063 28.649 43.2289 28.6598C42.3321 28.6768 41.4337 28.6768 40.5354 28.6598C39.9304 28.649 39.591 28.2947 39.5818 27.6729C39.5679 26.7494 39.5787 25.8259 39.5787 24.9024H39.5802Z" fill="#6D28F9"/>
</g>
<defs>
<clipPath id="clip0_5284_7350">
<rect width="57" height="50" fill="white" transform="translate(12 12)"/>
</clipPath>
</defs>
</svg>
