<svg width="82" height="82" viewBox="0 0 82 82" fill="none" xmlns="http://www.w3.org/2000/svg">
<circle cx="41" cy="41" r="40.5" fill="#F8F5FF" stroke="#DFDFDF" stroke-dasharray="4 4"/>
<g clip-path="url(#clip0_5284_7348)">
<path d="M63.2916 43.3175L55.4258 47.8099L54.854 43.3175V18.6984L58.5898 17.6406L63.2916 19.9316V43.3175Z" fill="#FFD701"/>
<path d="M23.9539 71.0002C23.3821 70.7089 22.7329 70.6158 22.173 70.2827C20.834 69.4864 19.9704 68.332 19.563 66.8373C19.1901 65.468 18.8565 64.0867 18.4837 62.7174C18.3229 62.1252 18.4408 61.674 18.9876 61.3636C19.7726 61.3266 20.0335 61.5176 20.2455 62.3043C20.647 63.7942 20.9841 65.3056 21.4582 66.7716C22.0062 68.4657 23.7049 69.4578 25.437 69.1235C27.2787 68.7677 29.1037 68.3224 30.9358 67.9117C33.4422 67.3494 34.7597 64.9176 33.8591 62.5228C33.6852 62.0596 33.5125 61.5964 33.3398 61.1332C31.7554 56.8879 30.1639 52.6462 28.5998 48.395C28.4366 47.9509 28.2495 47.8685 27.8374 48.0261C27.4514 48.1729 27.0428 48.2613 26.6449 48.3783C24.6174 48.9752 22.5697 49.51 20.5696 50.1881C18.8315 50.7779 17.8726 52.5674 18.2323 54.3701C18.4682 55.552 18.7743 56.7232 19.1019 57.8836C19.2854 58.5318 19.1603 59.0034 18.579 59.3448C17.7475 59.2911 17.5605 59.1586 17.3591 58.336C17.0435 57.0491 16.6384 55.7848 16.4228 54.4716C16.0357 52.1114 17.4711 49.4647 19.7107 48.5956C21.9967 47.7085 24.3863 47.1439 26.7474 46.5063C28.3365 46.0778 29.7541 45.3364 31.1896 44.5914C31.504 44.4279 31.5267 44.2106 31.5255 43.9193C31.5195 41.4385 31.5112 38.9578 31.5255 36.477C31.5374 34.5394 32.5309 33.1319 34.2916 32.7594C35.6281 32.4764 37.0243 32.48 38.3609 32.7534C40.1132 33.1116 41.1436 34.5597 41.1687 36.4531C41.1806 37.3592 41.171 38.2665 41.171 39.2717C41.6952 38.9924 42.1371 38.7464 42.5886 38.5184C42.8805 38.3704 42.7828 38.1113 42.784 37.8905C42.7899 35.1518 42.7959 32.412 42.784 29.6733C42.778 28.2216 43.2283 26.9908 44.4136 26.0906C44.7948 25.8017 45.207 25.5689 45.6787 25.4627C47.0522 25.1559 48.4353 25.1117 49.7826 25.5367C51.4444 26.0608 52.4403 27.6605 52.4414 29.6865C52.445 35.621 52.451 41.5555 52.4295 47.4901C52.4272 48.075 52.5844 48.2267 53.1133 48.0392C53.205 48.007 53.3087 48.0058 53.4064 47.9962C53.8852 47.9509 54.0675 47.7467 54.0651 47.2083C54.0437 38.4957 54.0508 29.782 54.0484 21.0694C54.0484 19.2977 54.7143 17.9105 56.3344 17.0844C58.3012 16.0816 61.5485 16.645 62.8125 18.1863C63.4295 18.9396 63.6868 19.8171 63.7035 20.7721C63.7178 21.566 63.7202 22.3599 63.7035 23.1538C63.6892 23.8677 63.3211 24.2629 62.7303 24.245C62.2288 24.2295 61.8952 23.8224 61.8797 23.1514C61.8619 22.3778 61.8857 21.603 61.8726 20.8294C61.8487 19.3777 60.9708 18.5038 59.5353 18.4895C59.0398 18.4847 58.5442 18.4764 58.0498 18.4931C56.8896 18.5313 56.0414 19.3204 55.9092 20.4737C55.8842 20.6897 55.8711 20.9082 55.8711 21.1267C55.8687 27.5567 55.8687 33.9878 55.8711 40.4178C55.8711 40.6124 55.8222 40.8165 55.9378 40.998C55.9187 41.0923 55.8818 41.1866 55.8818 41.2809C55.8782 43.1051 55.8782 44.9281 55.8806 46.7523C55.8806 46.843 55.8556 46.9528 56.008 47.0054C58.0082 45.9035 59.8117 44.484 61.6474 43.1123C61.8547 42.9571 61.8761 42.7673 61.875 42.5428C61.8702 41.571 61.8881 40.5993 61.8678 39.6287C61.8499 38.7441 61.9536 37.8547 61.8059 36.9736C61.9119 36.7468 61.8714 36.5044 61.8726 36.2692C61.875 33.3515 61.8726 30.4326 61.8773 27.5149C61.8773 27.2785 61.8988 27.0397 61.9429 26.8081C62.0274 26.3557 62.3467 26.0966 62.7743 26.1121C63.2056 26.1276 63.5832 26.339 63.6583 26.8392C63.694 27.0732 63.7035 27.3131 63.7047 27.5495C63.7071 31.9965 63.7071 36.4435 63.7071 40.8894C63.7071 41.1066 63.7071 41.3227 63.7071 41.5352C63.9751 41.6367 64.0919 41.4218 64.2467 41.3335C68.048 39.1714 71.0357 42.1512 70.9952 45.0785C70.9773 46.3559 70.3745 47.3778 69.431 48.1634C66.1897 50.8662 62.9233 53.5392 59.658 56.2134C57.889 57.6627 55.7507 58.2178 53.5862 58.7395C47.8623 60.1184 42.149 61.5391 36.4263 62.9251C36.0093 63.0266 35.9129 63.1866 35.9557 63.6032C36.2405 66.3801 34.6525 68.7498 31.9674 69.5043C29.9518 70.0702 27.9291 70.6194 25.8456 70.8939C25.8039 70.8999 25.7694 70.9644 25.7312 71.0014H23.9479L23.9539 71.0002ZM48.6997 49.9899C47.5323 49.9446 46.1445 50.0592 44.7615 49.9326C43.9443 49.8574 43.4106 49.3692 43.1545 48.6266C42.9079 47.9103 43.0044 47.1988 43.5714 46.6472C44.0241 46.2067 44.5137 45.7996 45.014 45.4128C46.4221 44.3252 47.2798 42.9046 47.6633 41.1759C47.8968 40.1277 47.2524 39.1476 46.1969 38.99C45.6751 38.9112 45.2344 39.1476 44.796 39.3816C40.0703 41.8993 35.3494 44.4243 30.6118 46.9206C30.1544 47.1618 30.1007 47.3587 30.2747 47.8172C31.9019 52.1054 33.522 56.3972 35.0957 60.7046C35.3065 61.2824 35.5245 61.3266 36.0534 61.1952C41.0174 59.9584 45.9873 58.7491 50.9548 57.5314C52.2592 57.2114 53.566 56.8986 54.868 56.5715C56.3464 56.2003 57.6806 55.5401 58.8611 54.5659C61.9023 52.0565 64.9531 49.5578 67.9908 47.0448C69.219 46.0288 69.5168 44.6774 68.789 43.5862C67.9062 42.2623 66.422 41.9901 65.0699 42.9332C62.7481 44.5532 60.4335 46.1816 58.1273 47.8231C56.6001 48.9107 54.9228 49.6222 53.0692 49.8765C51.6922 50.0652 50.3008 49.9816 48.6973 49.9911L48.6997 49.9899ZM44.7829 48.0762C45.0009 48.2279 45.2427 48.1813 45.4738 48.1825C46.9974 48.1885 48.5222 48.1682 50.0447 48.2016C50.5366 48.2123 50.6701 48.0738 50.6689 47.5796C50.6546 41.6295 50.6641 35.6807 50.6641 29.7306C50.6641 29.5134 50.6558 29.2937 50.6272 29.0788C50.4664 27.8933 49.6241 27.1149 48.4329 27.0588C47.979 27.0373 47.5228 27.0493 47.0677 27.0529C45.5 27.0636 44.5863 27.9435 44.5744 29.5133C44.5566 31.9917 44.5744 34.4713 44.5637 36.9509C44.5613 37.3461 44.6102 37.4416 45.0545 37.327C47.5573 36.6823 49.8672 38.7333 49.4717 41.232C49.3263 42.1536 49.0142 43.0275 48.6116 43.8739C47.8694 45.4355 46.5829 46.4825 45.2749 47.5175C45.0819 47.6703 44.8222 47.7778 44.7829 48.0762ZM33.3183 39.5033C33.3183 40.6542 33.3243 41.805 33.3147 42.9547C33.3124 43.2806 33.329 43.4489 33.721 43.2376C35.4923 42.2766 37.2745 41.3347 39.0566 40.3915C39.2627 40.2817 39.3901 40.1731 39.3865 39.9033C39.3699 38.6939 39.4056 37.4822 39.3675 36.274C39.3329 35.1518 38.5753 34.4463 37.4591 34.4284C36.7467 34.4164 36.0344 34.42 35.322 34.426C34.0474 34.4367 33.3374 35.1351 33.3219 36.4089C33.3088 37.4404 33.3195 38.4719 33.3195 39.5033H33.3183Z" fill="#6D28F9"/>
<path d="M42.6685 15.5382C42.31 15.5036 42.0562 15.5012 41.812 15.4523C40.3408 15.1586 39.5498 14.1032 39.6487 12.5859C39.7381 11.2273 40.8078 10.0705 42.1754 10.0418C44.7092 9.9881 47.2453 9.98452 49.7791 10.0442C51.2193 10.0776 52.2069 11.1413 52.2283 12.5954C52.2641 15.0762 52.2605 17.557 52.2331 20.0378C52.2176 21.456 51.1895 22.515 49.7577 22.6905C48.4235 22.8552 47.3954 22.1318 46.9737 20.7397C46.8367 20.2873 46.7521 19.8277 46.7783 19.2296C46.5413 19.4516 46.3888 19.5925 46.2387 19.7369C44.1552 21.7461 42.0741 23.7578 39.9882 25.7646C38.7577 26.9489 37.7308 27.0993 36.2275 26.3257C35.5246 25.9651 34.8051 25.6309 34.1285 25.225C33.7413 24.9934 33.5305 25.0745 33.2374 25.3718C29.1443 29.5216 25.0369 33.657 20.9378 37.802C20.2254 38.5219 19.4499 39.0233 18.3694 38.8597C16.2704 38.5422 15.2829 36.1223 16.5849 34.4413C16.7303 34.2539 16.8935 34.0796 17.0602 33.9113C21.6477 29.2744 26.2376 24.6388 30.8275 20.0043C32.1355 18.684 33.1231 18.5288 34.767 19.3776C35.5044 19.7584 36.2489 20.1261 36.9756 20.5237C37.2221 20.6586 37.3806 20.6621 37.5926 20.4568C39.252 18.8368 40.9222 17.2287 42.6673 15.5394L42.6685 15.5382ZM50.4629 16.387C50.4629 16.387 50.4617 16.387 50.4605 16.387C50.4605 15.1765 50.47 13.9659 50.4569 12.7554C50.4498 12.0892 50.1734 11.8063 49.5123 11.8039C47.1762 11.7932 44.839 11.7932 42.503 11.8039C41.8525 11.8063 41.4356 12.1979 41.4284 12.7518C41.4213 13.3356 41.8382 13.7081 42.5399 13.7176C43.2523 13.7284 43.9658 13.7248 44.6782 13.7176C45.1475 13.7129 45.5406 13.8275 45.7324 14.3122C45.9183 14.7813 45.686 15.1084 45.3703 15.4129C43.0021 17.6967 40.6303 19.9793 38.2704 22.2714C37.8392 22.6905 37.4032 22.7609 36.8767 22.4815C35.8987 21.9634 34.9123 21.4608 33.9283 20.9534C32.9599 20.4544 32.8788 20.4676 32.1355 21.2173C27.5456 25.8505 22.9557 30.485 18.3682 35.1206C18.2158 35.2746 18.0609 35.4334 17.943 35.6137C17.6487 36.0662 17.7333 36.5079 18.1169 36.8445C18.5005 37.1812 18.9424 37.2015 19.3522 36.8469C19.5166 36.7049 19.6667 36.5461 19.8204 36.3909C24.0338 32.1373 28.2461 27.8836 32.4595 23.63C33.2207 22.8612 33.3696 22.8373 34.3083 23.322C35.2042 23.784 36.1 24.246 36.9958 24.708C37.869 25.1581 38.0655 25.133 38.7696 24.455C41.4678 21.856 44.1636 19.2546 46.8594 16.6533C47.1727 16.35 47.5014 16.116 47.9672 16.3059C48.4497 16.5028 48.5557 16.8992 48.5497 17.3684C48.5414 18.0823 48.5474 18.7974 48.5474 19.5113C48.5474 20.4652 48.8714 20.9343 49.5182 20.9236C50.1591 20.9117 50.4605 20.452 50.4605 19.4826C50.4605 18.4512 50.4605 17.4185 50.4605 16.387H50.4629Z" fill="#6D28F9"/>
<path d="M18.5794 59.3446C19.1607 59.0032 19.2846 58.5316 19.1024 57.8834C18.7748 56.723 18.4686 55.5518 18.2328 54.3699C17.873 52.5673 18.832 50.7765 20.57 50.1879C22.5701 49.5099 24.6179 48.975 26.6454 48.3781C27.0432 48.2611 27.4518 48.1728 27.8378 48.0259C28.25 47.8683 28.437 47.9507 28.6002 48.3948C30.1643 52.6472 31.7558 56.8889 33.3402 61.133C33.5129 61.5962 33.6856 62.0606 33.8596 62.5226C34.7602 64.9174 33.4426 67.3493 30.9362 67.9116C29.1053 68.3222 27.2803 68.7675 25.4374 69.1233C23.7054 69.4576 22.0066 68.4655 21.4587 66.7715C20.9845 65.3054 20.6474 63.794 20.246 62.3041C20.0339 61.5186 19.7742 61.3276 18.988 61.3634C18.9308 60.6746 18.5973 60.0418 18.5794 59.3446ZM27.0635 66.9816C28.9933 66.9959 30.5884 65.426 30.6075 63.4944C30.6253 61.5843 29.035 59.9654 27.1123 59.938C25.2087 59.9105 23.5898 61.5198 23.5815 63.4466C23.5731 65.3962 25.1206 66.9672 27.0647 66.9816H27.0635Z" fill="#EEE9FF"/>
<path d="M48.6998 49.9898C50.3032 49.9802 51.6946 50.0638 53.0717 49.8752C54.9253 49.6209 56.6025 48.9093 58.1297 47.8218C60.436 46.1802 62.7506 44.5519 65.0723 42.9318C66.4244 41.9887 67.9087 42.2609 68.7914 43.5849C69.5193 44.676 69.2215 46.0274 67.9933 47.0434C64.9556 49.5564 61.9048 52.0551 58.8635 54.5645C57.683 55.5387 56.3488 56.1989 54.8705 56.5702C53.5672 56.8973 52.2616 57.2101 50.9572 57.53C45.9885 58.7477 41.0186 59.9571 36.0559 61.1939C35.527 61.3252 35.309 61.281 35.0981 60.7032C33.5233 56.3959 31.9044 52.104 30.2771 47.8158C30.1032 47.3562 30.1568 47.1592 30.6142 46.9192C35.3518 44.4241 40.0728 41.898 44.7984 39.3802C45.238 39.1462 45.6788 38.9098 46.1994 38.9886C47.2548 39.1474 47.8993 40.1263 47.6658 41.1745C47.2822 42.9032 46.4245 44.325 45.0164 45.4114C44.5161 45.7982 44.0265 46.2053 43.5738 46.6458C43.0068 47.1986 42.9091 47.9089 43.1569 48.6252C43.413 49.3678 43.9467 49.8561 44.7639 49.9313C46.1469 50.0578 47.5347 49.9444 48.7022 49.9886L48.6998 49.9898Z" fill="#FDFDFD"/>
<path d="M44.7832 48.0758C44.8225 47.7774 45.0822 47.6711 45.2752 47.5171C46.582 46.482 47.8698 45.4351 48.6119 43.8735C49.0146 43.0271 49.3267 42.1532 49.472 41.2316C49.8675 38.7317 47.5577 36.6819 45.0548 37.3266C44.6105 37.4412 44.5617 37.3457 44.564 36.9505C44.576 34.4721 44.5569 31.9925 44.5748 29.5129C44.5867 27.943 45.5004 27.0632 47.068 27.0524C47.5231 27.0489 47.9794 27.0369 48.4332 27.0584C49.6245 27.1145 50.4667 27.8929 50.6275 29.0784C50.6573 29.2933 50.6644 29.5129 50.6644 29.7302C50.6644 35.6803 50.6549 41.6291 50.6692 47.5792C50.6692 48.0734 50.537 48.2119 50.045 48.2012C48.5214 48.1677 46.9978 48.188 45.4742 48.1821C45.2431 48.1821 45.0012 48.2274 44.7832 48.0758Z" fill="#EEE9FF"/>
<path d="M33.3184 39.5033C33.3184 38.4718 33.3089 37.4404 33.3208 36.4089C33.3363 35.1351 34.0475 34.4367 35.3209 34.4259C36.0333 34.42 36.7456 34.4164 37.458 34.4283C38.5742 34.4462 39.3306 35.1518 39.3664 36.274C39.4045 37.4833 39.3676 38.6939 39.3854 39.9032C39.389 40.173 39.2616 40.2817 39.0555 40.3915C37.2734 41.3346 35.4924 42.2766 33.7199 43.2376C33.3291 43.4501 33.3113 43.2818 33.3136 42.9547C33.3232 41.8038 33.3172 40.6542 33.3172 39.5033H33.3184Z" fill="#EEE9FF"/>
<path d="M50.463 16.3872C50.463 17.4186 50.463 18.4513 50.463 19.4828C50.463 20.4522 50.1616 20.9118 49.5207 20.9237C48.8739 20.9357 48.5498 20.4653 48.5498 19.5114C48.5498 18.7975 48.5439 18.0824 48.5522 17.3685C48.5582 16.8981 48.451 16.5018 47.9697 16.306C47.5039 16.1162 47.1751 16.3501 46.8618 16.6534C44.166 19.2547 41.4702 21.8561 38.7721 24.4551C38.068 25.1332 37.8715 25.1582 36.9983 24.7082C36.1025 24.2461 35.2066 23.7841 34.3108 23.3221C33.3709 22.8374 33.2232 22.8613 32.462 23.6301C28.2486 27.8837 24.0363 32.1374 19.8228 36.391C19.6692 36.5462 19.5191 36.705 19.3547 36.847C18.9461 37.2016 18.5029 37.1813 18.1194 36.8446C17.7358 36.508 17.6512 36.0663 17.9454 35.6138C18.0634 35.4335 18.2182 35.2748 18.3707 35.1208C22.9582 30.4851 27.5481 25.8518 32.138 21.2174C32.8813 20.4677 32.9611 20.4545 33.9308 20.9536C34.9148 21.4609 35.9011 21.9635 36.8792 22.4817C37.4057 22.761 37.8417 22.6906 38.2729 22.2715C40.6328 19.9794 43.0046 17.6968 45.3728 15.413C45.6885 15.1086 45.9207 14.7815 45.7349 14.3123C45.5431 13.8276 45.1512 13.713 44.6807 13.7177C43.9683 13.7249 43.2547 13.7273 42.5424 13.7177C41.8407 13.707 41.4226 13.3345 41.4309 12.7519C41.4381 12.1968 41.855 11.8064 42.5054 11.804C44.8415 11.7945 47.1787 11.7945 49.5147 11.804C50.1759 11.8076 50.4523 12.0906 50.4594 12.7555C50.4737 13.9661 50.463 15.1766 50.463 16.3872C50.463 16.3872 50.4642 16.3872 50.4654 16.3872H50.463Z" fill="#FFD701"/>
<path d="M27.0633 66.9814C25.1192 66.9671 23.5718 65.396 23.5801 63.4465C23.5885 61.5196 25.2074 59.9116 27.111 59.9378C29.0337 59.9653 30.6252 61.5829 30.6061 63.4942C30.587 65.4259 28.992 66.9969 27.0621 66.9814H27.0633ZM27.08 65.1692C28.0199 65.1716 28.7859 64.4254 28.8014 63.4919C28.8168 62.5511 28.0068 61.7381 27.0681 61.7512C26.1377 61.7656 25.3837 62.5368 25.386 63.4739C25.3884 64.4147 26.1389 65.1656 27.08 65.168V65.1692Z" fill="#6D28F9"/>
<path d="M27.0802 65.1694C26.1391 65.167 25.3886 64.4161 25.3862 63.4753C25.3839 62.5382 26.1379 61.7658 27.0683 61.7526C28.007 61.7383 28.817 62.5513 28.8015 63.4932C28.7861 64.4268 28.0201 65.173 27.0802 65.1706V65.1694Z" fill="#FDFDFD"/>
</g>
<defs>
<clipPath id="clip0_5284_7348">
<rect width="55" height="61" fill="white" transform="translate(16 10)"/>
</clipPath>
</defs>
</svg>
